%TF.GenerationSoftware,KiCad,Pcbnew,7.0.2-0*%
%TF.CreationDate,2023-06-05T11:27:31+02:00*%
%TF.ProjectId,Quest_EMG,51756573-745f-4454-9d47-2e6b69636164,rev?*%
%TF.SameCoordinates,Original*%
%TF.FileFunction,Legend,Bot*%
%TF.FilePolarity,Positive*%
%FSLAX46Y46*%
G04 Gerber Fmt 4.6, Leading zero omitted, Abs format (unit mm)*
G04 Created by KiCad (PCBNEW 7.0.2-0) date 2023-06-05 11:27:31*
%MOMM*%
%LPD*%
G01*
G04 APERTURE LIST*
%ADD10C,0.150000*%
%ADD11R,1.700000X1.700000*%
%ADD12O,1.700000X1.700000*%
%ADD13O,3.500000X3.500000*%
%ADD14R,1.905000X2.000000*%
%ADD15O,1.905000X2.000000*%
%ADD16C,1.700000*%
%ADD17R,0.850000X0.850000*%
%ADD18O,0.850000X0.850000*%
G04 APERTURE END LIST*
D10*
X109079904Y-32851809D02*
X108746571Y-32851809D01*
X108603714Y-33375619D02*
X109079904Y-33375619D01*
X109079904Y-33375619D02*
X109079904Y-32375619D01*
X109079904Y-32375619D02*
X108603714Y-32375619D01*
X108175142Y-33375619D02*
X108175142Y-32375619D01*
X108175142Y-32375619D02*
X107841809Y-33089904D01*
X107841809Y-33089904D02*
X107508476Y-32375619D01*
X107508476Y-32375619D02*
X107508476Y-33375619D01*
X106508476Y-32423238D02*
X106603714Y-32375619D01*
X106603714Y-32375619D02*
X106746571Y-32375619D01*
X106746571Y-32375619D02*
X106889428Y-32423238D01*
X106889428Y-32423238D02*
X106984666Y-32518476D01*
X106984666Y-32518476D02*
X107032285Y-32613714D01*
X107032285Y-32613714D02*
X107079904Y-32804190D01*
X107079904Y-32804190D02*
X107079904Y-32947047D01*
X107079904Y-32947047D02*
X107032285Y-33137523D01*
X107032285Y-33137523D02*
X106984666Y-33232761D01*
X106984666Y-33232761D02*
X106889428Y-33328000D01*
X106889428Y-33328000D02*
X106746571Y-33375619D01*
X106746571Y-33375619D02*
X106651333Y-33375619D01*
X106651333Y-33375619D02*
X106508476Y-33328000D01*
X106508476Y-33328000D02*
X106460857Y-33280380D01*
X106460857Y-33280380D02*
X106460857Y-32947047D01*
X106460857Y-32947047D02*
X106651333Y-32947047D01*
X104937047Y-32851809D02*
X105270380Y-32851809D01*
X105270380Y-33375619D02*
X105270380Y-32375619D01*
X105270380Y-32375619D02*
X104794190Y-32375619D01*
X104413237Y-32851809D02*
X104079904Y-32851809D01*
X103937047Y-33375619D02*
X104413237Y-33375619D01*
X104413237Y-33375619D02*
X104413237Y-32375619D01*
X104413237Y-32375619D02*
X103937047Y-32375619D01*
X103508475Y-32851809D02*
X103175142Y-32851809D01*
X103032285Y-33375619D02*
X103508475Y-33375619D01*
X103508475Y-33375619D02*
X103508475Y-32375619D01*
X103508475Y-32375619D02*
X103032285Y-32375619D01*
X102603713Y-33375619D02*
X102603713Y-32375619D01*
X102603713Y-32375619D02*
X102365618Y-32375619D01*
X102365618Y-32375619D02*
X102222761Y-32423238D01*
X102222761Y-32423238D02*
X102127523Y-32518476D01*
X102127523Y-32518476D02*
X102079904Y-32613714D01*
X102079904Y-32613714D02*
X102032285Y-32804190D01*
X102032285Y-32804190D02*
X102032285Y-32947047D01*
X102032285Y-32947047D02*
X102079904Y-33137523D01*
X102079904Y-33137523D02*
X102127523Y-33232761D01*
X102127523Y-33232761D02*
X102222761Y-33328000D01*
X102222761Y-33328000D02*
X102365618Y-33375619D01*
X102365618Y-33375619D02*
X102603713Y-33375619D01*
X101270380Y-32851809D02*
X101127523Y-32899428D01*
X101127523Y-32899428D02*
X101079904Y-32947047D01*
X101079904Y-32947047D02*
X101032285Y-33042285D01*
X101032285Y-33042285D02*
X101032285Y-33185142D01*
X101032285Y-33185142D02*
X101079904Y-33280380D01*
X101079904Y-33280380D02*
X101127523Y-33328000D01*
X101127523Y-33328000D02*
X101222761Y-33375619D01*
X101222761Y-33375619D02*
X101603713Y-33375619D01*
X101603713Y-33375619D02*
X101603713Y-32375619D01*
X101603713Y-32375619D02*
X101270380Y-32375619D01*
X101270380Y-32375619D02*
X101175142Y-32423238D01*
X101175142Y-32423238D02*
X101127523Y-32470857D01*
X101127523Y-32470857D02*
X101079904Y-32566095D01*
X101079904Y-32566095D02*
X101079904Y-32661333D01*
X101079904Y-32661333D02*
X101127523Y-32756571D01*
X101127523Y-32756571D02*
X101175142Y-32804190D01*
X101175142Y-32804190D02*
X101270380Y-32851809D01*
X101270380Y-32851809D02*
X101603713Y-32851809D01*
X100651332Y-33089904D02*
X100175142Y-33089904D01*
X100746570Y-33375619D02*
X100413237Y-32375619D01*
X100413237Y-32375619D02*
X100079904Y-33375619D01*
X99175142Y-33280380D02*
X99222761Y-33328000D01*
X99222761Y-33328000D02*
X99365618Y-33375619D01*
X99365618Y-33375619D02*
X99460856Y-33375619D01*
X99460856Y-33375619D02*
X99603713Y-33328000D01*
X99603713Y-33328000D02*
X99698951Y-33232761D01*
X99698951Y-33232761D02*
X99746570Y-33137523D01*
X99746570Y-33137523D02*
X99794189Y-32947047D01*
X99794189Y-32947047D02*
X99794189Y-32804190D01*
X99794189Y-32804190D02*
X99746570Y-32613714D01*
X99746570Y-32613714D02*
X99698951Y-32518476D01*
X99698951Y-32518476D02*
X99603713Y-32423238D01*
X99603713Y-32423238D02*
X99460856Y-32375619D01*
X99460856Y-32375619D02*
X99365618Y-32375619D01*
X99365618Y-32375619D02*
X99222761Y-32423238D01*
X99222761Y-32423238D02*
X99175142Y-32470857D01*
X98746570Y-33375619D02*
X98746570Y-32375619D01*
X98175142Y-33375619D02*
X98603713Y-32804190D01*
X98175142Y-32375619D02*
X98746570Y-32947047D01*
X97127522Y-32375619D02*
X96556094Y-32375619D01*
X96841808Y-33375619D02*
X96841808Y-32375619D01*
X96032284Y-32375619D02*
X95841808Y-32375619D01*
X95841808Y-32375619D02*
X95746570Y-32423238D01*
X95746570Y-32423238D02*
X95651332Y-32518476D01*
X95651332Y-32518476D02*
X95603713Y-32708952D01*
X95603713Y-32708952D02*
X95603713Y-33042285D01*
X95603713Y-33042285D02*
X95651332Y-33232761D01*
X95651332Y-33232761D02*
X95746570Y-33328000D01*
X95746570Y-33328000D02*
X95841808Y-33375619D01*
X95841808Y-33375619D02*
X96032284Y-33375619D01*
X96032284Y-33375619D02*
X96127522Y-33328000D01*
X96127522Y-33328000D02*
X96222760Y-33232761D01*
X96222760Y-33232761D02*
X96270379Y-33042285D01*
X96270379Y-33042285D02*
X96270379Y-32708952D01*
X96270379Y-32708952D02*
X96222760Y-32518476D01*
X96222760Y-32518476D02*
X96127522Y-32423238D01*
X96127522Y-32423238D02*
X96032284Y-32375619D01*
X94984665Y-32375619D02*
X94794189Y-32375619D01*
X94794189Y-32375619D02*
X94698951Y-32423238D01*
X94698951Y-32423238D02*
X94603713Y-32518476D01*
X94603713Y-32518476D02*
X94556094Y-32708952D01*
X94556094Y-32708952D02*
X94556094Y-33042285D01*
X94556094Y-33042285D02*
X94603713Y-33232761D01*
X94603713Y-33232761D02*
X94698951Y-33328000D01*
X94698951Y-33328000D02*
X94794189Y-33375619D01*
X94794189Y-33375619D02*
X94984665Y-33375619D01*
X94984665Y-33375619D02*
X95079903Y-33328000D01*
X95079903Y-33328000D02*
X95175141Y-33232761D01*
X95175141Y-33232761D02*
X95222760Y-33042285D01*
X95222760Y-33042285D02*
X95222760Y-32708952D01*
X95222760Y-32708952D02*
X95175141Y-32518476D01*
X95175141Y-32518476D02*
X95079903Y-32423238D01*
X95079903Y-32423238D02*
X94984665Y-32375619D01*
X93651332Y-33375619D02*
X94127522Y-33375619D01*
X94127522Y-33375619D02*
X94127522Y-32375619D01*
X108744285Y-35786428D02*
X108772857Y-35815000D01*
X108772857Y-35815000D02*
X108858571Y-35843571D01*
X108858571Y-35843571D02*
X108915714Y-35843571D01*
X108915714Y-35843571D02*
X109001428Y-35815000D01*
X109001428Y-35815000D02*
X109058571Y-35757857D01*
X109058571Y-35757857D02*
X109087142Y-35700714D01*
X109087142Y-35700714D02*
X109115714Y-35586428D01*
X109115714Y-35586428D02*
X109115714Y-35500714D01*
X109115714Y-35500714D02*
X109087142Y-35386428D01*
X109087142Y-35386428D02*
X109058571Y-35329285D01*
X109058571Y-35329285D02*
X109001428Y-35272142D01*
X109001428Y-35272142D02*
X108915714Y-35243571D01*
X108915714Y-35243571D02*
X108858571Y-35243571D01*
X108858571Y-35243571D02*
X108772857Y-35272142D01*
X108772857Y-35272142D02*
X108744285Y-35300714D01*
X108401428Y-35843571D02*
X108458571Y-35815000D01*
X108458571Y-35815000D02*
X108487142Y-35786428D01*
X108487142Y-35786428D02*
X108515714Y-35729285D01*
X108515714Y-35729285D02*
X108515714Y-35557857D01*
X108515714Y-35557857D02*
X108487142Y-35500714D01*
X108487142Y-35500714D02*
X108458571Y-35472142D01*
X108458571Y-35472142D02*
X108401428Y-35443571D01*
X108401428Y-35443571D02*
X108315714Y-35443571D01*
X108315714Y-35443571D02*
X108258571Y-35472142D01*
X108258571Y-35472142D02*
X108230000Y-35500714D01*
X108230000Y-35500714D02*
X108201428Y-35557857D01*
X108201428Y-35557857D02*
X108201428Y-35729285D01*
X108201428Y-35729285D02*
X108230000Y-35786428D01*
X108230000Y-35786428D02*
X108258571Y-35815000D01*
X108258571Y-35815000D02*
X108315714Y-35843571D01*
X108315714Y-35843571D02*
X108401428Y-35843571D01*
X107944285Y-35843571D02*
X107944285Y-35443571D01*
X107944285Y-35500714D02*
X107915714Y-35472142D01*
X107915714Y-35472142D02*
X107858571Y-35443571D01*
X107858571Y-35443571D02*
X107772857Y-35443571D01*
X107772857Y-35443571D02*
X107715714Y-35472142D01*
X107715714Y-35472142D02*
X107687143Y-35529285D01*
X107687143Y-35529285D02*
X107687143Y-35843571D01*
X107687143Y-35529285D02*
X107658571Y-35472142D01*
X107658571Y-35472142D02*
X107601428Y-35443571D01*
X107601428Y-35443571D02*
X107515714Y-35443571D01*
X107515714Y-35443571D02*
X107458571Y-35472142D01*
X107458571Y-35472142D02*
X107430000Y-35529285D01*
X107430000Y-35529285D02*
X107430000Y-35843571D01*
X107144285Y-35443571D02*
X107144285Y-36043571D01*
X107144285Y-35472142D02*
X107087143Y-35443571D01*
X107087143Y-35443571D02*
X106972857Y-35443571D01*
X106972857Y-35443571D02*
X106915714Y-35472142D01*
X106915714Y-35472142D02*
X106887143Y-35500714D01*
X106887143Y-35500714D02*
X106858571Y-35557857D01*
X106858571Y-35557857D02*
X106858571Y-35729285D01*
X106858571Y-35729285D02*
X106887143Y-35786428D01*
X106887143Y-35786428D02*
X106915714Y-35815000D01*
X106915714Y-35815000D02*
X106972857Y-35843571D01*
X106972857Y-35843571D02*
X107087143Y-35843571D01*
X107087143Y-35843571D02*
X107144285Y-35815000D01*
X106344286Y-35843571D02*
X106344286Y-35529285D01*
X106344286Y-35529285D02*
X106372857Y-35472142D01*
X106372857Y-35472142D02*
X106430000Y-35443571D01*
X106430000Y-35443571D02*
X106544286Y-35443571D01*
X106544286Y-35443571D02*
X106601428Y-35472142D01*
X106344286Y-35815000D02*
X106401428Y-35843571D01*
X106401428Y-35843571D02*
X106544286Y-35843571D01*
X106544286Y-35843571D02*
X106601428Y-35815000D01*
X106601428Y-35815000D02*
X106630000Y-35757857D01*
X106630000Y-35757857D02*
X106630000Y-35700714D01*
X106630000Y-35700714D02*
X106601428Y-35643571D01*
X106601428Y-35643571D02*
X106544286Y-35615000D01*
X106544286Y-35615000D02*
X106401428Y-35615000D01*
X106401428Y-35615000D02*
X106344286Y-35586428D01*
X106058571Y-35443571D02*
X106058571Y-35843571D01*
X106058571Y-35500714D02*
X106030000Y-35472142D01*
X106030000Y-35472142D02*
X105972857Y-35443571D01*
X105972857Y-35443571D02*
X105887143Y-35443571D01*
X105887143Y-35443571D02*
X105830000Y-35472142D01*
X105830000Y-35472142D02*
X105801429Y-35529285D01*
X105801429Y-35529285D02*
X105801429Y-35843571D01*
X105572857Y-35443571D02*
X105430000Y-35843571D01*
X105287143Y-35443571D02*
X105430000Y-35843571D01*
X105430000Y-35843571D02*
X105487143Y-35986428D01*
X105487143Y-35986428D02*
X105515714Y-36015000D01*
X105515714Y-36015000D02*
X105572857Y-36043571D01*
X105058571Y-35786428D02*
X105030000Y-35815000D01*
X105030000Y-35815000D02*
X105058571Y-35843571D01*
X105058571Y-35843571D02*
X105087143Y-35815000D01*
X105087143Y-35815000D02*
X105058571Y-35786428D01*
X105058571Y-35786428D02*
X105058571Y-35843571D01*
X105058571Y-35472142D02*
X105030000Y-35500714D01*
X105030000Y-35500714D02*
X105058571Y-35529285D01*
X105058571Y-35529285D02*
X105087143Y-35500714D01*
X105087143Y-35500714D02*
X105058571Y-35472142D01*
X105058571Y-35472142D02*
X105058571Y-35529285D01*
X104315714Y-35843571D02*
X104315714Y-35243571D01*
X104315714Y-35529285D02*
X103972857Y-35529285D01*
X103972857Y-35843571D02*
X103972857Y-35243571D01*
X103601429Y-35843571D02*
X103658572Y-35815000D01*
X103658572Y-35815000D02*
X103687143Y-35786428D01*
X103687143Y-35786428D02*
X103715715Y-35729285D01*
X103715715Y-35729285D02*
X103715715Y-35557857D01*
X103715715Y-35557857D02*
X103687143Y-35500714D01*
X103687143Y-35500714D02*
X103658572Y-35472142D01*
X103658572Y-35472142D02*
X103601429Y-35443571D01*
X103601429Y-35443571D02*
X103515715Y-35443571D01*
X103515715Y-35443571D02*
X103458572Y-35472142D01*
X103458572Y-35472142D02*
X103430001Y-35500714D01*
X103430001Y-35500714D02*
X103401429Y-35557857D01*
X103401429Y-35557857D02*
X103401429Y-35729285D01*
X103401429Y-35729285D02*
X103430001Y-35786428D01*
X103430001Y-35786428D02*
X103458572Y-35815000D01*
X103458572Y-35815000D02*
X103515715Y-35843571D01*
X103515715Y-35843571D02*
X103601429Y-35843571D01*
X102887144Y-35443571D02*
X102887144Y-35929285D01*
X102887144Y-35929285D02*
X102915715Y-35986428D01*
X102915715Y-35986428D02*
X102944286Y-36015000D01*
X102944286Y-36015000D02*
X103001429Y-36043571D01*
X103001429Y-36043571D02*
X103087144Y-36043571D01*
X103087144Y-36043571D02*
X103144286Y-36015000D01*
X102887144Y-35815000D02*
X102944286Y-35843571D01*
X102944286Y-35843571D02*
X103058572Y-35843571D01*
X103058572Y-35843571D02*
X103115715Y-35815000D01*
X103115715Y-35815000D02*
X103144286Y-35786428D01*
X103144286Y-35786428D02*
X103172858Y-35729285D01*
X103172858Y-35729285D02*
X103172858Y-35557857D01*
X103172858Y-35557857D02*
X103144286Y-35500714D01*
X103144286Y-35500714D02*
X103115715Y-35472142D01*
X103115715Y-35472142D02*
X103058572Y-35443571D01*
X103058572Y-35443571D02*
X102944286Y-35443571D01*
X102944286Y-35443571D02*
X102887144Y-35472142D01*
X102372858Y-35815000D02*
X102430001Y-35843571D01*
X102430001Y-35843571D02*
X102544287Y-35843571D01*
X102544287Y-35843571D02*
X102601429Y-35815000D01*
X102601429Y-35815000D02*
X102630001Y-35757857D01*
X102630001Y-35757857D02*
X102630001Y-35529285D01*
X102630001Y-35529285D02*
X102601429Y-35472142D01*
X102601429Y-35472142D02*
X102544287Y-35443571D01*
X102544287Y-35443571D02*
X102430001Y-35443571D01*
X102430001Y-35443571D02*
X102372858Y-35472142D01*
X102372858Y-35472142D02*
X102344287Y-35529285D01*
X102344287Y-35529285D02*
X102344287Y-35586428D01*
X102344287Y-35586428D02*
X102630001Y-35643571D01*
X102115715Y-35815000D02*
X102058572Y-35843571D01*
X102058572Y-35843571D02*
X101944286Y-35843571D01*
X101944286Y-35843571D02*
X101887143Y-35815000D01*
X101887143Y-35815000D02*
X101858572Y-35757857D01*
X101858572Y-35757857D02*
X101858572Y-35729285D01*
X101858572Y-35729285D02*
X101887143Y-35672142D01*
X101887143Y-35672142D02*
X101944286Y-35643571D01*
X101944286Y-35643571D02*
X102030001Y-35643571D01*
X102030001Y-35643571D02*
X102087143Y-35615000D01*
X102087143Y-35615000D02*
X102115715Y-35557857D01*
X102115715Y-35557857D02*
X102115715Y-35529285D01*
X102115715Y-35529285D02*
X102087143Y-35472142D01*
X102087143Y-35472142D02*
X102030001Y-35443571D01*
X102030001Y-35443571D02*
X101944286Y-35443571D01*
X101944286Y-35443571D02*
X101887143Y-35472142D01*
X101344287Y-35815000D02*
X101401429Y-35843571D01*
X101401429Y-35843571D02*
X101515715Y-35843571D01*
X101515715Y-35843571D02*
X101572858Y-35815000D01*
X101572858Y-35815000D02*
X101601429Y-35786428D01*
X101601429Y-35786428D02*
X101630001Y-35729285D01*
X101630001Y-35729285D02*
X101630001Y-35557857D01*
X101630001Y-35557857D02*
X101601429Y-35500714D01*
X101601429Y-35500714D02*
X101572858Y-35472142D01*
X101572858Y-35472142D02*
X101515715Y-35443571D01*
X101515715Y-35443571D02*
X101401429Y-35443571D01*
X101401429Y-35443571D02*
X101344287Y-35472142D01*
X101087143Y-35843571D02*
X101087143Y-35243571D01*
X100830001Y-35843571D02*
X100830001Y-35529285D01*
X100830001Y-35529285D02*
X100858572Y-35472142D01*
X100858572Y-35472142D02*
X100915715Y-35443571D01*
X100915715Y-35443571D02*
X101001429Y-35443571D01*
X101001429Y-35443571D02*
X101058572Y-35472142D01*
X101058572Y-35472142D02*
X101087143Y-35500714D01*
X100458572Y-35843571D02*
X100515715Y-35815000D01*
X100515715Y-35815000D02*
X100544286Y-35786428D01*
X100544286Y-35786428D02*
X100572858Y-35729285D01*
X100572858Y-35729285D02*
X100572858Y-35557857D01*
X100572858Y-35557857D02*
X100544286Y-35500714D01*
X100544286Y-35500714D02*
X100515715Y-35472142D01*
X100515715Y-35472142D02*
X100458572Y-35443571D01*
X100458572Y-35443571D02*
X100372858Y-35443571D01*
X100372858Y-35443571D02*
X100315715Y-35472142D01*
X100315715Y-35472142D02*
X100287144Y-35500714D01*
X100287144Y-35500714D02*
X100258572Y-35557857D01*
X100258572Y-35557857D02*
X100258572Y-35729285D01*
X100258572Y-35729285D02*
X100287144Y-35786428D01*
X100287144Y-35786428D02*
X100315715Y-35815000D01*
X100315715Y-35815000D02*
X100372858Y-35843571D01*
X100372858Y-35843571D02*
X100458572Y-35843571D01*
X99915715Y-35843571D02*
X99972858Y-35815000D01*
X99972858Y-35815000D02*
X100001429Y-35786428D01*
X100001429Y-35786428D02*
X100030001Y-35729285D01*
X100030001Y-35729285D02*
X100030001Y-35557857D01*
X100030001Y-35557857D02*
X100001429Y-35500714D01*
X100001429Y-35500714D02*
X99972858Y-35472142D01*
X99972858Y-35472142D02*
X99915715Y-35443571D01*
X99915715Y-35443571D02*
X99830001Y-35443571D01*
X99830001Y-35443571D02*
X99772858Y-35472142D01*
X99772858Y-35472142D02*
X99744287Y-35500714D01*
X99744287Y-35500714D02*
X99715715Y-35557857D01*
X99715715Y-35557857D02*
X99715715Y-35729285D01*
X99715715Y-35729285D02*
X99744287Y-35786428D01*
X99744287Y-35786428D02*
X99772858Y-35815000D01*
X99772858Y-35815000D02*
X99830001Y-35843571D01*
X99830001Y-35843571D02*
X99915715Y-35843571D01*
X99372858Y-35843571D02*
X99430001Y-35815000D01*
X99430001Y-35815000D02*
X99458572Y-35757857D01*
X99458572Y-35757857D02*
X99458572Y-35243571D01*
X98687143Y-35243571D02*
X98687143Y-35729285D01*
X98687143Y-35729285D02*
X98658572Y-35786428D01*
X98658572Y-35786428D02*
X98630001Y-35815000D01*
X98630001Y-35815000D02*
X98572858Y-35843571D01*
X98572858Y-35843571D02*
X98458572Y-35843571D01*
X98458572Y-35843571D02*
X98401429Y-35815000D01*
X98401429Y-35815000D02*
X98372858Y-35786428D01*
X98372858Y-35786428D02*
X98344286Y-35729285D01*
X98344286Y-35729285D02*
X98344286Y-35243571D01*
X98144287Y-35443571D02*
X97915715Y-35443571D01*
X98058572Y-35243571D02*
X98058572Y-35757857D01*
X98058572Y-35757857D02*
X98030001Y-35815000D01*
X98030001Y-35815000D02*
X97972858Y-35843571D01*
X97972858Y-35843571D02*
X97915715Y-35843571D01*
X97715715Y-35843571D02*
X97715715Y-35443571D01*
X97715715Y-35557857D02*
X97687144Y-35500714D01*
X97687144Y-35500714D02*
X97658573Y-35472142D01*
X97658573Y-35472142D02*
X97601430Y-35443571D01*
X97601430Y-35443571D02*
X97544287Y-35443571D01*
X97115715Y-35815000D02*
X97172858Y-35843571D01*
X97172858Y-35843571D02*
X97287144Y-35843571D01*
X97287144Y-35843571D02*
X97344286Y-35815000D01*
X97344286Y-35815000D02*
X97372858Y-35757857D01*
X97372858Y-35757857D02*
X97372858Y-35529285D01*
X97372858Y-35529285D02*
X97344286Y-35472142D01*
X97344286Y-35472142D02*
X97287144Y-35443571D01*
X97287144Y-35443571D02*
X97172858Y-35443571D01*
X97172858Y-35443571D02*
X97115715Y-35472142D01*
X97115715Y-35472142D02*
X97087144Y-35529285D01*
X97087144Y-35529285D02*
X97087144Y-35586428D01*
X97087144Y-35586428D02*
X97372858Y-35643571D01*
X96572858Y-35815000D02*
X96630000Y-35843571D01*
X96630000Y-35843571D02*
X96744286Y-35843571D01*
X96744286Y-35843571D02*
X96801429Y-35815000D01*
X96801429Y-35815000D02*
X96830000Y-35786428D01*
X96830000Y-35786428D02*
X96858572Y-35729285D01*
X96858572Y-35729285D02*
X96858572Y-35557857D01*
X96858572Y-35557857D02*
X96830000Y-35500714D01*
X96830000Y-35500714D02*
X96801429Y-35472142D01*
X96801429Y-35472142D02*
X96744286Y-35443571D01*
X96744286Y-35443571D02*
X96630000Y-35443571D01*
X96630000Y-35443571D02*
X96572858Y-35472142D01*
X96315714Y-35843571D02*
X96315714Y-35243571D01*
X96058572Y-35843571D02*
X96058572Y-35529285D01*
X96058572Y-35529285D02*
X96087143Y-35472142D01*
X96087143Y-35472142D02*
X96144286Y-35443571D01*
X96144286Y-35443571D02*
X96230000Y-35443571D01*
X96230000Y-35443571D02*
X96287143Y-35472142D01*
X96287143Y-35472142D02*
X96315714Y-35500714D01*
X95858572Y-35443571D02*
X95630000Y-35443571D01*
X95772857Y-35243571D02*
X95772857Y-35757857D01*
X95772857Y-35757857D02*
X95744286Y-35815000D01*
X95744286Y-35815000D02*
X95687143Y-35843571D01*
X95687143Y-35843571D02*
X95630000Y-35843571D01*
X108972857Y-36215571D02*
X108858571Y-36215571D01*
X108858571Y-36215571D02*
X108801428Y-36244142D01*
X108801428Y-36244142D02*
X108744285Y-36301285D01*
X108744285Y-36301285D02*
X108715714Y-36415571D01*
X108715714Y-36415571D02*
X108715714Y-36615571D01*
X108715714Y-36615571D02*
X108744285Y-36729857D01*
X108744285Y-36729857D02*
X108801428Y-36787000D01*
X108801428Y-36787000D02*
X108858571Y-36815571D01*
X108858571Y-36815571D02*
X108972857Y-36815571D01*
X108972857Y-36815571D02*
X109030000Y-36787000D01*
X109030000Y-36787000D02*
X109087142Y-36729857D01*
X109087142Y-36729857D02*
X109115714Y-36615571D01*
X109115714Y-36615571D02*
X109115714Y-36415571D01*
X109115714Y-36415571D02*
X109087142Y-36301285D01*
X109087142Y-36301285D02*
X109030000Y-36244142D01*
X109030000Y-36244142D02*
X108972857Y-36215571D01*
X108515714Y-36415571D02*
X108401429Y-36815571D01*
X108401429Y-36815571D02*
X108287143Y-36529857D01*
X108287143Y-36529857D02*
X108172857Y-36815571D01*
X108172857Y-36815571D02*
X108058571Y-36415571D01*
X107830000Y-36415571D02*
X107830000Y-36815571D01*
X107830000Y-36472714D02*
X107801429Y-36444142D01*
X107801429Y-36444142D02*
X107744286Y-36415571D01*
X107744286Y-36415571D02*
X107658572Y-36415571D01*
X107658572Y-36415571D02*
X107601429Y-36444142D01*
X107601429Y-36444142D02*
X107572858Y-36501285D01*
X107572858Y-36501285D02*
X107572858Y-36815571D01*
X107058572Y-36787000D02*
X107115715Y-36815571D01*
X107115715Y-36815571D02*
X107230001Y-36815571D01*
X107230001Y-36815571D02*
X107287143Y-36787000D01*
X107287143Y-36787000D02*
X107315715Y-36729857D01*
X107315715Y-36729857D02*
X107315715Y-36501285D01*
X107315715Y-36501285D02*
X107287143Y-36444142D01*
X107287143Y-36444142D02*
X107230001Y-36415571D01*
X107230001Y-36415571D02*
X107115715Y-36415571D01*
X107115715Y-36415571D02*
X107058572Y-36444142D01*
X107058572Y-36444142D02*
X107030001Y-36501285D01*
X107030001Y-36501285D02*
X107030001Y-36558428D01*
X107030001Y-36558428D02*
X107315715Y-36615571D01*
X106772857Y-36815571D02*
X106772857Y-36415571D01*
X106772857Y-36529857D02*
X106744286Y-36472714D01*
X106744286Y-36472714D02*
X106715715Y-36444142D01*
X106715715Y-36444142D02*
X106658572Y-36415571D01*
X106658572Y-36415571D02*
X106601429Y-36415571D01*
X106401428Y-36758428D02*
X106372857Y-36787000D01*
X106372857Y-36787000D02*
X106401428Y-36815571D01*
X106401428Y-36815571D02*
X106430000Y-36787000D01*
X106430000Y-36787000D02*
X106401428Y-36758428D01*
X106401428Y-36758428D02*
X106401428Y-36815571D01*
X106401428Y-36444142D02*
X106372857Y-36472714D01*
X106372857Y-36472714D02*
X106401428Y-36501285D01*
X106401428Y-36501285D02*
X106430000Y-36472714D01*
X106430000Y-36472714D02*
X106401428Y-36444142D01*
X106401428Y-36444142D02*
X106401428Y-36501285D01*
X105487143Y-36215571D02*
X105487143Y-36644142D01*
X105487143Y-36644142D02*
X105515714Y-36729857D01*
X105515714Y-36729857D02*
X105572857Y-36787000D01*
X105572857Y-36787000D02*
X105658571Y-36815571D01*
X105658571Y-36815571D02*
X105715714Y-36815571D01*
X104944286Y-36815571D02*
X104944286Y-36501285D01*
X104944286Y-36501285D02*
X104972857Y-36444142D01*
X104972857Y-36444142D02*
X105030000Y-36415571D01*
X105030000Y-36415571D02*
X105144286Y-36415571D01*
X105144286Y-36415571D02*
X105201428Y-36444142D01*
X104944286Y-36787000D02*
X105001428Y-36815571D01*
X105001428Y-36815571D02*
X105144286Y-36815571D01*
X105144286Y-36815571D02*
X105201428Y-36787000D01*
X105201428Y-36787000D02*
X105230000Y-36729857D01*
X105230000Y-36729857D02*
X105230000Y-36672714D01*
X105230000Y-36672714D02*
X105201428Y-36615571D01*
X105201428Y-36615571D02*
X105144286Y-36587000D01*
X105144286Y-36587000D02*
X105001428Y-36587000D01*
X105001428Y-36587000D02*
X104944286Y-36558428D01*
X104401429Y-36815571D02*
X104401429Y-36501285D01*
X104401429Y-36501285D02*
X104430000Y-36444142D01*
X104430000Y-36444142D02*
X104487143Y-36415571D01*
X104487143Y-36415571D02*
X104601429Y-36415571D01*
X104601429Y-36415571D02*
X104658571Y-36444142D01*
X104401429Y-36787000D02*
X104458571Y-36815571D01*
X104458571Y-36815571D02*
X104601429Y-36815571D01*
X104601429Y-36815571D02*
X104658571Y-36787000D01*
X104658571Y-36787000D02*
X104687143Y-36729857D01*
X104687143Y-36729857D02*
X104687143Y-36672714D01*
X104687143Y-36672714D02*
X104658571Y-36615571D01*
X104658571Y-36615571D02*
X104601429Y-36587000D01*
X104601429Y-36587000D02*
X104458571Y-36587000D01*
X104458571Y-36587000D02*
X104401429Y-36558428D01*
X104115714Y-36415571D02*
X104115714Y-37015571D01*
X104115714Y-36444142D02*
X104058572Y-36415571D01*
X104058572Y-36415571D02*
X103944286Y-36415571D01*
X103944286Y-36415571D02*
X103887143Y-36444142D01*
X103887143Y-36444142D02*
X103858572Y-36472714D01*
X103858572Y-36472714D02*
X103830000Y-36529857D01*
X103830000Y-36529857D02*
X103830000Y-36701285D01*
X103830000Y-36701285D02*
X103858572Y-36758428D01*
X103858572Y-36758428D02*
X103887143Y-36787000D01*
X103887143Y-36787000D02*
X103944286Y-36815571D01*
X103944286Y-36815571D02*
X104058572Y-36815571D01*
X104058572Y-36815571D02*
X104115714Y-36787000D01*
X102944286Y-36215571D02*
X102944286Y-36644142D01*
X102944286Y-36644142D02*
X102972857Y-36729857D01*
X102972857Y-36729857D02*
X103030000Y-36787000D01*
X103030000Y-36787000D02*
X103115714Y-36815571D01*
X103115714Y-36815571D02*
X103172857Y-36815571D01*
X102401429Y-36815571D02*
X102401429Y-36501285D01*
X102401429Y-36501285D02*
X102430000Y-36444142D01*
X102430000Y-36444142D02*
X102487143Y-36415571D01*
X102487143Y-36415571D02*
X102601429Y-36415571D01*
X102601429Y-36415571D02*
X102658571Y-36444142D01*
X102401429Y-36787000D02*
X102458571Y-36815571D01*
X102458571Y-36815571D02*
X102601429Y-36815571D01*
X102601429Y-36815571D02*
X102658571Y-36787000D01*
X102658571Y-36787000D02*
X102687143Y-36729857D01*
X102687143Y-36729857D02*
X102687143Y-36672714D01*
X102687143Y-36672714D02*
X102658571Y-36615571D01*
X102658571Y-36615571D02*
X102601429Y-36587000D01*
X102601429Y-36587000D02*
X102458571Y-36587000D01*
X102458571Y-36587000D02*
X102401429Y-36558428D01*
X102115714Y-36415571D02*
X102115714Y-36815571D01*
X102115714Y-36472714D02*
X102087143Y-36444142D01*
X102087143Y-36444142D02*
X102030000Y-36415571D01*
X102030000Y-36415571D02*
X101944286Y-36415571D01*
X101944286Y-36415571D02*
X101887143Y-36444142D01*
X101887143Y-36444142D02*
X101858572Y-36501285D01*
X101858572Y-36501285D02*
X101858572Y-36815571D01*
X101601429Y-36787000D02*
X101544286Y-36815571D01*
X101544286Y-36815571D02*
X101430000Y-36815571D01*
X101430000Y-36815571D02*
X101372857Y-36787000D01*
X101372857Y-36787000D02*
X101344286Y-36729857D01*
X101344286Y-36729857D02*
X101344286Y-36701285D01*
X101344286Y-36701285D02*
X101372857Y-36644142D01*
X101372857Y-36644142D02*
X101430000Y-36615571D01*
X101430000Y-36615571D02*
X101515715Y-36615571D01*
X101515715Y-36615571D02*
X101572857Y-36587000D01*
X101572857Y-36587000D02*
X101601429Y-36529857D01*
X101601429Y-36529857D02*
X101601429Y-36501285D01*
X101601429Y-36501285D02*
X101572857Y-36444142D01*
X101572857Y-36444142D02*
X101515715Y-36415571D01*
X101515715Y-36415571D02*
X101430000Y-36415571D01*
X101430000Y-36415571D02*
X101372857Y-36444142D01*
X100858572Y-36787000D02*
X100915715Y-36815571D01*
X100915715Y-36815571D02*
X101030001Y-36815571D01*
X101030001Y-36815571D02*
X101087143Y-36787000D01*
X101087143Y-36787000D02*
X101115715Y-36729857D01*
X101115715Y-36729857D02*
X101115715Y-36501285D01*
X101115715Y-36501285D02*
X101087143Y-36444142D01*
X101087143Y-36444142D02*
X101030001Y-36415571D01*
X101030001Y-36415571D02*
X100915715Y-36415571D01*
X100915715Y-36415571D02*
X100858572Y-36444142D01*
X100858572Y-36444142D02*
X100830001Y-36501285D01*
X100830001Y-36501285D02*
X100830001Y-36558428D01*
X100830001Y-36558428D02*
X101115715Y-36615571D01*
X100572857Y-36415571D02*
X100572857Y-36815571D01*
X100572857Y-36472714D02*
X100544286Y-36444142D01*
X100544286Y-36444142D02*
X100487143Y-36415571D01*
X100487143Y-36415571D02*
X100401429Y-36415571D01*
X100401429Y-36415571D02*
X100344286Y-36444142D01*
X100344286Y-36444142D02*
X100315715Y-36501285D01*
X100315715Y-36501285D02*
X100315715Y-36815571D01*
X109087142Y-37787571D02*
X109087142Y-37187571D01*
X109087142Y-37187571D02*
X108944285Y-37187571D01*
X108944285Y-37187571D02*
X108858571Y-37216142D01*
X108858571Y-37216142D02*
X108801428Y-37273285D01*
X108801428Y-37273285D02*
X108772857Y-37330428D01*
X108772857Y-37330428D02*
X108744285Y-37444714D01*
X108744285Y-37444714D02*
X108744285Y-37530428D01*
X108744285Y-37530428D02*
X108772857Y-37644714D01*
X108772857Y-37644714D02*
X108801428Y-37701857D01*
X108801428Y-37701857D02*
X108858571Y-37759000D01*
X108858571Y-37759000D02*
X108944285Y-37787571D01*
X108944285Y-37787571D02*
X109087142Y-37787571D01*
X108258571Y-37759000D02*
X108315714Y-37787571D01*
X108315714Y-37787571D02*
X108430000Y-37787571D01*
X108430000Y-37787571D02*
X108487142Y-37759000D01*
X108487142Y-37759000D02*
X108515714Y-37701857D01*
X108515714Y-37701857D02*
X108515714Y-37473285D01*
X108515714Y-37473285D02*
X108487142Y-37416142D01*
X108487142Y-37416142D02*
X108430000Y-37387571D01*
X108430000Y-37387571D02*
X108315714Y-37387571D01*
X108315714Y-37387571D02*
X108258571Y-37416142D01*
X108258571Y-37416142D02*
X108230000Y-37473285D01*
X108230000Y-37473285D02*
X108230000Y-37530428D01*
X108230000Y-37530428D02*
X108515714Y-37587571D01*
X108001428Y-37759000D02*
X107944285Y-37787571D01*
X107944285Y-37787571D02*
X107829999Y-37787571D01*
X107829999Y-37787571D02*
X107772856Y-37759000D01*
X107772856Y-37759000D02*
X107744285Y-37701857D01*
X107744285Y-37701857D02*
X107744285Y-37673285D01*
X107744285Y-37673285D02*
X107772856Y-37616142D01*
X107772856Y-37616142D02*
X107829999Y-37587571D01*
X107829999Y-37587571D02*
X107915714Y-37587571D01*
X107915714Y-37587571D02*
X107972856Y-37559000D01*
X107972856Y-37559000D02*
X108001428Y-37501857D01*
X108001428Y-37501857D02*
X108001428Y-37473285D01*
X108001428Y-37473285D02*
X107972856Y-37416142D01*
X107972856Y-37416142D02*
X107915714Y-37387571D01*
X107915714Y-37387571D02*
X107829999Y-37387571D01*
X107829999Y-37387571D02*
X107772856Y-37416142D01*
X107487142Y-37787571D02*
X107487142Y-37387571D01*
X107487142Y-37187571D02*
X107515714Y-37216142D01*
X107515714Y-37216142D02*
X107487142Y-37244714D01*
X107487142Y-37244714D02*
X107458571Y-37216142D01*
X107458571Y-37216142D02*
X107487142Y-37187571D01*
X107487142Y-37187571D02*
X107487142Y-37244714D01*
X106944286Y-37387571D02*
X106944286Y-37873285D01*
X106944286Y-37873285D02*
X106972857Y-37930428D01*
X106972857Y-37930428D02*
X107001428Y-37959000D01*
X107001428Y-37959000D02*
X107058571Y-37987571D01*
X107058571Y-37987571D02*
X107144286Y-37987571D01*
X107144286Y-37987571D02*
X107201428Y-37959000D01*
X106944286Y-37759000D02*
X107001428Y-37787571D01*
X107001428Y-37787571D02*
X107115714Y-37787571D01*
X107115714Y-37787571D02*
X107172857Y-37759000D01*
X107172857Y-37759000D02*
X107201428Y-37730428D01*
X107201428Y-37730428D02*
X107230000Y-37673285D01*
X107230000Y-37673285D02*
X107230000Y-37501857D01*
X107230000Y-37501857D02*
X107201428Y-37444714D01*
X107201428Y-37444714D02*
X107172857Y-37416142D01*
X107172857Y-37416142D02*
X107115714Y-37387571D01*
X107115714Y-37387571D02*
X107001428Y-37387571D01*
X107001428Y-37387571D02*
X106944286Y-37416142D01*
X106658571Y-37387571D02*
X106658571Y-37787571D01*
X106658571Y-37444714D02*
X106630000Y-37416142D01*
X106630000Y-37416142D02*
X106572857Y-37387571D01*
X106572857Y-37387571D02*
X106487143Y-37387571D01*
X106487143Y-37387571D02*
X106430000Y-37416142D01*
X106430000Y-37416142D02*
X106401429Y-37473285D01*
X106401429Y-37473285D02*
X106401429Y-37787571D01*
X105887143Y-37759000D02*
X105944286Y-37787571D01*
X105944286Y-37787571D02*
X106058572Y-37787571D01*
X106058572Y-37787571D02*
X106115714Y-37759000D01*
X106115714Y-37759000D02*
X106144286Y-37701857D01*
X106144286Y-37701857D02*
X106144286Y-37473285D01*
X106144286Y-37473285D02*
X106115714Y-37416142D01*
X106115714Y-37416142D02*
X106058572Y-37387571D01*
X106058572Y-37387571D02*
X105944286Y-37387571D01*
X105944286Y-37387571D02*
X105887143Y-37416142D01*
X105887143Y-37416142D02*
X105858572Y-37473285D01*
X105858572Y-37473285D02*
X105858572Y-37530428D01*
X105858572Y-37530428D02*
X106144286Y-37587571D01*
X105601428Y-37787571D02*
X105601428Y-37387571D01*
X105601428Y-37501857D02*
X105572857Y-37444714D01*
X105572857Y-37444714D02*
X105544286Y-37416142D01*
X105544286Y-37416142D02*
X105487143Y-37387571D01*
X105487143Y-37387571D02*
X105430000Y-37387571D01*
X105058571Y-38016142D02*
X105087142Y-37987571D01*
X105087142Y-37987571D02*
X105144285Y-37901857D01*
X105144285Y-37901857D02*
X105172857Y-37844714D01*
X105172857Y-37844714D02*
X105201428Y-37759000D01*
X105201428Y-37759000D02*
X105229999Y-37616142D01*
X105229999Y-37616142D02*
X105229999Y-37501857D01*
X105229999Y-37501857D02*
X105201428Y-37359000D01*
X105201428Y-37359000D02*
X105172857Y-37273285D01*
X105172857Y-37273285D02*
X105144285Y-37216142D01*
X105144285Y-37216142D02*
X105087142Y-37130428D01*
X105087142Y-37130428D02*
X105058571Y-37101857D01*
X104858571Y-37759000D02*
X104801428Y-37787571D01*
X104801428Y-37787571D02*
X104687142Y-37787571D01*
X104687142Y-37787571D02*
X104629999Y-37759000D01*
X104629999Y-37759000D02*
X104601428Y-37701857D01*
X104601428Y-37701857D02*
X104601428Y-37673285D01*
X104601428Y-37673285D02*
X104629999Y-37616142D01*
X104629999Y-37616142D02*
X104687142Y-37587571D01*
X104687142Y-37587571D02*
X104772857Y-37587571D01*
X104772857Y-37587571D02*
X104829999Y-37559000D01*
X104829999Y-37559000D02*
X104858571Y-37501857D01*
X104858571Y-37501857D02*
X104858571Y-37473285D01*
X104858571Y-37473285D02*
X104829999Y-37416142D01*
X104829999Y-37416142D02*
X104772857Y-37387571D01*
X104772857Y-37387571D02*
X104687142Y-37387571D01*
X104687142Y-37387571D02*
X104629999Y-37416142D01*
X104401428Y-38016142D02*
X104372857Y-37987571D01*
X104372857Y-37987571D02*
X104315714Y-37901857D01*
X104315714Y-37901857D02*
X104287143Y-37844714D01*
X104287143Y-37844714D02*
X104258571Y-37759000D01*
X104258571Y-37759000D02*
X104230000Y-37616142D01*
X104230000Y-37616142D02*
X104230000Y-37501857D01*
X104230000Y-37501857D02*
X104258571Y-37359000D01*
X104258571Y-37359000D02*
X104287143Y-37273285D01*
X104287143Y-37273285D02*
X104315714Y-37216142D01*
X104315714Y-37216142D02*
X104372857Y-37130428D01*
X104372857Y-37130428D02*
X104401428Y-37101857D01*
X103944285Y-37730428D02*
X103915714Y-37759000D01*
X103915714Y-37759000D02*
X103944285Y-37787571D01*
X103944285Y-37787571D02*
X103972857Y-37759000D01*
X103972857Y-37759000D02*
X103944285Y-37730428D01*
X103944285Y-37730428D02*
X103944285Y-37787571D01*
X103944285Y-37416142D02*
X103915714Y-37444714D01*
X103915714Y-37444714D02*
X103944285Y-37473285D01*
X103944285Y-37473285D02*
X103972857Y-37444714D01*
X103972857Y-37444714D02*
X103944285Y-37416142D01*
X103944285Y-37416142D02*
X103944285Y-37473285D01*
X103030000Y-37187571D02*
X103030000Y-37616142D01*
X103030000Y-37616142D02*
X103058571Y-37701857D01*
X103058571Y-37701857D02*
X103115714Y-37759000D01*
X103115714Y-37759000D02*
X103201428Y-37787571D01*
X103201428Y-37787571D02*
X103258571Y-37787571D01*
X102658571Y-37787571D02*
X102715714Y-37759000D01*
X102715714Y-37759000D02*
X102744285Y-37730428D01*
X102744285Y-37730428D02*
X102772857Y-37673285D01*
X102772857Y-37673285D02*
X102772857Y-37501857D01*
X102772857Y-37501857D02*
X102744285Y-37444714D01*
X102744285Y-37444714D02*
X102715714Y-37416142D01*
X102715714Y-37416142D02*
X102658571Y-37387571D01*
X102658571Y-37387571D02*
X102572857Y-37387571D01*
X102572857Y-37387571D02*
X102515714Y-37416142D01*
X102515714Y-37416142D02*
X102487143Y-37444714D01*
X102487143Y-37444714D02*
X102458571Y-37501857D01*
X102458571Y-37501857D02*
X102458571Y-37673285D01*
X102458571Y-37673285D02*
X102487143Y-37730428D01*
X102487143Y-37730428D02*
X102515714Y-37759000D01*
X102515714Y-37759000D02*
X102572857Y-37787571D01*
X102572857Y-37787571D02*
X102658571Y-37787571D01*
X102201428Y-37387571D02*
X102201428Y-37787571D01*
X102201428Y-37444714D02*
X102172857Y-37416142D01*
X102172857Y-37416142D02*
X102115714Y-37387571D01*
X102115714Y-37387571D02*
X102030000Y-37387571D01*
X102030000Y-37387571D02*
X101972857Y-37416142D01*
X101972857Y-37416142D02*
X101944286Y-37473285D01*
X101944286Y-37473285D02*
X101944286Y-37787571D01*
X101401429Y-37787571D02*
X101401429Y-37473285D01*
X101401429Y-37473285D02*
X101430000Y-37416142D01*
X101430000Y-37416142D02*
X101487143Y-37387571D01*
X101487143Y-37387571D02*
X101601429Y-37387571D01*
X101601429Y-37387571D02*
X101658571Y-37416142D01*
X101401429Y-37759000D02*
X101458571Y-37787571D01*
X101458571Y-37787571D02*
X101601429Y-37787571D01*
X101601429Y-37787571D02*
X101658571Y-37759000D01*
X101658571Y-37759000D02*
X101687143Y-37701857D01*
X101687143Y-37701857D02*
X101687143Y-37644714D01*
X101687143Y-37644714D02*
X101658571Y-37587571D01*
X101658571Y-37587571D02*
X101601429Y-37559000D01*
X101601429Y-37559000D02*
X101458571Y-37559000D01*
X101458571Y-37559000D02*
X101401429Y-37530428D01*
X101144286Y-37759000D02*
X101087143Y-37787571D01*
X101087143Y-37787571D02*
X100972857Y-37787571D01*
X100972857Y-37787571D02*
X100915714Y-37759000D01*
X100915714Y-37759000D02*
X100887143Y-37701857D01*
X100887143Y-37701857D02*
X100887143Y-37673285D01*
X100887143Y-37673285D02*
X100915714Y-37616142D01*
X100915714Y-37616142D02*
X100972857Y-37587571D01*
X100972857Y-37587571D02*
X101058572Y-37587571D01*
X101058572Y-37587571D02*
X101115714Y-37559000D01*
X101115714Y-37559000D02*
X101144286Y-37501857D01*
X101144286Y-37501857D02*
X101144286Y-37473285D01*
X101144286Y-37473285D02*
X101115714Y-37416142D01*
X101115714Y-37416142D02*
X101058572Y-37387571D01*
X101058572Y-37387571D02*
X100972857Y-37387571D01*
X100972857Y-37387571D02*
X100915714Y-37416142D01*
X99830000Y-37787571D02*
X100030000Y-37501857D01*
X100172857Y-37787571D02*
X100172857Y-37187571D01*
X100172857Y-37187571D02*
X99944286Y-37187571D01*
X99944286Y-37187571D02*
X99887143Y-37216142D01*
X99887143Y-37216142D02*
X99858572Y-37244714D01*
X99858572Y-37244714D02*
X99830000Y-37301857D01*
X99830000Y-37301857D02*
X99830000Y-37387571D01*
X99830000Y-37387571D02*
X99858572Y-37444714D01*
X99858572Y-37444714D02*
X99887143Y-37473285D01*
X99887143Y-37473285D02*
X99944286Y-37501857D01*
X99944286Y-37501857D02*
X100172857Y-37501857D01*
X99572857Y-37787571D02*
X99572857Y-37387571D01*
X99572857Y-37187571D02*
X99601429Y-37216142D01*
X99601429Y-37216142D02*
X99572857Y-37244714D01*
X99572857Y-37244714D02*
X99544286Y-37216142D01*
X99544286Y-37216142D02*
X99572857Y-37187571D01*
X99572857Y-37187571D02*
X99572857Y-37244714D01*
X99058572Y-37759000D02*
X99115715Y-37787571D01*
X99115715Y-37787571D02*
X99230001Y-37787571D01*
X99230001Y-37787571D02*
X99287143Y-37759000D01*
X99287143Y-37759000D02*
X99315715Y-37701857D01*
X99315715Y-37701857D02*
X99315715Y-37473285D01*
X99315715Y-37473285D02*
X99287143Y-37416142D01*
X99287143Y-37416142D02*
X99230001Y-37387571D01*
X99230001Y-37387571D02*
X99115715Y-37387571D01*
X99115715Y-37387571D02*
X99058572Y-37416142D01*
X99058572Y-37416142D02*
X99030001Y-37473285D01*
X99030001Y-37473285D02*
X99030001Y-37530428D01*
X99030001Y-37530428D02*
X99315715Y-37587571D01*
X98772857Y-37387571D02*
X98772857Y-37787571D01*
X98772857Y-37444714D02*
X98744286Y-37416142D01*
X98744286Y-37416142D02*
X98687143Y-37387571D01*
X98687143Y-37387571D02*
X98601429Y-37387571D01*
X98601429Y-37387571D02*
X98544286Y-37416142D01*
X98544286Y-37416142D02*
X98515715Y-37473285D01*
X98515715Y-37473285D02*
X98515715Y-37787571D01*
X98258572Y-37759000D02*
X98201429Y-37787571D01*
X98201429Y-37787571D02*
X98087143Y-37787571D01*
X98087143Y-37787571D02*
X98030000Y-37759000D01*
X98030000Y-37759000D02*
X98001429Y-37701857D01*
X98001429Y-37701857D02*
X98001429Y-37673285D01*
X98001429Y-37673285D02*
X98030000Y-37616142D01*
X98030000Y-37616142D02*
X98087143Y-37587571D01*
X98087143Y-37587571D02*
X98172858Y-37587571D01*
X98172858Y-37587571D02*
X98230000Y-37559000D01*
X98230000Y-37559000D02*
X98258572Y-37501857D01*
X98258572Y-37501857D02*
X98258572Y-37473285D01*
X98258572Y-37473285D02*
X98230000Y-37416142D01*
X98230000Y-37416142D02*
X98172858Y-37387571D01*
X98172858Y-37387571D02*
X98087143Y-37387571D01*
X98087143Y-37387571D02*
X98030000Y-37416142D01*
X97515715Y-37759000D02*
X97572858Y-37787571D01*
X97572858Y-37787571D02*
X97687144Y-37787571D01*
X97687144Y-37787571D02*
X97744286Y-37759000D01*
X97744286Y-37759000D02*
X97772858Y-37701857D01*
X97772858Y-37701857D02*
X97772858Y-37473285D01*
X97772858Y-37473285D02*
X97744286Y-37416142D01*
X97744286Y-37416142D02*
X97687144Y-37387571D01*
X97687144Y-37387571D02*
X97572858Y-37387571D01*
X97572858Y-37387571D02*
X97515715Y-37416142D01*
X97515715Y-37416142D02*
X97487144Y-37473285D01*
X97487144Y-37473285D02*
X97487144Y-37530428D01*
X97487144Y-37530428D02*
X97772858Y-37587571D01*
X97230000Y-37787571D02*
X97230000Y-37387571D01*
X97230000Y-37444714D02*
X97201429Y-37416142D01*
X97201429Y-37416142D02*
X97144286Y-37387571D01*
X97144286Y-37387571D02*
X97058572Y-37387571D01*
X97058572Y-37387571D02*
X97001429Y-37416142D01*
X97001429Y-37416142D02*
X96972858Y-37473285D01*
X96972858Y-37473285D02*
X96972858Y-37787571D01*
X96972858Y-37473285D02*
X96944286Y-37416142D01*
X96944286Y-37416142D02*
X96887143Y-37387571D01*
X96887143Y-37387571D02*
X96801429Y-37387571D01*
X96801429Y-37387571D02*
X96744286Y-37416142D01*
X96744286Y-37416142D02*
X96715715Y-37473285D01*
X96715715Y-37473285D02*
X96715715Y-37787571D01*
X96172858Y-37787571D02*
X96172858Y-37473285D01*
X96172858Y-37473285D02*
X96201429Y-37416142D01*
X96201429Y-37416142D02*
X96258572Y-37387571D01*
X96258572Y-37387571D02*
X96372858Y-37387571D01*
X96372858Y-37387571D02*
X96430000Y-37416142D01*
X96172858Y-37759000D02*
X96230000Y-37787571D01*
X96230000Y-37787571D02*
X96372858Y-37787571D01*
X96372858Y-37787571D02*
X96430000Y-37759000D01*
X96430000Y-37759000D02*
X96458572Y-37701857D01*
X96458572Y-37701857D02*
X96458572Y-37644714D01*
X96458572Y-37644714D02*
X96430000Y-37587571D01*
X96430000Y-37587571D02*
X96372858Y-37559000D01*
X96372858Y-37559000D02*
X96230000Y-37559000D01*
X96230000Y-37559000D02*
X96172858Y-37530428D01*
X109087142Y-38159571D02*
X109087142Y-38645285D01*
X109087142Y-38645285D02*
X109058571Y-38702428D01*
X109058571Y-38702428D02*
X109030000Y-38731000D01*
X109030000Y-38731000D02*
X108972857Y-38759571D01*
X108972857Y-38759571D02*
X108858571Y-38759571D01*
X108858571Y-38759571D02*
X108801428Y-38731000D01*
X108801428Y-38731000D02*
X108772857Y-38702428D01*
X108772857Y-38702428D02*
X108744285Y-38645285D01*
X108744285Y-38645285D02*
X108744285Y-38159571D01*
X108487143Y-38731000D02*
X108430000Y-38759571D01*
X108430000Y-38759571D02*
X108315714Y-38759571D01*
X108315714Y-38759571D02*
X108258571Y-38731000D01*
X108258571Y-38731000D02*
X108230000Y-38673857D01*
X108230000Y-38673857D02*
X108230000Y-38645285D01*
X108230000Y-38645285D02*
X108258571Y-38588142D01*
X108258571Y-38588142D02*
X108315714Y-38559571D01*
X108315714Y-38559571D02*
X108401429Y-38559571D01*
X108401429Y-38559571D02*
X108458571Y-38531000D01*
X108458571Y-38531000D02*
X108487143Y-38473857D01*
X108487143Y-38473857D02*
X108487143Y-38445285D01*
X108487143Y-38445285D02*
X108458571Y-38388142D01*
X108458571Y-38388142D02*
X108401429Y-38359571D01*
X108401429Y-38359571D02*
X108315714Y-38359571D01*
X108315714Y-38359571D02*
X108258571Y-38388142D01*
X107715715Y-38759571D02*
X107715715Y-38445285D01*
X107715715Y-38445285D02*
X107744286Y-38388142D01*
X107744286Y-38388142D02*
X107801429Y-38359571D01*
X107801429Y-38359571D02*
X107915715Y-38359571D01*
X107915715Y-38359571D02*
X107972857Y-38388142D01*
X107715715Y-38731000D02*
X107772857Y-38759571D01*
X107772857Y-38759571D02*
X107915715Y-38759571D01*
X107915715Y-38759571D02*
X107972857Y-38731000D01*
X107972857Y-38731000D02*
X108001429Y-38673857D01*
X108001429Y-38673857D02*
X108001429Y-38616714D01*
X108001429Y-38616714D02*
X107972857Y-38559571D01*
X107972857Y-38559571D02*
X107915715Y-38531000D01*
X107915715Y-38531000D02*
X107772857Y-38531000D01*
X107772857Y-38531000D02*
X107715715Y-38502428D01*
X107172858Y-38359571D02*
X107172858Y-38845285D01*
X107172858Y-38845285D02*
X107201429Y-38902428D01*
X107201429Y-38902428D02*
X107230000Y-38931000D01*
X107230000Y-38931000D02*
X107287143Y-38959571D01*
X107287143Y-38959571D02*
X107372858Y-38959571D01*
X107372858Y-38959571D02*
X107430000Y-38931000D01*
X107172858Y-38731000D02*
X107230000Y-38759571D01*
X107230000Y-38759571D02*
X107344286Y-38759571D01*
X107344286Y-38759571D02*
X107401429Y-38731000D01*
X107401429Y-38731000D02*
X107430000Y-38702428D01*
X107430000Y-38702428D02*
X107458572Y-38645285D01*
X107458572Y-38645285D02*
X107458572Y-38473857D01*
X107458572Y-38473857D02*
X107430000Y-38416714D01*
X107430000Y-38416714D02*
X107401429Y-38388142D01*
X107401429Y-38388142D02*
X107344286Y-38359571D01*
X107344286Y-38359571D02*
X107230000Y-38359571D01*
X107230000Y-38359571D02*
X107172858Y-38388142D01*
X106658572Y-38731000D02*
X106715715Y-38759571D01*
X106715715Y-38759571D02*
X106830001Y-38759571D01*
X106830001Y-38759571D02*
X106887143Y-38731000D01*
X106887143Y-38731000D02*
X106915715Y-38673857D01*
X106915715Y-38673857D02*
X106915715Y-38445285D01*
X106915715Y-38445285D02*
X106887143Y-38388142D01*
X106887143Y-38388142D02*
X106830001Y-38359571D01*
X106830001Y-38359571D02*
X106715715Y-38359571D01*
X106715715Y-38359571D02*
X106658572Y-38388142D01*
X106658572Y-38388142D02*
X106630001Y-38445285D01*
X106630001Y-38445285D02*
X106630001Y-38502428D01*
X106630001Y-38502428D02*
X106915715Y-38559571D01*
X106372857Y-38702428D02*
X106344286Y-38731000D01*
X106344286Y-38731000D02*
X106372857Y-38759571D01*
X106372857Y-38759571D02*
X106401429Y-38731000D01*
X106401429Y-38731000D02*
X106372857Y-38702428D01*
X106372857Y-38702428D02*
X106372857Y-38759571D01*
X106372857Y-38388142D02*
X106344286Y-38416714D01*
X106344286Y-38416714D02*
X106372857Y-38445285D01*
X106372857Y-38445285D02*
X106401429Y-38416714D01*
X106401429Y-38416714D02*
X106372857Y-38388142D01*
X106372857Y-38388142D02*
X106372857Y-38445285D01*
X105287143Y-38759571D02*
X105487143Y-38473857D01*
X105630000Y-38759571D02*
X105630000Y-38159571D01*
X105630000Y-38159571D02*
X105401429Y-38159571D01*
X105401429Y-38159571D02*
X105344286Y-38188142D01*
X105344286Y-38188142D02*
X105315715Y-38216714D01*
X105315715Y-38216714D02*
X105287143Y-38273857D01*
X105287143Y-38273857D02*
X105287143Y-38359571D01*
X105287143Y-38359571D02*
X105315715Y-38416714D01*
X105315715Y-38416714D02*
X105344286Y-38445285D01*
X105344286Y-38445285D02*
X105401429Y-38473857D01*
X105401429Y-38473857D02*
X105630000Y-38473857D01*
X104801429Y-38731000D02*
X104858572Y-38759571D01*
X104858572Y-38759571D02*
X104972858Y-38759571D01*
X104972858Y-38759571D02*
X105030000Y-38731000D01*
X105030000Y-38731000D02*
X105058572Y-38673857D01*
X105058572Y-38673857D02*
X105058572Y-38445285D01*
X105058572Y-38445285D02*
X105030000Y-38388142D01*
X105030000Y-38388142D02*
X104972858Y-38359571D01*
X104972858Y-38359571D02*
X104858572Y-38359571D01*
X104858572Y-38359571D02*
X104801429Y-38388142D01*
X104801429Y-38388142D02*
X104772858Y-38445285D01*
X104772858Y-38445285D02*
X104772858Y-38502428D01*
X104772858Y-38502428D02*
X105058572Y-38559571D01*
X104258572Y-38759571D02*
X104258572Y-38445285D01*
X104258572Y-38445285D02*
X104287143Y-38388142D01*
X104287143Y-38388142D02*
X104344286Y-38359571D01*
X104344286Y-38359571D02*
X104458572Y-38359571D01*
X104458572Y-38359571D02*
X104515714Y-38388142D01*
X104258572Y-38731000D02*
X104315714Y-38759571D01*
X104315714Y-38759571D02*
X104458572Y-38759571D01*
X104458572Y-38759571D02*
X104515714Y-38731000D01*
X104515714Y-38731000D02*
X104544286Y-38673857D01*
X104544286Y-38673857D02*
X104544286Y-38616714D01*
X104544286Y-38616714D02*
X104515714Y-38559571D01*
X104515714Y-38559571D02*
X104458572Y-38531000D01*
X104458572Y-38531000D02*
X104315714Y-38531000D01*
X104315714Y-38531000D02*
X104258572Y-38502428D01*
X103715715Y-38759571D02*
X103715715Y-38159571D01*
X103715715Y-38731000D02*
X103772857Y-38759571D01*
X103772857Y-38759571D02*
X103887143Y-38759571D01*
X103887143Y-38759571D02*
X103944286Y-38731000D01*
X103944286Y-38731000D02*
X103972857Y-38702428D01*
X103972857Y-38702428D02*
X104001429Y-38645285D01*
X104001429Y-38645285D02*
X104001429Y-38473857D01*
X104001429Y-38473857D02*
X103972857Y-38416714D01*
X103972857Y-38416714D02*
X103944286Y-38388142D01*
X103944286Y-38388142D02*
X103887143Y-38359571D01*
X103887143Y-38359571D02*
X103772857Y-38359571D01*
X103772857Y-38359571D02*
X103715715Y-38388142D01*
X103458572Y-38731000D02*
X103401429Y-38759571D01*
X103401429Y-38759571D02*
X103287143Y-38759571D01*
X103287143Y-38759571D02*
X103230000Y-38731000D01*
X103230000Y-38731000D02*
X103201429Y-38673857D01*
X103201429Y-38673857D02*
X103201429Y-38645285D01*
X103201429Y-38645285D02*
X103230000Y-38588142D01*
X103230000Y-38588142D02*
X103287143Y-38559571D01*
X103287143Y-38559571D02*
X103372858Y-38559571D01*
X103372858Y-38559571D02*
X103430000Y-38531000D01*
X103430000Y-38531000D02*
X103458572Y-38473857D01*
X103458572Y-38473857D02*
X103458572Y-38445285D01*
X103458572Y-38445285D02*
X103430000Y-38388142D01*
X103430000Y-38388142D02*
X103372858Y-38359571D01*
X103372858Y-38359571D02*
X103287143Y-38359571D01*
X103287143Y-38359571D02*
X103230000Y-38388142D01*
X102487143Y-38445285D02*
X102287143Y-38445285D01*
X102201429Y-38759571D02*
X102487143Y-38759571D01*
X102487143Y-38759571D02*
X102487143Y-38159571D01*
X102487143Y-38159571D02*
X102201429Y-38159571D01*
X101944286Y-38759571D02*
X101944286Y-38159571D01*
X101944286Y-38159571D02*
X101744286Y-38588142D01*
X101744286Y-38588142D02*
X101544286Y-38159571D01*
X101544286Y-38159571D02*
X101544286Y-38759571D01*
X100944287Y-38188142D02*
X101001430Y-38159571D01*
X101001430Y-38159571D02*
X101087144Y-38159571D01*
X101087144Y-38159571D02*
X101172858Y-38188142D01*
X101172858Y-38188142D02*
X101230001Y-38245285D01*
X101230001Y-38245285D02*
X101258572Y-38302428D01*
X101258572Y-38302428D02*
X101287144Y-38416714D01*
X101287144Y-38416714D02*
X101287144Y-38502428D01*
X101287144Y-38502428D02*
X101258572Y-38616714D01*
X101258572Y-38616714D02*
X101230001Y-38673857D01*
X101230001Y-38673857D02*
X101172858Y-38731000D01*
X101172858Y-38731000D02*
X101087144Y-38759571D01*
X101087144Y-38759571D02*
X101030001Y-38759571D01*
X101030001Y-38759571D02*
X100944287Y-38731000D01*
X100944287Y-38731000D02*
X100915715Y-38702428D01*
X100915715Y-38702428D02*
X100915715Y-38502428D01*
X100915715Y-38502428D02*
X101030001Y-38502428D01*
X99944287Y-38759571D02*
X99944287Y-38159571D01*
X99944287Y-38731000D02*
X100001429Y-38759571D01*
X100001429Y-38759571D02*
X100115715Y-38759571D01*
X100115715Y-38759571D02*
X100172858Y-38731000D01*
X100172858Y-38731000D02*
X100201429Y-38702428D01*
X100201429Y-38702428D02*
X100230001Y-38645285D01*
X100230001Y-38645285D02*
X100230001Y-38473857D01*
X100230001Y-38473857D02*
X100201429Y-38416714D01*
X100201429Y-38416714D02*
X100172858Y-38388142D01*
X100172858Y-38388142D02*
X100115715Y-38359571D01*
X100115715Y-38359571D02*
X100001429Y-38359571D01*
X100001429Y-38359571D02*
X99944287Y-38388142D01*
X99401430Y-38759571D02*
X99401430Y-38445285D01*
X99401430Y-38445285D02*
X99430001Y-38388142D01*
X99430001Y-38388142D02*
X99487144Y-38359571D01*
X99487144Y-38359571D02*
X99601430Y-38359571D01*
X99601430Y-38359571D02*
X99658572Y-38388142D01*
X99401430Y-38731000D02*
X99458572Y-38759571D01*
X99458572Y-38759571D02*
X99601430Y-38759571D01*
X99601430Y-38759571D02*
X99658572Y-38731000D01*
X99658572Y-38731000D02*
X99687144Y-38673857D01*
X99687144Y-38673857D02*
X99687144Y-38616714D01*
X99687144Y-38616714D02*
X99658572Y-38559571D01*
X99658572Y-38559571D02*
X99601430Y-38531000D01*
X99601430Y-38531000D02*
X99458572Y-38531000D01*
X99458572Y-38531000D02*
X99401430Y-38502428D01*
X99201430Y-38359571D02*
X98972858Y-38359571D01*
X99115715Y-38159571D02*
X99115715Y-38673857D01*
X99115715Y-38673857D02*
X99087144Y-38731000D01*
X99087144Y-38731000D02*
X99030001Y-38759571D01*
X99030001Y-38759571D02*
X98972858Y-38759571D01*
X98515716Y-38759571D02*
X98515716Y-38445285D01*
X98515716Y-38445285D02*
X98544287Y-38388142D01*
X98544287Y-38388142D02*
X98601430Y-38359571D01*
X98601430Y-38359571D02*
X98715716Y-38359571D01*
X98715716Y-38359571D02*
X98772858Y-38388142D01*
X98515716Y-38731000D02*
X98572858Y-38759571D01*
X98572858Y-38759571D02*
X98715716Y-38759571D01*
X98715716Y-38759571D02*
X98772858Y-38731000D01*
X98772858Y-38731000D02*
X98801430Y-38673857D01*
X98801430Y-38673857D02*
X98801430Y-38616714D01*
X98801430Y-38616714D02*
X98772858Y-38559571D01*
X98772858Y-38559571D02*
X98715716Y-38531000D01*
X98715716Y-38531000D02*
X98572858Y-38531000D01*
X98572858Y-38531000D02*
X98515716Y-38502428D01*
X97858573Y-38359571D02*
X97630001Y-38359571D01*
X97772858Y-38759571D02*
X97772858Y-38245285D01*
X97772858Y-38245285D02*
X97744287Y-38188142D01*
X97744287Y-38188142D02*
X97687144Y-38159571D01*
X97687144Y-38159571D02*
X97630001Y-38159571D01*
X97430001Y-38759571D02*
X97430001Y-38359571D01*
X97430001Y-38473857D02*
X97401430Y-38416714D01*
X97401430Y-38416714D02*
X97372859Y-38388142D01*
X97372859Y-38388142D02*
X97315716Y-38359571D01*
X97315716Y-38359571D02*
X97258573Y-38359571D01*
X96972858Y-38759571D02*
X97030001Y-38731000D01*
X97030001Y-38731000D02*
X97058572Y-38702428D01*
X97058572Y-38702428D02*
X97087144Y-38645285D01*
X97087144Y-38645285D02*
X97087144Y-38473857D01*
X97087144Y-38473857D02*
X97058572Y-38416714D01*
X97058572Y-38416714D02*
X97030001Y-38388142D01*
X97030001Y-38388142D02*
X96972858Y-38359571D01*
X96972858Y-38359571D02*
X96887144Y-38359571D01*
X96887144Y-38359571D02*
X96830001Y-38388142D01*
X96830001Y-38388142D02*
X96801430Y-38416714D01*
X96801430Y-38416714D02*
X96772858Y-38473857D01*
X96772858Y-38473857D02*
X96772858Y-38645285D01*
X96772858Y-38645285D02*
X96801430Y-38702428D01*
X96801430Y-38702428D02*
X96830001Y-38731000D01*
X96830001Y-38731000D02*
X96887144Y-38759571D01*
X96887144Y-38759571D02*
X96972858Y-38759571D01*
X96515715Y-38759571D02*
X96515715Y-38359571D01*
X96515715Y-38416714D02*
X96487144Y-38388142D01*
X96487144Y-38388142D02*
X96430001Y-38359571D01*
X96430001Y-38359571D02*
X96344287Y-38359571D01*
X96344287Y-38359571D02*
X96287144Y-38388142D01*
X96287144Y-38388142D02*
X96258573Y-38445285D01*
X96258573Y-38445285D02*
X96258573Y-38759571D01*
X96258573Y-38445285D02*
X96230001Y-38388142D01*
X96230001Y-38388142D02*
X96172858Y-38359571D01*
X96172858Y-38359571D02*
X96087144Y-38359571D01*
X96087144Y-38359571D02*
X96030001Y-38388142D01*
X96030001Y-38388142D02*
X96001430Y-38445285D01*
X96001430Y-38445285D02*
X96001430Y-38759571D01*
X95344287Y-38359571D02*
X95115715Y-38359571D01*
X95258572Y-38159571D02*
X95258572Y-38673857D01*
X95258572Y-38673857D02*
X95230001Y-38731000D01*
X95230001Y-38731000D02*
X95172858Y-38759571D01*
X95172858Y-38759571D02*
X95115715Y-38759571D01*
X94915715Y-38759571D02*
X94915715Y-38159571D01*
X94658573Y-38759571D02*
X94658573Y-38445285D01*
X94658573Y-38445285D02*
X94687144Y-38388142D01*
X94687144Y-38388142D02*
X94744287Y-38359571D01*
X94744287Y-38359571D02*
X94830001Y-38359571D01*
X94830001Y-38359571D02*
X94887144Y-38388142D01*
X94887144Y-38388142D02*
X94915715Y-38416714D01*
X94144287Y-38731000D02*
X94201430Y-38759571D01*
X94201430Y-38759571D02*
X94315716Y-38759571D01*
X94315716Y-38759571D02*
X94372858Y-38731000D01*
X94372858Y-38731000D02*
X94401430Y-38673857D01*
X94401430Y-38673857D02*
X94401430Y-38445285D01*
X94401430Y-38445285D02*
X94372858Y-38388142D01*
X94372858Y-38388142D02*
X94315716Y-38359571D01*
X94315716Y-38359571D02*
X94201430Y-38359571D01*
X94201430Y-38359571D02*
X94144287Y-38388142D01*
X94144287Y-38388142D02*
X94115716Y-38445285D01*
X94115716Y-38445285D02*
X94115716Y-38502428D01*
X94115716Y-38502428D02*
X94401430Y-38559571D01*
X93144287Y-38759571D02*
X93144287Y-38445285D01*
X93144287Y-38445285D02*
X93172858Y-38388142D01*
X93172858Y-38388142D02*
X93230001Y-38359571D01*
X93230001Y-38359571D02*
X93344287Y-38359571D01*
X93344287Y-38359571D02*
X93401429Y-38388142D01*
X93144287Y-38731000D02*
X93201429Y-38759571D01*
X93201429Y-38759571D02*
X93344287Y-38759571D01*
X93344287Y-38759571D02*
X93401429Y-38731000D01*
X93401429Y-38731000D02*
X93430001Y-38673857D01*
X93430001Y-38673857D02*
X93430001Y-38616714D01*
X93430001Y-38616714D02*
X93401429Y-38559571D01*
X93401429Y-38559571D02*
X93344287Y-38531000D01*
X93344287Y-38531000D02*
X93201429Y-38531000D01*
X93201429Y-38531000D02*
X93144287Y-38502428D01*
X92601430Y-38359571D02*
X92601430Y-38759571D01*
X92858572Y-38359571D02*
X92858572Y-38673857D01*
X92858572Y-38673857D02*
X92830001Y-38731000D01*
X92830001Y-38731000D02*
X92772858Y-38759571D01*
X92772858Y-38759571D02*
X92687144Y-38759571D01*
X92687144Y-38759571D02*
X92630001Y-38731000D01*
X92630001Y-38731000D02*
X92601430Y-38702428D01*
X92058573Y-38759571D02*
X92058573Y-38159571D01*
X92058573Y-38731000D02*
X92115715Y-38759571D01*
X92115715Y-38759571D02*
X92230001Y-38759571D01*
X92230001Y-38759571D02*
X92287144Y-38731000D01*
X92287144Y-38731000D02*
X92315715Y-38702428D01*
X92315715Y-38702428D02*
X92344287Y-38645285D01*
X92344287Y-38645285D02*
X92344287Y-38473857D01*
X92344287Y-38473857D02*
X92315715Y-38416714D01*
X92315715Y-38416714D02*
X92287144Y-38388142D01*
X92287144Y-38388142D02*
X92230001Y-38359571D01*
X92230001Y-38359571D02*
X92115715Y-38359571D01*
X92115715Y-38359571D02*
X92058573Y-38388142D01*
X91772858Y-38759571D02*
X91772858Y-38359571D01*
X91772858Y-38159571D02*
X91801430Y-38188142D01*
X91801430Y-38188142D02*
X91772858Y-38216714D01*
X91772858Y-38216714D02*
X91744287Y-38188142D01*
X91744287Y-38188142D02*
X91772858Y-38159571D01*
X91772858Y-38159571D02*
X91772858Y-38216714D01*
X91401430Y-38759571D02*
X91458573Y-38731000D01*
X91458573Y-38731000D02*
X91487144Y-38702428D01*
X91487144Y-38702428D02*
X91515716Y-38645285D01*
X91515716Y-38645285D02*
X91515716Y-38473857D01*
X91515716Y-38473857D02*
X91487144Y-38416714D01*
X91487144Y-38416714D02*
X91458573Y-38388142D01*
X91458573Y-38388142D02*
X91401430Y-38359571D01*
X91401430Y-38359571D02*
X91315716Y-38359571D01*
X91315716Y-38359571D02*
X91258573Y-38388142D01*
X91258573Y-38388142D02*
X91230002Y-38416714D01*
X91230002Y-38416714D02*
X91201430Y-38473857D01*
X91201430Y-38473857D02*
X91201430Y-38645285D01*
X91201430Y-38645285D02*
X91230002Y-38702428D01*
X91230002Y-38702428D02*
X91258573Y-38731000D01*
X91258573Y-38731000D02*
X91315716Y-38759571D01*
X91315716Y-38759571D02*
X91401430Y-38759571D01*
X90487144Y-38359571D02*
X90487144Y-38873857D01*
X90487144Y-38873857D02*
X90515716Y-38931000D01*
X90515716Y-38931000D02*
X90572859Y-38959571D01*
X90572859Y-38959571D02*
X90601430Y-38959571D01*
X90487144Y-38159571D02*
X90515716Y-38188142D01*
X90515716Y-38188142D02*
X90487144Y-38216714D01*
X90487144Y-38216714D02*
X90458573Y-38188142D01*
X90458573Y-38188142D02*
X90487144Y-38159571D01*
X90487144Y-38159571D02*
X90487144Y-38216714D01*
X89944288Y-38759571D02*
X89944288Y-38445285D01*
X89944288Y-38445285D02*
X89972859Y-38388142D01*
X89972859Y-38388142D02*
X90030002Y-38359571D01*
X90030002Y-38359571D02*
X90144288Y-38359571D01*
X90144288Y-38359571D02*
X90201430Y-38388142D01*
X89944288Y-38731000D02*
X90001430Y-38759571D01*
X90001430Y-38759571D02*
X90144288Y-38759571D01*
X90144288Y-38759571D02*
X90201430Y-38731000D01*
X90201430Y-38731000D02*
X90230002Y-38673857D01*
X90230002Y-38673857D02*
X90230002Y-38616714D01*
X90230002Y-38616714D02*
X90201430Y-38559571D01*
X90201430Y-38559571D02*
X90144288Y-38531000D01*
X90144288Y-38531000D02*
X90001430Y-38531000D01*
X90001430Y-38531000D02*
X89944288Y-38502428D01*
X89401431Y-38731000D02*
X89458573Y-38759571D01*
X89458573Y-38759571D02*
X89572859Y-38759571D01*
X89572859Y-38759571D02*
X89630002Y-38731000D01*
X89630002Y-38731000D02*
X89658573Y-38702428D01*
X89658573Y-38702428D02*
X89687145Y-38645285D01*
X89687145Y-38645285D02*
X89687145Y-38473857D01*
X89687145Y-38473857D02*
X89658573Y-38416714D01*
X89658573Y-38416714D02*
X89630002Y-38388142D01*
X89630002Y-38388142D02*
X89572859Y-38359571D01*
X89572859Y-38359571D02*
X89458573Y-38359571D01*
X89458573Y-38359571D02*
X89401431Y-38388142D01*
X89144287Y-38759571D02*
X89144287Y-38159571D01*
X89087145Y-38531000D02*
X88915716Y-38759571D01*
X88915716Y-38359571D02*
X89144287Y-38588142D01*
X88687145Y-38731000D02*
X88630002Y-38759571D01*
X88630002Y-38759571D02*
X88515716Y-38759571D01*
X88515716Y-38759571D02*
X88458573Y-38731000D01*
X88458573Y-38731000D02*
X88430002Y-38673857D01*
X88430002Y-38673857D02*
X88430002Y-38645285D01*
X88430002Y-38645285D02*
X88458573Y-38588142D01*
X88458573Y-38588142D02*
X88515716Y-38559571D01*
X88515716Y-38559571D02*
X88601431Y-38559571D01*
X88601431Y-38559571D02*
X88658573Y-38531000D01*
X88658573Y-38531000D02*
X88687145Y-38473857D01*
X88687145Y-38473857D02*
X88687145Y-38445285D01*
X88687145Y-38445285D02*
X88658573Y-38388142D01*
X88658573Y-38388142D02*
X88601431Y-38359571D01*
X88601431Y-38359571D02*
X88515716Y-38359571D01*
X88515716Y-38359571D02*
X88458573Y-38388142D01*
X87458574Y-38759571D02*
X87458574Y-38445285D01*
X87458574Y-38445285D02*
X87487145Y-38388142D01*
X87487145Y-38388142D02*
X87544288Y-38359571D01*
X87544288Y-38359571D02*
X87658574Y-38359571D01*
X87658574Y-38359571D02*
X87715716Y-38388142D01*
X87458574Y-38731000D02*
X87515716Y-38759571D01*
X87515716Y-38759571D02*
X87658574Y-38759571D01*
X87658574Y-38759571D02*
X87715716Y-38731000D01*
X87715716Y-38731000D02*
X87744288Y-38673857D01*
X87744288Y-38673857D02*
X87744288Y-38616714D01*
X87744288Y-38616714D02*
X87715716Y-38559571D01*
X87715716Y-38559571D02*
X87658574Y-38531000D01*
X87658574Y-38531000D02*
X87515716Y-38531000D01*
X87515716Y-38531000D02*
X87458574Y-38502428D01*
X87172859Y-38359571D02*
X87172859Y-38759571D01*
X87172859Y-38416714D02*
X87144288Y-38388142D01*
X87144288Y-38388142D02*
X87087145Y-38359571D01*
X87087145Y-38359571D02*
X87001431Y-38359571D01*
X87001431Y-38359571D02*
X86944288Y-38388142D01*
X86944288Y-38388142D02*
X86915717Y-38445285D01*
X86915717Y-38445285D02*
X86915717Y-38759571D01*
X86372860Y-38759571D02*
X86372860Y-38159571D01*
X86372860Y-38731000D02*
X86430002Y-38759571D01*
X86430002Y-38759571D02*
X86544288Y-38759571D01*
X86544288Y-38759571D02*
X86601431Y-38731000D01*
X86601431Y-38731000D02*
X86630002Y-38702428D01*
X86630002Y-38702428D02*
X86658574Y-38645285D01*
X86658574Y-38645285D02*
X86658574Y-38473857D01*
X86658574Y-38473857D02*
X86630002Y-38416714D01*
X86630002Y-38416714D02*
X86601431Y-38388142D01*
X86601431Y-38388142D02*
X86544288Y-38359571D01*
X86544288Y-38359571D02*
X86430002Y-38359571D01*
X86430002Y-38359571D02*
X86372860Y-38388142D01*
X105201429Y-40303571D02*
X105201429Y-40789285D01*
X105201429Y-40789285D02*
X105230000Y-40846428D01*
X105230000Y-40846428D02*
X105258571Y-40875000D01*
X105258571Y-40875000D02*
X105315714Y-40903571D01*
X105315714Y-40903571D02*
X105401429Y-40903571D01*
X105401429Y-40903571D02*
X105458571Y-40875000D01*
X105201429Y-40675000D02*
X105258571Y-40703571D01*
X105258571Y-40703571D02*
X105372857Y-40703571D01*
X105372857Y-40703571D02*
X105430000Y-40675000D01*
X105430000Y-40675000D02*
X105458571Y-40646428D01*
X105458571Y-40646428D02*
X105487143Y-40589285D01*
X105487143Y-40589285D02*
X105487143Y-40417857D01*
X105487143Y-40417857D02*
X105458571Y-40360714D01*
X105458571Y-40360714D02*
X105430000Y-40332142D01*
X105430000Y-40332142D02*
X105372857Y-40303571D01*
X105372857Y-40303571D02*
X105258571Y-40303571D01*
X105258571Y-40303571D02*
X105201429Y-40332142D01*
X104915714Y-40703571D02*
X104915714Y-40303571D01*
X104915714Y-40103571D02*
X104944286Y-40132142D01*
X104944286Y-40132142D02*
X104915714Y-40160714D01*
X104915714Y-40160714D02*
X104887143Y-40132142D01*
X104887143Y-40132142D02*
X104915714Y-40103571D01*
X104915714Y-40103571D02*
X104915714Y-40160714D01*
X104687143Y-40303571D02*
X104544286Y-40703571D01*
X104544286Y-40703571D02*
X104401429Y-40303571D01*
X103944286Y-40675000D02*
X104001429Y-40703571D01*
X104001429Y-40703571D02*
X104115715Y-40703571D01*
X104115715Y-40703571D02*
X104172857Y-40675000D01*
X104172857Y-40675000D02*
X104201429Y-40617857D01*
X104201429Y-40617857D02*
X104201429Y-40389285D01*
X104201429Y-40389285D02*
X104172857Y-40332142D01*
X104172857Y-40332142D02*
X104115715Y-40303571D01*
X104115715Y-40303571D02*
X104001429Y-40303571D01*
X104001429Y-40303571D02*
X103944286Y-40332142D01*
X103944286Y-40332142D02*
X103915715Y-40389285D01*
X103915715Y-40389285D02*
X103915715Y-40446428D01*
X103915715Y-40446428D02*
X104201429Y-40503571D01*
X103687143Y-40675000D02*
X103630000Y-40703571D01*
X103630000Y-40703571D02*
X103515714Y-40703571D01*
X103515714Y-40703571D02*
X103458571Y-40675000D01*
X103458571Y-40675000D02*
X103430000Y-40617857D01*
X103430000Y-40617857D02*
X103430000Y-40589285D01*
X103430000Y-40589285D02*
X103458571Y-40532142D01*
X103458571Y-40532142D02*
X103515714Y-40503571D01*
X103515714Y-40503571D02*
X103601429Y-40503571D01*
X103601429Y-40503571D02*
X103658571Y-40475000D01*
X103658571Y-40475000D02*
X103687143Y-40417857D01*
X103687143Y-40417857D02*
X103687143Y-40389285D01*
X103687143Y-40389285D02*
X103658571Y-40332142D01*
X103658571Y-40332142D02*
X103601429Y-40303571D01*
X103601429Y-40303571D02*
X103515714Y-40303571D01*
X103515714Y-40303571D02*
X103458571Y-40332142D01*
X102801429Y-40303571D02*
X102572857Y-40303571D01*
X102715714Y-40703571D02*
X102715714Y-40189285D01*
X102715714Y-40189285D02*
X102687143Y-40132142D01*
X102687143Y-40132142D02*
X102630000Y-40103571D01*
X102630000Y-40103571D02*
X102572857Y-40103571D01*
X102144286Y-40675000D02*
X102201429Y-40703571D01*
X102201429Y-40703571D02*
X102315715Y-40703571D01*
X102315715Y-40703571D02*
X102372857Y-40675000D01*
X102372857Y-40675000D02*
X102401429Y-40617857D01*
X102401429Y-40617857D02*
X102401429Y-40389285D01*
X102401429Y-40389285D02*
X102372857Y-40332142D01*
X102372857Y-40332142D02*
X102315715Y-40303571D01*
X102315715Y-40303571D02*
X102201429Y-40303571D01*
X102201429Y-40303571D02*
X102144286Y-40332142D01*
X102144286Y-40332142D02*
X102115715Y-40389285D01*
X102115715Y-40389285D02*
X102115715Y-40446428D01*
X102115715Y-40446428D02*
X102401429Y-40503571D01*
X101630000Y-40675000D02*
X101687143Y-40703571D01*
X101687143Y-40703571D02*
X101801429Y-40703571D01*
X101801429Y-40703571D02*
X101858571Y-40675000D01*
X101858571Y-40675000D02*
X101887143Y-40617857D01*
X101887143Y-40617857D02*
X101887143Y-40389285D01*
X101887143Y-40389285D02*
X101858571Y-40332142D01*
X101858571Y-40332142D02*
X101801429Y-40303571D01*
X101801429Y-40303571D02*
X101687143Y-40303571D01*
X101687143Y-40303571D02*
X101630000Y-40332142D01*
X101630000Y-40332142D02*
X101601429Y-40389285D01*
X101601429Y-40389285D02*
X101601429Y-40446428D01*
X101601429Y-40446428D02*
X101887143Y-40503571D01*
X101087143Y-40703571D02*
X101087143Y-40103571D01*
X101087143Y-40675000D02*
X101144285Y-40703571D01*
X101144285Y-40703571D02*
X101258571Y-40703571D01*
X101258571Y-40703571D02*
X101315714Y-40675000D01*
X101315714Y-40675000D02*
X101344285Y-40646428D01*
X101344285Y-40646428D02*
X101372857Y-40589285D01*
X101372857Y-40589285D02*
X101372857Y-40417857D01*
X101372857Y-40417857D02*
X101344285Y-40360714D01*
X101344285Y-40360714D02*
X101315714Y-40332142D01*
X101315714Y-40332142D02*
X101258571Y-40303571D01*
X101258571Y-40303571D02*
X101144285Y-40303571D01*
X101144285Y-40303571D02*
X101087143Y-40332142D01*
X100801428Y-40703571D02*
X100801428Y-40103571D01*
X100801428Y-40332142D02*
X100744286Y-40303571D01*
X100744286Y-40303571D02*
X100630000Y-40303571D01*
X100630000Y-40303571D02*
X100572857Y-40332142D01*
X100572857Y-40332142D02*
X100544286Y-40360714D01*
X100544286Y-40360714D02*
X100515714Y-40417857D01*
X100515714Y-40417857D02*
X100515714Y-40589285D01*
X100515714Y-40589285D02*
X100544286Y-40646428D01*
X100544286Y-40646428D02*
X100572857Y-40675000D01*
X100572857Y-40675000D02*
X100630000Y-40703571D01*
X100630000Y-40703571D02*
X100744286Y-40703571D01*
X100744286Y-40703571D02*
X100801428Y-40675000D01*
X100001429Y-40703571D02*
X100001429Y-40389285D01*
X100001429Y-40389285D02*
X100030000Y-40332142D01*
X100030000Y-40332142D02*
X100087143Y-40303571D01*
X100087143Y-40303571D02*
X100201429Y-40303571D01*
X100201429Y-40303571D02*
X100258571Y-40332142D01*
X100001429Y-40675000D02*
X100058571Y-40703571D01*
X100058571Y-40703571D02*
X100201429Y-40703571D01*
X100201429Y-40703571D02*
X100258571Y-40675000D01*
X100258571Y-40675000D02*
X100287143Y-40617857D01*
X100287143Y-40617857D02*
X100287143Y-40560714D01*
X100287143Y-40560714D02*
X100258571Y-40503571D01*
X100258571Y-40503571D02*
X100201429Y-40475000D01*
X100201429Y-40475000D02*
X100058571Y-40475000D01*
X100058571Y-40475000D02*
X100001429Y-40446428D01*
X99458572Y-40675000D02*
X99515714Y-40703571D01*
X99515714Y-40703571D02*
X99630000Y-40703571D01*
X99630000Y-40703571D02*
X99687143Y-40675000D01*
X99687143Y-40675000D02*
X99715714Y-40646428D01*
X99715714Y-40646428D02*
X99744286Y-40589285D01*
X99744286Y-40589285D02*
X99744286Y-40417857D01*
X99744286Y-40417857D02*
X99715714Y-40360714D01*
X99715714Y-40360714D02*
X99687143Y-40332142D01*
X99687143Y-40332142D02*
X99630000Y-40303571D01*
X99630000Y-40303571D02*
X99515714Y-40303571D01*
X99515714Y-40303571D02*
X99458572Y-40332142D01*
X99201428Y-40703571D02*
X99201428Y-40103571D01*
X99144286Y-40475000D02*
X98972857Y-40703571D01*
X98972857Y-40303571D02*
X99201428Y-40532142D01*
X98344286Y-40303571D02*
X98115714Y-40303571D01*
X98258571Y-40103571D02*
X98258571Y-40617857D01*
X98258571Y-40617857D02*
X98230000Y-40675000D01*
X98230000Y-40675000D02*
X98172857Y-40703571D01*
X98172857Y-40703571D02*
X98115714Y-40703571D01*
X97915714Y-40703571D02*
X97915714Y-40303571D01*
X97915714Y-40417857D02*
X97887143Y-40360714D01*
X97887143Y-40360714D02*
X97858572Y-40332142D01*
X97858572Y-40332142D02*
X97801429Y-40303571D01*
X97801429Y-40303571D02*
X97744286Y-40303571D01*
X97458571Y-40703571D02*
X97515714Y-40675000D01*
X97515714Y-40675000D02*
X97544285Y-40646428D01*
X97544285Y-40646428D02*
X97572857Y-40589285D01*
X97572857Y-40589285D02*
X97572857Y-40417857D01*
X97572857Y-40417857D02*
X97544285Y-40360714D01*
X97544285Y-40360714D02*
X97515714Y-40332142D01*
X97515714Y-40332142D02*
X97458571Y-40303571D01*
X97458571Y-40303571D02*
X97372857Y-40303571D01*
X97372857Y-40303571D02*
X97315714Y-40332142D01*
X97315714Y-40332142D02*
X97287143Y-40360714D01*
X97287143Y-40360714D02*
X97258571Y-40417857D01*
X97258571Y-40417857D02*
X97258571Y-40589285D01*
X97258571Y-40589285D02*
X97287143Y-40646428D01*
X97287143Y-40646428D02*
X97315714Y-40675000D01*
X97315714Y-40675000D02*
X97372857Y-40703571D01*
X97372857Y-40703571D02*
X97458571Y-40703571D01*
X96744286Y-40303571D02*
X96744286Y-40703571D01*
X97001428Y-40303571D02*
X97001428Y-40617857D01*
X97001428Y-40617857D02*
X96972857Y-40675000D01*
X96972857Y-40675000D02*
X96915714Y-40703571D01*
X96915714Y-40703571D02*
X96830000Y-40703571D01*
X96830000Y-40703571D02*
X96772857Y-40675000D01*
X96772857Y-40675000D02*
X96744286Y-40646428D01*
X96201429Y-40303571D02*
X96201429Y-40789285D01*
X96201429Y-40789285D02*
X96230000Y-40846428D01*
X96230000Y-40846428D02*
X96258571Y-40875000D01*
X96258571Y-40875000D02*
X96315714Y-40903571D01*
X96315714Y-40903571D02*
X96401429Y-40903571D01*
X96401429Y-40903571D02*
X96458571Y-40875000D01*
X96201429Y-40675000D02*
X96258571Y-40703571D01*
X96258571Y-40703571D02*
X96372857Y-40703571D01*
X96372857Y-40703571D02*
X96430000Y-40675000D01*
X96430000Y-40675000D02*
X96458571Y-40646428D01*
X96458571Y-40646428D02*
X96487143Y-40589285D01*
X96487143Y-40589285D02*
X96487143Y-40417857D01*
X96487143Y-40417857D02*
X96458571Y-40360714D01*
X96458571Y-40360714D02*
X96430000Y-40332142D01*
X96430000Y-40332142D02*
X96372857Y-40303571D01*
X96372857Y-40303571D02*
X96258571Y-40303571D01*
X96258571Y-40303571D02*
X96201429Y-40332142D01*
X95915714Y-40703571D02*
X95915714Y-40103571D01*
X95658572Y-40703571D02*
X95658572Y-40389285D01*
X95658572Y-40389285D02*
X95687143Y-40332142D01*
X95687143Y-40332142D02*
X95744286Y-40303571D01*
X95744286Y-40303571D02*
X95830000Y-40303571D01*
X95830000Y-40303571D02*
X95887143Y-40332142D01*
X95887143Y-40332142D02*
X95915714Y-40360714D01*
X94915714Y-40303571D02*
X94915714Y-40903571D01*
X94915714Y-40332142D02*
X94858572Y-40303571D01*
X94858572Y-40303571D02*
X94744286Y-40303571D01*
X94744286Y-40303571D02*
X94687143Y-40332142D01*
X94687143Y-40332142D02*
X94658572Y-40360714D01*
X94658572Y-40360714D02*
X94630000Y-40417857D01*
X94630000Y-40417857D02*
X94630000Y-40589285D01*
X94630000Y-40589285D02*
X94658572Y-40646428D01*
X94658572Y-40646428D02*
X94687143Y-40675000D01*
X94687143Y-40675000D02*
X94744286Y-40703571D01*
X94744286Y-40703571D02*
X94858572Y-40703571D01*
X94858572Y-40703571D02*
X94915714Y-40675000D01*
X94372857Y-40703571D02*
X94372857Y-40103571D01*
X94115715Y-40703571D02*
X94115715Y-40389285D01*
X94115715Y-40389285D02*
X94144286Y-40332142D01*
X94144286Y-40332142D02*
X94201429Y-40303571D01*
X94201429Y-40303571D02*
X94287143Y-40303571D01*
X94287143Y-40303571D02*
X94344286Y-40332142D01*
X94344286Y-40332142D02*
X94372857Y-40360714D01*
X93744286Y-40703571D02*
X93801429Y-40675000D01*
X93801429Y-40675000D02*
X93830000Y-40646428D01*
X93830000Y-40646428D02*
X93858572Y-40589285D01*
X93858572Y-40589285D02*
X93858572Y-40417857D01*
X93858572Y-40417857D02*
X93830000Y-40360714D01*
X93830000Y-40360714D02*
X93801429Y-40332142D01*
X93801429Y-40332142D02*
X93744286Y-40303571D01*
X93744286Y-40303571D02*
X93658572Y-40303571D01*
X93658572Y-40303571D02*
X93601429Y-40332142D01*
X93601429Y-40332142D02*
X93572858Y-40360714D01*
X93572858Y-40360714D02*
X93544286Y-40417857D01*
X93544286Y-40417857D02*
X93544286Y-40589285D01*
X93544286Y-40589285D02*
X93572858Y-40646428D01*
X93572858Y-40646428D02*
X93601429Y-40675000D01*
X93601429Y-40675000D02*
X93658572Y-40703571D01*
X93658572Y-40703571D02*
X93744286Y-40703571D01*
X93287143Y-40303571D02*
X93287143Y-40703571D01*
X93287143Y-40360714D02*
X93258572Y-40332142D01*
X93258572Y-40332142D02*
X93201429Y-40303571D01*
X93201429Y-40303571D02*
X93115715Y-40303571D01*
X93115715Y-40303571D02*
X93058572Y-40332142D01*
X93058572Y-40332142D02*
X93030001Y-40389285D01*
X93030001Y-40389285D02*
X93030001Y-40703571D01*
X92515715Y-40675000D02*
X92572858Y-40703571D01*
X92572858Y-40703571D02*
X92687144Y-40703571D01*
X92687144Y-40703571D02*
X92744286Y-40675000D01*
X92744286Y-40675000D02*
X92772858Y-40617857D01*
X92772858Y-40617857D02*
X92772858Y-40389285D01*
X92772858Y-40389285D02*
X92744286Y-40332142D01*
X92744286Y-40332142D02*
X92687144Y-40303571D01*
X92687144Y-40303571D02*
X92572858Y-40303571D01*
X92572858Y-40303571D02*
X92515715Y-40332142D01*
X92515715Y-40332142D02*
X92487144Y-40389285D01*
X92487144Y-40389285D02*
X92487144Y-40446428D01*
X92487144Y-40446428D02*
X92772858Y-40503571D01*
X105201429Y-41275571D02*
X105201429Y-41675571D01*
X105458571Y-41275571D02*
X105458571Y-41589857D01*
X105458571Y-41589857D02*
X105430000Y-41647000D01*
X105430000Y-41647000D02*
X105372857Y-41675571D01*
X105372857Y-41675571D02*
X105287143Y-41675571D01*
X105287143Y-41675571D02*
X105230000Y-41647000D01*
X105230000Y-41647000D02*
X105201429Y-41618428D01*
X104944286Y-41647000D02*
X104887143Y-41675571D01*
X104887143Y-41675571D02*
X104772857Y-41675571D01*
X104772857Y-41675571D02*
X104715714Y-41647000D01*
X104715714Y-41647000D02*
X104687143Y-41589857D01*
X104687143Y-41589857D02*
X104687143Y-41561285D01*
X104687143Y-41561285D02*
X104715714Y-41504142D01*
X104715714Y-41504142D02*
X104772857Y-41475571D01*
X104772857Y-41475571D02*
X104858572Y-41475571D01*
X104858572Y-41475571D02*
X104915714Y-41447000D01*
X104915714Y-41447000D02*
X104944286Y-41389857D01*
X104944286Y-41389857D02*
X104944286Y-41361285D01*
X104944286Y-41361285D02*
X104915714Y-41304142D01*
X104915714Y-41304142D02*
X104858572Y-41275571D01*
X104858572Y-41275571D02*
X104772857Y-41275571D01*
X104772857Y-41275571D02*
X104715714Y-41304142D01*
X104430000Y-41675571D02*
X104430000Y-41275571D01*
X104430000Y-41075571D02*
X104458572Y-41104142D01*
X104458572Y-41104142D02*
X104430000Y-41132714D01*
X104430000Y-41132714D02*
X104401429Y-41104142D01*
X104401429Y-41104142D02*
X104430000Y-41075571D01*
X104430000Y-41075571D02*
X104430000Y-41132714D01*
X104144286Y-41275571D02*
X104144286Y-41675571D01*
X104144286Y-41332714D02*
X104115715Y-41304142D01*
X104115715Y-41304142D02*
X104058572Y-41275571D01*
X104058572Y-41275571D02*
X103972858Y-41275571D01*
X103972858Y-41275571D02*
X103915715Y-41304142D01*
X103915715Y-41304142D02*
X103887144Y-41361285D01*
X103887144Y-41361285D02*
X103887144Y-41675571D01*
X103344287Y-41275571D02*
X103344287Y-41761285D01*
X103344287Y-41761285D02*
X103372858Y-41818428D01*
X103372858Y-41818428D02*
X103401429Y-41847000D01*
X103401429Y-41847000D02*
X103458572Y-41875571D01*
X103458572Y-41875571D02*
X103544287Y-41875571D01*
X103544287Y-41875571D02*
X103601429Y-41847000D01*
X103344287Y-41647000D02*
X103401429Y-41675571D01*
X103401429Y-41675571D02*
X103515715Y-41675571D01*
X103515715Y-41675571D02*
X103572858Y-41647000D01*
X103572858Y-41647000D02*
X103601429Y-41618428D01*
X103601429Y-41618428D02*
X103630001Y-41561285D01*
X103630001Y-41561285D02*
X103630001Y-41389857D01*
X103630001Y-41389857D02*
X103601429Y-41332714D01*
X103601429Y-41332714D02*
X103572858Y-41304142D01*
X103572858Y-41304142D02*
X103515715Y-41275571D01*
X103515715Y-41275571D02*
X103401429Y-41275571D01*
X103401429Y-41275571D02*
X103344287Y-41304142D01*
X102401429Y-41361285D02*
X102315715Y-41389857D01*
X102315715Y-41389857D02*
X102287144Y-41418428D01*
X102287144Y-41418428D02*
X102258572Y-41475571D01*
X102258572Y-41475571D02*
X102258572Y-41561285D01*
X102258572Y-41561285D02*
X102287144Y-41618428D01*
X102287144Y-41618428D02*
X102315715Y-41647000D01*
X102315715Y-41647000D02*
X102372858Y-41675571D01*
X102372858Y-41675571D02*
X102601429Y-41675571D01*
X102601429Y-41675571D02*
X102601429Y-41075571D01*
X102601429Y-41075571D02*
X102401429Y-41075571D01*
X102401429Y-41075571D02*
X102344287Y-41104142D01*
X102344287Y-41104142D02*
X102315715Y-41132714D01*
X102315715Y-41132714D02*
X102287144Y-41189857D01*
X102287144Y-41189857D02*
X102287144Y-41247000D01*
X102287144Y-41247000D02*
X102315715Y-41304142D01*
X102315715Y-41304142D02*
X102344287Y-41332714D01*
X102344287Y-41332714D02*
X102401429Y-41361285D01*
X102401429Y-41361285D02*
X102601429Y-41361285D01*
X101915715Y-41675571D02*
X101972858Y-41647000D01*
X101972858Y-41647000D02*
X102001429Y-41589857D01*
X102001429Y-41589857D02*
X102001429Y-41075571D01*
X101430001Y-41275571D02*
X101430001Y-41675571D01*
X101687143Y-41275571D02*
X101687143Y-41589857D01*
X101687143Y-41589857D02*
X101658572Y-41647000D01*
X101658572Y-41647000D02*
X101601429Y-41675571D01*
X101601429Y-41675571D02*
X101515715Y-41675571D01*
X101515715Y-41675571D02*
X101458572Y-41647000D01*
X101458572Y-41647000D02*
X101430001Y-41618428D01*
X100915715Y-41647000D02*
X100972858Y-41675571D01*
X100972858Y-41675571D02*
X101087144Y-41675571D01*
X101087144Y-41675571D02*
X101144286Y-41647000D01*
X101144286Y-41647000D02*
X101172858Y-41589857D01*
X101172858Y-41589857D02*
X101172858Y-41361285D01*
X101172858Y-41361285D02*
X101144286Y-41304142D01*
X101144286Y-41304142D02*
X101087144Y-41275571D01*
X101087144Y-41275571D02*
X100972858Y-41275571D01*
X100972858Y-41275571D02*
X100915715Y-41304142D01*
X100915715Y-41304142D02*
X100887144Y-41361285D01*
X100887144Y-41361285D02*
X100887144Y-41418428D01*
X100887144Y-41418428D02*
X101172858Y-41475571D01*
X100715715Y-41275571D02*
X100487143Y-41275571D01*
X100630000Y-41075571D02*
X100630000Y-41589857D01*
X100630000Y-41589857D02*
X100601429Y-41647000D01*
X100601429Y-41647000D02*
X100544286Y-41675571D01*
X100544286Y-41675571D02*
X100487143Y-41675571D01*
X100201429Y-41675571D02*
X100258572Y-41647000D01*
X100258572Y-41647000D02*
X100287143Y-41618428D01*
X100287143Y-41618428D02*
X100315715Y-41561285D01*
X100315715Y-41561285D02*
X100315715Y-41389857D01*
X100315715Y-41389857D02*
X100287143Y-41332714D01*
X100287143Y-41332714D02*
X100258572Y-41304142D01*
X100258572Y-41304142D02*
X100201429Y-41275571D01*
X100201429Y-41275571D02*
X100115715Y-41275571D01*
X100115715Y-41275571D02*
X100058572Y-41304142D01*
X100058572Y-41304142D02*
X100030001Y-41332714D01*
X100030001Y-41332714D02*
X100001429Y-41389857D01*
X100001429Y-41389857D02*
X100001429Y-41561285D01*
X100001429Y-41561285D02*
X100030001Y-41618428D01*
X100030001Y-41618428D02*
X100058572Y-41647000D01*
X100058572Y-41647000D02*
X100115715Y-41675571D01*
X100115715Y-41675571D02*
X100201429Y-41675571D01*
X99658572Y-41675571D02*
X99715715Y-41647000D01*
X99715715Y-41647000D02*
X99744286Y-41618428D01*
X99744286Y-41618428D02*
X99772858Y-41561285D01*
X99772858Y-41561285D02*
X99772858Y-41389857D01*
X99772858Y-41389857D02*
X99744286Y-41332714D01*
X99744286Y-41332714D02*
X99715715Y-41304142D01*
X99715715Y-41304142D02*
X99658572Y-41275571D01*
X99658572Y-41275571D02*
X99572858Y-41275571D01*
X99572858Y-41275571D02*
X99515715Y-41304142D01*
X99515715Y-41304142D02*
X99487144Y-41332714D01*
X99487144Y-41332714D02*
X99458572Y-41389857D01*
X99458572Y-41389857D02*
X99458572Y-41561285D01*
X99458572Y-41561285D02*
X99487144Y-41618428D01*
X99487144Y-41618428D02*
X99515715Y-41647000D01*
X99515715Y-41647000D02*
X99572858Y-41675571D01*
X99572858Y-41675571D02*
X99658572Y-41675571D01*
X99287144Y-41275571D02*
X99058572Y-41275571D01*
X99201429Y-41075571D02*
X99201429Y-41589857D01*
X99201429Y-41589857D02*
X99172858Y-41647000D01*
X99172858Y-41647000D02*
X99115715Y-41675571D01*
X99115715Y-41675571D02*
X99058572Y-41675571D01*
X98858572Y-41675571D02*
X98858572Y-41075571D01*
X98601430Y-41675571D02*
X98601430Y-41361285D01*
X98601430Y-41361285D02*
X98630001Y-41304142D01*
X98630001Y-41304142D02*
X98687144Y-41275571D01*
X98687144Y-41275571D02*
X98772858Y-41275571D01*
X98772858Y-41275571D02*
X98830001Y-41304142D01*
X98830001Y-41304142D02*
X98858572Y-41332714D01*
X97772858Y-41675571D02*
X97830001Y-41647000D01*
X97830001Y-41647000D02*
X97858572Y-41618428D01*
X97858572Y-41618428D02*
X97887144Y-41561285D01*
X97887144Y-41561285D02*
X97887144Y-41389857D01*
X97887144Y-41389857D02*
X97858572Y-41332714D01*
X97858572Y-41332714D02*
X97830001Y-41304142D01*
X97830001Y-41304142D02*
X97772858Y-41275571D01*
X97772858Y-41275571D02*
X97687144Y-41275571D01*
X97687144Y-41275571D02*
X97630001Y-41304142D01*
X97630001Y-41304142D02*
X97601430Y-41332714D01*
X97601430Y-41332714D02*
X97572858Y-41389857D01*
X97572858Y-41389857D02*
X97572858Y-41561285D01*
X97572858Y-41561285D02*
X97601430Y-41618428D01*
X97601430Y-41618428D02*
X97630001Y-41647000D01*
X97630001Y-41647000D02*
X97687144Y-41675571D01*
X97687144Y-41675571D02*
X97772858Y-41675571D01*
X97315715Y-41275571D02*
X97315715Y-41675571D01*
X97315715Y-41332714D02*
X97287144Y-41304142D01*
X97287144Y-41304142D02*
X97230001Y-41275571D01*
X97230001Y-41275571D02*
X97144287Y-41275571D01*
X97144287Y-41275571D02*
X97087144Y-41304142D01*
X97087144Y-41304142D02*
X97058573Y-41361285D01*
X97058573Y-41361285D02*
X97058573Y-41675571D01*
X96401430Y-41275571D02*
X96172858Y-41275571D01*
X96315715Y-41075571D02*
X96315715Y-41589857D01*
X96315715Y-41589857D02*
X96287144Y-41647000D01*
X96287144Y-41647000D02*
X96230001Y-41675571D01*
X96230001Y-41675571D02*
X96172858Y-41675571D01*
X95972858Y-41675571D02*
X95972858Y-41075571D01*
X95715716Y-41675571D02*
X95715716Y-41361285D01*
X95715716Y-41361285D02*
X95744287Y-41304142D01*
X95744287Y-41304142D02*
X95801430Y-41275571D01*
X95801430Y-41275571D02*
X95887144Y-41275571D01*
X95887144Y-41275571D02*
X95944287Y-41304142D01*
X95944287Y-41304142D02*
X95972858Y-41332714D01*
X95201430Y-41647000D02*
X95258573Y-41675571D01*
X95258573Y-41675571D02*
X95372859Y-41675571D01*
X95372859Y-41675571D02*
X95430001Y-41647000D01*
X95430001Y-41647000D02*
X95458573Y-41589857D01*
X95458573Y-41589857D02*
X95458573Y-41361285D01*
X95458573Y-41361285D02*
X95430001Y-41304142D01*
X95430001Y-41304142D02*
X95372859Y-41275571D01*
X95372859Y-41275571D02*
X95258573Y-41275571D01*
X95258573Y-41275571D02*
X95201430Y-41304142D01*
X95201430Y-41304142D02*
X95172859Y-41361285D01*
X95172859Y-41361285D02*
X95172859Y-41418428D01*
X95172859Y-41418428D02*
X95458573Y-41475571D01*
X94458572Y-41361285D02*
X94258572Y-41361285D01*
X94172858Y-41675571D02*
X94458572Y-41675571D01*
X94458572Y-41675571D02*
X94458572Y-41075571D01*
X94458572Y-41075571D02*
X94172858Y-41075571D01*
X93944287Y-41647000D02*
X93858573Y-41675571D01*
X93858573Y-41675571D02*
X93715715Y-41675571D01*
X93715715Y-41675571D02*
X93658573Y-41647000D01*
X93658573Y-41647000D02*
X93630001Y-41618428D01*
X93630001Y-41618428D02*
X93601430Y-41561285D01*
X93601430Y-41561285D02*
X93601430Y-41504142D01*
X93601430Y-41504142D02*
X93630001Y-41447000D01*
X93630001Y-41447000D02*
X93658573Y-41418428D01*
X93658573Y-41418428D02*
X93715715Y-41389857D01*
X93715715Y-41389857D02*
X93830001Y-41361285D01*
X93830001Y-41361285D02*
X93887144Y-41332714D01*
X93887144Y-41332714D02*
X93915715Y-41304142D01*
X93915715Y-41304142D02*
X93944287Y-41247000D01*
X93944287Y-41247000D02*
X93944287Y-41189857D01*
X93944287Y-41189857D02*
X93915715Y-41132714D01*
X93915715Y-41132714D02*
X93887144Y-41104142D01*
X93887144Y-41104142D02*
X93830001Y-41075571D01*
X93830001Y-41075571D02*
X93687144Y-41075571D01*
X93687144Y-41075571D02*
X93601430Y-41104142D01*
X93344286Y-41675571D02*
X93344286Y-41075571D01*
X93344286Y-41075571D02*
X93115715Y-41075571D01*
X93115715Y-41075571D02*
X93058572Y-41104142D01*
X93058572Y-41104142D02*
X93030001Y-41132714D01*
X93030001Y-41132714D02*
X93001429Y-41189857D01*
X93001429Y-41189857D02*
X93001429Y-41275571D01*
X93001429Y-41275571D02*
X93030001Y-41332714D01*
X93030001Y-41332714D02*
X93058572Y-41361285D01*
X93058572Y-41361285D02*
X93115715Y-41389857D01*
X93115715Y-41389857D02*
X93344286Y-41389857D01*
X92801429Y-41075571D02*
X92430001Y-41075571D01*
X92430001Y-41075571D02*
X92630001Y-41304142D01*
X92630001Y-41304142D02*
X92544286Y-41304142D01*
X92544286Y-41304142D02*
X92487144Y-41332714D01*
X92487144Y-41332714D02*
X92458572Y-41361285D01*
X92458572Y-41361285D02*
X92430001Y-41418428D01*
X92430001Y-41418428D02*
X92430001Y-41561285D01*
X92430001Y-41561285D02*
X92458572Y-41618428D01*
X92458572Y-41618428D02*
X92487144Y-41647000D01*
X92487144Y-41647000D02*
X92544286Y-41675571D01*
X92544286Y-41675571D02*
X92715715Y-41675571D01*
X92715715Y-41675571D02*
X92772858Y-41647000D01*
X92772858Y-41647000D02*
X92801429Y-41618428D01*
X92201429Y-41132714D02*
X92172857Y-41104142D01*
X92172857Y-41104142D02*
X92115715Y-41075571D01*
X92115715Y-41075571D02*
X91972857Y-41075571D01*
X91972857Y-41075571D02*
X91915715Y-41104142D01*
X91915715Y-41104142D02*
X91887143Y-41132714D01*
X91887143Y-41132714D02*
X91858572Y-41189857D01*
X91858572Y-41189857D02*
X91858572Y-41247000D01*
X91858572Y-41247000D02*
X91887143Y-41332714D01*
X91887143Y-41332714D02*
X92230000Y-41675571D01*
X92230000Y-41675571D02*
X91858572Y-41675571D01*
X91601428Y-41618428D02*
X91572857Y-41647000D01*
X91572857Y-41647000D02*
X91601428Y-41675571D01*
X91601428Y-41675571D02*
X91630000Y-41647000D01*
X91630000Y-41647000D02*
X91601428Y-41618428D01*
X91601428Y-41618428D02*
X91601428Y-41675571D01*
X90858571Y-41675571D02*
X90858571Y-41075571D01*
X90858571Y-41075571D02*
X90630000Y-41075571D01*
X90630000Y-41075571D02*
X90572857Y-41104142D01*
X90572857Y-41104142D02*
X90544286Y-41132714D01*
X90544286Y-41132714D02*
X90515714Y-41189857D01*
X90515714Y-41189857D02*
X90515714Y-41275571D01*
X90515714Y-41275571D02*
X90544286Y-41332714D01*
X90544286Y-41332714D02*
X90572857Y-41361285D01*
X90572857Y-41361285D02*
X90630000Y-41389857D01*
X90630000Y-41389857D02*
X90858571Y-41389857D01*
X90172857Y-41675571D02*
X90230000Y-41647000D01*
X90230000Y-41647000D02*
X90258571Y-41618428D01*
X90258571Y-41618428D02*
X90287143Y-41561285D01*
X90287143Y-41561285D02*
X90287143Y-41389857D01*
X90287143Y-41389857D02*
X90258571Y-41332714D01*
X90258571Y-41332714D02*
X90230000Y-41304142D01*
X90230000Y-41304142D02*
X90172857Y-41275571D01*
X90172857Y-41275571D02*
X90087143Y-41275571D01*
X90087143Y-41275571D02*
X90030000Y-41304142D01*
X90030000Y-41304142D02*
X90001429Y-41332714D01*
X90001429Y-41332714D02*
X89972857Y-41389857D01*
X89972857Y-41389857D02*
X89972857Y-41561285D01*
X89972857Y-41561285D02*
X90001429Y-41618428D01*
X90001429Y-41618428D02*
X90030000Y-41647000D01*
X90030000Y-41647000D02*
X90087143Y-41675571D01*
X90087143Y-41675571D02*
X90172857Y-41675571D01*
X89744286Y-41647000D02*
X89687143Y-41675571D01*
X89687143Y-41675571D02*
X89572857Y-41675571D01*
X89572857Y-41675571D02*
X89515714Y-41647000D01*
X89515714Y-41647000D02*
X89487143Y-41589857D01*
X89487143Y-41589857D02*
X89487143Y-41561285D01*
X89487143Y-41561285D02*
X89515714Y-41504142D01*
X89515714Y-41504142D02*
X89572857Y-41475571D01*
X89572857Y-41475571D02*
X89658572Y-41475571D01*
X89658572Y-41475571D02*
X89715714Y-41447000D01*
X89715714Y-41447000D02*
X89744286Y-41389857D01*
X89744286Y-41389857D02*
X89744286Y-41361285D01*
X89744286Y-41361285D02*
X89715714Y-41304142D01*
X89715714Y-41304142D02*
X89658572Y-41275571D01*
X89658572Y-41275571D02*
X89572857Y-41275571D01*
X89572857Y-41275571D02*
X89515714Y-41304142D01*
X89258572Y-41647000D02*
X89201429Y-41675571D01*
X89201429Y-41675571D02*
X89087143Y-41675571D01*
X89087143Y-41675571D02*
X89030000Y-41647000D01*
X89030000Y-41647000D02*
X89001429Y-41589857D01*
X89001429Y-41589857D02*
X89001429Y-41561285D01*
X89001429Y-41561285D02*
X89030000Y-41504142D01*
X89030000Y-41504142D02*
X89087143Y-41475571D01*
X89087143Y-41475571D02*
X89172858Y-41475571D01*
X89172858Y-41475571D02*
X89230000Y-41447000D01*
X89230000Y-41447000D02*
X89258572Y-41389857D01*
X89258572Y-41389857D02*
X89258572Y-41361285D01*
X89258572Y-41361285D02*
X89230000Y-41304142D01*
X89230000Y-41304142D02*
X89172858Y-41275571D01*
X89172858Y-41275571D02*
X89087143Y-41275571D01*
X89087143Y-41275571D02*
X89030000Y-41304142D01*
X88744286Y-41675571D02*
X88744286Y-41275571D01*
X88744286Y-41075571D02*
X88772858Y-41104142D01*
X88772858Y-41104142D02*
X88744286Y-41132714D01*
X88744286Y-41132714D02*
X88715715Y-41104142D01*
X88715715Y-41104142D02*
X88744286Y-41075571D01*
X88744286Y-41075571D02*
X88744286Y-41132714D01*
X88458572Y-41675571D02*
X88458572Y-41075571D01*
X88458572Y-41304142D02*
X88401430Y-41275571D01*
X88401430Y-41275571D02*
X88287144Y-41275571D01*
X88287144Y-41275571D02*
X88230001Y-41304142D01*
X88230001Y-41304142D02*
X88201430Y-41332714D01*
X88201430Y-41332714D02*
X88172858Y-41389857D01*
X88172858Y-41389857D02*
X88172858Y-41561285D01*
X88172858Y-41561285D02*
X88201430Y-41618428D01*
X88201430Y-41618428D02*
X88230001Y-41647000D01*
X88230001Y-41647000D02*
X88287144Y-41675571D01*
X88287144Y-41675571D02*
X88401430Y-41675571D01*
X88401430Y-41675571D02*
X88458572Y-41647000D01*
X87830001Y-41675571D02*
X87887144Y-41647000D01*
X87887144Y-41647000D02*
X87915715Y-41589857D01*
X87915715Y-41589857D02*
X87915715Y-41075571D01*
X87372858Y-41647000D02*
X87430001Y-41675571D01*
X87430001Y-41675571D02*
X87544287Y-41675571D01*
X87544287Y-41675571D02*
X87601429Y-41647000D01*
X87601429Y-41647000D02*
X87630001Y-41589857D01*
X87630001Y-41589857D02*
X87630001Y-41361285D01*
X87630001Y-41361285D02*
X87601429Y-41304142D01*
X87601429Y-41304142D02*
X87544287Y-41275571D01*
X87544287Y-41275571D02*
X87430001Y-41275571D01*
X87430001Y-41275571D02*
X87372858Y-41304142D01*
X87372858Y-41304142D02*
X87344287Y-41361285D01*
X87344287Y-41361285D02*
X87344287Y-41418428D01*
X87344287Y-41418428D02*
X87630001Y-41475571D01*
X86715715Y-41275571D02*
X86487143Y-41275571D01*
X86630000Y-41075571D02*
X86630000Y-41589857D01*
X86630000Y-41589857D02*
X86601429Y-41647000D01*
X86601429Y-41647000D02*
X86544286Y-41675571D01*
X86544286Y-41675571D02*
X86487143Y-41675571D01*
X86201429Y-41675571D02*
X86258572Y-41647000D01*
X86258572Y-41647000D02*
X86287143Y-41618428D01*
X86287143Y-41618428D02*
X86315715Y-41561285D01*
X86315715Y-41561285D02*
X86315715Y-41389857D01*
X86315715Y-41389857D02*
X86287143Y-41332714D01*
X86287143Y-41332714D02*
X86258572Y-41304142D01*
X86258572Y-41304142D02*
X86201429Y-41275571D01*
X86201429Y-41275571D02*
X86115715Y-41275571D01*
X86115715Y-41275571D02*
X86058572Y-41304142D01*
X86058572Y-41304142D02*
X86030001Y-41332714D01*
X86030001Y-41332714D02*
X86001429Y-41389857D01*
X86001429Y-41389857D02*
X86001429Y-41561285D01*
X86001429Y-41561285D02*
X86030001Y-41618428D01*
X86030001Y-41618428D02*
X86058572Y-41647000D01*
X86058572Y-41647000D02*
X86115715Y-41675571D01*
X86115715Y-41675571D02*
X86201429Y-41675571D01*
X105201429Y-43619571D02*
X105201429Y-43305285D01*
X105201429Y-43305285D02*
X105230000Y-43248142D01*
X105230000Y-43248142D02*
X105287143Y-43219571D01*
X105287143Y-43219571D02*
X105401429Y-43219571D01*
X105401429Y-43219571D02*
X105458571Y-43248142D01*
X105201429Y-43591000D02*
X105258571Y-43619571D01*
X105258571Y-43619571D02*
X105401429Y-43619571D01*
X105401429Y-43619571D02*
X105458571Y-43591000D01*
X105458571Y-43591000D02*
X105487143Y-43533857D01*
X105487143Y-43533857D02*
X105487143Y-43476714D01*
X105487143Y-43476714D02*
X105458571Y-43419571D01*
X105458571Y-43419571D02*
X105401429Y-43391000D01*
X105401429Y-43391000D02*
X105258571Y-43391000D01*
X105258571Y-43391000D02*
X105201429Y-43362428D01*
X104658572Y-43619571D02*
X104658572Y-43019571D01*
X104658572Y-43591000D02*
X104715714Y-43619571D01*
X104715714Y-43619571D02*
X104830000Y-43619571D01*
X104830000Y-43619571D02*
X104887143Y-43591000D01*
X104887143Y-43591000D02*
X104915714Y-43562428D01*
X104915714Y-43562428D02*
X104944286Y-43505285D01*
X104944286Y-43505285D02*
X104944286Y-43333857D01*
X104944286Y-43333857D02*
X104915714Y-43276714D01*
X104915714Y-43276714D02*
X104887143Y-43248142D01*
X104887143Y-43248142D02*
X104830000Y-43219571D01*
X104830000Y-43219571D02*
X104715714Y-43219571D01*
X104715714Y-43219571D02*
X104658572Y-43248142D01*
X104115715Y-43619571D02*
X104115715Y-43019571D01*
X104115715Y-43591000D02*
X104172857Y-43619571D01*
X104172857Y-43619571D02*
X104287143Y-43619571D01*
X104287143Y-43619571D02*
X104344286Y-43591000D01*
X104344286Y-43591000D02*
X104372857Y-43562428D01*
X104372857Y-43562428D02*
X104401429Y-43505285D01*
X104401429Y-43505285D02*
X104401429Y-43333857D01*
X104401429Y-43333857D02*
X104372857Y-43276714D01*
X104372857Y-43276714D02*
X104344286Y-43248142D01*
X104344286Y-43248142D02*
X104287143Y-43219571D01*
X104287143Y-43219571D02*
X104172857Y-43219571D01*
X104172857Y-43219571D02*
X104115715Y-43248142D01*
X103115715Y-43591000D02*
X103172857Y-43619571D01*
X103172857Y-43619571D02*
X103287143Y-43619571D01*
X103287143Y-43619571D02*
X103344286Y-43591000D01*
X103344286Y-43591000D02*
X103372857Y-43562428D01*
X103372857Y-43562428D02*
X103401429Y-43505285D01*
X103401429Y-43505285D02*
X103401429Y-43333857D01*
X103401429Y-43333857D02*
X103372857Y-43276714D01*
X103372857Y-43276714D02*
X103344286Y-43248142D01*
X103344286Y-43248142D02*
X103287143Y-43219571D01*
X103287143Y-43219571D02*
X103172857Y-43219571D01*
X103172857Y-43219571D02*
X103115715Y-43248142D01*
X102772857Y-43619571D02*
X102830000Y-43591000D01*
X102830000Y-43591000D02*
X102858571Y-43562428D01*
X102858571Y-43562428D02*
X102887143Y-43505285D01*
X102887143Y-43505285D02*
X102887143Y-43333857D01*
X102887143Y-43333857D02*
X102858571Y-43276714D01*
X102858571Y-43276714D02*
X102830000Y-43248142D01*
X102830000Y-43248142D02*
X102772857Y-43219571D01*
X102772857Y-43219571D02*
X102687143Y-43219571D01*
X102687143Y-43219571D02*
X102630000Y-43248142D01*
X102630000Y-43248142D02*
X102601429Y-43276714D01*
X102601429Y-43276714D02*
X102572857Y-43333857D01*
X102572857Y-43333857D02*
X102572857Y-43505285D01*
X102572857Y-43505285D02*
X102601429Y-43562428D01*
X102601429Y-43562428D02*
X102630000Y-43591000D01*
X102630000Y-43591000D02*
X102687143Y-43619571D01*
X102687143Y-43619571D02*
X102772857Y-43619571D01*
X102315714Y-43619571D02*
X102315714Y-43219571D01*
X102315714Y-43276714D02*
X102287143Y-43248142D01*
X102287143Y-43248142D02*
X102230000Y-43219571D01*
X102230000Y-43219571D02*
X102144286Y-43219571D01*
X102144286Y-43219571D02*
X102087143Y-43248142D01*
X102087143Y-43248142D02*
X102058572Y-43305285D01*
X102058572Y-43305285D02*
X102058572Y-43619571D01*
X102058572Y-43305285D02*
X102030000Y-43248142D01*
X102030000Y-43248142D02*
X101972857Y-43219571D01*
X101972857Y-43219571D02*
X101887143Y-43219571D01*
X101887143Y-43219571D02*
X101830000Y-43248142D01*
X101830000Y-43248142D02*
X101801429Y-43305285D01*
X101801429Y-43305285D02*
X101801429Y-43619571D01*
X101515714Y-43219571D02*
X101515714Y-43819571D01*
X101515714Y-43248142D02*
X101458572Y-43219571D01*
X101458572Y-43219571D02*
X101344286Y-43219571D01*
X101344286Y-43219571D02*
X101287143Y-43248142D01*
X101287143Y-43248142D02*
X101258572Y-43276714D01*
X101258572Y-43276714D02*
X101230000Y-43333857D01*
X101230000Y-43333857D02*
X101230000Y-43505285D01*
X101230000Y-43505285D02*
X101258572Y-43562428D01*
X101258572Y-43562428D02*
X101287143Y-43591000D01*
X101287143Y-43591000D02*
X101344286Y-43619571D01*
X101344286Y-43619571D02*
X101458572Y-43619571D01*
X101458572Y-43619571D02*
X101515714Y-43591000D01*
X100887143Y-43619571D02*
X100944286Y-43591000D01*
X100944286Y-43591000D02*
X100972857Y-43562428D01*
X100972857Y-43562428D02*
X101001429Y-43505285D01*
X101001429Y-43505285D02*
X101001429Y-43333857D01*
X101001429Y-43333857D02*
X100972857Y-43276714D01*
X100972857Y-43276714D02*
X100944286Y-43248142D01*
X100944286Y-43248142D02*
X100887143Y-43219571D01*
X100887143Y-43219571D02*
X100801429Y-43219571D01*
X100801429Y-43219571D02*
X100744286Y-43248142D01*
X100744286Y-43248142D02*
X100715715Y-43276714D01*
X100715715Y-43276714D02*
X100687143Y-43333857D01*
X100687143Y-43333857D02*
X100687143Y-43505285D01*
X100687143Y-43505285D02*
X100715715Y-43562428D01*
X100715715Y-43562428D02*
X100744286Y-43591000D01*
X100744286Y-43591000D02*
X100801429Y-43619571D01*
X100801429Y-43619571D02*
X100887143Y-43619571D01*
X100430000Y-43219571D02*
X100430000Y-43619571D01*
X100430000Y-43276714D02*
X100401429Y-43248142D01*
X100401429Y-43248142D02*
X100344286Y-43219571D01*
X100344286Y-43219571D02*
X100258572Y-43219571D01*
X100258572Y-43219571D02*
X100201429Y-43248142D01*
X100201429Y-43248142D02*
X100172858Y-43305285D01*
X100172858Y-43305285D02*
X100172858Y-43619571D01*
X99658572Y-43591000D02*
X99715715Y-43619571D01*
X99715715Y-43619571D02*
X99830001Y-43619571D01*
X99830001Y-43619571D02*
X99887143Y-43591000D01*
X99887143Y-43591000D02*
X99915715Y-43533857D01*
X99915715Y-43533857D02*
X99915715Y-43305285D01*
X99915715Y-43305285D02*
X99887143Y-43248142D01*
X99887143Y-43248142D02*
X99830001Y-43219571D01*
X99830001Y-43219571D02*
X99715715Y-43219571D01*
X99715715Y-43219571D02*
X99658572Y-43248142D01*
X99658572Y-43248142D02*
X99630001Y-43305285D01*
X99630001Y-43305285D02*
X99630001Y-43362428D01*
X99630001Y-43362428D02*
X99915715Y-43419571D01*
X99372857Y-43219571D02*
X99372857Y-43619571D01*
X99372857Y-43276714D02*
X99344286Y-43248142D01*
X99344286Y-43248142D02*
X99287143Y-43219571D01*
X99287143Y-43219571D02*
X99201429Y-43219571D01*
X99201429Y-43219571D02*
X99144286Y-43248142D01*
X99144286Y-43248142D02*
X99115715Y-43305285D01*
X99115715Y-43305285D02*
X99115715Y-43619571D01*
X98915715Y-43219571D02*
X98687143Y-43219571D01*
X98830000Y-43019571D02*
X98830000Y-43533857D01*
X98830000Y-43533857D02*
X98801429Y-43591000D01*
X98801429Y-43591000D02*
X98744286Y-43619571D01*
X98744286Y-43619571D02*
X98687143Y-43619571D01*
X98515715Y-43591000D02*
X98458572Y-43619571D01*
X98458572Y-43619571D02*
X98344286Y-43619571D01*
X98344286Y-43619571D02*
X98287143Y-43591000D01*
X98287143Y-43591000D02*
X98258572Y-43533857D01*
X98258572Y-43533857D02*
X98258572Y-43505285D01*
X98258572Y-43505285D02*
X98287143Y-43448142D01*
X98287143Y-43448142D02*
X98344286Y-43419571D01*
X98344286Y-43419571D02*
X98430001Y-43419571D01*
X98430001Y-43419571D02*
X98487143Y-43391000D01*
X98487143Y-43391000D02*
X98515715Y-43333857D01*
X98515715Y-43333857D02*
X98515715Y-43305285D01*
X98515715Y-43305285D02*
X98487143Y-43248142D01*
X98487143Y-43248142D02*
X98430001Y-43219571D01*
X98430001Y-43219571D02*
X98344286Y-43219571D01*
X98344286Y-43219571D02*
X98287143Y-43248142D01*
X97287144Y-43219571D02*
X97287144Y-43619571D01*
X97544286Y-43219571D02*
X97544286Y-43533857D01*
X97544286Y-43533857D02*
X97515715Y-43591000D01*
X97515715Y-43591000D02*
X97458572Y-43619571D01*
X97458572Y-43619571D02*
X97372858Y-43619571D01*
X97372858Y-43619571D02*
X97315715Y-43591000D01*
X97315715Y-43591000D02*
X97287144Y-43562428D01*
X97030001Y-43591000D02*
X96972858Y-43619571D01*
X96972858Y-43619571D02*
X96858572Y-43619571D01*
X96858572Y-43619571D02*
X96801429Y-43591000D01*
X96801429Y-43591000D02*
X96772858Y-43533857D01*
X96772858Y-43533857D02*
X96772858Y-43505285D01*
X96772858Y-43505285D02*
X96801429Y-43448142D01*
X96801429Y-43448142D02*
X96858572Y-43419571D01*
X96858572Y-43419571D02*
X96944287Y-43419571D01*
X96944287Y-43419571D02*
X97001429Y-43391000D01*
X97001429Y-43391000D02*
X97030001Y-43333857D01*
X97030001Y-43333857D02*
X97030001Y-43305285D01*
X97030001Y-43305285D02*
X97001429Y-43248142D01*
X97001429Y-43248142D02*
X96944287Y-43219571D01*
X96944287Y-43219571D02*
X96858572Y-43219571D01*
X96858572Y-43219571D02*
X96801429Y-43248142D01*
X96515715Y-43619571D02*
X96515715Y-43219571D01*
X96515715Y-43019571D02*
X96544287Y-43048142D01*
X96544287Y-43048142D02*
X96515715Y-43076714D01*
X96515715Y-43076714D02*
X96487144Y-43048142D01*
X96487144Y-43048142D02*
X96515715Y-43019571D01*
X96515715Y-43019571D02*
X96515715Y-43076714D01*
X96230001Y-43219571D02*
X96230001Y-43619571D01*
X96230001Y-43276714D02*
X96201430Y-43248142D01*
X96201430Y-43248142D02*
X96144287Y-43219571D01*
X96144287Y-43219571D02*
X96058573Y-43219571D01*
X96058573Y-43219571D02*
X96001430Y-43248142D01*
X96001430Y-43248142D02*
X95972859Y-43305285D01*
X95972859Y-43305285D02*
X95972859Y-43619571D01*
X95430002Y-43219571D02*
X95430002Y-43705285D01*
X95430002Y-43705285D02*
X95458573Y-43762428D01*
X95458573Y-43762428D02*
X95487144Y-43791000D01*
X95487144Y-43791000D02*
X95544287Y-43819571D01*
X95544287Y-43819571D02*
X95630002Y-43819571D01*
X95630002Y-43819571D02*
X95687144Y-43791000D01*
X95430002Y-43591000D02*
X95487144Y-43619571D01*
X95487144Y-43619571D02*
X95601430Y-43619571D01*
X95601430Y-43619571D02*
X95658573Y-43591000D01*
X95658573Y-43591000D02*
X95687144Y-43562428D01*
X95687144Y-43562428D02*
X95715716Y-43505285D01*
X95715716Y-43505285D02*
X95715716Y-43333857D01*
X95715716Y-43333857D02*
X95687144Y-43276714D01*
X95687144Y-43276714D02*
X95658573Y-43248142D01*
X95658573Y-43248142D02*
X95601430Y-43219571D01*
X95601430Y-43219571D02*
X95487144Y-43219571D01*
X95487144Y-43219571D02*
X95430002Y-43248142D01*
X94772859Y-43219571D02*
X94544287Y-43219571D01*
X94687144Y-43019571D02*
X94687144Y-43533857D01*
X94687144Y-43533857D02*
X94658573Y-43591000D01*
X94658573Y-43591000D02*
X94601430Y-43619571D01*
X94601430Y-43619571D02*
X94544287Y-43619571D01*
X94344287Y-43619571D02*
X94344287Y-43019571D01*
X94087145Y-43619571D02*
X94087145Y-43305285D01*
X94087145Y-43305285D02*
X94115716Y-43248142D01*
X94115716Y-43248142D02*
X94172859Y-43219571D01*
X94172859Y-43219571D02*
X94258573Y-43219571D01*
X94258573Y-43219571D02*
X94315716Y-43248142D01*
X94315716Y-43248142D02*
X94344287Y-43276714D01*
X93572859Y-43591000D02*
X93630002Y-43619571D01*
X93630002Y-43619571D02*
X93744288Y-43619571D01*
X93744288Y-43619571D02*
X93801430Y-43591000D01*
X93801430Y-43591000D02*
X93830002Y-43533857D01*
X93830002Y-43533857D02*
X93830002Y-43305285D01*
X93830002Y-43305285D02*
X93801430Y-43248142D01*
X93801430Y-43248142D02*
X93744288Y-43219571D01*
X93744288Y-43219571D02*
X93630002Y-43219571D01*
X93630002Y-43219571D02*
X93572859Y-43248142D01*
X93572859Y-43248142D02*
X93544288Y-43305285D01*
X93544288Y-43305285D02*
X93544288Y-43362428D01*
X93544288Y-43362428D02*
X93830002Y-43419571D01*
X92601430Y-43591000D02*
X92658573Y-43619571D01*
X92658573Y-43619571D02*
X92772859Y-43619571D01*
X92772859Y-43619571D02*
X92830001Y-43591000D01*
X92830001Y-43591000D02*
X92858573Y-43533857D01*
X92858573Y-43533857D02*
X92858573Y-43305285D01*
X92858573Y-43305285D02*
X92830001Y-43248142D01*
X92830001Y-43248142D02*
X92772859Y-43219571D01*
X92772859Y-43219571D02*
X92658573Y-43219571D01*
X92658573Y-43219571D02*
X92601430Y-43248142D01*
X92601430Y-43248142D02*
X92572859Y-43305285D01*
X92572859Y-43305285D02*
X92572859Y-43362428D01*
X92572859Y-43362428D02*
X92858573Y-43419571D01*
X92372858Y-43619571D02*
X92058573Y-43219571D01*
X92372858Y-43219571D02*
X92058573Y-43619571D01*
X91915716Y-43219571D02*
X91687144Y-43219571D01*
X91830001Y-43019571D02*
X91830001Y-43533857D01*
X91830001Y-43533857D02*
X91801430Y-43591000D01*
X91801430Y-43591000D02*
X91744287Y-43619571D01*
X91744287Y-43619571D02*
X91687144Y-43619571D01*
X91487144Y-43619571D02*
X91487144Y-43219571D01*
X91487144Y-43333857D02*
X91458573Y-43276714D01*
X91458573Y-43276714D02*
X91430002Y-43248142D01*
X91430002Y-43248142D02*
X91372859Y-43219571D01*
X91372859Y-43219571D02*
X91315716Y-43219571D01*
X90858573Y-43619571D02*
X90858573Y-43305285D01*
X90858573Y-43305285D02*
X90887144Y-43248142D01*
X90887144Y-43248142D02*
X90944287Y-43219571D01*
X90944287Y-43219571D02*
X91058573Y-43219571D01*
X91058573Y-43219571D02*
X91115715Y-43248142D01*
X90858573Y-43591000D02*
X90915715Y-43619571D01*
X90915715Y-43619571D02*
X91058573Y-43619571D01*
X91058573Y-43619571D02*
X91115715Y-43591000D01*
X91115715Y-43591000D02*
X91144287Y-43533857D01*
X91144287Y-43533857D02*
X91144287Y-43476714D01*
X91144287Y-43476714D02*
X91115715Y-43419571D01*
X91115715Y-43419571D02*
X91058573Y-43391000D01*
X91058573Y-43391000D02*
X90915715Y-43391000D01*
X90915715Y-43391000D02*
X90858573Y-43362428D01*
X90115715Y-43219571D02*
X90115715Y-43819571D01*
X90115715Y-43248142D02*
X90058573Y-43219571D01*
X90058573Y-43219571D02*
X89944287Y-43219571D01*
X89944287Y-43219571D02*
X89887144Y-43248142D01*
X89887144Y-43248142D02*
X89858573Y-43276714D01*
X89858573Y-43276714D02*
X89830001Y-43333857D01*
X89830001Y-43333857D02*
X89830001Y-43505285D01*
X89830001Y-43505285D02*
X89858573Y-43562428D01*
X89858573Y-43562428D02*
X89887144Y-43591000D01*
X89887144Y-43591000D02*
X89944287Y-43619571D01*
X89944287Y-43619571D02*
X90058573Y-43619571D01*
X90058573Y-43619571D02*
X90115715Y-43591000D01*
X89572858Y-43619571D02*
X89572858Y-43219571D01*
X89572858Y-43019571D02*
X89601430Y-43048142D01*
X89601430Y-43048142D02*
X89572858Y-43076714D01*
X89572858Y-43076714D02*
X89544287Y-43048142D01*
X89544287Y-43048142D02*
X89572858Y-43019571D01*
X89572858Y-43019571D02*
X89572858Y-43076714D01*
X89287144Y-43219571D02*
X89287144Y-43619571D01*
X89287144Y-43276714D02*
X89258573Y-43248142D01*
X89258573Y-43248142D02*
X89201430Y-43219571D01*
X89201430Y-43219571D02*
X89115716Y-43219571D01*
X89115716Y-43219571D02*
X89058573Y-43248142D01*
X89058573Y-43248142D02*
X89030002Y-43305285D01*
X89030002Y-43305285D02*
X89030002Y-43619571D01*
X88772859Y-43591000D02*
X88715716Y-43619571D01*
X88715716Y-43619571D02*
X88601430Y-43619571D01*
X88601430Y-43619571D02*
X88544287Y-43591000D01*
X88544287Y-43591000D02*
X88515716Y-43533857D01*
X88515716Y-43533857D02*
X88515716Y-43505285D01*
X88515716Y-43505285D02*
X88544287Y-43448142D01*
X88544287Y-43448142D02*
X88601430Y-43419571D01*
X88601430Y-43419571D02*
X88687145Y-43419571D01*
X88687145Y-43419571D02*
X88744287Y-43391000D01*
X88744287Y-43391000D02*
X88772859Y-43333857D01*
X88772859Y-43333857D02*
X88772859Y-43305285D01*
X88772859Y-43305285D02*
X88744287Y-43248142D01*
X88744287Y-43248142D02*
X88687145Y-43219571D01*
X88687145Y-43219571D02*
X88601430Y-43219571D01*
X88601430Y-43219571D02*
X88544287Y-43248142D01*
X108915714Y-44820142D02*
X108944285Y-44791571D01*
X108944285Y-44791571D02*
X109001428Y-44705857D01*
X109001428Y-44705857D02*
X109030000Y-44648714D01*
X109030000Y-44648714D02*
X109058571Y-44563000D01*
X109058571Y-44563000D02*
X109087142Y-44420142D01*
X109087142Y-44420142D02*
X109087142Y-44305857D01*
X109087142Y-44305857D02*
X109058571Y-44163000D01*
X109058571Y-44163000D02*
X109030000Y-44077285D01*
X109030000Y-44077285D02*
X109001428Y-44020142D01*
X109001428Y-44020142D02*
X108944285Y-43934428D01*
X108944285Y-43934428D02*
X108915714Y-43905857D01*
X108515714Y-43991571D02*
X108515714Y-44420142D01*
X108515714Y-44420142D02*
X108544285Y-44505857D01*
X108544285Y-44505857D02*
X108601428Y-44563000D01*
X108601428Y-44563000D02*
X108687142Y-44591571D01*
X108687142Y-44591571D02*
X108744285Y-44591571D01*
X107915714Y-44591571D02*
X108258571Y-44591571D01*
X108087142Y-44591571D02*
X108087142Y-43991571D01*
X108087142Y-43991571D02*
X108144285Y-44077285D01*
X108144285Y-44077285D02*
X108201428Y-44134428D01*
X108201428Y-44134428D02*
X108258571Y-44163000D01*
X107172856Y-44591571D02*
X107201428Y-44591571D01*
X107201428Y-44591571D02*
X107258570Y-44563000D01*
X107258570Y-44563000D02*
X107344285Y-44477285D01*
X107344285Y-44477285D02*
X107487142Y-44305857D01*
X107487142Y-44305857D02*
X107544285Y-44220142D01*
X107544285Y-44220142D02*
X107572856Y-44134428D01*
X107572856Y-44134428D02*
X107572856Y-44077285D01*
X107572856Y-44077285D02*
X107544285Y-44020142D01*
X107544285Y-44020142D02*
X107487142Y-43991571D01*
X107487142Y-43991571D02*
X107458570Y-43991571D01*
X107458570Y-43991571D02*
X107401428Y-44020142D01*
X107401428Y-44020142D02*
X107372856Y-44077285D01*
X107372856Y-44077285D02*
X107372856Y-44105857D01*
X107372856Y-44105857D02*
X107401428Y-44163000D01*
X107401428Y-44163000D02*
X107429999Y-44191571D01*
X107429999Y-44191571D02*
X107601428Y-44305857D01*
X107601428Y-44305857D02*
X107629999Y-44334428D01*
X107629999Y-44334428D02*
X107658570Y-44391571D01*
X107658570Y-44391571D02*
X107658570Y-44477285D01*
X107658570Y-44477285D02*
X107629999Y-44534428D01*
X107629999Y-44534428D02*
X107601428Y-44563000D01*
X107601428Y-44563000D02*
X107544285Y-44591571D01*
X107544285Y-44591571D02*
X107458570Y-44591571D01*
X107458570Y-44591571D02*
X107401428Y-44563000D01*
X107401428Y-44563000D02*
X107372856Y-44534428D01*
X107372856Y-44534428D02*
X107287142Y-44420142D01*
X107287142Y-44420142D02*
X107258570Y-44334428D01*
X107258570Y-44334428D02*
X107258570Y-44277285D01*
X106744285Y-43991571D02*
X106744285Y-44420142D01*
X106744285Y-44420142D02*
X106772856Y-44505857D01*
X106772856Y-44505857D02*
X106829999Y-44563000D01*
X106829999Y-44563000D02*
X106915713Y-44591571D01*
X106915713Y-44591571D02*
X106972856Y-44591571D01*
X106487142Y-44048714D02*
X106458570Y-44020142D01*
X106458570Y-44020142D02*
X106401428Y-43991571D01*
X106401428Y-43991571D02*
X106258570Y-43991571D01*
X106258570Y-43991571D02*
X106201428Y-44020142D01*
X106201428Y-44020142D02*
X106172856Y-44048714D01*
X106172856Y-44048714D02*
X106144285Y-44105857D01*
X106144285Y-44105857D02*
X106144285Y-44163000D01*
X106144285Y-44163000D02*
X106172856Y-44248714D01*
X106172856Y-44248714D02*
X106515713Y-44591571D01*
X106515713Y-44591571D02*
X106144285Y-44591571D01*
X105944284Y-44820142D02*
X105915713Y-44791571D01*
X105915713Y-44791571D02*
X105858570Y-44705857D01*
X105858570Y-44705857D02*
X105829999Y-44648714D01*
X105829999Y-44648714D02*
X105801427Y-44563000D01*
X105801427Y-44563000D02*
X105772856Y-44420142D01*
X105772856Y-44420142D02*
X105772856Y-44305857D01*
X105772856Y-44305857D02*
X105801427Y-44163000D01*
X105801427Y-44163000D02*
X105829999Y-44077285D01*
X105829999Y-44077285D02*
X105858570Y-44020142D01*
X105858570Y-44020142D02*
X105915713Y-43934428D01*
X105915713Y-43934428D02*
X105944284Y-43905857D01*
X84913000Y-31774000D02*
X109755000Y-31774000D01*
X109755000Y-42985000D01*
X84913000Y-42985000D01*
X84913000Y-31774000D01*
%LPC*%
D11*
%TO.C,J1*%
X136350000Y-67310000D03*
D12*
X136350000Y-64770000D03*
X136350000Y-62230000D03*
X136350000Y-59690000D03*
X136350000Y-57150000D03*
X136350000Y-54610000D03*
X136350000Y-52070000D03*
X136350000Y-49530000D03*
X136350000Y-46990000D03*
X136350000Y-44450000D03*
X136350000Y-41910000D03*
X136350000Y-39370000D03*
X136350000Y-36830000D03*
X136350000Y-34290000D03*
X136350000Y-31750000D03*
X136350000Y-29210000D03*
X136350000Y-26670000D03*
X136350000Y-24130000D03*
X136350000Y-21590000D03*
%TD*%
D13*
%TO.C,U4*%
X120089000Y-51959000D03*
D14*
X117549000Y-67759000D03*
D15*
X120089000Y-67759000D03*
X122629000Y-67759000D03*
%TD*%
D16*
%TO.C,J3*%
X102616000Y-75398000D03*
X102616000Y-68398000D03*
%TD*%
D17*
%TO.C,BT2*%
X124019000Y-77675000D03*
D18*
X123019000Y-77675000D03*
%TD*%
D17*
%TO.C,BT3*%
X120868000Y-77664000D03*
D18*
X119868000Y-77664000D03*
%TD*%
D17*
%TO.C,J5*%
X86724000Y-30657000D03*
D18*
X86724000Y-29657000D03*
X86724000Y-28657000D03*
X86724000Y-27657000D03*
X86724000Y-26657000D03*
X86724000Y-25657000D03*
X86724000Y-24657000D03*
X86724000Y-23657000D03*
X86724000Y-22657000D03*
X86724000Y-21657000D03*
%TD*%
D11*
%TO.C,J2*%
X111252000Y-21670000D03*
D12*
X111252000Y-24210000D03*
X111252000Y-26750000D03*
X111252000Y-29290000D03*
X111252000Y-31830000D03*
X111252000Y-34370000D03*
X111252000Y-36910000D03*
X111252000Y-39450000D03*
X111252000Y-41990000D03*
X111252000Y-44530000D03*
X111252000Y-47070000D03*
X111252000Y-49610000D03*
X111252000Y-52150000D03*
X111252000Y-54690000D03*
X111252000Y-57230000D03*
X111252000Y-59770000D03*
X111252000Y-62310000D03*
X111252000Y-64850000D03*
X111252000Y-67390000D03*
%TD*%
D17*
%TO.C,BT1*%
X116502000Y-77648000D03*
D18*
X115502000Y-77648000D03*
%TD*%
D17*
%TO.C,BT4*%
X113440000Y-77651000D03*
D18*
X112440000Y-77651000D03*
%TD*%
D16*
%TO.C,J4*%
X90678000Y-75398000D03*
X90678000Y-68398000D03*
%TD*%
%LPD*%
M02*
