%TF.GenerationSoftware,KiCad,Pcbnew,7.0.2-0*%
%TF.CreationDate,2023-06-05T11:27:31+02:00*%
%TF.ProjectId,Quest_EMG,51756573-745f-4454-9d47-2e6b69636164,rev?*%
%TF.SameCoordinates,Original*%
%TF.FileFunction,Copper,L1,Top*%
%TF.FilePolarity,Positive*%
%FSLAX46Y46*%
G04 Gerber Fmt 4.6, Leading zero omitted, Abs format (unit mm)*
G04 Created by KiCad (PCBNEW 7.0.2-0) date 2023-06-05 11:27:31*
%MOMM*%
%LPD*%
G01*
G04 APERTURE LIST*
G04 Aperture macros list*
%AMRoundRect*
0 Rectangle with rounded corners*
0 $1 Rounding radius*
0 $2 $3 $4 $5 $6 $7 $8 $9 X,Y pos of 4 corners*
0 Add a 4 corners polygon primitive as box body*
4,1,4,$2,$3,$4,$5,$6,$7,$8,$9,$2,$3,0*
0 Add four circle primitives for the rounded corners*
1,1,$1+$1,$2,$3*
1,1,$1+$1,$4,$5*
1,1,$1+$1,$6,$7*
1,1,$1+$1,$8,$9*
0 Add four rect primitives between the rounded corners*
20,1,$1+$1,$2,$3,$4,$5,0*
20,1,$1+$1,$4,$5,$6,$7,0*
20,1,$1+$1,$6,$7,$8,$9,0*
20,1,$1+$1,$8,$9,$2,$3,0*%
G04 Aperture macros list end*
%TA.AperFunction,SMDPad,CuDef*%
%ADD10C,0.500000*%
%TD*%
%TA.AperFunction,SMDPad,CuDef*%
%ADD11RoundRect,0.135000X-0.185000X0.135000X-0.185000X-0.135000X0.185000X-0.135000X0.185000X0.135000X0*%
%TD*%
%TA.AperFunction,SMDPad,CuDef*%
%ADD12O,1.450000X0.599999*%
%TD*%
%TA.AperFunction,SMDPad,CuDef*%
%ADD13RoundRect,0.147500X0.172500X-0.147500X0.172500X0.147500X-0.172500X0.147500X-0.172500X-0.147500X0*%
%TD*%
%TA.AperFunction,SMDPad,CuDef*%
%ADD14RoundRect,0.135000X-0.135000X-0.185000X0.135000X-0.185000X0.135000X0.185000X-0.135000X0.185000X0*%
%TD*%
%TA.AperFunction,SMDPad,CuDef*%
%ADD15RoundRect,0.140000X-0.140000X-0.170000X0.140000X-0.170000X0.140000X0.170000X-0.140000X0.170000X0*%
%TD*%
%TA.AperFunction,SMDPad,CuDef*%
%ADD16RoundRect,0.100000X0.100000X-0.712500X0.100000X0.712500X-0.100000X0.712500X-0.100000X-0.712500X0*%
%TD*%
%TA.AperFunction,ComponentPad*%
%ADD17R,1.700000X1.700000*%
%TD*%
%TA.AperFunction,ComponentPad*%
%ADD18O,1.700000X1.700000*%
%TD*%
%TA.AperFunction,SMDPad,CuDef*%
%ADD19RoundRect,0.135000X0.185000X-0.135000X0.185000X0.135000X-0.185000X0.135000X-0.185000X-0.135000X0*%
%TD*%
%TA.AperFunction,SMDPad,CuDef*%
%ADD20RoundRect,0.135000X0.135000X0.185000X-0.135000X0.185000X-0.135000X-0.185000X0.135000X-0.185000X0*%
%TD*%
%TA.AperFunction,SMDPad,CuDef*%
%ADD21RoundRect,0.140000X0.170000X-0.140000X0.170000X0.140000X-0.170000X0.140000X-0.170000X-0.140000X0*%
%TD*%
%TA.AperFunction,SMDPad,CuDef*%
%ADD22R,1.400000X0.300000*%
%TD*%
%TA.AperFunction,ComponentPad*%
%ADD23R,1.905000X2.000000*%
%TD*%
%TA.AperFunction,ComponentPad*%
%ADD24O,1.905000X2.000000*%
%TD*%
%TA.AperFunction,SMDPad,CuDef*%
%ADD25R,2.800000X2.200000*%
%TD*%
%TA.AperFunction,SMDPad,CuDef*%
%ADD26R,2.800000X2.800000*%
%TD*%
%TA.AperFunction,SMDPad,CuDef*%
%ADD27RoundRect,0.140000X0.140000X0.170000X-0.140000X0.170000X-0.140000X-0.170000X0.140000X-0.170000X0*%
%TD*%
%TA.AperFunction,ComponentPad*%
%ADD28R,0.850000X0.850000*%
%TD*%
%TA.AperFunction,ComponentPad*%
%ADD29O,0.850000X0.850000*%
%TD*%
%TA.AperFunction,SMDPad,CuDef*%
%ADD30R,1.000000X1.000000*%
%TD*%
%TA.AperFunction,SMDPad,CuDef*%
%ADD31RoundRect,0.147500X-0.172500X0.147500X-0.172500X-0.147500X0.172500X-0.147500X0.172500X0.147500X0*%
%TD*%
%TA.AperFunction,ViaPad*%
%ADD32C,0.800000*%
%TD*%
%TA.AperFunction,Conductor*%
%ADD33C,0.250000*%
%TD*%
G04 APERTURE END LIST*
D10*
%TO.P,FID1,*%
%TO.N,*%
X98181000Y-36843000D03*
%TD*%
D11*
%TO.P,R9,1*%
%TO.N,Net-(U1B--)*%
X92242000Y-41242000D03*
%TO.P,R9,2*%
%TO.N,Net-(U1A--)*%
X92242000Y-42262000D03*
%TD*%
D12*
%TO.P,U2,1,RG*%
%TO.N,Net-(R1-Pad1)*%
X88714999Y-58039000D03*
%TO.P,U2,2,IN-*%
%TO.N,/Connector Opamp/IN1.1*%
X88714999Y-59309000D03*
%TO.P,U2,3,IN+*%
%TO.N,/Connector Opamp/IN2.1*%
X88714999Y-60579000D03*
%TO.P,U2,4,V-*%
%TO.N,-9V*%
X88714999Y-61849000D03*
%TO.P,U2,5,REF*%
%TO.N,GND*%
X94164998Y-61849000D03*
%TO.P,U2,6,OUT*%
%TO.N,In_amp1*%
X94164998Y-60579000D03*
%TO.P,U2,7,V+*%
%TO.N,+9V*%
X94164998Y-59309000D03*
%TO.P,U2,8,RG*%
%TO.N,Net-(R4-Pad2)*%
X94164998Y-58039000D03*
%TD*%
D13*
%TO.P,D2,1,K*%
%TO.N,Net-(BT4--)*%
X112506000Y-76095500D03*
%TO.P,D2,2,A*%
%TO.N,-9V*%
X112506000Y-75125500D03*
%TD*%
D14*
%TO.P,R11,1*%
%TO.N,/Connector Opamp/Right_Leg*%
X88791000Y-36883000D03*
%TO.P,R11,2*%
%TO.N,Net-(R10-Pad1)*%
X89811000Y-36883000D03*
%TD*%
D15*
%TO.P,C12,1*%
%TO.N,Net-(IC2--IN_A)*%
X106368000Y-53137000D03*
%TO.P,C12,2*%
%TO.N,Net-(IC2-OUT_A)*%
X107328000Y-53137000D03*
%TD*%
D16*
%TO.P,U1,1*%
%TO.N,Net-(U1A--)*%
X88972000Y-43878000D03*
%TO.P,U1,2,-*%
X89622000Y-43878000D03*
%TO.P,U1,3,+*%
%TO.N,RL_conn*%
X90272000Y-43878000D03*
%TO.P,U1,4,V-*%
%TO.N,-9V*%
X90922000Y-43878000D03*
%TO.P,U1,5,+*%
%TO.N,GND*%
X90922000Y-39653000D03*
%TO.P,U1,6,-*%
%TO.N,Net-(U1B--)*%
X90272000Y-39653000D03*
%TO.P,U1,7*%
%TO.N,Net-(R10-Pad1)*%
X89622000Y-39653000D03*
%TO.P,U1,8,V+*%
%TO.N,+9V*%
X88972000Y-39653000D03*
%TD*%
D15*
%TO.P,C7,1*%
%TO.N,Net-(IC1-+IN_B)*%
X89201000Y-54184000D03*
%TO.P,C7,2*%
%TO.N,GND*%
X90161000Y-54184000D03*
%TD*%
D17*
%TO.P,J1,1,Pin_1*%
%TO.N,/Bluetooth ESP/CLK*%
X136350000Y-67310000D03*
D18*
%TO.P,J1,2,Pin_2*%
%TO.N,/Bluetooth ESP/D0*%
X136350000Y-64770000D03*
%TO.P,J1,3,Pin_3*%
%TO.N,/Bluetooth ESP/D1*%
X136350000Y-62230000D03*
%TO.P,J1,4,Pin_4*%
%TO.N,unconnected-(J1-Pin_4-Pad4)*%
X136350000Y-59690000D03*
%TO.P,J1,5,Pin_5*%
%TO.N,/Bluetooth ESP/2*%
X136350000Y-57150000D03*
%TO.P,J1,6,Pin_6*%
%TO.N,/Bluetooth ESP/0*%
X136350000Y-54610000D03*
%TO.P,J1,7,Pin_7*%
%TO.N,/Bluetooth ESP/4*%
X136350000Y-52070000D03*
%TO.P,J1,8,Pin_8*%
%TO.N,/Bluetooth ESP/16*%
X136350000Y-49530000D03*
%TO.P,J1,9,Pin_9*%
%TO.N,/Bluetooth ESP/17*%
X136350000Y-46990000D03*
%TO.P,J1,10,Pin_10*%
%TO.N,/Bluetooth ESP/5*%
X136350000Y-44450000D03*
%TO.P,J1,11,Pin_11*%
%TO.N,/Bluetooth ESP/18*%
X136350000Y-41910000D03*
%TO.P,J1,12,Pin_12*%
%TO.N,/Bluetooth ESP/19*%
X136350000Y-39370000D03*
%TO.P,J1,13,Pin_13*%
%TO.N,GND*%
X136350000Y-36830000D03*
%TO.P,J1,14,Pin_14*%
%TO.N,/Bluetooth ESP/21*%
X136350000Y-34290000D03*
%TO.P,J1,15,Pin_15*%
%TO.N,/Bluetooth ESP/RX*%
X136350000Y-31750000D03*
%TO.P,J1,16,Pin_16*%
%TO.N,/Bluetooth ESP/TX*%
X136350000Y-29210000D03*
%TO.P,J1,17,Pin_17*%
%TO.N,/Bluetooth ESP/22*%
X136350000Y-26670000D03*
%TO.P,J1,18,Pin_18*%
%TO.N,/Bluetooth ESP/23*%
X136350000Y-24130000D03*
%TO.P,J1,19,Pin_19*%
%TO.N,GND*%
X136350000Y-21590000D03*
%TD*%
D19*
%TO.P,R25,1*%
%TO.N,Net-(IC2-OUT_B)*%
X104807000Y-49493000D03*
%TO.P,R25,2*%
%TO.N,33*%
X104807000Y-48473000D03*
%TD*%
D20*
%TO.P,R31,1*%
%TO.N,Net-(IC2-+VS)*%
X102286000Y-54153000D03*
%TO.P,R31,2*%
%TO.N,GND*%
X101266000Y-54153000D03*
%TD*%
D21*
%TO.P,C14,1*%
%TO.N,Net-(BT4--)*%
X115432000Y-76154000D03*
%TO.P,C14,2*%
%TO.N,GND*%
X115432000Y-75194000D03*
%TD*%
D22*
%TO.P,IC1,1,+IN_A*%
%TO.N,unconnected-(IC1-+IN_A-Pad1)*%
X89209000Y-50828000D03*
%TO.P,IC1,2,~{DIS_A}*%
%TO.N,unconnected-(IC1-~{DIS_A}-Pad2)*%
X89209000Y-51328000D03*
%TO.P,IC1,3,-VS*%
%TO.N,Net-(IC1--VS)*%
X89209000Y-51828000D03*
%TO.P,IC1,4,~{DIS_B}*%
%TO.N,unconnected-(IC1-~{DIS_B}-Pad4)*%
X89209000Y-52328000D03*
%TO.P,IC1,5,+IN_B*%
%TO.N,Net-(IC1-+IN_B)*%
X89209000Y-52828000D03*
%TO.P,IC1,6,-IN_B*%
%TO.N,32*%
X93609000Y-52828000D03*
%TO.P,IC1,7,OUT_B*%
%TO.N,Net-(IC1-OUT_B)*%
X93609000Y-52328000D03*
%TO.P,IC1,8,+VS*%
%TO.N,Net-(IC1-+VS)*%
X93609000Y-51828000D03*
%TO.P,IC1,9,OUT_A*%
%TO.N,Net-(IC1-OUT_A)*%
X93609000Y-51328000D03*
%TO.P,IC1,10,-IN_A*%
%TO.N,Net-(IC1--IN_A)*%
X93609000Y-50828000D03*
%TD*%
D14*
%TO.P,R10,1*%
%TO.N,Net-(R10-Pad1)*%
X89811000Y-37996000D03*
%TO.P,R10,2*%
%TO.N,Net-(U1B--)*%
X90831000Y-37996000D03*
%TD*%
D15*
%TO.P,C11,1*%
%TO.N,Net-(IC1--IN_A)*%
X95700000Y-51897000D03*
%TO.P,C11,2*%
%TO.N,Net-(IC1-OUT_A)*%
X96660000Y-51897000D03*
%TD*%
D20*
%TO.P,R16,1*%
%TO.N,Net-(C9-Pad2)*%
X90164000Y-48592000D03*
%TO.P,R16,2*%
%TO.N,Net-(IC1-+IN_B)*%
X89144000Y-48592000D03*
%TD*%
D19*
%TO.P,R12,1*%
%TO.N,-9V*%
X92657000Y-55165000D03*
%TO.P,R12,2*%
%TO.N,Net-(IC1--VS)*%
X92657000Y-54145000D03*
%TD*%
D23*
%TO.P,U4,1,IN*%
%TO.N,+9V*%
X117549000Y-67759000D03*
D24*
%TO.P,U4,2,GND*%
%TO.N,GND*%
X120089000Y-67759000D03*
%TO.P,U4,3,OUT*%
%TO.N,+5V*%
X122629000Y-67759000D03*
%TD*%
D25*
%TO.P,J3,R*%
%TO.N,/Connector Opamp/Right_Leg*%
X98916000Y-74498000D03*
%TO.P,J3,S*%
%TO.N,/Connector Opamp/IN1.2*%
X106316000Y-76498000D03*
D26*
%TO.P,J3,T*%
%TO.N,/Connector Opamp/IN2.2*%
X106316000Y-67098000D03*
%TD*%
D11*
%TO.P,R15,1*%
%TO.N,Net-(IC2--VS)*%
X105565000Y-54501000D03*
%TO.P,R15,2*%
%TO.N,GND*%
X105565000Y-55521000D03*
%TD*%
%TO.P,R14,1*%
%TO.N,Net-(IC1--VS)*%
X91569000Y-54127000D03*
%TO.P,R14,2*%
%TO.N,GND*%
X91569000Y-55147000D03*
%TD*%
D27*
%TO.P,C16,1*%
%TO.N,+5V*%
X122609000Y-69598000D03*
%TO.P,C16,2*%
%TO.N,GND*%
X121649000Y-69598000D03*
%TD*%
D15*
%TO.P,C4,1*%
%TO.N,-9V*%
X98889000Y-63242000D03*
%TO.P,C4,2*%
%TO.N,GND*%
X99849000Y-63242000D03*
%TD*%
D14*
%TO.P,R8,1*%
%TO.N,RL_conn*%
X104646000Y-56642000D03*
%TO.P,R8,2*%
%TO.N,Net-(R8-Pad2)*%
X105666000Y-56642000D03*
%TD*%
D19*
%TO.P,R13,1*%
%TO.N,-9V*%
X104489000Y-55506000D03*
%TO.P,R13,2*%
%TO.N,Net-(IC2--VS)*%
X104489000Y-54486000D03*
%TD*%
D28*
%TO.P,BT2,1,+*%
%TO.N,Net-(BT2-+)*%
X124019000Y-77675000D03*
D29*
%TO.P,BT2,2,-*%
%TO.N,Net-(BT2--)*%
X123019000Y-77675000D03*
%TD*%
D19*
%TO.P,R24,1*%
%TO.N,Net-(IC1-OUT_B)*%
X93286000Y-49515000D03*
%TO.P,R24,2*%
%TO.N,32*%
X93286000Y-48495000D03*
%TD*%
D14*
%TO.P,R28,1*%
%TO.N,+9V*%
X101260000Y-55212000D03*
%TO.P,R28,2*%
%TO.N,Net-(IC2-+VS)*%
X102280000Y-55212000D03*
%TD*%
D28*
%TO.P,BT3,1,+*%
%TO.N,Net-(BT2--)*%
X120868000Y-77664000D03*
D29*
%TO.P,BT3,2,-*%
%TO.N,GND*%
X119868000Y-77664000D03*
%TD*%
D27*
%TO.P,C5,1*%
%TO.N,+9V*%
X88826000Y-37969000D03*
%TO.P,C5,2*%
%TO.N,GND*%
X87866000Y-37969000D03*
%TD*%
D30*
%TO.P,TP2,1,1*%
%TO.N,In_amp2*%
X108391000Y-49243000D03*
%TD*%
D28*
%TO.P,J5,1,Pin_1*%
%TO.N,/Bluetooth ESP/16*%
X86724000Y-30657000D03*
D29*
%TO.P,J5,2,Pin_2*%
%TO.N,/Bluetooth ESP/17*%
X86724000Y-29657000D03*
%TO.P,J5,3,Pin_3*%
%TO.N,/Bluetooth ESP/18*%
X86724000Y-28657000D03*
%TO.P,J5,4,Pin_4*%
%TO.N,/Bluetooth ESP/19*%
X86724000Y-27657000D03*
%TO.P,J5,5,Pin_5*%
%TO.N,GND*%
X86724000Y-26657000D03*
%TO.P,J5,6,Pin_6*%
%TO.N,/Bluetooth ESP/22*%
X86724000Y-25657000D03*
%TO.P,J5,7,Pin_7*%
%TO.N,/Bluetooth ESP/35*%
X86724000Y-24657000D03*
%TO.P,J5,8,Pin_8*%
%TO.N,/Bluetooth ESP/34*%
X86724000Y-23657000D03*
%TO.P,J5,9,Pin_9*%
%TO.N,GND*%
X86724000Y-22657000D03*
%TO.P,J5,10,Pin_10*%
%TO.N,/Bluetooth ESP/3V3*%
X86724000Y-21657000D03*
%TD*%
D10*
%TO.P,FID2,*%
%TO.N,*%
X130994000Y-24529000D03*
%TD*%
D20*
%TO.P,R23,1*%
%TO.N,Net-(IC2-OUT_A)*%
X107342000Y-52089000D03*
%TO.P,R23,2*%
%TO.N,Net-(IC2--IN_A)*%
X106322000Y-52089000D03*
%TD*%
D17*
%TO.P,J2,1,Pin_1*%
%TO.N,/Bluetooth ESP/3V3*%
X111252000Y-21670000D03*
D18*
%TO.P,J2,2,Pin_2*%
%TO.N,/Bluetooth ESP/EN*%
X111252000Y-24210000D03*
%TO.P,J2,3,Pin_3*%
%TO.N,/Bluetooth ESP/VP*%
X111252000Y-26750000D03*
%TO.P,J2,4,Pin_4*%
%TO.N,/Bluetooth ESP/VN*%
X111252000Y-29290000D03*
%TO.P,J2,5,Pin_5*%
%TO.N,/Bluetooth ESP/34*%
X111252000Y-31830000D03*
%TO.P,J2,6,Pin_6*%
%TO.N,/Bluetooth ESP/35*%
X111252000Y-34370000D03*
%TO.P,J2,7,Pin_7*%
%TO.N,32*%
X111252000Y-36910000D03*
%TO.P,J2,8,Pin_8*%
%TO.N,33*%
X111252000Y-39450000D03*
%TO.P,J2,9,Pin_9*%
%TO.N,/Bluetooth ESP/25*%
X111252000Y-41990000D03*
%TO.P,J2,10,Pin_10*%
%TO.N,/Bluetooth ESP/26*%
X111252000Y-44530000D03*
%TO.P,J2,11,Pin_11*%
%TO.N,/Bluetooth ESP/27*%
X111252000Y-47070000D03*
%TO.P,J2,12,Pin_12*%
%TO.N,/Bluetooth ESP/14*%
X111252000Y-49610000D03*
%TO.P,J2,13,Pin_13*%
%TO.N,/Bluetooth ESP/12*%
X111252000Y-52150000D03*
%TO.P,J2,14,Pin_14*%
%TO.N,unconnected-(J2-Pin_14-Pad14)*%
X111252000Y-54690000D03*
%TO.P,J2,15,Pin_15*%
%TO.N,/Bluetooth ESP/13*%
X111252000Y-57230000D03*
%TO.P,J2,16,Pin_16*%
%TO.N,/Bluetooth ESP/D2*%
X111252000Y-59770000D03*
%TO.P,J2,17,Pin_17*%
%TO.N,/Bluetooth ESP/D3*%
X111252000Y-62310000D03*
%TO.P,J2,18,Pin_18*%
%TO.N,/Bluetooth ESP/CMD*%
X111252000Y-64850000D03*
%TO.P,J2,19,Pin_19*%
%TO.N,+5V*%
X111252000Y-67390000D03*
%TD*%
D14*
%TO.P,R5,1*%
%TO.N,Net-(R5-Pad1)*%
X98550000Y-56642000D03*
%TO.P,R5,2*%
%TO.N,RL_conn*%
X99570000Y-56642000D03*
%TD*%
D15*
%TO.P,C2,1*%
%TO.N,-9V*%
X88166000Y-63246000D03*
%TO.P,C2,2*%
%TO.N,GND*%
X89126000Y-63246000D03*
%TD*%
D14*
%TO.P,R29,1*%
%TO.N,33*%
X105840000Y-48506000D03*
%TO.P,R29,2*%
%TO.N,GND*%
X106860000Y-48506000D03*
%TD*%
%TO.P,R4,1*%
%TO.N,RL_conn*%
X93978000Y-56642000D03*
%TO.P,R4,2*%
%TO.N,Net-(R4-Pad2)*%
X94998000Y-56642000D03*
%TD*%
D20*
%TO.P,R17,1*%
%TO.N,Net-(C10-Pad2)*%
X101545000Y-48503000D03*
%TO.P,R17,2*%
%TO.N,Net-(IC2-+IN_B)*%
X100525000Y-48503000D03*
%TD*%
D15*
%TO.P,C8,1*%
%TO.N,Net-(IC2-+IN_B)*%
X99355000Y-54152000D03*
%TO.P,C8,2*%
%TO.N,GND*%
X100315000Y-54152000D03*
%TD*%
D14*
%TO.P,R19,1*%
%TO.N,Net-(IC2--IN_A)*%
X106322000Y-51039000D03*
%TO.P,R19,2*%
%TO.N,In_amp2*%
X107342000Y-51039000D03*
%TD*%
D11*
%TO.P,R30,1*%
%TO.N,Net-(IC1-+VS)*%
X95993000Y-54228000D03*
%TO.P,R30,2*%
%TO.N,GND*%
X95993000Y-55248000D03*
%TD*%
D12*
%TO.P,U3,1,RG*%
%TO.N,Net-(R5-Pad1)*%
X99382999Y-58039000D03*
%TO.P,U3,2,IN-*%
%TO.N,/Connector Opamp/IN2.2*%
X99382999Y-59309000D03*
%TO.P,U3,3,IN+*%
%TO.N,/Connector Opamp/IN1.2*%
X99382999Y-60579000D03*
%TO.P,U3,4,V-*%
%TO.N,-9V*%
X99382999Y-61849000D03*
%TO.P,U3,5,REF*%
%TO.N,GND*%
X104832998Y-61849000D03*
%TO.P,U3,6,OUT*%
%TO.N,In_amp2*%
X104832998Y-60579000D03*
%TO.P,U3,7,V+*%
%TO.N,+9V*%
X104832998Y-59309000D03*
%TO.P,U3,8,RG*%
%TO.N,Net-(R8-Pad2)*%
X104832998Y-58039000D03*
%TD*%
D22*
%TO.P,IC2,1,+IN_A*%
%TO.N,unconnected-(IC2-+IN_A-Pad1)*%
X99908000Y-50816000D03*
%TO.P,IC2,2,~{DIS_A}*%
%TO.N,unconnected-(IC2-~{DIS_A}-Pad2)*%
X99908000Y-51316000D03*
%TO.P,IC2,3,-VS*%
%TO.N,Net-(IC2--VS)*%
X99908000Y-51816000D03*
%TO.P,IC2,4,~{DIS_B}*%
%TO.N,unconnected-(IC2-~{DIS_B}-Pad4)*%
X99908000Y-52316000D03*
%TO.P,IC2,5,+IN_B*%
%TO.N,Net-(IC2-+IN_B)*%
X99908000Y-52816000D03*
%TO.P,IC2,6,-IN_B*%
%TO.N,33*%
X104308000Y-52816000D03*
%TO.P,IC2,7,OUT_B*%
%TO.N,Net-(IC2-OUT_B)*%
X104308000Y-52316000D03*
%TO.P,IC2,8,+VS*%
%TO.N,Net-(IC2-+VS)*%
X104308000Y-51816000D03*
%TO.P,IC2,9,OUT_A*%
%TO.N,Net-(IC2-OUT_A)*%
X104308000Y-51316000D03*
%TO.P,IC2,10,-IN_A*%
%TO.N,Net-(IC2--IN_A)*%
X104308000Y-50816000D03*
%TD*%
D28*
%TO.P,BT1,1,+*%
%TO.N,GND*%
X116502000Y-77648000D03*
D29*
%TO.P,BT1,2,-*%
%TO.N,Net-(BT1--)*%
X115502000Y-77648000D03*
%TD*%
D28*
%TO.P,BT4,1,+*%
%TO.N,Net-(BT1--)*%
X113440000Y-77651000D03*
D29*
%TO.P,BT4,2,-*%
%TO.N,Net-(BT4--)*%
X112440000Y-77651000D03*
%TD*%
D30*
%TO.P,TP3,1,1*%
%TO.N,32*%
X107947000Y-36890000D03*
%TD*%
D19*
%TO.P,R21,1*%
%TO.N,Net-(IC2-OUT_A)*%
X102626000Y-49522000D03*
%TO.P,R21,2*%
%TO.N,Net-(C10-Pad2)*%
X102626000Y-48502000D03*
%TD*%
D20*
%TO.P,R22,1*%
%TO.N,Net-(IC1-OUT_A)*%
X96706000Y-52946000D03*
%TO.P,R22,2*%
%TO.N,Net-(IC1--IN_A)*%
X95686000Y-52946000D03*
%TD*%
D14*
%TO.P,R27,1*%
%TO.N,32*%
X94325000Y-48485000D03*
%TO.P,R27,2*%
%TO.N,GND*%
X95345000Y-48485000D03*
%TD*%
D19*
%TO.P,R26,1*%
%TO.N,+9V*%
X94881000Y-55270000D03*
%TO.P,R26,2*%
%TO.N,Net-(IC1-+VS)*%
X94881000Y-54250000D03*
%TD*%
D21*
%TO.P,C1,1*%
%TO.N,GND*%
X95758000Y-60170000D03*
%TO.P,C1,2*%
%TO.N,+9V*%
X95758000Y-59210000D03*
%TD*%
D31*
%TO.P,D1,1,K*%
%TO.N,+9V*%
X124058000Y-75149000D03*
%TO.P,D1,2,A*%
%TO.N,Net-(BT2-+)*%
X124058000Y-76119000D03*
%TD*%
D14*
%TO.P,R18,1*%
%TO.N,Net-(IC1--IN_A)*%
X95659000Y-50833000D03*
%TO.P,R18,2*%
%TO.N,In_amp1*%
X96679000Y-50833000D03*
%TD*%
D30*
%TO.P,TP1,1,1*%
%TO.N,In_amp1*%
X97329000Y-61597000D03*
%TD*%
D15*
%TO.P,C6,1*%
%TO.N,-9V*%
X91139000Y-45523000D03*
%TO.P,C6,2*%
%TO.N,GND*%
X92099000Y-45523000D03*
%TD*%
D21*
%TO.P,C13,1*%
%TO.N,Net-(BT2-+)*%
X120940000Y-76164000D03*
%TO.P,C13,2*%
%TO.N,GND*%
X120940000Y-75204000D03*
%TD*%
D15*
%TO.P,C15,1*%
%TO.N,+9V*%
X117541000Y-69776000D03*
%TO.P,C15,2*%
%TO.N,GND*%
X118501000Y-69776000D03*
%TD*%
D25*
%TO.P,J4,R*%
%TO.N,/Connector Opamp/Right_Leg*%
X86978000Y-74498000D03*
%TO.P,J4,S*%
%TO.N,/Connector Opamp/IN1.1*%
X94378000Y-76498000D03*
D26*
%TO.P,J4,T*%
%TO.N,/Connector Opamp/IN2.1*%
X94378000Y-67098000D03*
%TD*%
D30*
%TO.P,TP4,1,1*%
%TO.N,33*%
X107948000Y-39492000D03*
%TD*%
D21*
%TO.P,C3,1*%
%TO.N,GND*%
X106426000Y-60396000D03*
%TO.P,C3,2*%
%TO.N,+9V*%
X106426000Y-59436000D03*
%TD*%
D10*
%TO.P,FID3,*%
%TO.N,*%
X109655000Y-72803000D03*
%TD*%
D21*
%TO.P,C9,1*%
%TO.N,Net-(IC1-OUT_B)*%
X92215000Y-49499000D03*
%TO.P,C9,2*%
%TO.N,Net-(C9-Pad2)*%
X92215000Y-48539000D03*
%TD*%
%TO.P,C10,1*%
%TO.N,Net-(IC2-OUT_B)*%
X103738000Y-49484000D03*
%TO.P,C10,2*%
%TO.N,Net-(C10-Pad2)*%
X103738000Y-48524000D03*
%TD*%
D19*
%TO.P,R20,1*%
%TO.N,Net-(IC1-OUT_A)*%
X91178000Y-49519000D03*
%TO.P,R20,2*%
%TO.N,Net-(C9-Pad2)*%
X91178000Y-48499000D03*
%TD*%
D14*
%TO.P,R1,1*%
%TO.N,Net-(R1-Pad1)*%
X87880000Y-56642000D03*
%TO.P,R1,2*%
%TO.N,RL_conn*%
X88900000Y-56642000D03*
%TD*%
D32*
%TO.N,*%
X152938000Y-47650000D03*
%TO.N,GND*%
X136173000Y-76696000D03*
X133761000Y-54973000D03*
X108675000Y-23069000D03*
X121220000Y-26599000D03*
X102388000Y-73212000D03*
X127104000Y-59870000D03*
X105189000Y-41500000D03*
X100627000Y-78053000D03*
X96111000Y-44416000D03*
X94831000Y-73982000D03*
X133871000Y-65097000D03*
X119486000Y-39508000D03*
X90833000Y-71341000D03*
X130735000Y-50407000D03*
X133596000Y-60145000D03*
X130680000Y-64767000D03*
X108565000Y-26591000D03*
X119405000Y-37090000D03*
X88706000Y-71635000D03*
X114287000Y-22088000D03*
X96496000Y-39409000D03*
X103185000Y-25070000D03*
X130515000Y-68508000D03*
X109034000Y-44093000D03*
X130845000Y-60200000D03*
X100480000Y-69580000D03*
X100554000Y-72001000D03*
X114649000Y-36929000D03*
X127214000Y-68618000D03*
X122943000Y-41923000D03*
X126831000Y-77870000D03*
X106862000Y-69801000D03*
X117023000Y-73945000D03*
X107168000Y-60877000D03*
X93254000Y-69764000D03*
X114287000Y-26517000D03*
X87868000Y-39243000D03*
X126248000Y-36651000D03*
X130735000Y-55138000D03*
X126337000Y-39428000D03*
X121697000Y-30010000D03*
X93071000Y-71671000D03*
X105887000Y-23143000D03*
X137762000Y-71903000D03*
X130793000Y-27039000D03*
X97876000Y-67160000D03*
X107156000Y-72368000D03*
X86831000Y-35387000D03*
X103813000Y-46837000D03*
X109430000Y-76256000D03*
X114470000Y-39429000D03*
X115000000Y-45565000D03*
X117552000Y-30084000D03*
X96710000Y-32306000D03*
X126539000Y-22418000D03*
X112108000Y-69874000D03*
X117845000Y-21831000D03*
X131967000Y-42510000D03*
X117059000Y-72368000D03*
X93034000Y-73762000D03*
X90474000Y-32379000D03*
X89989000Y-55048000D03*
X127159000Y-64602000D03*
X90095000Y-26639000D03*
X117992000Y-26416000D03*
X132920000Y-34807000D03*
X115057000Y-41996000D03*
X130622000Y-72025000D03*
X91619000Y-58035000D03*
X102273000Y-44361000D03*
X101392000Y-35888000D03*
X120282000Y-45400000D03*
X113758000Y-68884000D03*
X101067000Y-65839000D03*
X108492000Y-30400000D03*
X94978000Y-72185000D03*
X113685000Y-71855000D03*
X119334000Y-73725000D03*
X95750000Y-61975000D03*
X103818000Y-78164000D03*
X109357000Y-78053000D03*
X126829000Y-50572000D03*
X92193000Y-65198000D03*
X108325000Y-46452000D03*
X115262000Y-70387000D03*
X126355000Y-30267000D03*
X127049000Y-55138000D03*
X96427000Y-57883000D03*
X98696000Y-47387000D03*
X133706000Y-68453000D03*
X130720000Y-30487000D03*
X90446000Y-63250000D03*
X127003000Y-72416000D03*
X126502000Y-26819000D03*
X103121000Y-65729000D03*
X90613000Y-73579000D03*
X133752000Y-71830000D03*
X90182000Y-22640000D03*
X88229000Y-77980000D03*
X93139000Y-35851000D03*
X121477000Y-21904000D03*
X94637201Y-70141799D03*
X107376000Y-62795000D03*
X88779000Y-68627000D03*
X126664000Y-45675000D03*
X98057042Y-71438443D03*
X114287000Y-30185000D03*
X106637000Y-55015000D03*
%TO.N,+9V*%
X88980000Y-41682000D03*
X92083000Y-59343000D03*
X122906391Y-75149000D03*
X100269000Y-55234000D03*
X106344000Y-57832000D03*
%TO.N,-9V*%
X97778000Y-63426000D03*
X93768000Y-55181000D03*
X92098002Y-47037000D03*
X112504232Y-74424500D03*
X88811000Y-64244000D03*
X103356000Y-55439000D03*
%TO.N,RL_conn*%
X97417500Y-55751353D03*
X87734497Y-54267498D03*
%TO.N,Net-(IC1-OUT_B)*%
X92135000Y-50420000D03*
X91408005Y-52609000D03*
%TO.N,Net-(IC2-OUT_B)*%
X102952213Y-52622386D03*
X103107366Y-50329056D03*
%TO.N,/Bluetooth ESP/16*%
X104855000Y-35981000D03*
X133942000Y-48892000D03*
%TO.N,/Bluetooth ESP/17*%
X132181000Y-45334000D03*
X105808000Y-35321000D03*
%TO.N,/Bluetooth ESP/18*%
X106799000Y-34770000D03*
X132731000Y-40566000D03*
%TO.N,/Bluetooth ESP/19*%
X107812000Y-34428000D03*
X132915000Y-38879000D03*
%TO.N,Net-(IC2-+VS)*%
X101576000Y-51526000D03*
X101506000Y-53044000D03*
%TO.N,32*%
X94290000Y-49511000D03*
X94109492Y-53527500D03*
%TO.N,33*%
X103675000Y-53492000D03*
X105841000Y-49755000D03*
%TD*%
D33*
%TO.N,GND*%
X96042501Y-55297501D02*
X96042501Y-57498501D01*
X120767000Y-69598000D02*
X121649000Y-69598000D01*
X90134500Y-54902500D02*
X89989000Y-55048000D01*
X87866000Y-37969000D02*
X87866000Y-39241000D01*
X106426000Y-60396000D02*
X106687000Y-60396000D01*
X95765609Y-60170000D02*
X96427000Y-59508609D01*
X99849000Y-63242000D02*
X101067000Y-64460000D01*
X90879500Y-54902500D02*
X90161000Y-54184000D01*
X90077000Y-26657000D02*
X90095000Y-26639000D01*
X91569000Y-55147000D02*
X91124000Y-55147000D01*
X116502000Y-77648000D02*
X119852000Y-77648000D01*
X119852000Y-77648000D02*
X119868000Y-77664000D01*
X119185000Y-69776000D02*
X118501000Y-69776000D01*
X101266000Y-54153000D02*
X100316000Y-54153000D01*
X87866000Y-39241000D02*
X87868000Y-39243000D01*
X86724000Y-22657000D02*
X90165000Y-22657000D01*
X104832998Y-61849000D02*
X105778998Y-62795000D01*
X96395000Y-57885000D02*
X96393000Y-57883000D01*
X120089000Y-68920000D02*
X120767000Y-69598000D01*
X100315000Y-54152000D02*
X100315000Y-54159609D01*
X100315000Y-54159609D02*
X99687609Y-54787000D01*
X94290998Y-61975000D02*
X94164998Y-61849000D01*
X95750000Y-61975000D02*
X94290998Y-61975000D01*
X86724000Y-26657000D02*
X90077000Y-26657000D01*
X96042501Y-57498501D02*
X96427000Y-57883000D01*
X105778998Y-62795000D02*
X107376000Y-62795000D01*
X120089000Y-68872000D02*
X119185000Y-69776000D01*
X106687000Y-60396000D02*
X107168000Y-60877000D01*
X98993000Y-54787000D02*
X97750501Y-53544501D01*
X120813000Y-75204000D02*
X119334000Y-73725000D01*
X105565000Y-55521000D02*
X106131000Y-55521000D01*
X90442000Y-63246000D02*
X90446000Y-63250000D01*
X99687609Y-54787000D02*
X98993000Y-54787000D01*
X120089000Y-67759000D02*
X120089000Y-68872000D01*
X90879500Y-54902500D02*
X90134500Y-54902500D01*
X97750501Y-50890501D02*
X95345000Y-48485000D01*
X120089000Y-67759000D02*
X120089000Y-68920000D01*
X96393000Y-57883000D02*
X96427000Y-57883000D01*
X101067000Y-64460000D02*
X101067000Y-65839000D01*
X96427000Y-57883000D02*
X96427000Y-57917000D01*
X96427000Y-59508609D02*
X96427000Y-57883000D01*
X89126000Y-63246000D02*
X90442000Y-63246000D01*
X106131000Y-55521000D02*
X106637000Y-55015000D01*
X90922000Y-39653000D02*
X93139000Y-37436000D01*
X90165000Y-22657000D02*
X90182000Y-22640000D01*
X96427000Y-57917000D02*
X96385000Y-57875000D01*
X95993000Y-55248000D02*
X96042501Y-55297501D01*
X120940000Y-75204000D02*
X120813000Y-75204000D01*
X100316000Y-54153000D02*
X100315000Y-54152000D01*
X95758000Y-60170000D02*
X95765609Y-60170000D01*
X91124000Y-55147000D02*
X90879500Y-54902500D01*
X93139000Y-37436000D02*
X93139000Y-35851000D01*
X97750501Y-53544501D02*
X97750501Y-50890501D01*
%TO.N,+9V*%
X117541000Y-67767000D02*
X117549000Y-67759000D01*
X94130998Y-59343000D02*
X94164998Y-59309000D01*
X88972000Y-39653000D02*
X88972000Y-41674000D01*
X106426000Y-59436000D02*
X104959998Y-59436000D01*
X94164998Y-59309000D02*
X95659000Y-59309000D01*
X106344000Y-59354000D02*
X106426000Y-59436000D01*
X95659000Y-59309000D02*
X95758000Y-59210000D01*
X88826000Y-39507000D02*
X88972000Y-39653000D01*
X104959998Y-59436000D02*
X104832998Y-59309000D01*
X95593000Y-55982000D02*
X95593000Y-59045000D01*
X94881000Y-55270000D02*
X95593000Y-55982000D01*
X122906391Y-75149000D02*
X117541000Y-69783609D01*
X117541000Y-69783609D02*
X117541000Y-69776000D01*
X124058000Y-75149000D02*
X122906391Y-75149000D01*
X100291000Y-55212000D02*
X100269000Y-55234000D01*
X95593000Y-59045000D02*
X95758000Y-59210000D01*
X88826000Y-37969000D02*
X88826000Y-39507000D01*
X106344000Y-57832000D02*
X106344000Y-59354000D01*
X92083000Y-59343000D02*
X94130998Y-59343000D01*
X101260000Y-55212000D02*
X100291000Y-55212000D01*
X117541000Y-69776000D02*
X117541000Y-67767000D01*
X88972000Y-41674000D02*
X88980000Y-41682000D01*
%TO.N,-9V*%
X112506000Y-74426268D02*
X112504232Y-74424500D01*
X103423000Y-55506000D02*
X103356000Y-55439000D01*
X92098002Y-47037000D02*
X91139000Y-46077998D01*
X104489000Y-55506000D02*
X103423000Y-55506000D01*
X93752000Y-55165000D02*
X93768000Y-55181000D01*
X88166000Y-62397999D02*
X88714999Y-61849000D01*
X92657000Y-55165000D02*
X93752000Y-55165000D01*
X98889000Y-62342999D02*
X98889000Y-63242000D01*
X88811000Y-64244000D02*
X88166000Y-63599000D01*
X91139000Y-46077998D02*
X91139000Y-45523000D01*
X88166000Y-63599000D02*
X88166000Y-63246000D01*
X91139000Y-44095000D02*
X90922000Y-43878000D01*
X112506000Y-75125500D02*
X112506000Y-74426268D01*
X97805999Y-63426000D02*
X99382999Y-61849000D01*
X99382999Y-61849000D02*
X98889000Y-62342999D01*
X97778000Y-63426000D02*
X97805999Y-63426000D01*
X88166000Y-63246000D02*
X88166000Y-62397999D01*
X91139000Y-45523000D02*
X91139000Y-44095000D01*
%TO.N,RL_conn*%
X90934000Y-56642000D02*
X90213000Y-55921000D01*
X99570000Y-56642000D02*
X98886500Y-55958500D01*
X98571000Y-55958500D02*
X97624647Y-55958500D01*
X97624647Y-55958500D02*
X97417500Y-55751353D01*
X88900000Y-56557000D02*
X88162000Y-55819000D01*
X101602000Y-56642000D02*
X100918500Y-55958500D01*
X90272000Y-43878000D02*
X90272000Y-46493462D01*
X93978000Y-56642000D02*
X90934000Y-56642000D01*
X104646000Y-56642000D02*
X101602000Y-56642000D01*
X98886500Y-55958500D02*
X98571000Y-55958500D01*
X90272000Y-46493462D02*
X87734499Y-49030963D01*
X88264000Y-55921000D02*
X90213000Y-55921000D01*
X100918500Y-55958500D02*
X98571000Y-55958500D01*
X88900000Y-56642000D02*
X88900000Y-56557000D01*
X88162000Y-55819000D02*
X88264000Y-55921000D01*
X87734499Y-55391499D02*
X88162000Y-55819000D01*
X87734499Y-49030963D02*
X87734499Y-55391499D01*
%TO.N,Net-(IC1-+IN_B)*%
X89201000Y-52836000D02*
X89209000Y-52828000D01*
X88184000Y-53167000D02*
X89201000Y-54184000D01*
X89201000Y-54184000D02*
X89201000Y-52836000D01*
X88184000Y-49552000D02*
X88184000Y-53167000D01*
X89144000Y-48592000D02*
X88184000Y-49552000D01*
%TO.N,Net-(IC1-OUT_B)*%
X91689005Y-52328000D02*
X91408005Y-52609000D01*
X93270000Y-49499000D02*
X93286000Y-49515000D01*
X92135000Y-50420000D02*
X92135000Y-49579000D01*
X92135000Y-49579000D02*
X92215000Y-49499000D01*
X92215000Y-49499000D02*
X93270000Y-49499000D01*
X93609000Y-52328000D02*
X91689005Y-52328000D01*
%TO.N,Net-(IC1--IN_A)*%
X95659000Y-50833000D02*
X93614000Y-50833000D01*
X95700000Y-50874000D02*
X95659000Y-50833000D01*
X95700000Y-51897000D02*
X95700000Y-50874000D01*
X95686000Y-52946000D02*
X95686000Y-51911000D01*
X95686000Y-51911000D02*
X95700000Y-51897000D01*
X93614000Y-50833000D02*
X93609000Y-50828000D01*
%TO.N,Net-(IC1-OUT_A)*%
X91178000Y-50487598D02*
X91178000Y-49519000D01*
X96706000Y-51943000D02*
X96660000Y-51897000D01*
X96061000Y-53591000D02*
X95350000Y-53591000D01*
X95068000Y-53309000D02*
X95068000Y-51787000D01*
X92018402Y-51328000D02*
X91178000Y-50487598D01*
X94609000Y-51328000D02*
X93609000Y-51328000D01*
X95068000Y-51787000D02*
X94609000Y-51328000D01*
X96706000Y-52946000D02*
X96706000Y-51943000D01*
X96706000Y-52946000D02*
X96061000Y-53591000D01*
X95350000Y-53591000D02*
X95068000Y-53309000D01*
X93609000Y-51328000D02*
X92018402Y-51328000D01*
%TO.N,Net-(IC2-+IN_B)*%
X99355000Y-53369000D02*
X99908000Y-52816000D01*
X98883000Y-50145000D02*
X98883000Y-53680000D01*
X98883000Y-53680000D02*
X99355000Y-54152000D01*
X100525000Y-48503000D02*
X98883000Y-50145000D01*
X99355000Y-54152000D02*
X99355000Y-53369000D01*
%TO.N,Net-(IC2-OUT_B)*%
X104308000Y-52316000D02*
X103258599Y-52316000D01*
X103258599Y-52316000D02*
X102952213Y-52622386D01*
X104807000Y-49493000D02*
X103747000Y-49493000D01*
X103747000Y-49493000D02*
X103738000Y-49484000D01*
X103738000Y-49484000D02*
X103738000Y-49698422D01*
X103738000Y-49698422D02*
X103107366Y-50329056D01*
%TO.N,Net-(IC2-OUT_A)*%
X106700609Y-53772000D02*
X105981000Y-53772000D01*
X107342000Y-53123000D02*
X107328000Y-53137000D01*
X103046056Y-51054056D02*
X102807061Y-51054056D01*
X105727000Y-53518000D02*
X105727000Y-51735000D01*
X102807061Y-51054056D02*
X102382866Y-50629861D01*
X107328000Y-53144609D02*
X106700609Y-53772000D01*
X105308000Y-51316000D02*
X104308000Y-51316000D01*
X107342000Y-52089000D02*
X107342000Y-53123000D01*
X102382866Y-50629861D02*
X102382866Y-49765134D01*
X103308000Y-51316000D02*
X103046056Y-51054056D01*
X102382866Y-49765134D02*
X102626000Y-49522000D01*
X105981000Y-53772000D02*
X105727000Y-53518000D01*
X107328000Y-53137000D02*
X107328000Y-53144609D01*
X105727000Y-51735000D02*
X105308000Y-51316000D01*
X104308000Y-51316000D02*
X103308000Y-51316000D01*
%TO.N,Net-(IC2--IN_A)*%
X106368000Y-53137000D02*
X106368000Y-52135000D01*
X104333000Y-50841000D02*
X104308000Y-50816000D01*
X106322000Y-51039000D02*
X106124000Y-50841000D01*
X106368000Y-52135000D02*
X106322000Y-52089000D01*
X106124000Y-50841000D02*
X104333000Y-50841000D01*
X106322000Y-52089000D02*
X106322000Y-51039000D01*
%TO.N,/Connector Opamp/Right_Leg*%
X96103000Y-77923000D02*
X98916000Y-75110000D01*
X86978000Y-74498000D02*
X86978000Y-37889391D01*
X98591000Y-74173000D02*
X98916000Y-74498000D01*
X86978000Y-74498000D02*
X87303000Y-74173000D01*
X90403000Y-77923000D02*
X96103000Y-77923000D01*
X86978000Y-74498000D02*
X90403000Y-77923000D01*
X86978000Y-37889391D02*
X87984391Y-36883000D01*
X87984391Y-36883000D02*
X88791000Y-36883000D01*
X98916000Y-75110000D02*
X98916000Y-74498000D01*
%TO.N,/Connector Opamp/IN1.2*%
X104132000Y-64903001D02*
X99807999Y-60579000D01*
X104132000Y-74314000D02*
X104132000Y-64903001D01*
X99807999Y-60579000D02*
X99382999Y-60579000D01*
X106316000Y-76498000D02*
X104132000Y-74314000D01*
%TO.N,/Connector Opamp/IN2.2*%
X100177000Y-59309000D02*
X99382999Y-59309000D01*
X106316000Y-67098000D02*
X106316000Y-65448000D01*
X106316000Y-65448000D02*
X100177000Y-59309000D01*
%TO.N,/Connector Opamp/IN1.1*%
X96103000Y-74773000D02*
X94378000Y-76498000D01*
X96103000Y-65373000D02*
X96103000Y-74773000D01*
X90039000Y-59309000D02*
X96103000Y-65373000D01*
X88714999Y-59309000D02*
X90039000Y-59309000D01*
%TO.N,/Connector Opamp/IN2.1*%
X88714999Y-60579000D02*
X89139999Y-60579000D01*
X94378000Y-65817001D02*
X94378000Y-67098000D01*
X89139999Y-60579000D02*
X94378000Y-65817001D01*
%TO.N,Net-(R4-Pad2)*%
X94998000Y-57205998D02*
X94164998Y-58039000D01*
X94998000Y-56642000D02*
X94998000Y-57205998D01*
%TO.N,In_amp1*%
X94360998Y-60775000D02*
X96058000Y-60775000D01*
X96245000Y-60775000D02*
X97152702Y-59867298D01*
X96693000Y-55451255D02*
X97301000Y-54843255D01*
X94164998Y-60579000D02*
X94360998Y-60775000D01*
X97301000Y-54843255D02*
X97301000Y-51455000D01*
X96058000Y-60775000D02*
X96245000Y-60775000D01*
X97152702Y-59867298D02*
X97152702Y-56511153D01*
X96507000Y-60775000D02*
X97329000Y-61597000D01*
X97152702Y-56511153D02*
X96693000Y-56051451D01*
X96693000Y-56051451D02*
X96693000Y-55451255D01*
X97301000Y-51455000D02*
X96679000Y-50833000D01*
X96058000Y-60775000D02*
X96507000Y-60775000D01*
%TO.N,In_amp2*%
X105257998Y-60579000D02*
X104832998Y-60579000D01*
X107342000Y-51039000D02*
X107937000Y-51634000D01*
X107468098Y-61601500D02*
X106280498Y-61601500D01*
X108391000Y-51180000D02*
X108391000Y-49243000D01*
X106280498Y-61601500D02*
X105257998Y-60579000D01*
X107937000Y-61132598D02*
X107468098Y-61601500D01*
X107937000Y-51634000D02*
X107937000Y-61132598D01*
X107937000Y-51634000D02*
X108391000Y-51180000D01*
%TO.N,Net-(U1B--)*%
X92242000Y-41242000D02*
X90847459Y-41242000D01*
X90847459Y-41242000D02*
X90272000Y-40666541D01*
X90831000Y-37996000D02*
X90272000Y-38555000D01*
X90272000Y-40666541D02*
X90272000Y-39653000D01*
X90272000Y-38555000D02*
X90272000Y-39653000D01*
%TO.N,Net-(U1A--)*%
X88972000Y-43764458D02*
X90304729Y-42431729D01*
X90474459Y-42262000D02*
X92242000Y-42262000D01*
X89622000Y-43878000D02*
X89622000Y-43114459D01*
X90304729Y-42431729D02*
X90474459Y-42262000D01*
X89622000Y-43114459D02*
X90304729Y-42431729D01*
X88972000Y-43878000D02*
X88972000Y-43764458D01*
%TO.N,Net-(C9-Pad2)*%
X92175000Y-48499000D02*
X92215000Y-48539000D01*
X90164000Y-48592000D02*
X91085000Y-48592000D01*
X91085000Y-48592000D02*
X91178000Y-48499000D01*
X91178000Y-48499000D02*
X92175000Y-48499000D01*
%TO.N,Net-(C10-Pad2)*%
X101546000Y-48502000D02*
X101545000Y-48503000D01*
X103738000Y-48524000D02*
X102648000Y-48524000D01*
X102648000Y-48524000D02*
X102626000Y-48502000D01*
X102626000Y-48502000D02*
X101546000Y-48502000D01*
%TO.N,/Bluetooth ESP/16*%
X133942000Y-48892000D02*
X134580000Y-49530000D01*
X86724000Y-30657000D02*
X99531000Y-30657000D01*
X134580000Y-49530000D02*
X136350000Y-49530000D01*
X99531000Y-30657000D02*
X104855000Y-35981000D01*
%TO.N,/Bluetooth ESP/17*%
X132181000Y-45334000D02*
X133837000Y-46990000D01*
X133837000Y-46990000D02*
X136350000Y-46990000D01*
X100144000Y-29657000D02*
X105808000Y-35321000D01*
X86724000Y-29657000D02*
X100144000Y-29657000D01*
%TO.N,/Bluetooth ESP/18*%
X132731000Y-40566000D02*
X134075000Y-41910000D01*
X134075000Y-41910000D02*
X136350000Y-41910000D01*
X100686000Y-28657000D02*
X106799000Y-34770000D01*
X86724000Y-28657000D02*
X100686000Y-28657000D01*
%TO.N,/Bluetooth ESP/19*%
X132915000Y-38879000D02*
X133406000Y-39370000D01*
X133406000Y-39370000D02*
X136350000Y-39370000D01*
X101041000Y-27657000D02*
X107812000Y-34428000D01*
X86724000Y-27657000D02*
X101041000Y-27657000D01*
%TO.N,/Bluetooth ESP/22*%
X127475000Y-35545000D02*
X136350000Y-26670000D01*
X86724000Y-25657000D02*
X100877299Y-25657000D01*
X110765299Y-35545000D02*
X127475000Y-35545000D01*
X100877299Y-25657000D02*
X110765299Y-35545000D01*
%TO.N,/Bluetooth ESP/3V3*%
X86979000Y-21670000D02*
X86707000Y-21398000D01*
X111252000Y-21670000D02*
X89176000Y-21670000D01*
X86724000Y-21657000D02*
X89163000Y-21657000D01*
X89176000Y-21670000D02*
X86979000Y-21670000D01*
X89163000Y-21657000D02*
X89176000Y-21670000D01*
%TO.N,/Bluetooth ESP/34*%
X86724000Y-23657000D02*
X103079000Y-23657000D01*
X103079000Y-23657000D02*
X111252000Y-31830000D01*
%TO.N,/Bluetooth ESP/35*%
X86724000Y-24657000D02*
X101539000Y-24657000D01*
X101539000Y-24657000D02*
X111252000Y-34370000D01*
%TO.N,+5V*%
X122609000Y-67779000D02*
X122629000Y-67759000D01*
X113276000Y-65366000D02*
X111252000Y-67390000D01*
X122629000Y-67759000D02*
X120236000Y-65366000D01*
X122609000Y-69598000D02*
X122609000Y-67779000D01*
X120236000Y-65366000D02*
X113276000Y-65366000D01*
%TO.N,Net-(R1-Pad1)*%
X88714999Y-57476999D02*
X87880000Y-56642000D01*
X88714999Y-58039000D02*
X88714999Y-57476999D01*
%TO.N,Net-(R8-Pad2)*%
X105666000Y-56642000D02*
X105666000Y-57205998D01*
X105666000Y-57205998D02*
X104832998Y-58039000D01*
%TO.N,Net-(IC1--VS)*%
X90234000Y-53165288D02*
X90233999Y-51852999D01*
X90209000Y-51828000D02*
X89209000Y-51828000D01*
X90851713Y-53783001D02*
X90234000Y-53165288D01*
X92657000Y-54145000D02*
X91587000Y-54145000D01*
X90914713Y-53783001D02*
X90851713Y-53783001D01*
X90233999Y-51852999D02*
X90209000Y-51828000D01*
X91258712Y-54127000D02*
X90914713Y-53783001D01*
X91569000Y-54127000D02*
X91258712Y-54127000D01*
X91587000Y-54145000D02*
X91569000Y-54127000D01*
%TO.N,Net-(IC1-+VS)*%
X93349549Y-54024371D02*
X93577178Y-54252000D01*
X95993000Y-54228000D02*
X94903000Y-54228000D01*
X93609000Y-51828000D02*
X91094402Y-51828000D01*
X93577178Y-54252000D02*
X94879000Y-54252000D01*
X93349549Y-53600549D02*
X93349549Y-54024371D01*
X90683500Y-52238902D02*
X90683500Y-52916098D01*
X91152500Y-53385098D02*
X93134098Y-53385098D01*
X90683500Y-52916098D02*
X91152500Y-53385098D01*
X91094402Y-51828000D02*
X90683500Y-52238902D01*
X93134098Y-53385098D02*
X93349549Y-53600549D01*
X94903000Y-54228000D02*
X94881000Y-54250000D01*
X94879000Y-54252000D02*
X94881000Y-54250000D01*
%TO.N,Net-(IC2--VS)*%
X103038000Y-53879598D02*
X103038000Y-53845598D01*
X104489000Y-54486000D02*
X103644402Y-54486000D01*
X105550000Y-54486000D02*
X105565000Y-54501000D01*
X101275902Y-52250500D02*
X100841402Y-51816000D01*
X101737098Y-52250500D02*
X101275902Y-52250500D01*
X103038000Y-53845598D02*
X102231000Y-53038598D01*
X102231000Y-53038598D02*
X102231000Y-52744402D01*
X102231000Y-52744402D02*
X101737098Y-52250500D01*
X100841402Y-51816000D02*
X99908000Y-51816000D01*
X104489000Y-54486000D02*
X105550000Y-54486000D01*
X103644402Y-54486000D02*
X103038000Y-53879598D01*
%TO.N,Net-(IC2-+VS)*%
X102286000Y-53824000D02*
X101506000Y-53044000D01*
X102280000Y-55212000D02*
X102280000Y-54159000D01*
X102320609Y-51204000D02*
X101898000Y-51204000D01*
X102280000Y-54159000D02*
X102286000Y-54153000D01*
X101898000Y-51204000D02*
X101576000Y-51526000D01*
X102932609Y-51816000D02*
X102320609Y-51204000D01*
X102286000Y-54153000D02*
X102286000Y-53824000D01*
X104308000Y-51816000D02*
X102932609Y-51816000D01*
%TO.N,Net-(BT1--)*%
X113443000Y-77648000D02*
X113440000Y-77651000D01*
X115502000Y-77648000D02*
X113443000Y-77648000D01*
%TO.N,Net-(BT4--)*%
X112506000Y-77585000D02*
X112440000Y-77651000D01*
X112564500Y-76154000D02*
X112506000Y-76095500D01*
X112506000Y-76095500D02*
X112506000Y-77585000D01*
X115432000Y-76154000D02*
X112564500Y-76154000D01*
%TO.N,32*%
X93609000Y-53027008D02*
X94109492Y-53527500D01*
X93609000Y-52828000D02*
X93609000Y-53027008D01*
X93296000Y-48485000D02*
X93286000Y-48495000D01*
X94325000Y-48485000D02*
X105900000Y-36910000D01*
X94325000Y-48485000D02*
X93296000Y-48485000D01*
X105900000Y-36910000D02*
X111252000Y-36910000D01*
X94290000Y-48520000D02*
X94325000Y-48485000D01*
X94290000Y-49511000D02*
X94290000Y-48520000D01*
%TO.N,33*%
X105840000Y-48506000D02*
X104840000Y-48506000D01*
X105840000Y-44862000D02*
X111252000Y-39450000D01*
X105840000Y-44862000D02*
X107948000Y-42754000D01*
X104308000Y-52859000D02*
X103675000Y-53492000D01*
X105841000Y-49755000D02*
X105841000Y-48507000D01*
X105840000Y-48506000D02*
X105840000Y-44862000D01*
X107948000Y-42754000D02*
X107948000Y-39492000D01*
X104308000Y-52816000D02*
X104308000Y-52859000D01*
X104840000Y-48506000D02*
X104807000Y-48473000D01*
X105841000Y-48507000D02*
X105840000Y-48506000D01*
%TO.N,Net-(R5-Pad1)*%
X99382999Y-58039000D02*
X99382999Y-57474999D01*
X99382999Y-57474999D02*
X98550000Y-56642000D01*
%TO.N,Net-(R10-Pad1)*%
X89622000Y-38185000D02*
X89622000Y-39653000D01*
X89811000Y-36883000D02*
X89811000Y-37996000D01*
X89811000Y-37996000D02*
X89622000Y-38185000D01*
%TO.N,Net-(BT2--)*%
X120868000Y-77664000D02*
X123008000Y-77664000D01*
X123008000Y-77664000D02*
X123019000Y-77675000D01*
%TO.N,Net-(BT2-+)*%
X124019000Y-76158000D02*
X124058000Y-76119000D01*
X124019000Y-77675000D02*
X124019000Y-76158000D01*
X124013000Y-76164000D02*
X120940000Y-76164000D01*
X124058000Y-76119000D02*
X124013000Y-76164000D01*
%TD*%
%TA.AperFunction,Conductor*%
%TO.N,GND*%
G36*
X89971824Y-62295998D02*
G01*
X89979264Y-62302855D01*
X92745965Y-65069557D01*
X92779450Y-65130880D01*
X92774466Y-65200572D01*
X92732595Y-65256505D01*
X92620454Y-65340453D01*
X92534204Y-65455668D01*
X92483910Y-65590515D01*
X92483909Y-65590517D01*
X92477500Y-65650127D01*
X92477500Y-65653448D01*
X92477500Y-65653449D01*
X92477500Y-68542560D01*
X92477500Y-68542578D01*
X92477501Y-68545872D01*
X92477853Y-68549152D01*
X92477854Y-68549159D01*
X92483909Y-68605484D01*
X92503733Y-68658633D01*
X92534204Y-68740331D01*
X92620454Y-68855546D01*
X92735669Y-68941796D01*
X92870517Y-68992091D01*
X92930127Y-68998500D01*
X95353500Y-68998499D01*
X95420539Y-69018184D01*
X95466294Y-69070987D01*
X95477500Y-69122499D01*
X95477500Y-74462545D01*
X95457815Y-74529584D01*
X95441181Y-74550226D01*
X95130226Y-74861181D01*
X95068903Y-74894666D01*
X95042545Y-74897500D01*
X92933439Y-74897500D01*
X92933420Y-74897500D01*
X92930128Y-74897501D01*
X92926848Y-74897853D01*
X92926840Y-74897854D01*
X92870515Y-74903909D01*
X92735669Y-74954204D01*
X92620454Y-75040454D01*
X92534204Y-75155668D01*
X92483909Y-75290516D01*
X92478757Y-75338440D01*
X92477500Y-75350127D01*
X92477500Y-76310874D01*
X92477501Y-77173500D01*
X92457816Y-77240539D01*
X92405013Y-77286294D01*
X92353501Y-77297500D01*
X90713453Y-77297500D01*
X90646414Y-77277815D01*
X90625772Y-77261181D01*
X88914818Y-75550227D01*
X88881333Y-75488904D01*
X88878499Y-75462546D01*
X88878499Y-75345398D01*
X89573746Y-75345398D01*
X89574534Y-75361940D01*
X89583746Y-75555330D01*
X89633297Y-75759580D01*
X89720602Y-75950752D01*
X89785435Y-76041796D01*
X89842514Y-76121952D01*
X89994622Y-76266986D01*
X90055319Y-76305994D01*
X90171425Y-76380612D01*
X90207348Y-76394993D01*
X90366543Y-76458725D01*
X90495233Y-76483528D01*
X90572914Y-76498500D01*
X90572915Y-76498500D01*
X90727471Y-76498500D01*
X90730425Y-76498500D01*
X90733376Y-76498218D01*
X90733380Y-76498218D01*
X90790644Y-76492749D01*
X90887218Y-76483528D01*
X91088875Y-76424316D01*
X91275682Y-76328011D01*
X91440886Y-76198092D01*
X91578519Y-76039256D01*
X91683604Y-75857244D01*
X91752344Y-75658633D01*
X91782254Y-75450602D01*
X91772254Y-75240670D01*
X91722704Y-75036424D01*
X91708395Y-75005092D01*
X91635397Y-74845247D01*
X91513487Y-74674050D01*
X91513486Y-74674048D01*
X91361378Y-74529014D01*
X91329257Y-74508371D01*
X91184574Y-74415387D01*
X91004891Y-74343454D01*
X90989457Y-74337275D01*
X90989456Y-74337274D01*
X90989454Y-74337274D01*
X90783086Y-74297500D01*
X90783085Y-74297500D01*
X90625575Y-74297500D01*
X90622645Y-74297779D01*
X90622619Y-74297781D01*
X90468784Y-74312471D01*
X90267126Y-74371683D01*
X90080315Y-74467990D01*
X89915115Y-74597906D01*
X89777479Y-74756745D01*
X89672396Y-74938754D01*
X89603655Y-75137366D01*
X89574916Y-75337257D01*
X89573746Y-75345398D01*
X88878499Y-75345398D01*
X88878499Y-73353439D01*
X88878499Y-73350128D01*
X88872091Y-73290517D01*
X88821796Y-73155669D01*
X88735546Y-73040454D01*
X88620331Y-72954204D01*
X88485483Y-72903909D01*
X88425873Y-72897500D01*
X88422551Y-72897500D01*
X87727500Y-72897500D01*
X87660461Y-72877815D01*
X87614706Y-72825011D01*
X87603500Y-72773500D01*
X87603500Y-68345398D01*
X89573746Y-68345398D01*
X89581946Y-68517545D01*
X89583746Y-68555330D01*
X89633297Y-68759580D01*
X89720602Y-68950752D01*
X89794083Y-69053940D01*
X89842514Y-69121952D01*
X89994622Y-69266986D01*
X90031987Y-69290999D01*
X90171425Y-69380612D01*
X90210580Y-69396287D01*
X90366543Y-69458725D01*
X90495233Y-69483528D01*
X90572914Y-69498500D01*
X90572915Y-69498500D01*
X90727471Y-69498500D01*
X90730425Y-69498500D01*
X90733376Y-69498218D01*
X90733380Y-69498218D01*
X90790644Y-69492749D01*
X90887218Y-69483528D01*
X91088875Y-69424316D01*
X91275682Y-69328011D01*
X91440886Y-69198092D01*
X91578519Y-69039256D01*
X91683604Y-68857244D01*
X91752344Y-68658633D01*
X91782254Y-68450602D01*
X91772254Y-68240670D01*
X91722704Y-68036424D01*
X91722702Y-68036419D01*
X91635397Y-67845247D01*
X91513487Y-67674050D01*
X91513486Y-67674048D01*
X91361378Y-67529014D01*
X91322418Y-67503976D01*
X91184574Y-67415387D01*
X91028609Y-67352949D01*
X90989457Y-67337275D01*
X90989456Y-67337274D01*
X90989454Y-67337274D01*
X90783086Y-67297500D01*
X90783085Y-67297500D01*
X90625575Y-67297500D01*
X90622645Y-67297779D01*
X90622619Y-67297781D01*
X90468784Y-67312471D01*
X90267126Y-67371683D01*
X90080315Y-67467990D01*
X89915115Y-67597906D01*
X89777479Y-67756745D01*
X89672396Y-67938754D01*
X89603655Y-68137366D01*
X89585822Y-68261404D01*
X89573746Y-68345398D01*
X87603500Y-68345398D01*
X87603500Y-64220452D01*
X87623185Y-64153413D01*
X87675989Y-64107658D01*
X87745147Y-64097714D01*
X87808703Y-64126739D01*
X87815181Y-64132771D01*
X87872038Y-64189628D01*
X87905523Y-64250951D01*
X87907678Y-64264347D01*
X87925326Y-64432257D01*
X87983820Y-64612284D01*
X88078466Y-64776216D01*
X88205129Y-64916889D01*
X88358269Y-65028151D01*
X88531197Y-65105144D01*
X88716352Y-65144500D01*
X88716354Y-65144500D01*
X88905648Y-65144500D01*
X89029083Y-65118262D01*
X89090803Y-65105144D01*
X89263730Y-65028151D01*
X89347116Y-64967568D01*
X89416870Y-64916889D01*
X89416975Y-64916773D01*
X89543533Y-64776216D01*
X89638179Y-64612284D01*
X89696674Y-64432256D01*
X89716460Y-64244000D01*
X89696674Y-64055744D01*
X89679611Y-64003232D01*
X89677617Y-63933393D01*
X89709862Y-63877234D01*
X89775720Y-63811376D01*
X89858032Y-63672194D01*
X89903144Y-63516917D01*
X89904790Y-63496000D01*
X89353778Y-63496000D01*
X89286739Y-63476315D01*
X89280892Y-63472317D01*
X89263732Y-63459849D01*
X89090801Y-63382855D01*
X89044718Y-63373060D01*
X88983236Y-63339867D01*
X88949460Y-63278703D01*
X88946500Y-63251770D01*
X88946500Y-63120000D01*
X88966185Y-63052961D01*
X89018989Y-63007206D01*
X89070500Y-62996000D01*
X89904790Y-62996000D01*
X89903145Y-62975084D01*
X89858032Y-62819805D01*
X89775718Y-62680620D01*
X89695768Y-62600670D01*
X89662283Y-62539347D01*
X89667267Y-62469655D01*
X89695766Y-62425309D01*
X89769815Y-62351261D01*
X89786589Y-62324564D01*
X89838921Y-62278274D01*
X89907975Y-62267624D01*
X89971824Y-62295998D01*
G37*
%TD.AperFunction*%
%TA.AperFunction,Conductor*%
G36*
X89969587Y-56566185D02*
G01*
X89990229Y-56582819D01*
X90433196Y-57025787D01*
X90446096Y-57041888D01*
X90497223Y-57089900D01*
X90500020Y-57092611D01*
X90519529Y-57112120D01*
X90522709Y-57114587D01*
X90531571Y-57122155D01*
X90563418Y-57152062D01*
X90573963Y-57157859D01*
X90580972Y-57161712D01*
X90597236Y-57172396D01*
X90608365Y-57181028D01*
X90613064Y-57184673D01*
X90637909Y-57195424D01*
X90653152Y-57202021D01*
X90663631Y-57207154D01*
X90701908Y-57228197D01*
X90721306Y-57233177D01*
X90739708Y-57239477D01*
X90758104Y-57247438D01*
X90801261Y-57254273D01*
X90812664Y-57256634D01*
X90854981Y-57267500D01*
X90875016Y-57267500D01*
X90894413Y-57269026D01*
X90914196Y-57272160D01*
X90957674Y-57268050D01*
X90969344Y-57267500D01*
X93080058Y-57267500D01*
X93147097Y-57287185D01*
X93192852Y-57339989D01*
X93202796Y-57409147D01*
X93173771Y-57472703D01*
X93167739Y-57479181D01*
X93110183Y-57536736D01*
X93014207Y-57689481D01*
X92954629Y-57859744D01*
X92934432Y-58038999D01*
X92954629Y-58218255D01*
X93014207Y-58388518D01*
X93101553Y-58527528D01*
X93120553Y-58594765D01*
X93100185Y-58661600D01*
X93046917Y-58706814D01*
X92996559Y-58717500D01*
X92786747Y-58717500D01*
X92719708Y-58697815D01*
X92694599Y-58676473D01*
X92688871Y-58670112D01*
X92535730Y-58558849D01*
X92535729Y-58558848D01*
X92535727Y-58558847D01*
X92362802Y-58481855D01*
X92177648Y-58442500D01*
X92177646Y-58442500D01*
X91988354Y-58442500D01*
X91988352Y-58442500D01*
X91803197Y-58481855D01*
X91630269Y-58558848D01*
X91477129Y-58670110D01*
X91350466Y-58810783D01*
X91255820Y-58974715D01*
X91197326Y-59154742D01*
X91183795Y-59283483D01*
X91157210Y-59348098D01*
X91099912Y-59388082D01*
X91030093Y-59390742D01*
X90972793Y-59358202D01*
X90539802Y-58925211D01*
X90526906Y-58909113D01*
X90475775Y-58861098D01*
X90472978Y-58858387D01*
X90456227Y-58841636D01*
X90453471Y-58838880D01*
X90450290Y-58836412D01*
X90441422Y-58828837D01*
X90409582Y-58798938D01*
X90392024Y-58789285D01*
X90375764Y-58778604D01*
X90359936Y-58766327D01*
X90319851Y-58748980D01*
X90309361Y-58743841D01*
X90271091Y-58722802D01*
X90251691Y-58717821D01*
X90233284Y-58711519D01*
X90214897Y-58703562D01*
X90171758Y-58696729D01*
X90160324Y-58694361D01*
X90118019Y-58683500D01*
X90097984Y-58683500D01*
X90078586Y-58681973D01*
X90071162Y-58680797D01*
X90058805Y-58678840D01*
X90058804Y-58678840D01*
X90025751Y-58681964D01*
X90015325Y-58682950D01*
X90003656Y-58683500D01*
X89904802Y-58683500D01*
X89837763Y-58663815D01*
X89792008Y-58611011D01*
X89782064Y-58541853D01*
X89799808Y-58493528D01*
X89831870Y-58442501D01*
X89865788Y-58388521D01*
X89925367Y-58218255D01*
X89945564Y-58039000D01*
X89930785Y-57907830D01*
X89925367Y-57859744D01*
X89865789Y-57689481D01*
X89818149Y-57613663D01*
X89769815Y-57536739D01*
X89769814Y-57536738D01*
X89769813Y-57536736D01*
X89642262Y-57409185D01*
X89588991Y-57375713D01*
X89542700Y-57323378D01*
X89532052Y-57254325D01*
X89548229Y-57207602D01*
X89622869Y-57081393D01*
X89667665Y-56927204D01*
X89670500Y-56891181D01*
X89670499Y-56670499D01*
X89690183Y-56603461D01*
X89742987Y-56557706D01*
X89794499Y-56546500D01*
X89902548Y-56546500D01*
X89969587Y-56566185D01*
G37*
%TD.AperFunction*%
%TA.AperFunction,Conductor*%
G36*
X96439188Y-57482136D02*
G01*
X96497629Y-57520429D01*
X96526090Y-57584240D01*
X96527201Y-57600799D01*
X96527201Y-58217715D01*
X96507516Y-58284754D01*
X96454712Y-58330509D01*
X96385554Y-58340453D01*
X96321998Y-58311428D01*
X96295351Y-58278907D01*
X96292000Y-58273001D01*
X96292000Y-58273000D01*
X96291998Y-58272999D01*
X96291998Y-58272998D01*
X96277365Y-58263965D01*
X96230659Y-58212000D01*
X96218500Y-58158450D01*
X96218500Y-57618040D01*
X96238185Y-57551001D01*
X96290989Y-57505246D01*
X96308610Y-57498761D01*
X96369325Y-57481517D01*
X96439188Y-57482136D01*
G37*
%TD.AperFunction*%
%TA.AperFunction,Conductor*%
G36*
X90186703Y-54003027D02*
G01*
X90193158Y-54009037D01*
X90350914Y-54166793D01*
X90363808Y-54182887D01*
X90365925Y-54184875D01*
X90365927Y-54184878D01*
X90371884Y-54190472D01*
X90407278Y-54250711D01*
X90411000Y-54280863D01*
X90411000Y-54988503D01*
X90557197Y-54946030D01*
X90624871Y-54906008D01*
X90692595Y-54888824D01*
X90717044Y-54897000D01*
X91308591Y-54897000D01*
X91316821Y-54897323D01*
X91314955Y-54897213D01*
X91317375Y-54897307D01*
X91319819Y-54897500D01*
X91695000Y-54897499D01*
X91762039Y-54917183D01*
X91807794Y-54969987D01*
X91819000Y-55021499D01*
X91819000Y-55273000D01*
X91799315Y-55340039D01*
X91746511Y-55385794D01*
X91695000Y-55397000D01*
X90751742Y-55397000D01*
X90705786Y-55431300D01*
X90636087Y-55436184D01*
X90598472Y-55416369D01*
X90597310Y-55418485D01*
X90583582Y-55410938D01*
X90566024Y-55401285D01*
X90549764Y-55390604D01*
X90533936Y-55378327D01*
X90493851Y-55360980D01*
X90483361Y-55355841D01*
X90445091Y-55334802D01*
X90425691Y-55329821D01*
X90407284Y-55323519D01*
X90388897Y-55315562D01*
X90345758Y-55308729D01*
X90334324Y-55306361D01*
X90292019Y-55295500D01*
X90271984Y-55295500D01*
X90252586Y-55293973D01*
X90245162Y-55292797D01*
X90232805Y-55290840D01*
X90232804Y-55290840D01*
X90199751Y-55293964D01*
X90189325Y-55294950D01*
X90177656Y-55295500D01*
X89720625Y-55295500D01*
X89653586Y-55275815D01*
X89607831Y-55223011D01*
X89598981Y-55195555D01*
X89575361Y-55076108D01*
X89576656Y-55022184D01*
X89577101Y-55020391D01*
X89612355Y-54960067D01*
X89674625Y-54928379D01*
X89744142Y-54935387D01*
X89760572Y-54943529D01*
X89764802Y-54946030D01*
X89911000Y-54988504D01*
X89911000Y-54682352D01*
X89928268Y-54619230D01*
X89933494Y-54610395D01*
X89978643Y-54454993D01*
X89981500Y-54418690D01*
X89981500Y-54096739D01*
X90001185Y-54029701D01*
X90053989Y-53983946D01*
X90123147Y-53974002D01*
X90186703Y-54003027D01*
G37*
%TD.AperFunction*%
%TA.AperFunction,Conductor*%
G36*
X101086044Y-53903000D02*
G01*
X101203078Y-53903000D01*
X101228859Y-53905710D01*
X101417281Y-53945760D01*
X101478763Y-53978952D01*
X101512539Y-54040115D01*
X101515500Y-54067050D01*
X101515500Y-54267500D01*
X101495815Y-54334539D01*
X101443011Y-54380294D01*
X101391500Y-54391500D01*
X101063243Y-54391500D01*
X101063217Y-54391500D01*
X101060820Y-54391501D01*
X101058429Y-54391689D01*
X101058406Y-54391690D01*
X101027474Y-54394124D01*
X101024796Y-54394335D01*
X101011913Y-54398077D01*
X100977324Y-54403000D01*
X100642864Y-54403000D01*
X100592428Y-54392279D01*
X100548802Y-54372855D01*
X100363648Y-54333500D01*
X100363646Y-54333500D01*
X100259500Y-54333500D01*
X100192461Y-54313815D01*
X100146706Y-54261011D01*
X100135500Y-54209500D01*
X100135500Y-54026000D01*
X100155185Y-53958961D01*
X100207989Y-53913206D01*
X100259500Y-53902000D01*
X101082638Y-53902000D01*
X101086044Y-53903000D01*
G37*
%TD.AperFunction*%
%TA.AperFunction,Conductor*%
G36*
X106948032Y-37555185D02*
G01*
X106993787Y-37607989D01*
X106997174Y-37616165D01*
X107003204Y-37632331D01*
X107089454Y-37747546D01*
X107204669Y-37833796D01*
X107339517Y-37884091D01*
X107399127Y-37890500D01*
X108494872Y-37890499D01*
X108554483Y-37884091D01*
X108689331Y-37833796D01*
X108804546Y-37747546D01*
X108890796Y-37632331D01*
X108896826Y-37616165D01*
X108938698Y-37560232D01*
X109004163Y-37535816D01*
X109013007Y-37535500D01*
X109976773Y-37535500D01*
X110043812Y-37555185D01*
X110078345Y-37588373D01*
X110213505Y-37781401D01*
X110380599Y-37948495D01*
X110566160Y-38078426D01*
X110609783Y-38133002D01*
X110616976Y-38202501D01*
X110585454Y-38264855D01*
X110566158Y-38281575D01*
X110390991Y-38404229D01*
X110380595Y-38411508D01*
X110213505Y-38578598D01*
X110077965Y-38772170D01*
X109978097Y-38986336D01*
X109916936Y-39214592D01*
X109896340Y-39450000D01*
X109916936Y-39685405D01*
X109916937Y-39685407D01*
X109916937Y-39685408D01*
X109939328Y-39768975D01*
X109943856Y-39785871D01*
X109942193Y-39855721D01*
X109911762Y-39905646D01*
X108785181Y-41032228D01*
X108723858Y-41065713D01*
X108654166Y-41060729D01*
X108598233Y-41018857D01*
X108573816Y-40953393D01*
X108573500Y-40944547D01*
X108573500Y-40565465D01*
X108593185Y-40498426D01*
X108645989Y-40452671D01*
X108654132Y-40449297D01*
X108690331Y-40435796D01*
X108805546Y-40349546D01*
X108891796Y-40234331D01*
X108942091Y-40099483D01*
X108948500Y-40039873D01*
X108948499Y-38944128D01*
X108942091Y-38884517D01*
X108891796Y-38749669D01*
X108805546Y-38634454D01*
X108690331Y-38548204D01*
X108555483Y-38497909D01*
X108495873Y-38491500D01*
X108492550Y-38491500D01*
X107403439Y-38491500D01*
X107403420Y-38491500D01*
X107400128Y-38491501D01*
X107396848Y-38491853D01*
X107396840Y-38491854D01*
X107340515Y-38497909D01*
X107205669Y-38548204D01*
X107090454Y-38634454D01*
X107004204Y-38749668D01*
X106953910Y-38884515D01*
X106953909Y-38884517D01*
X106947500Y-38944127D01*
X106947500Y-38947448D01*
X106947500Y-38947449D01*
X106947500Y-40036560D01*
X106947500Y-40036578D01*
X106947501Y-40039872D01*
X106947853Y-40043152D01*
X106947854Y-40043159D01*
X106953909Y-40099484D01*
X106964482Y-40127830D01*
X107004204Y-40234331D01*
X107090454Y-40349546D01*
X107205669Y-40435796D01*
X107241835Y-40449285D01*
X107297766Y-40491153D01*
X107322184Y-40556617D01*
X107322500Y-40565465D01*
X107322500Y-42443546D01*
X107302815Y-42510585D01*
X107286181Y-42531227D01*
X105456208Y-44361199D01*
X105440110Y-44374096D01*
X105392096Y-44425225D01*
X105389392Y-44428016D01*
X105372628Y-44444780D01*
X105372621Y-44444787D01*
X105369880Y-44447529D01*
X105367499Y-44450597D01*
X105367490Y-44450608D01*
X105367411Y-44450711D01*
X105359842Y-44459572D01*
X105329935Y-44491420D01*
X105320285Y-44508974D01*
X105309609Y-44525228D01*
X105297326Y-44541063D01*
X105279975Y-44581158D01*
X105274838Y-44591644D01*
X105253802Y-44629907D01*
X105248821Y-44649309D01*
X105242520Y-44667711D01*
X105234561Y-44686102D01*
X105227728Y-44729242D01*
X105225360Y-44740674D01*
X105214499Y-44782977D01*
X105214500Y-44803016D01*
X105212973Y-44822414D01*
X105209840Y-44842194D01*
X105213950Y-44885673D01*
X105214500Y-44897343D01*
X105214500Y-47580817D01*
X105194815Y-47647856D01*
X105142011Y-47693611D01*
X105080772Y-47704435D01*
X105058618Y-47702691D01*
X105058598Y-47702690D01*
X105056181Y-47702500D01*
X105053735Y-47702500D01*
X104560243Y-47702500D01*
X104560217Y-47702500D01*
X104557820Y-47702501D01*
X104555429Y-47702689D01*
X104555406Y-47702690D01*
X104521794Y-47705335D01*
X104367607Y-47750130D01*
X104294141Y-47793578D01*
X104226417Y-47810761D01*
X104167899Y-47793578D01*
X104164394Y-47791505D01*
X104008996Y-47746357D01*
X103975124Y-47743691D01*
X103975110Y-47743690D01*
X103972690Y-47743500D01*
X103503310Y-47743500D01*
X103500890Y-47743690D01*
X103500875Y-47743691D01*
X103467003Y-47746357D01*
X103311603Y-47791505D01*
X103262081Y-47820793D01*
X103194357Y-47837976D01*
X103135840Y-47820793D01*
X103065392Y-47779130D01*
X102911206Y-47734335D01*
X102877615Y-47731691D01*
X102877600Y-47731690D01*
X102875181Y-47731500D01*
X102872735Y-47731500D01*
X102379243Y-47731500D01*
X102379217Y-47731500D01*
X102376820Y-47731501D01*
X102374429Y-47731689D01*
X102374406Y-47731690D01*
X102340794Y-47734335D01*
X102186607Y-47779130D01*
X102165045Y-47791882D01*
X102097321Y-47809062D01*
X102038806Y-47791880D01*
X101934392Y-47730130D01*
X101780206Y-47685335D01*
X101746615Y-47682691D01*
X101746600Y-47682690D01*
X101744181Y-47682500D01*
X101741735Y-47682500D01*
X101348243Y-47682500D01*
X101348217Y-47682500D01*
X101345820Y-47682501D01*
X101343429Y-47682689D01*
X101343406Y-47682690D01*
X101309794Y-47685335D01*
X101155607Y-47730130D01*
X101098119Y-47764128D01*
X101030395Y-47781309D01*
X100971881Y-47764128D01*
X100914392Y-47730130D01*
X100760206Y-47685335D01*
X100726615Y-47682691D01*
X100726600Y-47682690D01*
X100724181Y-47682500D01*
X100721735Y-47682500D01*
X100328243Y-47682500D01*
X100328217Y-47682500D01*
X100325820Y-47682501D01*
X100323429Y-47682689D01*
X100323406Y-47682690D01*
X100289794Y-47685335D01*
X100135607Y-47730130D01*
X99997401Y-47811865D01*
X99883865Y-47925401D01*
X99802130Y-48063607D01*
X99757335Y-48217793D01*
X99754691Y-48251384D01*
X99754690Y-48251400D01*
X99754500Y-48253819D01*
X99754500Y-48256264D01*
X99754500Y-48337546D01*
X99734815Y-48404585D01*
X99718181Y-48425227D01*
X98499208Y-49644199D01*
X98483110Y-49657096D01*
X98435096Y-49708225D01*
X98432392Y-49711016D01*
X98415628Y-49727780D01*
X98415621Y-49727787D01*
X98412880Y-49730529D01*
X98410499Y-49733597D01*
X98410490Y-49733608D01*
X98410411Y-49733711D01*
X98402842Y-49742572D01*
X98372935Y-49774420D01*
X98363285Y-49791974D01*
X98352609Y-49808228D01*
X98340326Y-49824063D01*
X98322975Y-49864158D01*
X98317838Y-49874644D01*
X98296802Y-49912907D01*
X98291821Y-49932309D01*
X98285520Y-49950711D01*
X98277561Y-49969102D01*
X98270728Y-50012242D01*
X98268360Y-50023674D01*
X98257500Y-50065977D01*
X98257500Y-50086016D01*
X98255973Y-50105414D01*
X98252840Y-50125194D01*
X98256950Y-50168673D01*
X98257500Y-50180343D01*
X98257500Y-50724571D01*
X98237815Y-50791610D01*
X98185011Y-50837365D01*
X98173217Y-50842038D01*
X97797332Y-50969129D01*
X97727519Y-50971954D01*
X97669934Y-50939343D01*
X97485818Y-50755227D01*
X97452333Y-50693904D01*
X97449499Y-50667546D01*
X97449499Y-50586243D01*
X97449499Y-50583820D01*
X97446665Y-50547796D01*
X97401869Y-50393607D01*
X97320135Y-50255402D01*
X97206598Y-50141865D01*
X97175724Y-50123606D01*
X97068392Y-50060130D01*
X96914206Y-50015335D01*
X96880615Y-50012691D01*
X96880600Y-50012690D01*
X96878181Y-50012500D01*
X96875735Y-50012500D01*
X96482243Y-50012500D01*
X96482217Y-50012500D01*
X96479820Y-50012501D01*
X96477429Y-50012689D01*
X96477406Y-50012690D01*
X96443794Y-50015335D01*
X96289607Y-50060130D01*
X96232119Y-50094128D01*
X96164395Y-50111309D01*
X96105881Y-50094128D01*
X96048392Y-50060130D01*
X95894206Y-50015335D01*
X95860615Y-50012691D01*
X95860600Y-50012690D01*
X95858181Y-50012500D01*
X95855735Y-50012500D01*
X95462243Y-50012500D01*
X95462217Y-50012500D01*
X95459820Y-50012501D01*
X95457429Y-50012689D01*
X95457406Y-50012690D01*
X95426474Y-50015124D01*
X95423796Y-50015335D01*
X95405416Y-50020675D01*
X95257214Y-50063731D01*
X95187345Y-50063531D01*
X95128675Y-50025588D01*
X95099832Y-49961950D01*
X95109974Y-49892820D01*
X95115229Y-49882660D01*
X95117179Y-49879284D01*
X95175674Y-49699256D01*
X95195460Y-49511000D01*
X95175674Y-49322744D01*
X95117179Y-49142716D01*
X95111612Y-49133073D01*
X95095000Y-49071074D01*
X95095000Y-48745409D01*
X95095323Y-48737179D01*
X95095213Y-48739046D01*
X95095307Y-48736623D01*
X95095435Y-48735000D01*
X95595000Y-48735000D01*
X95595000Y-49297843D01*
X95734195Y-49257404D01*
X95872290Y-49175735D01*
X95985735Y-49062290D01*
X96067406Y-48924192D01*
X96112166Y-48770127D01*
X96114931Y-48735000D01*
X95595000Y-48735000D01*
X95095435Y-48735000D01*
X95095500Y-48734181D01*
X95095499Y-48650450D01*
X95115183Y-48583413D01*
X95131813Y-48562775D01*
X95423270Y-48271318D01*
X95484593Y-48237834D01*
X95510951Y-48235000D01*
X96114931Y-48235000D01*
X96112166Y-48199872D01*
X96067406Y-48045807D01*
X95985735Y-47907709D01*
X95973988Y-47895962D01*
X95940503Y-47834639D01*
X95945487Y-47764947D01*
X95973985Y-47720603D01*
X106122771Y-37571819D01*
X106184095Y-37538334D01*
X106210453Y-37535500D01*
X106880993Y-37535500D01*
X106948032Y-37555185D01*
G37*
%TD.AperFunction*%
%TA.AperFunction,Conductor*%
G36*
X87964833Y-37889659D02*
G01*
X88020767Y-37931530D01*
X88045184Y-37996995D01*
X88045500Y-38005840D01*
X88045500Y-38203690D01*
X88045690Y-38206110D01*
X88045691Y-38206124D01*
X88048357Y-38239996D01*
X88093504Y-38395392D01*
X88093506Y-38395395D01*
X88098731Y-38404230D01*
X88116000Y-38467352D01*
X88116000Y-38773504D01*
X88150952Y-38799747D01*
X88192743Y-38855740D01*
X88200500Y-38898908D01*
X88200500Y-39424256D01*
X88198235Y-39444766D01*
X88200439Y-39514872D01*
X88200500Y-39518767D01*
X88200500Y-39546350D01*
X88200988Y-39550219D01*
X88200989Y-39550225D01*
X88201004Y-39550343D01*
X88201918Y-39561967D01*
X88203290Y-39605626D01*
X88208879Y-39624860D01*
X88212825Y-39643916D01*
X88215335Y-39663792D01*
X88231414Y-39704404D01*
X88235197Y-39715451D01*
X88247382Y-39757391D01*
X88254233Y-39768975D01*
X88271500Y-39832094D01*
X88271500Y-40400805D01*
X88271500Y-40400820D01*
X88271501Y-40404860D01*
X88272029Y-40408873D01*
X88272030Y-40408884D01*
X88286954Y-40522260D01*
X88337061Y-40643225D01*
X88346500Y-40690678D01*
X88346500Y-40992197D01*
X88326815Y-41059236D01*
X88314650Y-41075169D01*
X88247466Y-41149783D01*
X88152820Y-41313715D01*
X88094326Y-41493742D01*
X88074540Y-41682000D01*
X88094326Y-41870257D01*
X88152820Y-42050284D01*
X88247466Y-42214216D01*
X88374129Y-42354889D01*
X88531463Y-42469198D01*
X88574129Y-42524528D01*
X88580108Y-42594141D01*
X88547503Y-42655936D01*
X88534065Y-42667892D01*
X88443716Y-42737219D01*
X88347463Y-42862659D01*
X88286956Y-43008737D01*
X88277782Y-43078425D01*
X88271500Y-43126139D01*
X88271500Y-43130191D01*
X88271500Y-43130192D01*
X88271500Y-44625805D01*
X88271500Y-44625820D01*
X88271501Y-44629860D01*
X88272029Y-44633873D01*
X88272030Y-44633884D01*
X88286955Y-44747260D01*
X88347464Y-44893341D01*
X88443717Y-45018782D01*
X88533620Y-45087766D01*
X88569159Y-45115036D01*
X88715238Y-45175544D01*
X88832639Y-45191000D01*
X89111360Y-45190999D01*
X89228762Y-45175544D01*
X89249548Y-45166933D01*
X89319015Y-45159465D01*
X89344448Y-45166932D01*
X89365238Y-45175544D01*
X89482639Y-45191000D01*
X89522499Y-45190999D01*
X89589537Y-45210682D01*
X89635293Y-45263485D01*
X89646500Y-45314999D01*
X89646500Y-46183008D01*
X89626815Y-46250047D01*
X89610181Y-46270689D01*
X87815181Y-48065689D01*
X87753858Y-48099174D01*
X87684166Y-48094190D01*
X87628233Y-48052318D01*
X87603816Y-47986854D01*
X87603500Y-47978008D01*
X87603500Y-38844850D01*
X87616000Y-38802280D01*
X87616000Y-38187342D01*
X87635685Y-38120303D01*
X87652315Y-38099665D01*
X87833822Y-37918158D01*
X87895142Y-37884675D01*
X87964833Y-37889659D01*
G37*
%TD.AperFunction*%
%TA.AperFunction,Conductor*%
G36*
X102835587Y-24302185D02*
G01*
X102856229Y-24318819D01*
X109911761Y-31374352D01*
X109945246Y-31435675D01*
X109943855Y-31494125D01*
X109916936Y-31594591D01*
X109895401Y-31840728D01*
X109869948Y-31905797D01*
X109813357Y-31946775D01*
X109743595Y-31950653D01*
X109684192Y-31917601D01*
X102260772Y-24494181D01*
X102227287Y-24432858D01*
X102232271Y-24363166D01*
X102274143Y-24307233D01*
X102339607Y-24282816D01*
X102348453Y-24282500D01*
X102768548Y-24282500D01*
X102835587Y-24302185D01*
G37*
%TD.AperFunction*%
%TA.AperFunction,Conductor*%
G36*
X89136413Y-22297026D02*
G01*
X89156196Y-22300160D01*
X89199674Y-22296050D01*
X89211344Y-22295500D01*
X109777501Y-22295500D01*
X109844540Y-22315185D01*
X109890295Y-22367989D01*
X109901500Y-22419500D01*
X109901501Y-22567872D01*
X109901853Y-22571152D01*
X109901854Y-22571159D01*
X109907909Y-22627484D01*
X109933056Y-22694906D01*
X109958204Y-22762331D01*
X110044454Y-22877546D01*
X110159669Y-22963796D01*
X110271907Y-23005658D01*
X110291082Y-23012810D01*
X110347016Y-23054681D01*
X110371433Y-23120146D01*
X110356581Y-23188419D01*
X110335431Y-23216673D01*
X110213503Y-23338601D01*
X110077965Y-23532170D01*
X109978097Y-23746336D01*
X109916936Y-23974592D01*
X109896340Y-24209999D01*
X109916936Y-24445407D01*
X109939335Y-24529000D01*
X109978097Y-24673663D01*
X110077965Y-24887830D01*
X110213505Y-25081401D01*
X110380599Y-25248495D01*
X110566160Y-25378426D01*
X110609783Y-25433002D01*
X110616976Y-25502501D01*
X110585454Y-25564855D01*
X110566159Y-25581575D01*
X110380595Y-25711508D01*
X110213505Y-25878598D01*
X110077965Y-26072170D01*
X109978097Y-26286336D01*
X109916936Y-26514592D01*
X109896340Y-26749999D01*
X109916936Y-26985407D01*
X109937833Y-27063395D01*
X109978097Y-27213663D01*
X110077965Y-27427830D01*
X110213505Y-27621401D01*
X110380599Y-27788495D01*
X110566160Y-27918426D01*
X110609783Y-27973002D01*
X110616976Y-28042501D01*
X110585454Y-28104855D01*
X110566159Y-28121575D01*
X110380595Y-28251508D01*
X110213505Y-28418598D01*
X110077965Y-28612170D01*
X109978097Y-28826336D01*
X109916936Y-29054592D01*
X109895401Y-29300728D01*
X109869948Y-29365797D01*
X109813357Y-29406775D01*
X109743595Y-29410653D01*
X109684192Y-29377601D01*
X103579802Y-23273211D01*
X103566906Y-23257113D01*
X103515775Y-23209098D01*
X103512978Y-23206387D01*
X103496227Y-23189636D01*
X103493471Y-23186880D01*
X103490290Y-23184412D01*
X103481422Y-23176837D01*
X103449582Y-23146938D01*
X103432024Y-23137285D01*
X103415764Y-23126604D01*
X103399936Y-23114327D01*
X103359851Y-23096980D01*
X103349361Y-23091841D01*
X103311091Y-23070802D01*
X103291691Y-23065821D01*
X103273284Y-23059519D01*
X103254897Y-23051562D01*
X103211758Y-23044729D01*
X103200324Y-23042361D01*
X103158019Y-23031500D01*
X103137984Y-23031500D01*
X103118586Y-23029973D01*
X103111162Y-23028797D01*
X103098805Y-23026840D01*
X103098804Y-23026840D01*
X103068284Y-23029725D01*
X103055325Y-23030950D01*
X103043656Y-23031500D01*
X87745591Y-23031500D01*
X87678552Y-23011815D01*
X87632797Y-22959011D01*
X87627772Y-22924068D01*
X87615372Y-22907000D01*
X87306559Y-22907000D01*
X87239520Y-22887315D01*
X87233674Y-22883318D01*
X87189300Y-22851078D01*
X87018062Y-22774839D01*
X87011571Y-22771949D01*
X87011570Y-22771948D01*
X87007822Y-22770280D01*
X86963806Y-22732868D01*
X86978898Y-22657000D01*
X86963900Y-22581600D01*
X87005674Y-22544701D01*
X87007822Y-22543720D01*
X87011571Y-22542051D01*
X87189299Y-22462922D01*
X87207133Y-22449964D01*
X87233674Y-22430682D01*
X87299480Y-22407202D01*
X87306559Y-22407000D01*
X87615372Y-22407000D01*
X87633280Y-22382349D01*
X87665972Y-22328141D01*
X87728674Y-22297315D01*
X87749815Y-22295500D01*
X89096981Y-22295500D01*
X89117016Y-22295500D01*
X89136413Y-22297026D01*
G37*
%TD.AperFunction*%
%TA.AperFunction,Conductor*%
G36*
X100633886Y-26302185D02*
G01*
X100654528Y-26318819D01*
X101150157Y-26814448D01*
X101183642Y-26875771D01*
X101178658Y-26945463D01*
X101136786Y-27001396D01*
X101074145Y-27025579D01*
X101060804Y-27026840D01*
X101029235Y-27029824D01*
X101017325Y-27030950D01*
X101005656Y-27031500D01*
X87745591Y-27031500D01*
X87678552Y-27011815D01*
X87632797Y-26959011D01*
X87627772Y-26924068D01*
X87615372Y-26907000D01*
X87306559Y-26907000D01*
X87239520Y-26887315D01*
X87233674Y-26883318D01*
X87189300Y-26851078D01*
X87007822Y-26770280D01*
X86963806Y-26732868D01*
X86978898Y-26657000D01*
X86963900Y-26581600D01*
X87005674Y-26544701D01*
X87007822Y-26543720D01*
X87073245Y-26514592D01*
X87189299Y-26462922D01*
X87228292Y-26434592D01*
X87233674Y-26430682D01*
X87299480Y-26407202D01*
X87306559Y-26407000D01*
X87615372Y-26407000D01*
X87626155Y-26392156D01*
X87625665Y-26374976D01*
X87661746Y-26315143D01*
X87724448Y-26284316D01*
X87745591Y-26282500D01*
X100566847Y-26282500D01*
X100633886Y-26302185D01*
G37*
%TD.AperFunction*%
%TA.AperFunction,Conductor*%
G36*
X139389039Y-19069685D02*
G01*
X139434794Y-19122489D01*
X139446000Y-19174000D01*
X139446000Y-78870000D01*
X139426315Y-78937039D01*
X139373511Y-78982794D01*
X139322000Y-78994000D01*
X84706000Y-78994000D01*
X84638961Y-78974315D01*
X84593206Y-78921511D01*
X84582000Y-78870000D01*
X84582000Y-75642578D01*
X85077500Y-75642578D01*
X85077501Y-75645872D01*
X85077853Y-75649152D01*
X85077854Y-75649159D01*
X85083909Y-75705484D01*
X85099255Y-75746629D01*
X85134204Y-75840331D01*
X85220454Y-75955546D01*
X85335669Y-76041796D01*
X85470517Y-76092091D01*
X85530127Y-76098500D01*
X87642546Y-76098499D01*
X87709585Y-76118184D01*
X87730227Y-76134818D01*
X89902196Y-78306787D01*
X89915096Y-78322888D01*
X89966223Y-78370900D01*
X89969020Y-78373611D01*
X89988529Y-78393120D01*
X89991709Y-78395587D01*
X90000571Y-78403155D01*
X90032418Y-78433062D01*
X90049970Y-78442711D01*
X90066238Y-78453397D01*
X90082064Y-78465673D01*
X90122146Y-78483017D01*
X90132633Y-78488155D01*
X90170907Y-78509197D01*
X90179410Y-78511379D01*
X90190308Y-78514178D01*
X90208713Y-78520478D01*
X90227104Y-78528437D01*
X90270250Y-78535270D01*
X90281668Y-78537635D01*
X90323981Y-78548500D01*
X90344016Y-78548500D01*
X90363415Y-78550027D01*
X90383196Y-78553160D01*
X90426674Y-78549050D01*
X90438344Y-78548500D01*
X96020256Y-78548500D01*
X96040762Y-78550764D01*
X96043665Y-78550672D01*
X96043667Y-78550673D01*
X96110872Y-78548561D01*
X96114768Y-78548500D01*
X96138448Y-78548500D01*
X96142350Y-78548500D01*
X96146313Y-78547999D01*
X96157962Y-78547080D01*
X96201627Y-78545709D01*
X96220859Y-78540120D01*
X96239918Y-78536174D01*
X96247099Y-78535267D01*
X96259792Y-78533664D01*
X96300407Y-78517582D01*
X96311444Y-78513803D01*
X96353390Y-78501618D01*
X96370629Y-78491422D01*
X96388102Y-78482862D01*
X96406732Y-78475486D01*
X96442064Y-78449814D01*
X96451830Y-78443400D01*
X96489418Y-78421171D01*
X96489417Y-78421171D01*
X96489420Y-78421170D01*
X96503585Y-78407004D01*
X96518373Y-78394373D01*
X96534587Y-78382594D01*
X96562438Y-78348926D01*
X96570279Y-78340309D01*
X98775771Y-76134817D01*
X98837094Y-76101333D01*
X98863452Y-76098499D01*
X100360561Y-76098499D01*
X100363872Y-76098499D01*
X100423483Y-76092091D01*
X100558331Y-76041796D01*
X100673546Y-75955546D01*
X100759796Y-75840331D01*
X100810091Y-75705483D01*
X100816500Y-75645873D01*
X100816499Y-73350128D01*
X100810091Y-73290517D01*
X100759796Y-73155669D01*
X100673546Y-73040454D01*
X100558331Y-72954204D01*
X100423483Y-72903909D01*
X100363873Y-72897500D01*
X100360550Y-72897500D01*
X97471439Y-72897500D01*
X97471420Y-72897500D01*
X97468128Y-72897501D01*
X97464848Y-72897853D01*
X97464840Y-72897854D01*
X97408515Y-72903909D01*
X97273669Y-72954204D01*
X97158454Y-73040454D01*
X97072204Y-73155668D01*
X97021910Y-73290515D01*
X97021909Y-73290517D01*
X97015500Y-73350127D01*
X97015500Y-73353448D01*
X97015500Y-73353449D01*
X97015500Y-75642560D01*
X97015500Y-75642578D01*
X97015501Y-75645872D01*
X97015853Y-75649152D01*
X97015854Y-75649159D01*
X97021909Y-75705484D01*
X97037255Y-75746629D01*
X97072204Y-75840331D01*
X97084866Y-75857245D01*
X97105797Y-75885205D01*
X97130214Y-75950670D01*
X97115362Y-76018943D01*
X97094211Y-76047197D01*
X96490180Y-76651228D01*
X96428857Y-76684713D01*
X96359165Y-76679729D01*
X96303232Y-76637857D01*
X96278815Y-76572393D01*
X96278499Y-76563547D01*
X96278499Y-75533453D01*
X96298184Y-75466414D01*
X96314818Y-75445772D01*
X96398650Y-75361940D01*
X96486789Y-75273800D01*
X96502885Y-75260906D01*
X96504873Y-75258787D01*
X96504877Y-75258786D01*
X96550949Y-75209723D01*
X96553534Y-75207055D01*
X96573120Y-75187471D01*
X96575585Y-75184292D01*
X96583167Y-75175416D01*
X96613062Y-75143582D01*
X96622717Y-75126018D01*
X96633394Y-75109764D01*
X96645673Y-75093936D01*
X96663018Y-75053852D01*
X96668160Y-75043356D01*
X96689197Y-75005092D01*
X96694179Y-74985684D01*
X96700481Y-74967280D01*
X96708437Y-74948896D01*
X96715269Y-74905752D01*
X96717633Y-74894338D01*
X96728500Y-74852019D01*
X96728500Y-74831982D01*
X96730027Y-74812584D01*
X96731198Y-74805188D01*
X96733160Y-74792804D01*
X96729050Y-74749324D01*
X96728500Y-74737655D01*
X96728500Y-65455741D01*
X96730763Y-65435237D01*
X96728561Y-65365144D01*
X96728500Y-65361250D01*
X96728500Y-65337544D01*
X96728500Y-65333650D01*
X96727998Y-65329681D01*
X96727080Y-65318024D01*
X96726943Y-65313662D01*
X96725709Y-65274373D01*
X96720120Y-65255140D01*
X96716174Y-65236082D01*
X96713664Y-65216206D01*
X96697588Y-65175604D01*
X96693804Y-65164553D01*
X96687881Y-65144168D01*
X96681618Y-65122610D01*
X96671414Y-65105355D01*
X96662861Y-65087895D01*
X96655486Y-65069269D01*
X96655486Y-65069268D01*
X96629808Y-65033925D01*
X96623401Y-65024171D01*
X96612304Y-65005407D01*
X96601170Y-64986580D01*
X96587006Y-64972416D01*
X96574367Y-64957617D01*
X96562595Y-64941413D01*
X96528941Y-64913573D01*
X96520299Y-64905709D01*
X94475271Y-62860680D01*
X94441786Y-62799357D01*
X94446770Y-62729665D01*
X94488642Y-62673732D01*
X94554106Y-62649315D01*
X94562952Y-62648999D01*
X94631441Y-62648999D01*
X94638389Y-62648608D01*
X94769139Y-62633876D01*
X94939302Y-62574334D01*
X95091947Y-62478420D01*
X95219419Y-62350948D01*
X95315333Y-62198303D01*
X95350081Y-62099000D01*
X94038998Y-62099000D01*
X93971959Y-62079315D01*
X93926204Y-62026511D01*
X93914998Y-61975000D01*
X93914998Y-61723000D01*
X93934683Y-61655961D01*
X93987487Y-61610206D01*
X94038998Y-61599000D01*
X95350081Y-61599000D01*
X95350080Y-61598999D01*
X95338343Y-61565454D01*
X95334782Y-61495675D01*
X95369511Y-61435048D01*
X95431505Y-61402821D01*
X95455385Y-61400500D01*
X95978981Y-61400500D01*
X96162257Y-61400500D01*
X96182759Y-61402763D01*
X96185661Y-61402671D01*
X96185667Y-61402673D01*
X96194486Y-61402395D01*
X96262108Y-61419962D01*
X96286063Y-61438653D01*
X96292181Y-61444771D01*
X96325666Y-61506094D01*
X96328500Y-61532452D01*
X96328500Y-62141560D01*
X96328500Y-62141578D01*
X96328501Y-62144872D01*
X96328853Y-62148152D01*
X96328854Y-62148159D01*
X96334909Y-62204484D01*
X96358459Y-62267624D01*
X96385204Y-62339331D01*
X96471454Y-62454546D01*
X96586669Y-62540796D01*
X96721517Y-62591091D01*
X96781127Y-62597500D01*
X97033736Y-62597499D01*
X97100773Y-62617183D01*
X97146528Y-62669987D01*
X97156472Y-62739146D01*
X97127447Y-62802701D01*
X97125884Y-62804471D01*
X97045466Y-62893783D01*
X96950820Y-63057715D01*
X96892326Y-63237742D01*
X96872540Y-63425999D01*
X96892326Y-63614257D01*
X96950820Y-63794284D01*
X97045466Y-63958216D01*
X97172129Y-64098889D01*
X97325269Y-64210151D01*
X97498197Y-64287144D01*
X97683352Y-64326500D01*
X97683354Y-64326500D01*
X97872648Y-64326500D01*
X97996083Y-64300262D01*
X98057803Y-64287144D01*
X98230730Y-64210151D01*
X98383871Y-64098888D01*
X98421739Y-64056831D01*
X98481221Y-64020184D01*
X98548482Y-64020727D01*
X98648007Y-64049643D01*
X98684310Y-64052500D01*
X98686755Y-64052500D01*
X99091245Y-64052500D01*
X99093690Y-64052500D01*
X99129993Y-64049643D01*
X99285395Y-64004494D01*
X99306369Y-63992089D01*
X99374088Y-63974906D01*
X99432612Y-63992090D01*
X99452802Y-64004030D01*
X99599000Y-64046504D01*
X99599000Y-63740352D01*
X99616268Y-63677230D01*
X99621494Y-63668395D01*
X99621553Y-63668194D01*
X99653712Y-63557500D01*
X99666643Y-63512993D01*
X99668295Y-63492000D01*
X100099000Y-63492000D01*
X100099000Y-64046503D01*
X100245196Y-64004031D01*
X100384379Y-63921718D01*
X100498718Y-63807379D01*
X100581032Y-63668194D01*
X100626144Y-63512917D01*
X100627790Y-63492000D01*
X100099000Y-63492000D01*
X99668295Y-63492000D01*
X99669500Y-63476690D01*
X99669500Y-63116000D01*
X99689185Y-63048961D01*
X99741989Y-63003206D01*
X99793500Y-62992000D01*
X100627790Y-62992000D01*
X100626145Y-62971084D01*
X100581032Y-62815805D01*
X100498718Y-62676620D01*
X100393268Y-62571170D01*
X100359783Y-62509847D01*
X100364767Y-62440155D01*
X100393269Y-62395807D01*
X100437814Y-62351262D01*
X100437815Y-62351261D01*
X100454589Y-62324564D01*
X100506921Y-62278274D01*
X100575975Y-62267624D01*
X100639824Y-62295998D01*
X100647264Y-62302855D01*
X103470182Y-65125773D01*
X103503666Y-65187094D01*
X103506500Y-65213452D01*
X103506500Y-67436937D01*
X103486815Y-67503976D01*
X103434011Y-67549731D01*
X103364853Y-67559675D01*
X103309880Y-67534570D01*
X103309338Y-67535415D01*
X103303462Y-67531638D01*
X103301297Y-67530650D01*
X103299786Y-67529276D01*
X103122574Y-67415387D01*
X102966609Y-67352949D01*
X102927457Y-67337275D01*
X102927456Y-67337274D01*
X102927454Y-67337274D01*
X102721086Y-67297500D01*
X102721085Y-67297500D01*
X102563575Y-67297500D01*
X102560645Y-67297779D01*
X102560619Y-67297781D01*
X102406784Y-67312471D01*
X102205126Y-67371683D01*
X102018315Y-67467990D01*
X101853115Y-67597906D01*
X101715479Y-67756745D01*
X101610396Y-67938754D01*
X101541655Y-68137366D01*
X101523822Y-68261404D01*
X101511746Y-68345398D01*
X101519946Y-68517545D01*
X101521746Y-68555330D01*
X101571297Y-68759580D01*
X101658602Y-68950752D01*
X101732083Y-69053940D01*
X101780514Y-69121952D01*
X101932622Y-69266986D01*
X101969987Y-69290999D01*
X102109425Y-69380612D01*
X102148580Y-69396287D01*
X102304543Y-69458725D01*
X102433233Y-69483528D01*
X102510914Y-69498500D01*
X102510915Y-69498500D01*
X102665471Y-69498500D01*
X102668425Y-69498500D01*
X102671376Y-69498218D01*
X102671380Y-69498218D01*
X102728644Y-69492749D01*
X102825218Y-69483528D01*
X103026875Y-69424316D01*
X103213682Y-69328011D01*
X103305850Y-69255528D01*
X103370711Y-69229562D01*
X103439318Y-69242784D01*
X103489885Y-69290999D01*
X103506499Y-69353000D01*
X103506499Y-74231255D01*
X103504235Y-74251764D01*
X103506438Y-74321874D01*
X103506499Y-74325763D01*
X103506499Y-74349461D01*
X103506499Y-74349474D01*
X103506500Y-74353350D01*
X103506986Y-74357202D01*
X103506987Y-74357211D01*
X103507004Y-74357343D01*
X103507918Y-74368967D01*
X103509783Y-74428283D01*
X103508056Y-74428337D01*
X103507914Y-74478443D01*
X103469973Y-74537114D01*
X103406335Y-74565958D01*
X103337205Y-74555817D01*
X103303468Y-74532914D01*
X103299377Y-74529013D01*
X103122574Y-74415387D01*
X102942891Y-74343454D01*
X102927457Y-74337275D01*
X102927456Y-74337274D01*
X102927454Y-74337274D01*
X102721086Y-74297500D01*
X102721085Y-74297500D01*
X102563575Y-74297500D01*
X102560645Y-74297779D01*
X102560619Y-74297781D01*
X102406784Y-74312471D01*
X102205126Y-74371683D01*
X102018315Y-74467990D01*
X101853115Y-74597906D01*
X101715479Y-74756745D01*
X101610396Y-74938754D01*
X101541655Y-75137366D01*
X101512916Y-75337257D01*
X101511746Y-75345398D01*
X101512534Y-75361940D01*
X101521746Y-75555330D01*
X101571297Y-75759580D01*
X101658602Y-75950752D01*
X101723435Y-76041796D01*
X101780514Y-76121952D01*
X101932622Y-76266986D01*
X101993319Y-76305994D01*
X102109425Y-76380612D01*
X102145348Y-76394993D01*
X102304543Y-76458725D01*
X102433233Y-76483528D01*
X102510914Y-76498500D01*
X102510915Y-76498500D01*
X102665471Y-76498500D01*
X102668425Y-76498500D01*
X102671376Y-76498218D01*
X102671380Y-76498218D01*
X102728644Y-76492749D01*
X102825218Y-76483528D01*
X103026875Y-76424316D01*
X103213682Y-76328011D01*
X103378886Y-76198092D01*
X103516519Y-76039256D01*
X103621604Y-75857244D01*
X103690344Y-75658633D01*
X103720254Y-75450602D01*
X103710254Y-75240670D01*
X103665819Y-75057508D01*
X103669144Y-74987720D01*
X103709672Y-74930806D01*
X103774537Y-74904837D01*
X103843144Y-74918060D01*
X103874005Y-74940595D01*
X104379181Y-75445771D01*
X104412666Y-75507094D01*
X104415500Y-75533452D01*
X104415500Y-77642560D01*
X104415500Y-77642578D01*
X104415501Y-77645872D01*
X104415853Y-77649152D01*
X104415854Y-77649159D01*
X104421909Y-77705483D01*
X104472204Y-77840331D01*
X104558454Y-77955546D01*
X104673669Y-78041796D01*
X104808517Y-78092091D01*
X104868127Y-78098500D01*
X107763872Y-78098499D01*
X107823483Y-78092091D01*
X107958331Y-78041796D01*
X108073546Y-77955546D01*
X108159796Y-77840331D01*
X108210091Y-77705483D01*
X108215949Y-77651000D01*
X111509402Y-77651000D01*
X111529738Y-77844482D01*
X111529739Y-77844485D01*
X111589855Y-78029507D01*
X111687129Y-78197992D01*
X111817308Y-78342570D01*
X111974699Y-78456921D01*
X111974700Y-78456921D01*
X111974701Y-78456922D01*
X112016397Y-78475486D01*
X112152431Y-78536052D01*
X112342724Y-78576500D01*
X112342726Y-78576500D01*
X112537276Y-78576500D01*
X112740319Y-78533342D01*
X112740903Y-78536090D01*
X112790932Y-78529374D01*
X112815465Y-78535758D01*
X112907517Y-78570091D01*
X112967127Y-78576500D01*
X113912872Y-78576499D01*
X113972483Y-78570091D01*
X114107331Y-78519796D01*
X114222546Y-78433546D01*
X114305159Y-78323188D01*
X114361093Y-78281318D01*
X114404426Y-78273500D01*
X114764611Y-78273500D01*
X114831650Y-78293185D01*
X114856760Y-78314527D01*
X114871890Y-78331331D01*
X114879309Y-78339570D01*
X115036699Y-78453921D01*
X115036700Y-78453921D01*
X115036701Y-78453922D01*
X115101702Y-78482862D01*
X115214431Y-78533052D01*
X115404724Y-78573500D01*
X115404726Y-78573500D01*
X115599275Y-78573500D01*
X115746872Y-78542127D01*
X115789571Y-78533051D01*
X115789571Y-78533050D01*
X115802320Y-78530341D01*
X115802862Y-78532892D01*
X115853591Y-78526086D01*
X115878124Y-78532470D01*
X115969628Y-78566599D01*
X116025867Y-78572645D01*
X116032482Y-78573000D01*
X116252000Y-78573000D01*
X116252000Y-78233189D01*
X116268613Y-78171189D01*
X116301317Y-78114543D01*
X116352144Y-78026508D01*
X116399653Y-77880286D01*
X116404455Y-77883495D01*
X116477376Y-77898000D01*
X116526624Y-77898000D01*
X116752000Y-77898000D01*
X116752000Y-78573000D01*
X116971518Y-78573000D01*
X116978132Y-78572645D01*
X117034371Y-78566599D01*
X117169089Y-78516352D01*
X117284188Y-78430188D01*
X117370352Y-78315089D01*
X117420599Y-78180371D01*
X117426645Y-78124132D01*
X117427000Y-78117518D01*
X117427000Y-77914000D01*
X118976628Y-77914000D01*
X119018315Y-78042304D01*
X119115536Y-78210696D01*
X119245643Y-78355193D01*
X119402952Y-78469486D01*
X119580585Y-78548572D01*
X119617999Y-78556524D01*
X119618000Y-78556524D01*
X119618000Y-77914000D01*
X118976628Y-77914000D01*
X117427000Y-77914000D01*
X117427000Y-77898000D01*
X116752000Y-77898000D01*
X116526624Y-77898000D01*
X116599545Y-77883495D01*
X116682240Y-77828240D01*
X116737495Y-77745545D01*
X116756898Y-77648000D01*
X116737495Y-77550455D01*
X116682240Y-77467760D01*
X116601781Y-77413999D01*
X118976627Y-77413999D01*
X118976628Y-77414000D01*
X119618000Y-77414000D01*
X119618000Y-77413999D01*
X119617999Y-76771474D01*
X119580585Y-76779427D01*
X119402952Y-76858513D01*
X119245643Y-76972805D01*
X119115536Y-77117303D01*
X119018315Y-77285695D01*
X118976627Y-77413999D01*
X116601781Y-77413999D01*
X116599545Y-77412505D01*
X116526624Y-77398000D01*
X116477376Y-77398000D01*
X116404455Y-77412505D01*
X116399653Y-77415713D01*
X116352144Y-77269492D01*
X116315163Y-77205439D01*
X116268613Y-77124811D01*
X116252000Y-77062811D01*
X116252000Y-76723000D01*
X116752000Y-76723000D01*
X116752000Y-77398000D01*
X117427000Y-77398000D01*
X117427000Y-77178481D01*
X117426645Y-77171867D01*
X117420599Y-77115628D01*
X117370352Y-76980910D01*
X117284188Y-76865811D01*
X117169089Y-76779647D01*
X117034371Y-76729400D01*
X116978132Y-76723354D01*
X116971518Y-76723000D01*
X116752000Y-76723000D01*
X116252000Y-76723000D01*
X116252000Y-76722999D01*
X116219733Y-76690733D01*
X116186248Y-76629410D01*
X116190808Y-76565636D01*
X116190124Y-76565438D01*
X116191051Y-76562246D01*
X116191232Y-76559718D01*
X116192645Y-76556758D01*
X116201612Y-76525896D01*
X116239643Y-76394993D01*
X116242500Y-76358690D01*
X116242500Y-75949310D01*
X116239643Y-75913007D01*
X116223442Y-75857245D01*
X116194494Y-75757605D01*
X116182089Y-75736629D01*
X116164906Y-75668905D01*
X116182091Y-75610383D01*
X116194032Y-75590193D01*
X116236504Y-75444000D01*
X115930353Y-75444000D01*
X115867232Y-75426732D01*
X115858394Y-75421505D01*
X115702996Y-75376357D01*
X115669124Y-75373691D01*
X115669110Y-75373690D01*
X115666690Y-75373500D01*
X115197310Y-75373500D01*
X115194890Y-75373690D01*
X115194875Y-75373691D01*
X115161003Y-75376357D01*
X115005605Y-75421505D01*
X114996768Y-75426732D01*
X114933647Y-75444000D01*
X114627496Y-75444000D01*
X114601252Y-75478953D01*
X114545258Y-75520744D01*
X114502091Y-75528500D01*
X113444217Y-75528500D01*
X113377178Y-75508815D01*
X113331423Y-75456011D01*
X113321479Y-75386853D01*
X113323383Y-75378036D01*
X113323607Y-75375178D01*
X113323609Y-75375175D01*
X113326500Y-75338440D01*
X113326500Y-74954000D01*
X120135496Y-74954000D01*
X120689999Y-74954000D01*
X120689999Y-74425209D01*
X120669082Y-74426855D01*
X120513805Y-74471967D01*
X120374620Y-74554281D01*
X120260281Y-74668620D01*
X120177968Y-74807803D01*
X120135496Y-74954000D01*
X113326500Y-74954000D01*
X113326500Y-74944000D01*
X114627496Y-74944000D01*
X115182000Y-74944000D01*
X115182000Y-74415210D01*
X115181999Y-74415209D01*
X115682000Y-74415209D01*
X115682000Y-74944000D01*
X116236504Y-74944000D01*
X116194031Y-74797803D01*
X116111718Y-74658620D01*
X115997379Y-74544281D01*
X115858194Y-74461967D01*
X115702917Y-74416855D01*
X115682000Y-74415209D01*
X115181999Y-74415209D01*
X115161082Y-74416855D01*
X115005805Y-74461967D01*
X114866620Y-74544281D01*
X114752281Y-74658620D01*
X114669968Y-74797803D01*
X114627496Y-74944000D01*
X113326500Y-74944000D01*
X113326500Y-74912560D01*
X113323609Y-74875825D01*
X113323608Y-74875823D01*
X113322612Y-74863159D01*
X113324977Y-74862972D01*
X113325123Y-74810502D01*
X113327408Y-74805188D01*
X113327383Y-74805180D01*
X113336490Y-74777152D01*
X113389906Y-74612756D01*
X113409692Y-74424500D01*
X113389906Y-74236244D01*
X113331411Y-74056216D01*
X113331411Y-74056215D01*
X113236765Y-73892283D01*
X113110102Y-73751610D01*
X112956962Y-73640348D01*
X112784034Y-73563355D01*
X112598880Y-73524000D01*
X112598878Y-73524000D01*
X112409586Y-73524000D01*
X112409584Y-73524000D01*
X112224429Y-73563355D01*
X112051501Y-73640348D01*
X111898361Y-73751610D01*
X111771698Y-73892283D01*
X111677052Y-74056215D01*
X111618558Y-74236242D01*
X111598772Y-74424500D01*
X111618558Y-74612757D01*
X111681081Y-74805180D01*
X111678601Y-74805985D01*
X111690671Y-74855743D01*
X111689345Y-74863702D01*
X111685691Y-74910125D01*
X111685690Y-74910140D01*
X111685500Y-74912560D01*
X111685500Y-75338440D01*
X111685690Y-75340860D01*
X111685691Y-75340874D01*
X111688391Y-75375178D01*
X111734068Y-75532396D01*
X111742928Y-75547377D01*
X111760112Y-75615100D01*
X111742931Y-75673616D01*
X111734069Y-75688600D01*
X111688391Y-75845823D01*
X111685691Y-75880125D01*
X111685690Y-75880140D01*
X111685500Y-75882560D01*
X111685500Y-76308440D01*
X111685690Y-76310860D01*
X111685691Y-76310874D01*
X111688391Y-76345178D01*
X111734068Y-76502396D01*
X111817410Y-76643320D01*
X111844180Y-76670090D01*
X111877666Y-76731412D01*
X111880500Y-76757772D01*
X111880500Y-76850338D01*
X111860815Y-76917377D01*
X111829388Y-76950654D01*
X111817311Y-76959428D01*
X111687127Y-77104010D01*
X111589855Y-77272492D01*
X111529739Y-77457514D01*
X111529738Y-77457518D01*
X111509402Y-77651000D01*
X108215949Y-77651000D01*
X108216500Y-77645873D01*
X108216499Y-75350128D01*
X108210091Y-75290517D01*
X108159796Y-75155669D01*
X108073546Y-75040454D01*
X107958331Y-74954204D01*
X107823483Y-74903909D01*
X107787014Y-74899988D01*
X107767166Y-74897854D01*
X107767165Y-74897853D01*
X107763873Y-74897500D01*
X107760551Y-74897500D01*
X105651453Y-74897500D01*
X105584414Y-74877815D01*
X105563772Y-74861181D01*
X104793819Y-74091228D01*
X104760334Y-74029905D01*
X104757500Y-74003547D01*
X104757500Y-72803000D01*
X108899750Y-72803000D01*
X108918686Y-72971056D01*
X108918686Y-72971058D01*
X108918687Y-72971059D01*
X108974544Y-73130690D01*
X109064523Y-73273890D01*
X109184110Y-73393477D01*
X109327310Y-73483456D01*
X109486941Y-73539313D01*
X109598980Y-73551936D01*
X109654999Y-73558249D01*
X109654999Y-73558248D01*
X109655000Y-73558249D01*
X109823059Y-73539313D01*
X109982690Y-73483456D01*
X110125890Y-73393477D01*
X110245477Y-73273890D01*
X110335456Y-73130690D01*
X110391313Y-72971059D01*
X110410249Y-72803000D01*
X110391313Y-72634941D01*
X110335456Y-72475310D01*
X110245477Y-72332110D01*
X110125890Y-72212523D01*
X109982690Y-72122544D01*
X109823059Y-72066687D01*
X109823058Y-72066686D01*
X109823056Y-72066686D01*
X109655000Y-72047750D01*
X109486943Y-72066686D01*
X109327310Y-72122544D01*
X109184108Y-72212524D01*
X109064524Y-72332108D01*
X108974544Y-72475310D01*
X108918686Y-72634943D01*
X108899750Y-72803000D01*
X104757500Y-72803000D01*
X104757500Y-69122499D01*
X104777185Y-69055460D01*
X104829989Y-69009705D01*
X104881495Y-68998499D01*
X107763872Y-68998499D01*
X107823483Y-68992091D01*
X107958331Y-68941796D01*
X108073546Y-68855546D01*
X108159796Y-68740331D01*
X108210091Y-68605483D01*
X108216500Y-68545873D01*
X108216499Y-65650128D01*
X108210091Y-65590517D01*
X108159796Y-65455669D01*
X108073546Y-65340454D01*
X107958331Y-65254204D01*
X107823483Y-65203909D01*
X107823483Y-65203908D01*
X107767166Y-65197854D01*
X107767165Y-65197853D01*
X107763873Y-65197500D01*
X107760551Y-65197500D01*
X106970342Y-65197500D01*
X106903303Y-65177815D01*
X106870024Y-65146385D01*
X106852750Y-65122610D01*
X106842814Y-65108934D01*
X106836401Y-65099171D01*
X106835098Y-65096967D01*
X106814170Y-65061580D01*
X106800006Y-65047416D01*
X106787367Y-65032617D01*
X106775595Y-65016413D01*
X106741941Y-64988573D01*
X106733299Y-64980709D01*
X104579974Y-62827384D01*
X104546489Y-62766061D01*
X104551473Y-62696369D01*
X104579975Y-62652021D01*
X104582998Y-62648998D01*
X104582998Y-61723000D01*
X104602683Y-61655961D01*
X104655487Y-61610206D01*
X104706998Y-61599000D01*
X104958998Y-61599000D01*
X105026037Y-61618685D01*
X105071792Y-61671489D01*
X105082998Y-61723000D01*
X105082998Y-62648999D01*
X105299441Y-62648999D01*
X105306389Y-62648608D01*
X105437139Y-62633876D01*
X105607302Y-62574334D01*
X105759947Y-62478420D01*
X105887419Y-62350948D01*
X105948390Y-62253914D01*
X106000725Y-62207623D01*
X106069778Y-62196975D01*
X106102628Y-62206083D01*
X106104599Y-62206936D01*
X106104600Y-62206936D01*
X106104602Y-62206937D01*
X106147748Y-62213770D01*
X106159166Y-62216135D01*
X106201479Y-62227000D01*
X106221514Y-62227000D01*
X106240913Y-62228527D01*
X106260694Y-62231660D01*
X106304172Y-62227550D01*
X106315842Y-62227000D01*
X107385354Y-62227000D01*
X107405860Y-62229264D01*
X107408763Y-62229172D01*
X107408765Y-62229173D01*
X107475970Y-62227061D01*
X107479866Y-62227000D01*
X107503546Y-62227000D01*
X107507448Y-62227000D01*
X107511411Y-62226499D01*
X107523060Y-62225580D01*
X107566725Y-62224209D01*
X107585957Y-62218620D01*
X107605016Y-62214674D01*
X107612197Y-62213767D01*
X107624890Y-62212164D01*
X107665505Y-62196082D01*
X107676542Y-62192303D01*
X107718488Y-62180118D01*
X107735727Y-62169922D01*
X107753200Y-62161362D01*
X107771830Y-62153986D01*
X107807162Y-62128314D01*
X107816928Y-62121900D01*
X107854516Y-62099671D01*
X107854515Y-62099671D01*
X107854518Y-62099670D01*
X107868683Y-62085504D01*
X107883471Y-62072873D01*
X107899685Y-62061094D01*
X107927536Y-62027426D01*
X107935377Y-62018809D01*
X108320786Y-61633400D01*
X108336886Y-61620503D01*
X108338874Y-61618385D01*
X108338877Y-61618384D01*
X108384964Y-61569305D01*
X108387549Y-61566637D01*
X108407120Y-61547068D01*
X108409565Y-61543914D01*
X108417154Y-61535027D01*
X108447062Y-61503180D01*
X108456713Y-61485624D01*
X108467393Y-61469365D01*
X108479674Y-61453534D01*
X108497018Y-61413449D01*
X108502160Y-61402954D01*
X108502265Y-61402763D01*
X108523197Y-61364690D01*
X108528178Y-61345286D01*
X108534480Y-61326881D01*
X108542438Y-61308493D01*
X108549270Y-61265346D01*
X108551639Y-61253914D01*
X108562500Y-61211618D01*
X108562500Y-61191581D01*
X108564027Y-61172182D01*
X108567160Y-61152402D01*
X108563050Y-61108922D01*
X108562500Y-61097253D01*
X108562500Y-51944451D01*
X108582185Y-51877412D01*
X108598815Y-51856774D01*
X108774786Y-51680802D01*
X108790881Y-51667910D01*
X108792873Y-51665788D01*
X108792877Y-51665786D01*
X108838949Y-51616723D01*
X108841534Y-51614055D01*
X108861120Y-51594471D01*
X108863585Y-51591292D01*
X108871167Y-51582416D01*
X108873616Y-51579808D01*
X108901062Y-51550582D01*
X108910712Y-51533027D01*
X108921400Y-51516757D01*
X108933671Y-51500938D01*
X108933673Y-51500936D01*
X108951026Y-51460832D01*
X108956157Y-51450362D01*
X108977197Y-51412092D01*
X108982175Y-51392699D01*
X108988481Y-51374282D01*
X108990018Y-51370728D01*
X108996438Y-51355896D01*
X109003272Y-51312745D01*
X109005635Y-51301331D01*
X109016500Y-51259019D01*
X109016500Y-51238982D01*
X109018027Y-51219584D01*
X109021160Y-51199804D01*
X109017050Y-51156324D01*
X109016500Y-51144655D01*
X109016500Y-50741991D01*
X109016500Y-50316461D01*
X109036183Y-50249426D01*
X109088987Y-50203671D01*
X109097122Y-50200300D01*
X109133331Y-50186796D01*
X109248546Y-50100546D01*
X109334796Y-49985331D01*
X109385091Y-49850483D01*
X109391500Y-49790873D01*
X109391499Y-48695128D01*
X109385091Y-48635517D01*
X109334796Y-48500669D01*
X109248546Y-48385454D01*
X109133331Y-48299204D01*
X108998483Y-48248909D01*
X108938873Y-48242500D01*
X108935550Y-48242500D01*
X107846439Y-48242500D01*
X107846420Y-48242500D01*
X107843128Y-48242501D01*
X107839848Y-48242853D01*
X107839840Y-48242854D01*
X107783513Y-48248909D01*
X107774943Y-48252106D01*
X107705252Y-48257088D01*
X107643929Y-48223602D01*
X107612537Y-48170518D01*
X107582406Y-48066807D01*
X107500735Y-47928709D01*
X107387290Y-47815264D01*
X107249192Y-47733593D01*
X107110001Y-47693153D01*
X107110000Y-47693154D01*
X107110000Y-48632000D01*
X107090315Y-48699039D01*
X107037511Y-48744794D01*
X106986000Y-48756000D01*
X106734500Y-48756000D01*
X106667461Y-48736315D01*
X106621706Y-48683511D01*
X106610500Y-48632000D01*
X106610499Y-48259243D01*
X106610499Y-48256820D01*
X106610308Y-48254403D01*
X106610213Y-48251962D01*
X106610323Y-48253834D01*
X106610000Y-48245607D01*
X106609999Y-47693154D01*
X106604470Y-47689002D01*
X106554224Y-47688859D01*
X106495554Y-47650916D01*
X106466711Y-47587278D01*
X106465499Y-47569982D01*
X106465499Y-46526336D01*
X106465499Y-45172448D01*
X106485184Y-45105413D01*
X106501813Y-45084776D01*
X108331789Y-43254800D01*
X108347885Y-43241906D01*
X108349873Y-43239787D01*
X108349877Y-43239786D01*
X108395949Y-43190723D01*
X108398534Y-43188055D01*
X108418120Y-43168471D01*
X108418123Y-43168466D01*
X108428910Y-43157680D01*
X108428914Y-43157675D01*
X109684194Y-41902394D01*
X109745515Y-41868911D01*
X109815207Y-41873895D01*
X109871140Y-41915767D01*
X109895401Y-41979269D01*
X109916936Y-42225407D01*
X109958391Y-42380120D01*
X109978097Y-42453663D01*
X110077965Y-42667830D01*
X110213505Y-42861401D01*
X110380599Y-43028495D01*
X110566160Y-43158426D01*
X110609783Y-43213002D01*
X110616976Y-43282501D01*
X110585454Y-43344855D01*
X110566159Y-43361575D01*
X110380595Y-43491508D01*
X110213505Y-43658598D01*
X110077965Y-43852170D01*
X109978097Y-44066336D01*
X109916936Y-44294592D01*
X109896340Y-44530000D01*
X109916936Y-44765407D01*
X109950721Y-44891492D01*
X109978097Y-44993663D01*
X110077965Y-45207830D01*
X110213505Y-45401401D01*
X110380599Y-45568495D01*
X110566160Y-45698426D01*
X110609783Y-45753002D01*
X110616976Y-45822501D01*
X110585454Y-45884855D01*
X110566158Y-45901575D01*
X110415755Y-46006889D01*
X110380595Y-46031508D01*
X110213505Y-46198598D01*
X110077965Y-46392170D01*
X109978097Y-46606336D01*
X109916936Y-46834592D01*
X109896340Y-47069999D01*
X109916936Y-47305407D01*
X109937852Y-47383466D01*
X109978097Y-47533663D01*
X110077965Y-47747830D01*
X110213505Y-47941401D01*
X110380599Y-48108495D01*
X110566160Y-48238426D01*
X110609783Y-48293002D01*
X110616976Y-48362501D01*
X110585454Y-48424855D01*
X110566158Y-48441575D01*
X110448851Y-48523715D01*
X110380595Y-48571508D01*
X110213505Y-48738598D01*
X110077965Y-48932170D01*
X109978097Y-49146336D01*
X109916936Y-49374592D01*
X109896340Y-49609999D01*
X109916936Y-49845407D01*
X109958391Y-50000120D01*
X109978097Y-50073663D01*
X110077965Y-50287830D01*
X110213505Y-50481401D01*
X110380599Y-50648495D01*
X110566160Y-50778426D01*
X110609783Y-50833002D01*
X110616976Y-50902501D01*
X110585454Y-50964855D01*
X110566158Y-50981575D01*
X110402853Y-51095923D01*
X110380595Y-51111508D01*
X110213505Y-51278598D01*
X110077965Y-51472170D01*
X109978097Y-51686336D01*
X109916936Y-51914592D01*
X109896340Y-52150000D01*
X109916936Y-52385407D01*
X109949575Y-52507218D01*
X109978097Y-52613663D01*
X110077965Y-52827830D01*
X110213505Y-53021401D01*
X110380599Y-53188495D01*
X110566160Y-53318426D01*
X110609783Y-53373002D01*
X110616976Y-53442501D01*
X110585454Y-53504855D01*
X110566158Y-53521575D01*
X110408707Y-53631824D01*
X110380595Y-53651508D01*
X110213505Y-53818598D01*
X110077965Y-54012170D01*
X109978097Y-54226336D01*
X109916936Y-54454592D01*
X109896340Y-54690000D01*
X109916936Y-54925407D01*
X109956661Y-55073662D01*
X109978097Y-55153663D01*
X110077965Y-55367830D01*
X110213505Y-55561401D01*
X110380599Y-55728495D01*
X110566160Y-55858426D01*
X110609783Y-55913002D01*
X110616976Y-55982501D01*
X110585454Y-56044855D01*
X110566159Y-56061575D01*
X110380595Y-56191508D01*
X110213505Y-56358598D01*
X110077965Y-56552170D01*
X109978097Y-56766336D01*
X109916936Y-56994592D01*
X109896340Y-57229999D01*
X109916936Y-57465407D01*
X109953214Y-57600799D01*
X109978097Y-57693663D01*
X110077965Y-57907830D01*
X110213505Y-58101401D01*
X110380599Y-58268495D01*
X110566160Y-58398426D01*
X110609783Y-58453002D01*
X110616976Y-58522501D01*
X110585454Y-58584855D01*
X110566158Y-58601575D01*
X110400601Y-58717500D01*
X110380595Y-58731508D01*
X110213505Y-58898598D01*
X110077965Y-59092170D01*
X109978097Y-59306336D01*
X109916936Y-59534592D01*
X109896340Y-59769999D01*
X109916936Y-60005407D01*
X109946983Y-60117544D01*
X109978097Y-60233663D01*
X110077965Y-60447830D01*
X110213505Y-60641401D01*
X110380599Y-60808495D01*
X110566160Y-60938426D01*
X110609783Y-60993002D01*
X110616976Y-61062501D01*
X110585454Y-61124855D01*
X110566158Y-61141575D01*
X110460629Y-61215468D01*
X110380595Y-61271508D01*
X110213505Y-61438598D01*
X110077965Y-61632170D01*
X109978097Y-61846336D01*
X109916936Y-62074592D01*
X109896340Y-62310000D01*
X109916936Y-62545407D01*
X109956661Y-62693662D01*
X109978097Y-62773663D01*
X110077965Y-62987830D01*
X110213505Y-63181401D01*
X110380599Y-63348495D01*
X110566160Y-63478426D01*
X110609783Y-63533002D01*
X110616976Y-63602501D01*
X110585454Y-63664855D01*
X110566158Y-63681575D01*
X110380784Y-63811376D01*
X110380595Y-63811508D01*
X110213505Y-63978598D01*
X110077965Y-64172170D01*
X109978097Y-64386336D01*
X109916936Y-64614592D01*
X109896340Y-64850000D01*
X109916936Y-65085407D01*
X109948434Y-65202957D01*
X109978097Y-65313663D01*
X110077965Y-65527830D01*
X110213505Y-65721401D01*
X110380599Y-65888495D01*
X110566160Y-66018426D01*
X110609783Y-66073002D01*
X110616976Y-66142501D01*
X110585454Y-66204855D01*
X110566158Y-66221575D01*
X110408520Y-66331955D01*
X110380595Y-66351508D01*
X110213505Y-66518598D01*
X110077965Y-66712170D01*
X109978097Y-66926336D01*
X109916936Y-67154592D01*
X109896340Y-67390000D01*
X109916936Y-67625407D01*
X109929970Y-67674050D01*
X109978097Y-67853663D01*
X110077965Y-68067830D01*
X110213505Y-68261401D01*
X110380599Y-68428495D01*
X110574170Y-68564035D01*
X110788337Y-68663903D01*
X111016591Y-68725062D01*
X111016592Y-68725063D01*
X111251999Y-68745659D01*
X111251999Y-68745658D01*
X111252000Y-68745659D01*
X111487408Y-68725063D01*
X111715663Y-68663903D01*
X111929830Y-68564035D01*
X112123401Y-68428495D01*
X112290495Y-68261401D01*
X112426035Y-68067830D01*
X112525903Y-67853663D01*
X112587063Y-67625408D01*
X112607659Y-67390000D01*
X112587063Y-67154592D01*
X112560143Y-67054125D01*
X112561806Y-66984276D01*
X112592235Y-66934353D01*
X113498771Y-66027819D01*
X113560095Y-65994334D01*
X113586453Y-65991500D01*
X119925548Y-65991500D01*
X119992587Y-66011185D01*
X120013229Y-66027819D01*
X120034633Y-66049223D01*
X120068118Y-66110546D01*
X120063134Y-66180238D01*
X120021262Y-66236171D01*
X119967362Y-66259213D01*
X119731207Y-66298620D01*
X119503539Y-66376780D01*
X119291835Y-66491348D01*
X119149252Y-66602324D01*
X119084258Y-66627966D01*
X119015718Y-66614399D01*
X118965393Y-66565930D01*
X118956910Y-66547810D01*
X118945296Y-66516669D01*
X118859046Y-66401454D01*
X118743831Y-66315204D01*
X118608983Y-66264909D01*
X118549373Y-66258500D01*
X118546050Y-66258500D01*
X116551939Y-66258500D01*
X116551920Y-66258500D01*
X116548628Y-66258501D01*
X116545348Y-66258853D01*
X116545340Y-66258854D01*
X116489015Y-66264909D01*
X116354169Y-66315204D01*
X116238954Y-66401454D01*
X116152704Y-66516668D01*
X116120757Y-66602324D01*
X116102409Y-66651517D01*
X116096000Y-66711127D01*
X116096000Y-66714448D01*
X116096000Y-66714449D01*
X116096000Y-68803560D01*
X116096000Y-68803578D01*
X116096001Y-68806872D01*
X116102409Y-68866483D01*
X116152704Y-69001331D01*
X116238954Y-69116546D01*
X116354169Y-69202796D01*
X116489017Y-69253091D01*
X116548627Y-69259500D01*
X116669532Y-69259499D01*
X116736570Y-69279183D01*
X116782325Y-69331987D01*
X116792269Y-69401145D01*
X116788607Y-69418094D01*
X116763357Y-69505003D01*
X116760691Y-69538875D01*
X116760690Y-69538890D01*
X116760500Y-69541310D01*
X116760500Y-70010690D01*
X116760690Y-70013110D01*
X116760691Y-70013124D01*
X116763357Y-70046996D01*
X116808505Y-70202394D01*
X116890883Y-70341688D01*
X117005311Y-70456116D01*
X117144605Y-70538494D01*
X117300003Y-70583642D01*
X117300007Y-70583643D01*
X117336310Y-70586500D01*
X117407939Y-70586500D01*
X117474978Y-70606185D01*
X117495620Y-70622819D01*
X121154932Y-74282131D01*
X121188417Y-74343454D01*
X121186449Y-74370970D01*
X121190000Y-74370970D01*
X121190000Y-74954000D01*
X121775439Y-74954000D01*
X121842478Y-74973685D01*
X121863120Y-74990319D01*
X121967429Y-75094628D01*
X122000914Y-75155951D01*
X122003069Y-75169347D01*
X122020717Y-75337257D01*
X122023829Y-75346833D01*
X122032493Y-75373500D01*
X122033365Y-75376182D01*
X122035360Y-75446024D01*
X121999279Y-75505856D01*
X121936578Y-75536684D01*
X121915434Y-75538500D01*
X121869909Y-75538500D01*
X121802870Y-75518815D01*
X121770748Y-75488953D01*
X121744504Y-75454000D01*
X121438353Y-75454000D01*
X121375232Y-75436732D01*
X121366394Y-75431505D01*
X121210996Y-75386357D01*
X121177124Y-75383691D01*
X121177110Y-75383690D01*
X121174690Y-75383500D01*
X120705310Y-75383500D01*
X120702890Y-75383690D01*
X120702875Y-75383691D01*
X120669003Y-75386357D01*
X120513605Y-75431505D01*
X120504768Y-75436732D01*
X120441647Y-75454000D01*
X120135496Y-75454000D01*
X120177968Y-75600196D01*
X120189910Y-75620388D01*
X120207093Y-75688112D01*
X120189911Y-75746629D01*
X120177505Y-75767606D01*
X120132357Y-75923003D01*
X120129691Y-75956875D01*
X120129690Y-75956890D01*
X120129500Y-75959310D01*
X120129500Y-76368690D01*
X120129690Y-76371110D01*
X120129691Y-76371124D01*
X120132357Y-76404996D01*
X120176449Y-76556758D01*
X120177506Y-76560395D01*
X120180606Y-76565636D01*
X120188160Y-76578410D01*
X120205343Y-76646133D01*
X120183183Y-76712396D01*
X120159464Y-76737897D01*
X120118000Y-76771473D01*
X120118000Y-76796706D01*
X120098315Y-76863745D01*
X120093267Y-76871017D01*
X119999204Y-76996668D01*
X119948909Y-77131516D01*
X119943860Y-77178481D01*
X119942500Y-77191127D01*
X119942500Y-77194448D01*
X119942500Y-77194449D01*
X119942500Y-77423921D01*
X119892624Y-77414000D01*
X119843376Y-77414000D01*
X119770455Y-77428505D01*
X119687760Y-77483760D01*
X119632505Y-77566455D01*
X119613102Y-77664000D01*
X119632505Y-77761545D01*
X119687760Y-77844240D01*
X119770455Y-77899495D01*
X119843376Y-77914000D01*
X119892624Y-77914000D01*
X119942500Y-77904078D01*
X119942500Y-78133560D01*
X119942500Y-78133578D01*
X119942501Y-78136872D01*
X119942853Y-78140152D01*
X119942854Y-78140159D01*
X119948909Y-78196484D01*
X119954210Y-78210696D01*
X119999204Y-78331331D01*
X120029818Y-78372226D01*
X120093266Y-78456982D01*
X120117683Y-78522447D01*
X120117999Y-78531292D01*
X120117999Y-78556523D01*
X120118000Y-78556524D01*
X120168166Y-78545863D01*
X120168783Y-78548766D01*
X120218272Y-78542127D01*
X120242803Y-78548511D01*
X120317845Y-78576500D01*
X120335517Y-78583091D01*
X120395127Y-78589500D01*
X121340872Y-78589499D01*
X121400483Y-78583091D01*
X121535331Y-78532796D01*
X121650546Y-78446546D01*
X121730914Y-78339188D01*
X121786847Y-78297318D01*
X121830180Y-78289500D01*
X122271707Y-78289500D01*
X122338746Y-78309185D01*
X122363855Y-78330526D01*
X122396308Y-78366569D01*
X122553701Y-78480922D01*
X122675763Y-78535267D01*
X122731431Y-78560052D01*
X122921724Y-78600500D01*
X122921726Y-78600500D01*
X123116276Y-78600500D01*
X123319319Y-78557342D01*
X123319903Y-78560090D01*
X123369932Y-78553374D01*
X123394465Y-78559758D01*
X123486517Y-78594091D01*
X123546127Y-78600500D01*
X124491872Y-78600499D01*
X124551483Y-78594091D01*
X124686331Y-78543796D01*
X124801546Y-78457546D01*
X124887796Y-78342331D01*
X124938091Y-78207483D01*
X124944500Y-78147873D01*
X124944499Y-77202128D01*
X124938091Y-77142517D01*
X124887796Y-77007669D01*
X124801546Y-76892454D01*
X124755638Y-76858087D01*
X124713768Y-76802154D01*
X124708784Y-76732462D01*
X124742266Y-76671143D01*
X124746590Y-76666820D01*
X124829931Y-76525897D01*
X124875609Y-76368675D01*
X124878500Y-76331940D01*
X124878500Y-75906060D01*
X124875609Y-75869325D01*
X124875608Y-75869321D01*
X124829932Y-75712105D01*
X124829931Y-75712103D01*
X124821070Y-75697120D01*
X124803887Y-75629400D01*
X124821070Y-75570879D01*
X124829931Y-75555897D01*
X124836759Y-75532397D01*
X124864552Y-75436732D01*
X124875609Y-75398675D01*
X124878500Y-75361940D01*
X124878500Y-74936060D01*
X124875609Y-74899325D01*
X124874255Y-74894666D01*
X124829931Y-74742103D01*
X124789685Y-74674050D01*
X124746590Y-74601180D01*
X124630820Y-74485410D01*
X124601364Y-74467990D01*
X124489896Y-74402068D01*
X124332678Y-74356391D01*
X124298374Y-74353691D01*
X124298360Y-74353690D01*
X124295940Y-74353500D01*
X123820060Y-74353500D01*
X123817640Y-74353690D01*
X123817625Y-74353691D01*
X123783323Y-74356391D01*
X123626102Y-74402069D01*
X123577272Y-74430946D01*
X123509548Y-74448127D01*
X123443285Y-74425967D01*
X123441268Y-74424531D01*
X123359121Y-74364848D01*
X123186193Y-74287855D01*
X123001039Y-74248500D01*
X123001037Y-74248500D01*
X122941843Y-74248500D01*
X122874804Y-74228815D01*
X122854162Y-74212181D01*
X119154720Y-70512738D01*
X119121235Y-70451415D01*
X119126219Y-70381723D01*
X119143280Y-70355178D01*
X119142745Y-70354862D01*
X119233032Y-70202194D01*
X119278144Y-70046917D01*
X119279790Y-70026000D01*
X118719344Y-70026000D01*
X118652305Y-70006315D01*
X118631663Y-69989681D01*
X118489982Y-69848000D01*
X120870210Y-69848000D01*
X120871854Y-69868915D01*
X120916967Y-70024194D01*
X120999281Y-70163379D01*
X121113620Y-70277718D01*
X121252803Y-70360031D01*
X121399000Y-70402504D01*
X121399000Y-69848000D01*
X120870210Y-69848000D01*
X118489982Y-69848000D01*
X118379663Y-69737681D01*
X118346178Y-69676358D01*
X118351162Y-69606666D01*
X118393034Y-69550733D01*
X118458498Y-69526316D01*
X118467344Y-69526000D01*
X119279790Y-69526000D01*
X119278145Y-69505084D01*
X119233032Y-69349805D01*
X119152055Y-69212881D01*
X119134872Y-69145158D01*
X119157032Y-69078895D01*
X119211498Y-69035131D01*
X119280978Y-69027762D01*
X119317804Y-69040705D01*
X119503539Y-69141219D01*
X119731208Y-69219379D01*
X119839000Y-69237366D01*
X119839000Y-68304881D01*
X119932369Y-68343556D01*
X120049677Y-68359000D01*
X120128323Y-68359000D01*
X120245631Y-68343556D01*
X120339000Y-68304881D01*
X120339000Y-69237365D01*
X120446791Y-69219379D01*
X120674462Y-69141219D01*
X120711914Y-69120951D01*
X120780242Y-69106355D01*
X120845614Y-69131017D01*
X120887275Y-69187108D01*
X120891998Y-69256817D01*
X120890009Y-69264599D01*
X120871855Y-69327085D01*
X120870209Y-69347999D01*
X120870210Y-69348000D01*
X121704500Y-69348000D01*
X121771539Y-69367685D01*
X121817294Y-69420489D01*
X121828500Y-69472000D01*
X121828500Y-69832690D01*
X121828690Y-69835110D01*
X121828691Y-69835124D01*
X121831357Y-69868996D01*
X121876504Y-70024392D01*
X121876506Y-70024395D01*
X121881731Y-70033230D01*
X121899000Y-70096352D01*
X121898999Y-70402503D01*
X122045193Y-70360032D01*
X122065383Y-70348091D01*
X122133106Y-70330906D01*
X122191629Y-70348089D01*
X122212605Y-70360494D01*
X122368003Y-70405642D01*
X122368007Y-70405643D01*
X122404310Y-70408500D01*
X122406755Y-70408500D01*
X122811245Y-70408500D01*
X122813690Y-70408500D01*
X122849993Y-70405643D01*
X123005395Y-70360494D01*
X123144687Y-70278117D01*
X123259117Y-70163687D01*
X123341494Y-70024395D01*
X123386643Y-69868993D01*
X123389500Y-69832690D01*
X123389500Y-69363310D01*
X123386643Y-69327007D01*
X123344653Y-69182478D01*
X123344852Y-69112610D01*
X123382794Y-69053940D01*
X123404711Y-69038830D01*
X123426439Y-69027072D01*
X123459513Y-69001330D01*
X123616459Y-68879174D01*
X123616458Y-68879174D01*
X123616463Y-68879171D01*
X123779551Y-68702010D01*
X123911255Y-68500422D01*
X124007983Y-68279905D01*
X124067095Y-68046476D01*
X124082000Y-67866600D01*
X124082000Y-67651400D01*
X124067095Y-67471524D01*
X124007983Y-67238095D01*
X123911255Y-67017578D01*
X123779551Y-66815990D01*
X123616463Y-66638829D01*
X123426439Y-66490928D01*
X123214664Y-66376321D01*
X123214660Y-66376319D01*
X123214659Y-66376319D01*
X122986915Y-66298134D01*
X122749399Y-66258500D01*
X122508601Y-66258500D01*
X122470194Y-66264909D01*
X122271085Y-66298134D01*
X122181738Y-66328806D01*
X122111940Y-66331955D01*
X122053796Y-66299205D01*
X120736802Y-64982211D01*
X120723906Y-64966113D01*
X120672775Y-64918098D01*
X120669978Y-64915387D01*
X120653227Y-64898636D01*
X120650471Y-64895880D01*
X120647290Y-64893412D01*
X120638422Y-64885837D01*
X120606582Y-64855938D01*
X120589024Y-64846285D01*
X120572764Y-64835604D01*
X120556936Y-64823327D01*
X120516851Y-64805980D01*
X120506361Y-64800841D01*
X120468091Y-64779802D01*
X120448691Y-64774821D01*
X120430284Y-64768519D01*
X120411897Y-64760562D01*
X120368758Y-64753729D01*
X120357324Y-64751361D01*
X120315019Y-64740500D01*
X120294984Y-64740500D01*
X120275586Y-64738973D01*
X120268162Y-64737797D01*
X120255805Y-64735840D01*
X120255804Y-64735840D01*
X120229484Y-64738328D01*
X120212325Y-64739950D01*
X120200656Y-64740500D01*
X113358740Y-64740500D01*
X113338236Y-64738236D01*
X113268144Y-64740439D01*
X113264250Y-64740500D01*
X113236650Y-64740500D01*
X113232799Y-64740986D01*
X113232768Y-64740988D01*
X113232640Y-64741005D01*
X113221028Y-64741918D01*
X113177368Y-64743290D01*
X113158128Y-64748880D01*
X113139081Y-64752825D01*
X113119209Y-64755335D01*
X113078599Y-64771413D01*
X113067554Y-64775194D01*
X113025611Y-64787380D01*
X113008369Y-64797578D01*
X112990897Y-64806138D01*
X112972266Y-64813514D01*
X112936938Y-64839181D01*
X112927180Y-64845591D01*
X112889579Y-64867829D01*
X112875410Y-64881998D01*
X112860622Y-64894628D01*
X112844410Y-64906407D01*
X112827483Y-64926868D01*
X112769582Y-64965974D01*
X112699731Y-64967568D01*
X112640106Y-64931145D01*
X112609639Y-64868268D01*
X112608414Y-64858632D01*
X112603807Y-64805980D01*
X112587063Y-64614592D01*
X112525903Y-64386337D01*
X112426035Y-64172171D01*
X112290495Y-63978599D01*
X112123401Y-63811505D01*
X111937839Y-63681573D01*
X111894216Y-63626998D01*
X111887022Y-63557500D01*
X111918545Y-63495145D01*
X111937837Y-63478428D01*
X112123401Y-63348495D01*
X112290495Y-63181401D01*
X112426035Y-62987830D01*
X112525903Y-62773663D01*
X112587063Y-62545408D01*
X112607659Y-62310000D01*
X112587063Y-62074592D01*
X112525903Y-61846337D01*
X112426035Y-61632171D01*
X112290495Y-61438599D01*
X112123401Y-61271505D01*
X111937839Y-61141573D01*
X111894216Y-61086998D01*
X111887022Y-61017500D01*
X111918545Y-60955145D01*
X111937837Y-60938428D01*
X112123401Y-60808495D01*
X112290495Y-60641401D01*
X112426035Y-60447830D01*
X112525903Y-60233663D01*
X112587063Y-60005408D01*
X112607659Y-59770000D01*
X112587063Y-59534592D01*
X112525903Y-59306337D01*
X112426035Y-59092171D01*
X112290495Y-58898599D01*
X112123401Y-58731505D01*
X111937839Y-58601573D01*
X111894217Y-58546998D01*
X111887024Y-58477499D01*
X111918546Y-58415145D01*
X111937837Y-58398428D01*
X112123401Y-58268495D01*
X112290495Y-58101401D01*
X112426035Y-57907830D01*
X112525903Y-57693663D01*
X112587063Y-57465408D01*
X112607659Y-57230000D01*
X112601684Y-57161712D01*
X112587063Y-56994592D01*
X112569007Y-56927206D01*
X112525903Y-56766337D01*
X112426035Y-56552171D01*
X112290495Y-56358599D01*
X112123401Y-56191505D01*
X111937839Y-56061573D01*
X111894216Y-56006998D01*
X111887022Y-55937500D01*
X111918545Y-55875145D01*
X111937837Y-55858428D01*
X112123401Y-55728495D01*
X112290495Y-55561401D01*
X112426035Y-55367830D01*
X112525903Y-55153663D01*
X112587063Y-54925408D01*
X112607659Y-54690000D01*
X112587063Y-54454592D01*
X112525903Y-54226337D01*
X112426035Y-54012171D01*
X112290495Y-53818599D01*
X112123401Y-53651505D01*
X111937839Y-53521573D01*
X111894216Y-53466998D01*
X111887022Y-53397500D01*
X111918545Y-53335145D01*
X111937837Y-53318428D01*
X112123401Y-53188495D01*
X112290495Y-53021401D01*
X112426035Y-52827830D01*
X112525903Y-52613663D01*
X112587063Y-52385408D01*
X112607659Y-52150000D01*
X112590948Y-51959000D01*
X117833671Y-51959000D01*
X117833936Y-51963043D01*
X117835635Y-51988968D01*
X117835831Y-52001219D01*
X117834861Y-52030221D01*
X117834861Y-52030230D01*
X117834723Y-52034369D01*
X117835137Y-52038490D01*
X117835138Y-52038502D01*
X117845664Y-52143136D01*
X117846021Y-52147436D01*
X117850806Y-52220432D01*
X117852966Y-52253380D01*
X117853757Y-52257357D01*
X117853759Y-52257372D01*
X117859469Y-52286083D01*
X117861228Y-52297852D01*
X117864466Y-52330033D01*
X117864467Y-52330040D01*
X117864882Y-52334162D01*
X117865843Y-52338197D01*
X117865845Y-52338205D01*
X117889457Y-52437288D01*
X117890452Y-52441841D01*
X117899201Y-52485823D01*
X117910519Y-52542722D01*
X117911822Y-52546563D01*
X117911826Y-52546575D01*
X117922300Y-52577433D01*
X117925501Y-52588538D01*
X117933769Y-52623229D01*
X117933773Y-52623243D01*
X117934731Y-52627261D01*
X117936214Y-52631112D01*
X117936217Y-52631121D01*
X117971644Y-52723105D01*
X117973348Y-52727811D01*
X117998894Y-52803067D01*
X118005348Y-52822077D01*
X118007141Y-52825713D01*
X118007142Y-52825715D01*
X118023022Y-52857916D01*
X118027523Y-52868191D01*
X118041534Y-52904568D01*
X118043023Y-52908434D01*
X118045014Y-52912067D01*
X118090787Y-52995594D01*
X118093249Y-53000325D01*
X118135828Y-53086665D01*
X118138081Y-53090037D01*
X118138084Y-53090042D01*
X118159868Y-53122644D01*
X118165507Y-53131941D01*
X118187825Y-53172665D01*
X118190284Y-53176002D01*
X118190287Y-53176007D01*
X118244826Y-53250028D01*
X118248099Y-53254691D01*
X118266139Y-53281690D01*
X118299727Y-53331957D01*
X118302399Y-53335004D01*
X118302403Y-53335009D01*
X118330445Y-53366985D01*
X118337039Y-53375180D01*
X118366554Y-53415238D01*
X118369439Y-53418221D01*
X118431064Y-53481942D01*
X118435156Y-53486385D01*
X118473245Y-53529816D01*
X118494242Y-53553758D01*
X118497288Y-53556429D01*
X118497291Y-53556432D01*
X118531755Y-53586657D01*
X118539128Y-53593679D01*
X118542433Y-53597096D01*
X118576020Y-53631824D01*
X118585921Y-53639643D01*
X118646241Y-53687276D01*
X118651152Y-53691364D01*
X118716043Y-53748273D01*
X118760308Y-53777850D01*
X118768228Y-53783609D01*
X118812485Y-53818558D01*
X118816052Y-53820671D01*
X118816054Y-53820672D01*
X118886610Y-53862462D01*
X118892309Y-53866050D01*
X118954920Y-53907886D01*
X118961335Y-53912172D01*
X118964975Y-53913967D01*
X119012036Y-53937175D01*
X119020381Y-53941695D01*
X119071730Y-53972109D01*
X119075534Y-53973722D01*
X119075538Y-53973724D01*
X119099645Y-53983946D01*
X119144643Y-54003027D01*
X119148009Y-54004454D01*
X119154439Y-54007400D01*
X119225923Y-54042652D01*
X119282585Y-54061886D01*
X119291134Y-54065144D01*
X119349128Y-54089736D01*
X119423578Y-54110129D01*
X119425832Y-54110747D01*
X119432916Y-54112916D01*
X119505278Y-54137481D01*
X119567232Y-54149804D01*
X119575786Y-54151824D01*
X119639729Y-54169340D01*
X119715297Y-54179502D01*
X119722934Y-54180774D01*
X119794620Y-54195034D01*
X119798660Y-54195298D01*
X119798662Y-54195299D01*
X119805676Y-54195758D01*
X119860972Y-54199382D01*
X119869339Y-54200218D01*
X119938347Y-54209500D01*
X120011273Y-54209500D01*
X120019383Y-54209766D01*
X120089000Y-54214329D01*
X120161239Y-54209594D01*
X120163143Y-54209500D01*
X120164244Y-54209500D01*
X120237842Y-54204573D01*
X120383380Y-54195034D01*
X120384453Y-54194819D01*
X120384685Y-54194797D01*
X120385487Y-54194689D01*
X120389634Y-54194412D01*
X120532658Y-54165341D01*
X120672722Y-54137481D01*
X120675833Y-54136424D01*
X120680192Y-54135398D01*
X120680828Y-54135223D01*
X120684903Y-54134396D01*
X120819821Y-54087547D01*
X120952077Y-54042652D01*
X120955724Y-54040852D01*
X120959476Y-54039299D01*
X120951809Y-54042798D01*
X120963169Y-54038011D01*
X120961803Y-54038538D01*
X120965616Y-54036921D01*
X120969537Y-54035560D01*
X121094220Y-53972554D01*
X121216665Y-53912172D01*
X121220039Y-53909916D01*
X121223557Y-53907886D01*
X121223088Y-53908177D01*
X121232540Y-53902658D01*
X121238459Y-53899668D01*
X121351040Y-53822385D01*
X121461957Y-53748273D01*
X121467074Y-53743784D01*
X121478655Y-53734781D01*
X121486869Y-53729144D01*
X121585824Y-53639643D01*
X121683758Y-53553758D01*
X121690434Y-53546143D01*
X121700494Y-53535930D01*
X121710333Y-53527032D01*
X121794443Y-53427545D01*
X121878273Y-53331957D01*
X121885744Y-53320774D01*
X121894144Y-53309618D01*
X121904865Y-53296939D01*
X121972611Y-53190815D01*
X121973972Y-53188732D01*
X122042172Y-53086665D01*
X122049588Y-53071625D01*
X122056274Y-53059759D01*
X122066993Y-53042970D01*
X122118611Y-52931733D01*
X122119806Y-52929236D01*
X122172652Y-52822077D01*
X122179109Y-52803053D01*
X122184048Y-52790722D01*
X122192078Y-52773419D01*
X122192079Y-52773414D01*
X122193823Y-52769658D01*
X122229150Y-52655773D01*
X122230150Y-52652691D01*
X122267481Y-52542722D01*
X122272047Y-52519759D01*
X122275225Y-52507238D01*
X122283093Y-52481879D01*
X122302383Y-52367516D01*
X122303023Y-52364033D01*
X122325034Y-52253380D01*
X122326781Y-52226712D01*
X122328239Y-52214229D01*
X122333209Y-52184770D01*
X122336973Y-52072173D01*
X122337169Y-52068227D01*
X122339389Y-52034369D01*
X122344329Y-51959000D01*
X122342363Y-51929022D01*
X122342167Y-51916803D01*
X122343277Y-51883631D01*
X122332336Y-51774880D01*
X122331979Y-51770584D01*
X122329802Y-51737367D01*
X122325034Y-51664620D01*
X122318528Y-51631912D01*
X122316770Y-51620143D01*
X122315381Y-51606336D01*
X122313118Y-51583838D01*
X122288532Y-51480675D01*
X122287556Y-51476210D01*
X122271898Y-51397486D01*
X122268272Y-51379254D01*
X122268271Y-51379251D01*
X122267481Y-51375278D01*
X122255695Y-51340559D01*
X122252496Y-51329457D01*
X122248518Y-51312765D01*
X122243269Y-51290739D01*
X122206351Y-51194884D01*
X122204655Y-51190200D01*
X122172652Y-51095923D01*
X122154973Y-51060073D01*
X122150479Y-51049816D01*
X122134977Y-51009566D01*
X122119637Y-50981575D01*
X122087198Y-50922381D01*
X122084755Y-50917688D01*
X122042172Y-50831336D01*
X122039912Y-50827953D01*
X122039911Y-50827952D01*
X122018133Y-50795360D01*
X122012491Y-50786058D01*
X122007801Y-50777500D01*
X121990175Y-50745335D01*
X121933169Y-50667966D01*
X121929897Y-50663304D01*
X121919999Y-50648491D01*
X121878273Y-50586043D01*
X121847553Y-50551013D01*
X121840954Y-50542810D01*
X121813908Y-50506103D01*
X121813905Y-50506100D01*
X121811446Y-50502762D01*
X121746934Y-50436056D01*
X121742842Y-50431613D01*
X121695165Y-50377249D01*
X121683758Y-50364242D01*
X121680717Y-50361575D01*
X121680707Y-50361565D01*
X121646237Y-50331335D01*
X121638864Y-50324313D01*
X121604861Y-50289155D01*
X121601980Y-50286176D01*
X121598730Y-50283609D01*
X121598725Y-50283605D01*
X121531768Y-50230730D01*
X121526858Y-50226643D01*
X121465015Y-50172408D01*
X121465007Y-50172402D01*
X121461957Y-50169727D01*
X121458583Y-50167473D01*
X121458572Y-50167464D01*
X121417701Y-50140154D01*
X121409745Y-50134369D01*
X121368770Y-50102012D01*
X121368766Y-50102009D01*
X121365515Y-50099442D01*
X121361945Y-50097327D01*
X121361940Y-50097324D01*
X121291387Y-50055535D01*
X121285690Y-50051948D01*
X121220042Y-50008084D01*
X121220037Y-50008081D01*
X121216665Y-50005828D01*
X121213030Y-50004035D01*
X121213026Y-50004033D01*
X121165949Y-49980816D01*
X121157615Y-49976302D01*
X121106270Y-49945891D01*
X121029997Y-49913548D01*
X121023570Y-49910603D01*
X120955720Y-49877143D01*
X120955701Y-49877135D01*
X120952077Y-49875348D01*
X120948247Y-49874047D01*
X120948245Y-49874047D01*
X120895409Y-49856111D01*
X120886863Y-49852853D01*
X120832700Y-49829886D01*
X120832684Y-49829880D01*
X120828872Y-49828264D01*
X120824874Y-49827168D01*
X120824866Y-49827166D01*
X120752154Y-49807248D01*
X120745074Y-49805079D01*
X120672722Y-49780519D01*
X120668749Y-49779728D01*
X120668739Y-49779726D01*
X120610777Y-49768197D01*
X120602210Y-49766174D01*
X120542270Y-49749755D01*
X120542264Y-49749753D01*
X120538271Y-49748660D01*
X120534170Y-49748108D01*
X120534158Y-49748106D01*
X120462717Y-49738497D01*
X120455058Y-49737222D01*
X120387361Y-49723757D01*
X120387348Y-49723755D01*
X120383380Y-49722966D01*
X120379328Y-49722700D01*
X120379325Y-49722700D01*
X120317070Y-49718619D01*
X120308655Y-49717779D01*
X120243756Y-49709051D01*
X120243744Y-49709050D01*
X120239653Y-49708500D01*
X120235512Y-49708500D01*
X120166727Y-49708500D01*
X120158617Y-49708234D01*
X120093058Y-49703937D01*
X120089000Y-49703671D01*
X120016776Y-49708404D01*
X120014855Y-49708500D01*
X120013756Y-49708500D01*
X120011696Y-49708637D01*
X120011692Y-49708638D01*
X119940157Y-49713426D01*
X119797845Y-49722754D01*
X119797827Y-49722755D01*
X119794620Y-49722966D01*
X119793533Y-49723181D01*
X119793259Y-49723209D01*
X119792504Y-49723310D01*
X119788366Y-49723588D01*
X119784301Y-49724414D01*
X119784295Y-49724415D01*
X119645341Y-49752658D01*
X119509257Y-49779727D01*
X119509249Y-49779728D01*
X119505278Y-49780519D01*
X119502169Y-49781573D01*
X119497810Y-49782600D01*
X119497160Y-49782777D01*
X119493097Y-49783604D01*
X119489182Y-49784963D01*
X119489176Y-49784965D01*
X119358178Y-49830452D01*
X119229765Y-49874043D01*
X119229754Y-49874047D01*
X119225923Y-49875348D01*
X119222284Y-49877141D01*
X119218538Y-49878694D01*
X119225357Y-49875612D01*
X119215377Y-49879775D01*
X119216192Y-49879462D01*
X119212363Y-49881085D01*
X119208463Y-49882440D01*
X119204782Y-49884299D01*
X119204775Y-49884303D01*
X119083757Y-49945456D01*
X118964967Y-50004037D01*
X118964962Y-50004039D01*
X118961336Y-50005828D01*
X118957972Y-50008074D01*
X118954446Y-50010111D01*
X118954844Y-50009863D01*
X118945491Y-50015324D01*
X118943242Y-50016460D01*
X118943223Y-50016470D01*
X118939541Y-50018332D01*
X118936133Y-50020671D01*
X118936127Y-50020675D01*
X118826943Y-50095626D01*
X118719426Y-50167465D01*
X118719410Y-50167477D01*
X118716043Y-50169727D01*
X118712996Y-50172398D01*
X118712979Y-50172412D01*
X118710914Y-50174224D01*
X118699353Y-50183211D01*
X118694554Y-50186505D01*
X118694543Y-50186513D01*
X118691131Y-50188856D01*
X118688058Y-50191634D01*
X118688052Y-50191640D01*
X118592175Y-50278356D01*
X118497286Y-50361572D01*
X118497282Y-50361575D01*
X118494242Y-50364242D01*
X118491580Y-50367276D01*
X118491567Y-50367290D01*
X118487557Y-50371863D01*
X118477520Y-50382055D01*
X118470735Y-50388191D01*
X118470720Y-50388206D01*
X118467667Y-50390968D01*
X118464998Y-50394124D01*
X118464993Y-50394130D01*
X118383556Y-50490454D01*
X118302406Y-50582987D01*
X118302398Y-50582996D01*
X118299727Y-50586043D01*
X118297471Y-50589417D01*
X118297467Y-50589424D01*
X118292247Y-50597235D01*
X118283852Y-50608382D01*
X118275813Y-50617891D01*
X118275800Y-50617907D01*
X118273135Y-50621061D01*
X118270913Y-50624541D01*
X118270909Y-50624547D01*
X118205420Y-50727132D01*
X118204005Y-50729297D01*
X118138087Y-50827953D01*
X118138078Y-50827968D01*
X118135828Y-50831336D01*
X118134034Y-50834971D01*
X118134033Y-50834975D01*
X118128412Y-50846372D01*
X118121727Y-50858234D01*
X118113236Y-50871536D01*
X118113227Y-50871550D01*
X118111007Y-50875030D01*
X118109271Y-50878769D01*
X118109267Y-50878778D01*
X118059412Y-50986212D01*
X118058146Y-50988857D01*
X118025508Y-51055042D01*
X118005348Y-51095923D01*
X118004046Y-51099755D01*
X118004045Y-51099760D01*
X117998891Y-51114943D01*
X117993954Y-51127271D01*
X117985923Y-51144577D01*
X117985918Y-51144589D01*
X117984177Y-51148342D01*
X117982949Y-51152298D01*
X117982946Y-51152308D01*
X117948852Y-51262215D01*
X117947850Y-51265300D01*
X117910519Y-51375278D01*
X117909727Y-51379254D01*
X117909723Y-51379273D01*
X117905951Y-51398236D01*
X117902769Y-51410774D01*
X117894907Y-51436121D01*
X117894219Y-51440194D01*
X117894214Y-51440219D01*
X117875622Y-51550434D01*
X117874968Y-51553996D01*
X117853758Y-51660636D01*
X117852966Y-51664620D01*
X117852701Y-51668662D01*
X117852700Y-51668672D01*
X117851218Y-51691274D01*
X117849758Y-51703777D01*
X117845479Y-51729148D01*
X117844791Y-51733230D01*
X117844652Y-51737357D01*
X117844652Y-51737367D01*
X117841027Y-51845779D01*
X117840831Y-51849743D01*
X117833937Y-51954948D01*
X117833671Y-51959000D01*
X112590948Y-51959000D01*
X112587063Y-51914592D01*
X112525903Y-51686337D01*
X112426035Y-51472171D01*
X112290495Y-51278599D01*
X112123401Y-51111505D01*
X111937839Y-50981573D01*
X111894216Y-50926998D01*
X111887022Y-50857500D01*
X111918545Y-50795145D01*
X111937837Y-50778428D01*
X112123401Y-50648495D01*
X112290495Y-50481401D01*
X112426035Y-50287830D01*
X112525903Y-50073663D01*
X112587063Y-49845408D01*
X112607659Y-49610000D01*
X112587063Y-49374592D01*
X112525903Y-49146337D01*
X112426035Y-48932171D01*
X112290495Y-48738599D01*
X112123401Y-48571505D01*
X111937839Y-48441573D01*
X111894216Y-48386998D01*
X111887022Y-48317500D01*
X111918545Y-48255145D01*
X111937837Y-48238428D01*
X112123401Y-48108495D01*
X112290495Y-47941401D01*
X112426035Y-47747830D01*
X112525903Y-47533663D01*
X112587063Y-47305408D01*
X112607659Y-47070000D01*
X112587063Y-46834592D01*
X112525903Y-46606337D01*
X112426035Y-46392171D01*
X112290495Y-46198599D01*
X112123401Y-46031505D01*
X111937839Y-45901573D01*
X111894216Y-45846998D01*
X111887022Y-45777500D01*
X111918545Y-45715145D01*
X111937837Y-45698428D01*
X112123401Y-45568495D01*
X112290495Y-45401401D01*
X112426035Y-45207830D01*
X112525903Y-44993663D01*
X112587063Y-44765408D01*
X112607659Y-44530000D01*
X112587063Y-44294592D01*
X112525903Y-44066337D01*
X112426035Y-43852171D01*
X112290495Y-43658599D01*
X112123401Y-43491505D01*
X111937839Y-43361573D01*
X111894216Y-43306998D01*
X111887022Y-43237500D01*
X111918545Y-43175145D01*
X111937837Y-43158428D01*
X112123401Y-43028495D01*
X112290495Y-42861401D01*
X112426035Y-42667830D01*
X112525903Y-42453663D01*
X112587063Y-42225408D01*
X112607659Y-41990000D01*
X112587063Y-41754592D01*
X112525903Y-41526337D01*
X112426035Y-41312171D01*
X112290495Y-41118599D01*
X112123401Y-40951505D01*
X111937839Y-40821573D01*
X111894216Y-40766998D01*
X111887022Y-40697500D01*
X111918545Y-40635145D01*
X111937837Y-40618428D01*
X112123401Y-40488495D01*
X112290495Y-40321401D01*
X112426035Y-40127830D01*
X112525903Y-39913663D01*
X112587063Y-39685408D01*
X112607659Y-39450000D01*
X112587063Y-39214592D01*
X112525903Y-38986337D01*
X112426035Y-38772171D01*
X112290495Y-38578599D01*
X112123401Y-38411505D01*
X111937839Y-38281573D01*
X111894216Y-38226998D01*
X111887022Y-38157500D01*
X111918545Y-38095145D01*
X111937837Y-38078428D01*
X112123401Y-37948495D01*
X112290495Y-37781401D01*
X112426035Y-37587830D01*
X112525903Y-37373663D01*
X112587063Y-37145408D01*
X112607659Y-36910000D01*
X112587063Y-36674592D01*
X112525903Y-36446337D01*
X112479537Y-36346905D01*
X112469045Y-36277828D01*
X112497565Y-36214044D01*
X112556041Y-36175804D01*
X112591919Y-36170500D01*
X127392256Y-36170500D01*
X127412762Y-36172764D01*
X127415665Y-36172672D01*
X127415667Y-36172673D01*
X127482872Y-36170561D01*
X127486768Y-36170500D01*
X127510448Y-36170500D01*
X127514350Y-36170500D01*
X127518313Y-36169999D01*
X127529962Y-36169080D01*
X127573627Y-36167709D01*
X127592859Y-36162120D01*
X127611918Y-36158174D01*
X127618196Y-36157381D01*
X127631792Y-36155664D01*
X127672407Y-36139582D01*
X127683444Y-36135803D01*
X127725390Y-36123618D01*
X127742629Y-36113422D01*
X127760102Y-36104862D01*
X127778732Y-36097486D01*
X127814064Y-36071814D01*
X127823830Y-36065400D01*
X127861418Y-36043171D01*
X127861417Y-36043171D01*
X127861420Y-36043170D01*
X127875585Y-36029004D01*
X127890373Y-36016373D01*
X127906587Y-36004594D01*
X127934438Y-35970926D01*
X127942279Y-35962309D01*
X134782194Y-29122395D01*
X134843515Y-29088912D01*
X134913207Y-29093896D01*
X134969140Y-29135768D01*
X134993401Y-29199270D01*
X135014936Y-29445407D01*
X135059709Y-29612501D01*
X135076097Y-29673663D01*
X135175965Y-29887830D01*
X135311505Y-30081401D01*
X135478599Y-30248495D01*
X135664160Y-30378426D01*
X135707783Y-30433002D01*
X135714976Y-30502501D01*
X135683454Y-30564855D01*
X135664159Y-30581575D01*
X135478595Y-30711508D01*
X135311505Y-30878598D01*
X135175965Y-31072170D01*
X135076097Y-31286336D01*
X135014936Y-31514592D01*
X134994340Y-31749999D01*
X135014936Y-31985407D01*
X135059709Y-32152501D01*
X135076097Y-32213663D01*
X135175965Y-32427830D01*
X135311505Y-32621401D01*
X135478599Y-32788495D01*
X135664160Y-32918426D01*
X135707783Y-32973002D01*
X135714976Y-33042501D01*
X135683454Y-33104855D01*
X135664159Y-33121575D01*
X135478595Y-33251508D01*
X135311505Y-33418598D01*
X135175965Y-33612170D01*
X135076097Y-33826336D01*
X135014936Y-34054592D01*
X134994340Y-34290000D01*
X135014936Y-34525407D01*
X135059709Y-34692502D01*
X135076097Y-34753663D01*
X135175965Y-34967830D01*
X135311505Y-35161401D01*
X135478599Y-35328495D01*
X135664596Y-35458732D01*
X135708219Y-35513307D01*
X135715412Y-35582806D01*
X135683890Y-35645160D01*
X135664595Y-35661880D01*
X135478919Y-35791892D01*
X135311890Y-35958921D01*
X135176400Y-36152421D01*
X135076569Y-36366507D01*
X135019364Y-36579999D01*
X135019364Y-36580000D01*
X135916314Y-36580000D01*
X135890507Y-36620156D01*
X135850000Y-36758111D01*
X135850000Y-36901889D01*
X135890507Y-37039844D01*
X135916314Y-37080000D01*
X135019364Y-37080000D01*
X135076569Y-37293492D01*
X135176399Y-37507576D01*
X135311893Y-37701081D01*
X135478918Y-37868106D01*
X135664595Y-37998119D01*
X135708219Y-38052696D01*
X135715412Y-38122195D01*
X135683890Y-38184549D01*
X135664595Y-38201269D01*
X135478595Y-38331508D01*
X135311505Y-38498598D01*
X135176349Y-38691623D01*
X135121772Y-38735248D01*
X135074774Y-38744500D01*
X133908231Y-38744500D01*
X133841192Y-38724815D01*
X133795437Y-38672011D01*
X133790303Y-38658826D01*
X133742179Y-38510716D01*
X133742179Y-38510715D01*
X133647533Y-38346783D01*
X133520870Y-38206110D01*
X133367730Y-38094848D01*
X133194802Y-38017855D01*
X133009648Y-37978500D01*
X133009646Y-37978500D01*
X132820354Y-37978500D01*
X132820352Y-37978500D01*
X132635197Y-38017855D01*
X132462269Y-38094848D01*
X132309129Y-38206110D01*
X132182466Y-38346783D01*
X132087820Y-38510715D01*
X132029326Y-38690742D01*
X132009540Y-38879000D01*
X132029326Y-39067257D01*
X132087820Y-39247284D01*
X132182466Y-39411216D01*
X132309129Y-39551889D01*
X132319897Y-39559712D01*
X132362563Y-39615042D01*
X132368542Y-39684655D01*
X132335937Y-39746450D01*
X132297449Y-39773309D01*
X132278268Y-39781849D01*
X132125129Y-39893110D01*
X131998466Y-40033783D01*
X131903820Y-40197715D01*
X131845326Y-40377742D01*
X131825540Y-40565999D01*
X131845326Y-40754257D01*
X131903820Y-40934284D01*
X131998466Y-41098216D01*
X132125129Y-41238889D01*
X132278269Y-41350151D01*
X132451197Y-41427144D01*
X132636352Y-41466500D01*
X132636354Y-41466500D01*
X132695548Y-41466500D01*
X132762587Y-41486185D01*
X132783229Y-41502819D01*
X133574196Y-42293787D01*
X133587096Y-42309888D01*
X133638223Y-42357900D01*
X133641020Y-42360611D01*
X133660529Y-42380120D01*
X133663709Y-42382587D01*
X133672571Y-42390155D01*
X133704418Y-42420062D01*
X133721972Y-42429712D01*
X133738236Y-42440396D01*
X133749972Y-42449499D01*
X133754064Y-42452673D01*
X133773725Y-42461181D01*
X133794152Y-42470021D01*
X133804631Y-42475154D01*
X133842908Y-42496197D01*
X133862306Y-42501177D01*
X133880708Y-42507477D01*
X133899104Y-42515438D01*
X133942261Y-42522273D01*
X133953664Y-42524634D01*
X133995981Y-42535500D01*
X134016016Y-42535500D01*
X134035413Y-42537026D01*
X134055196Y-42540160D01*
X134098674Y-42536050D01*
X134110344Y-42535500D01*
X135074773Y-42535500D01*
X135141812Y-42555185D01*
X135176345Y-42588373D01*
X135311505Y-42781401D01*
X135478599Y-42948495D01*
X135664160Y-43078426D01*
X135707783Y-43133002D01*
X135714976Y-43202501D01*
X135683454Y-43264855D01*
X135664158Y-43281575D01*
X135573786Y-43344855D01*
X135478595Y-43411508D01*
X135311505Y-43578598D01*
X135175965Y-43772170D01*
X135076097Y-43986336D01*
X135014936Y-44214592D01*
X134994340Y-44450000D01*
X135014936Y-44685407D01*
X135049064Y-44812773D01*
X135076097Y-44913663D01*
X135175965Y-45127830D01*
X135311505Y-45321401D01*
X135478599Y-45488495D01*
X135664160Y-45618426D01*
X135707783Y-45673002D01*
X135714976Y-45742501D01*
X135683454Y-45804855D01*
X135664158Y-45821575D01*
X135481900Y-45949194D01*
X135478595Y-45951508D01*
X135311505Y-46118598D01*
X135176349Y-46311623D01*
X135121772Y-46355248D01*
X135074774Y-46364500D01*
X134147452Y-46364500D01*
X134080413Y-46344815D01*
X134059771Y-46328181D01*
X133119960Y-45388369D01*
X133086475Y-45327046D01*
X133084323Y-45313668D01*
X133066674Y-45145744D01*
X133008179Y-44965716D01*
X133008179Y-44965715D01*
X132913533Y-44801783D01*
X132786870Y-44661110D01*
X132633730Y-44549848D01*
X132460802Y-44472855D01*
X132275648Y-44433500D01*
X132275646Y-44433500D01*
X132086354Y-44433500D01*
X132086352Y-44433500D01*
X131901197Y-44472855D01*
X131728269Y-44549848D01*
X131575129Y-44661110D01*
X131448466Y-44801783D01*
X131353820Y-44965715D01*
X131295326Y-45145742D01*
X131275540Y-45333999D01*
X131295326Y-45522257D01*
X131353820Y-45702284D01*
X131448466Y-45866216D01*
X131575129Y-46006889D01*
X131728269Y-46118151D01*
X131901197Y-46195144D01*
X132086352Y-46234500D01*
X132086354Y-46234500D01*
X132145548Y-46234500D01*
X132212587Y-46254185D01*
X132233229Y-46270819D01*
X133336197Y-47373787D01*
X133349098Y-47389889D01*
X133351212Y-47391874D01*
X133351214Y-47391877D01*
X133398561Y-47436339D01*
X133400240Y-47437916D01*
X133403036Y-47440626D01*
X133422530Y-47460120D01*
X133425615Y-47462513D01*
X133425701Y-47462580D01*
X133434573Y-47470158D01*
X133466418Y-47500062D01*
X133483974Y-47509714D01*
X133500231Y-47520392D01*
X133516064Y-47532674D01*
X133518350Y-47533663D01*
X133556156Y-47550023D01*
X133566643Y-47555160D01*
X133604908Y-47576197D01*
X133624316Y-47581180D01*
X133642710Y-47587478D01*
X133661105Y-47595438D01*
X133704254Y-47602271D01*
X133715680Y-47604638D01*
X133731222Y-47608629D01*
X133757980Y-47615500D01*
X133757981Y-47615500D01*
X133778016Y-47615500D01*
X133797413Y-47617026D01*
X133817196Y-47620160D01*
X133860674Y-47616050D01*
X133872344Y-47615500D01*
X135074773Y-47615500D01*
X135141812Y-47635185D01*
X135176345Y-47668373D01*
X135311505Y-47861401D01*
X135478599Y-48028495D01*
X135664160Y-48158426D01*
X135707783Y-48213002D01*
X135714976Y-48282501D01*
X135683454Y-48344855D01*
X135664158Y-48361575D01*
X135573786Y-48424855D01*
X135478595Y-48491508D01*
X135311505Y-48658598D01*
X135176349Y-48851623D01*
X135121772Y-48895248D01*
X135074774Y-48904500D01*
X134960424Y-48904500D01*
X134893385Y-48884815D01*
X134847630Y-48832011D01*
X134837103Y-48793464D01*
X134827674Y-48703744D01*
X134784707Y-48571505D01*
X134769179Y-48523715D01*
X134674533Y-48359783D01*
X134547870Y-48219110D01*
X134394730Y-48107848D01*
X134221802Y-48030855D01*
X134036648Y-47991500D01*
X134036646Y-47991500D01*
X133847354Y-47991500D01*
X133847352Y-47991500D01*
X133662197Y-48030855D01*
X133489269Y-48107848D01*
X133336129Y-48219110D01*
X133209466Y-48359783D01*
X133114820Y-48523715D01*
X133056326Y-48703742D01*
X133036540Y-48892000D01*
X133056326Y-49080257D01*
X133114820Y-49260284D01*
X133209466Y-49424216D01*
X133336129Y-49564889D01*
X133489269Y-49676151D01*
X133662197Y-49753144D01*
X133847352Y-49792500D01*
X133847354Y-49792500D01*
X133906547Y-49792500D01*
X133973586Y-49812185D01*
X133994228Y-49828819D01*
X134079196Y-49913787D01*
X134092096Y-49929888D01*
X134143223Y-49977900D01*
X134146020Y-49980611D01*
X134165529Y-50000120D01*
X134168709Y-50002587D01*
X134177571Y-50010155D01*
X134194005Y-50025588D01*
X134209418Y-50040062D01*
X134226970Y-50049711D01*
X134243238Y-50060397D01*
X134259064Y-50072673D01*
X134299146Y-50090017D01*
X134309633Y-50095155D01*
X134347907Y-50116197D01*
X134356410Y-50118379D01*
X134367308Y-50121178D01*
X134385713Y-50127478D01*
X134404104Y-50135437D01*
X134447250Y-50142270D01*
X134458668Y-50144635D01*
X134500981Y-50155500D01*
X134521016Y-50155500D01*
X134540415Y-50157027D01*
X134560196Y-50160160D01*
X134603674Y-50156050D01*
X134615344Y-50155500D01*
X135074773Y-50155500D01*
X135141812Y-50175185D01*
X135176345Y-50208373D01*
X135311505Y-50401401D01*
X135478599Y-50568495D01*
X135664160Y-50698426D01*
X135707783Y-50753002D01*
X135714976Y-50822501D01*
X135683454Y-50884855D01*
X135664158Y-50901575D01*
X135515129Y-51005927D01*
X135478595Y-51031508D01*
X135311505Y-51198598D01*
X135175965Y-51392170D01*
X135076097Y-51606336D01*
X135014936Y-51834592D01*
X134994340Y-52070000D01*
X135014936Y-52305407D01*
X135050274Y-52437288D01*
X135076097Y-52533663D01*
X135175965Y-52747830D01*
X135311505Y-52941401D01*
X135478599Y-53108495D01*
X135664160Y-53238426D01*
X135707783Y-53293002D01*
X135714976Y-53362501D01*
X135683454Y-53424855D01*
X135664158Y-53441575D01*
X135503945Y-53553758D01*
X135478595Y-53571508D01*
X135311505Y-53738598D01*
X135175965Y-53932170D01*
X135076097Y-54146336D01*
X135014936Y-54374592D01*
X134994340Y-54610000D01*
X135014936Y-54845407D01*
X135048317Y-54969987D01*
X135076097Y-55073663D01*
X135175965Y-55287830D01*
X135311505Y-55481401D01*
X135478599Y-55648495D01*
X135664160Y-55778426D01*
X135707783Y-55833002D01*
X135714976Y-55902501D01*
X135683454Y-55964855D01*
X135664158Y-55981575D01*
X135573786Y-56044855D01*
X135478595Y-56111508D01*
X135311505Y-56278598D01*
X135175965Y-56472170D01*
X135076097Y-56686336D01*
X135014936Y-56914592D01*
X134994340Y-57149999D01*
X135014936Y-57385407D01*
X135059307Y-57551001D01*
X135076097Y-57613663D01*
X135175965Y-57827830D01*
X135311505Y-58021401D01*
X135478599Y-58188495D01*
X135664160Y-58318426D01*
X135707783Y-58373002D01*
X135714976Y-58442501D01*
X135683454Y-58504855D01*
X135664158Y-58521575D01*
X135559633Y-58594765D01*
X135478595Y-58651508D01*
X135311505Y-58818598D01*
X135175965Y-59012170D01*
X135076097Y-59226336D01*
X135014936Y-59454592D01*
X134994340Y-59689999D01*
X135014936Y-59925407D01*
X135057998Y-60086117D01*
X135076097Y-60153663D01*
X135175965Y-60367830D01*
X135311505Y-60561401D01*
X135478599Y-60728495D01*
X135664160Y-60858426D01*
X135707783Y-60913002D01*
X135714976Y-60982501D01*
X135683454Y-61044855D01*
X135664158Y-61061575D01*
X135573786Y-61124855D01*
X135478595Y-61191508D01*
X135311505Y-61358598D01*
X135175965Y-61552170D01*
X135076097Y-61766336D01*
X135014936Y-61994592D01*
X134994340Y-62230000D01*
X135014936Y-62465407D01*
X135051180Y-62600670D01*
X135076097Y-62693663D01*
X135175965Y-62907830D01*
X135311505Y-63101401D01*
X135478599Y-63268495D01*
X135664160Y-63398426D01*
X135707783Y-63453002D01*
X135714976Y-63522501D01*
X135683454Y-63584855D01*
X135664158Y-63601575D01*
X135556114Y-63677229D01*
X135478595Y-63731508D01*
X135311505Y-63898598D01*
X135175965Y-64092170D01*
X135076097Y-64306336D01*
X135014936Y-64534592D01*
X134994340Y-64769999D01*
X135014936Y-65005407D01*
X135046341Y-65122610D01*
X135076097Y-65233663D01*
X135175965Y-65447830D01*
X135311505Y-65641401D01*
X135311508Y-65641404D01*
X135433430Y-65763326D01*
X135466915Y-65824649D01*
X135461931Y-65894341D01*
X135420059Y-65950274D01*
X135389083Y-65967189D01*
X135257669Y-66016204D01*
X135142454Y-66102454D01*
X135056204Y-66217668D01*
X135005909Y-66352516D01*
X135000648Y-66401454D01*
X134999500Y-66412127D01*
X134999500Y-66415448D01*
X134999500Y-66415449D01*
X134999500Y-68204560D01*
X134999500Y-68204578D01*
X134999501Y-68207872D01*
X134999853Y-68211152D01*
X134999854Y-68211159D01*
X135005909Y-68267483D01*
X135056204Y-68402331D01*
X135142454Y-68517546D01*
X135257669Y-68603796D01*
X135392517Y-68654091D01*
X135452127Y-68660500D01*
X137247872Y-68660499D01*
X137307483Y-68654091D01*
X137442331Y-68603796D01*
X137557546Y-68517546D01*
X137643796Y-68402331D01*
X137694091Y-68267483D01*
X137700500Y-68207873D01*
X137700499Y-66412128D01*
X137694091Y-66352517D01*
X137643796Y-66217669D01*
X137557546Y-66102454D01*
X137442331Y-66016204D01*
X137376096Y-65991500D01*
X137310916Y-65967189D01*
X137254983Y-65925317D01*
X137230566Y-65859853D01*
X137245418Y-65791580D01*
X137266563Y-65763332D01*
X137388495Y-65641401D01*
X137524035Y-65447830D01*
X137623903Y-65233663D01*
X137685063Y-65005408D01*
X137705659Y-64770000D01*
X137705529Y-64768519D01*
X137685063Y-64534592D01*
X137623903Y-64306337D01*
X137524035Y-64092171D01*
X137388495Y-63898599D01*
X137221401Y-63731505D01*
X137035839Y-63601573D01*
X136992217Y-63546998D01*
X136985024Y-63477499D01*
X137016546Y-63415145D01*
X137035837Y-63398428D01*
X137221401Y-63268495D01*
X137388495Y-63101401D01*
X137524035Y-62907830D01*
X137623903Y-62693663D01*
X137685063Y-62465408D01*
X137705659Y-62230000D01*
X137685063Y-61994592D01*
X137623903Y-61766337D01*
X137524035Y-61552171D01*
X137388495Y-61358599D01*
X137221401Y-61191505D01*
X137035839Y-61061573D01*
X136992216Y-61006998D01*
X136985022Y-60937500D01*
X137016545Y-60875145D01*
X137035837Y-60858428D01*
X137221401Y-60728495D01*
X137388495Y-60561401D01*
X137524035Y-60367830D01*
X137623903Y-60153663D01*
X137685063Y-59925408D01*
X137705659Y-59690000D01*
X137685063Y-59454592D01*
X137623903Y-59226337D01*
X137524035Y-59012171D01*
X137388495Y-58818599D01*
X137221401Y-58651505D01*
X137035839Y-58521573D01*
X136992216Y-58466998D01*
X136985022Y-58397500D01*
X137016545Y-58335145D01*
X137035837Y-58318428D01*
X137221401Y-58188495D01*
X137388495Y-58021401D01*
X137524035Y-57827830D01*
X137623903Y-57613663D01*
X137685063Y-57385408D01*
X137705659Y-57150000D01*
X137699656Y-57081392D01*
X137685063Y-56914592D01*
X137678135Y-56888735D01*
X137623903Y-56686337D01*
X137524035Y-56472171D01*
X137388495Y-56278599D01*
X137221401Y-56111505D01*
X137035839Y-55981573D01*
X136992216Y-55926998D01*
X136985022Y-55857500D01*
X137016545Y-55795145D01*
X137035837Y-55778428D01*
X137221401Y-55648495D01*
X137388495Y-55481401D01*
X137524035Y-55287830D01*
X137623903Y-55073663D01*
X137685063Y-54845408D01*
X137705659Y-54610000D01*
X137685063Y-54374592D01*
X137623903Y-54146337D01*
X137524035Y-53932171D01*
X137388495Y-53738599D01*
X137221401Y-53571505D01*
X137035839Y-53441573D01*
X136992217Y-53386998D01*
X136985024Y-53317499D01*
X137016546Y-53255145D01*
X137035837Y-53238428D01*
X137221401Y-53108495D01*
X137388495Y-52941401D01*
X137524035Y-52747830D01*
X137623903Y-52533663D01*
X137685063Y-52305408D01*
X137705659Y-52070000D01*
X137685063Y-51834592D01*
X137623903Y-51606337D01*
X137524035Y-51392171D01*
X137388495Y-51198599D01*
X137221401Y-51031505D01*
X137035839Y-50901573D01*
X136992216Y-50846998D01*
X136985022Y-50777500D01*
X137016545Y-50715145D01*
X137035837Y-50698428D01*
X137221401Y-50568495D01*
X137388495Y-50401401D01*
X137524035Y-50207830D01*
X137623903Y-49993663D01*
X137685063Y-49765408D01*
X137705659Y-49530000D01*
X137685063Y-49294592D01*
X137623903Y-49066337D01*
X137524035Y-48852171D01*
X137388495Y-48658599D01*
X137221401Y-48491505D01*
X137035839Y-48361573D01*
X136992216Y-48306998D01*
X136985022Y-48237500D01*
X137016545Y-48175145D01*
X137035837Y-48158428D01*
X137221401Y-48028495D01*
X137388495Y-47861401D01*
X137524035Y-47667830D01*
X137623903Y-47453663D01*
X137685063Y-47225408D01*
X137705659Y-46990000D01*
X137685063Y-46754592D01*
X137623903Y-46526337D01*
X137524035Y-46312171D01*
X137388495Y-46118599D01*
X137221401Y-45951505D01*
X137035839Y-45821573D01*
X136992216Y-45766998D01*
X136985022Y-45697500D01*
X137016545Y-45635145D01*
X137035837Y-45618428D01*
X137221401Y-45488495D01*
X137388495Y-45321401D01*
X137524035Y-45127830D01*
X137623903Y-44913663D01*
X137685063Y-44685408D01*
X137705659Y-44450000D01*
X137685063Y-44214592D01*
X137623903Y-43986337D01*
X137524035Y-43772171D01*
X137388495Y-43578599D01*
X137221401Y-43411505D01*
X137035839Y-43281573D01*
X136992216Y-43226998D01*
X136985022Y-43157500D01*
X137016545Y-43095145D01*
X137035837Y-43078428D01*
X137221401Y-42948495D01*
X137388495Y-42781401D01*
X137524035Y-42587830D01*
X137623903Y-42373663D01*
X137685063Y-42145408D01*
X137705659Y-41910000D01*
X137685063Y-41674592D01*
X137623903Y-41446337D01*
X137524035Y-41232171D01*
X137388495Y-41038599D01*
X137221401Y-40871505D01*
X137035839Y-40741573D01*
X136992216Y-40686998D01*
X136985022Y-40617500D01*
X137016545Y-40555145D01*
X137035837Y-40538428D01*
X137221401Y-40408495D01*
X137388495Y-40241401D01*
X137524035Y-40047830D01*
X137623903Y-39833663D01*
X137685063Y-39605408D01*
X137705659Y-39370000D01*
X137685063Y-39134592D01*
X137623903Y-38906337D01*
X137524035Y-38692171D01*
X137388495Y-38498599D01*
X137221401Y-38331505D01*
X137035402Y-38201267D01*
X136991780Y-38146692D01*
X136984587Y-38077193D01*
X137016109Y-38014839D01*
X137035405Y-37998119D01*
X137221078Y-37868109D01*
X137388106Y-37701081D01*
X137523600Y-37507576D01*
X137623430Y-37293492D01*
X137680636Y-37080000D01*
X136783686Y-37080000D01*
X136809493Y-37039844D01*
X136850000Y-36901889D01*
X136850000Y-36758111D01*
X136809493Y-36620156D01*
X136783686Y-36580000D01*
X137680636Y-36580000D01*
X137680635Y-36579999D01*
X137623430Y-36366507D01*
X137523599Y-36152421D01*
X137388109Y-35958921D01*
X137221081Y-35791893D01*
X137035404Y-35661880D01*
X136991780Y-35607303D01*
X136984587Y-35537804D01*
X137016109Y-35475450D01*
X137035399Y-35458734D01*
X137221401Y-35328495D01*
X137388495Y-35161401D01*
X137524035Y-34967830D01*
X137623903Y-34753663D01*
X137685063Y-34525408D01*
X137705659Y-34290000D01*
X137685063Y-34054592D01*
X137623903Y-33826337D01*
X137524035Y-33612171D01*
X137388495Y-33418599D01*
X137221401Y-33251505D01*
X137035839Y-33121573D01*
X136992215Y-33066997D01*
X136985023Y-32997498D01*
X137016545Y-32935144D01*
X137035831Y-32918432D01*
X137221401Y-32788495D01*
X137388495Y-32621401D01*
X137524035Y-32427830D01*
X137623903Y-32213663D01*
X137685063Y-31985408D01*
X137705659Y-31750000D01*
X137685063Y-31514592D01*
X137623903Y-31286337D01*
X137524035Y-31072171D01*
X137388495Y-30878599D01*
X137221401Y-30711505D01*
X137035839Y-30581573D01*
X136992215Y-30526997D01*
X136985023Y-30457498D01*
X137016545Y-30395144D01*
X137035831Y-30378432D01*
X137221401Y-30248495D01*
X137388495Y-30081401D01*
X137524035Y-29887830D01*
X137623903Y-29673663D01*
X137685063Y-29445408D01*
X137705659Y-29210000D01*
X137685063Y-28974592D01*
X137623903Y-28746337D01*
X137524035Y-28532171D01*
X137388495Y-28338599D01*
X137221401Y-28171505D01*
X137035839Y-28041573D01*
X136992215Y-27986997D01*
X136985023Y-27917498D01*
X137016545Y-27855144D01*
X137035831Y-27838432D01*
X137221401Y-27708495D01*
X137388495Y-27541401D01*
X137524035Y-27347830D01*
X137623903Y-27133663D01*
X137685063Y-26905408D01*
X137705659Y-26670000D01*
X137698743Y-26590957D01*
X137685063Y-26434592D01*
X137677670Y-26407000D01*
X137623903Y-26206337D01*
X137524035Y-25992171D01*
X137388495Y-25798599D01*
X137221401Y-25631505D01*
X137035839Y-25501573D01*
X136992217Y-25446998D01*
X136985024Y-25377499D01*
X137016546Y-25315145D01*
X137035837Y-25298428D01*
X137221401Y-25168495D01*
X137388495Y-25001401D01*
X137524035Y-24807830D01*
X137623903Y-24593663D01*
X137685063Y-24365408D01*
X137705659Y-24130000D01*
X137685063Y-23894592D01*
X137623903Y-23666337D01*
X137524035Y-23452171D01*
X137388495Y-23258599D01*
X137221401Y-23091505D01*
X137035402Y-22961267D01*
X136991780Y-22906692D01*
X136984587Y-22837193D01*
X137016109Y-22774839D01*
X137035405Y-22758119D01*
X137221078Y-22628109D01*
X137388106Y-22461081D01*
X137523600Y-22267576D01*
X137623430Y-22053492D01*
X137680636Y-21840000D01*
X136783686Y-21840000D01*
X136809493Y-21799844D01*
X136850000Y-21661889D01*
X136850000Y-21518111D01*
X136809493Y-21380156D01*
X136783686Y-21340000D01*
X137680636Y-21340000D01*
X137680635Y-21339999D01*
X137623430Y-21126507D01*
X137523599Y-20912421D01*
X137388109Y-20718921D01*
X137221081Y-20551893D01*
X137027576Y-20416399D01*
X136813492Y-20316569D01*
X136600000Y-20259364D01*
X136600000Y-21154498D01*
X136492315Y-21105320D01*
X136385763Y-21090000D01*
X136314237Y-21090000D01*
X136207685Y-21105320D01*
X136100000Y-21154498D01*
X136100000Y-20259364D01*
X136099999Y-20259364D01*
X135886507Y-20316569D01*
X135672421Y-20416400D01*
X135478921Y-20551890D01*
X135311890Y-20718921D01*
X135176400Y-20912421D01*
X135076569Y-21126507D01*
X135019364Y-21339999D01*
X135019364Y-21340000D01*
X135916314Y-21340000D01*
X135890507Y-21380156D01*
X135850000Y-21518111D01*
X135850000Y-21661889D01*
X135890507Y-21799844D01*
X135916314Y-21840000D01*
X135019364Y-21840000D01*
X135076569Y-22053492D01*
X135176399Y-22267576D01*
X135311893Y-22461081D01*
X135478918Y-22628106D01*
X135664595Y-22758119D01*
X135708219Y-22812696D01*
X135715412Y-22882195D01*
X135683890Y-22944549D01*
X135664595Y-22961269D01*
X135548784Y-23042361D01*
X135486950Y-23085658D01*
X135478595Y-23091508D01*
X135311505Y-23258598D01*
X135175965Y-23452170D01*
X135076097Y-23666336D01*
X135014936Y-23894592D01*
X134994340Y-24129999D01*
X135014936Y-24365407D01*
X135041224Y-24463514D01*
X135076097Y-24593663D01*
X135175965Y-24807830D01*
X135311505Y-25001401D01*
X135478599Y-25168495D01*
X135664160Y-25298426D01*
X135707783Y-25353002D01*
X135714976Y-25422501D01*
X135683454Y-25484855D01*
X135664158Y-25501575D01*
X135573786Y-25564855D01*
X135478595Y-25631508D01*
X135311505Y-25798598D01*
X135175965Y-25992170D01*
X135076097Y-26206336D01*
X135014936Y-26434592D01*
X134994340Y-26669999D01*
X135014936Y-26905408D01*
X135041855Y-27005873D01*
X135040192Y-27075722D01*
X135009761Y-27125646D01*
X127252228Y-34883181D01*
X127190905Y-34916666D01*
X127164547Y-34919500D01*
X112664503Y-34919500D01*
X112597464Y-34899815D01*
X112551709Y-34847011D01*
X112541765Y-34777853D01*
X112544728Y-34763407D01*
X112587063Y-34605407D01*
X112593495Y-34531897D01*
X112607659Y-34370000D01*
X112587063Y-34134592D01*
X112525903Y-33906337D01*
X112426035Y-33692171D01*
X112290495Y-33498599D01*
X112123401Y-33331505D01*
X111937839Y-33201573D01*
X111894216Y-33146998D01*
X111887022Y-33077500D01*
X111918545Y-33015145D01*
X111937837Y-32998428D01*
X112123401Y-32868495D01*
X112290495Y-32701401D01*
X112426035Y-32507830D01*
X112525903Y-32293663D01*
X112587063Y-32065408D01*
X112607659Y-31830000D01*
X112587063Y-31594592D01*
X112525903Y-31366337D01*
X112426035Y-31152171D01*
X112290495Y-30958599D01*
X112123401Y-30791505D01*
X111937839Y-30661573D01*
X111894216Y-30606998D01*
X111887022Y-30537500D01*
X111918545Y-30475145D01*
X111937837Y-30458428D01*
X112123401Y-30328495D01*
X112290495Y-30161401D01*
X112426035Y-29967830D01*
X112525903Y-29753663D01*
X112587063Y-29525408D01*
X112607659Y-29290000D01*
X112587063Y-29054592D01*
X112525903Y-28826337D01*
X112426035Y-28612171D01*
X112290495Y-28418599D01*
X112123401Y-28251505D01*
X111937839Y-28121573D01*
X111894216Y-28066998D01*
X111887022Y-27997500D01*
X111918545Y-27935145D01*
X111937837Y-27918428D01*
X112123401Y-27788495D01*
X112290495Y-27621401D01*
X112426035Y-27427830D01*
X112525903Y-27213663D01*
X112587063Y-26985408D01*
X112607659Y-26750000D01*
X112587063Y-26514592D01*
X112525903Y-26286337D01*
X112426035Y-26072171D01*
X112290495Y-25878599D01*
X112123401Y-25711505D01*
X111937839Y-25581573D01*
X111894217Y-25526998D01*
X111887024Y-25457499D01*
X111918546Y-25395145D01*
X111937837Y-25378428D01*
X112123401Y-25248495D01*
X112290495Y-25081401D01*
X112426035Y-24887830D01*
X112525903Y-24673663D01*
X112564665Y-24529000D01*
X130238750Y-24529000D01*
X130257686Y-24697056D01*
X130257686Y-24697058D01*
X130257687Y-24697059D01*
X130313544Y-24856690D01*
X130403523Y-24999890D01*
X130523110Y-25119477D01*
X130666310Y-25209456D01*
X130825941Y-25265313D01*
X130994000Y-25284249D01*
X131162059Y-25265313D01*
X131321690Y-25209456D01*
X131464890Y-25119477D01*
X131584477Y-24999890D01*
X131674456Y-24856690D01*
X131730313Y-24697059D01*
X131749249Y-24529000D01*
X131730313Y-24360941D01*
X131674456Y-24201310D01*
X131584477Y-24058110D01*
X131464890Y-23938523D01*
X131321690Y-23848544D01*
X131162059Y-23792687D01*
X131162058Y-23792686D01*
X131162056Y-23792686D01*
X130994000Y-23773750D01*
X130825943Y-23792686D01*
X130666310Y-23848544D01*
X130523108Y-23938524D01*
X130403524Y-24058108D01*
X130313544Y-24201310D01*
X130257686Y-24360943D01*
X130238750Y-24529000D01*
X112564665Y-24529000D01*
X112587063Y-24445408D01*
X112607659Y-24210000D01*
X112597597Y-24094999D01*
X112587063Y-23974592D01*
X112538322Y-23792687D01*
X112525903Y-23746337D01*
X112426035Y-23532171D01*
X112290495Y-23338599D01*
X112168569Y-23216673D01*
X112135084Y-23155350D01*
X112140068Y-23085658D01*
X112181940Y-23029725D01*
X112212915Y-23012810D01*
X112344331Y-22963796D01*
X112459546Y-22877546D01*
X112545796Y-22762331D01*
X112596091Y-22627483D01*
X112602500Y-22567873D01*
X112602499Y-20772128D01*
X112596091Y-20712517D01*
X112545796Y-20577669D01*
X112459546Y-20462454D01*
X112344331Y-20376204D01*
X112209483Y-20325909D01*
X112149873Y-20319500D01*
X112146550Y-20319500D01*
X110357439Y-20319500D01*
X110357420Y-20319500D01*
X110354128Y-20319501D01*
X110350848Y-20319853D01*
X110350840Y-20319854D01*
X110294515Y-20325909D01*
X110159669Y-20376204D01*
X110044454Y-20462454D01*
X109958204Y-20577668D01*
X109907910Y-20712515D01*
X109907909Y-20712517D01*
X109901500Y-20772127D01*
X109901500Y-20775449D01*
X109901500Y-20920500D01*
X109881815Y-20987539D01*
X109829011Y-21033294D01*
X109777500Y-21044500D01*
X89308318Y-21044500D01*
X89277482Y-21040605D01*
X89249006Y-21033294D01*
X89242019Y-21031500D01*
X89242018Y-21031500D01*
X89221984Y-21031500D01*
X89202586Y-21029973D01*
X89195162Y-21028797D01*
X89182805Y-21026840D01*
X89182804Y-21026840D01*
X89149751Y-21029964D01*
X89139325Y-21030950D01*
X89127656Y-21031500D01*
X87461389Y-21031500D01*
X87394350Y-21011815D01*
X87369239Y-20990472D01*
X87346690Y-20965429D01*
X87189300Y-20851078D01*
X87011568Y-20771947D01*
X86821276Y-20731500D01*
X86821274Y-20731500D01*
X86626726Y-20731500D01*
X86626724Y-20731500D01*
X86436431Y-20771947D01*
X86258699Y-20851078D01*
X86101308Y-20965429D01*
X85971129Y-21110007D01*
X85873855Y-21278492D01*
X85813739Y-21463514D01*
X85813738Y-21463518D01*
X85793402Y-21657000D01*
X85813738Y-21850482D01*
X85813739Y-21850485D01*
X85873855Y-22035507D01*
X85908492Y-22095500D01*
X85924965Y-22163400D01*
X85908492Y-22219500D01*
X85874315Y-22278695D01*
X85832627Y-22406999D01*
X85832628Y-22407000D01*
X86141441Y-22407000D01*
X86208480Y-22426685D01*
X86214326Y-22430682D01*
X86258699Y-22462921D01*
X86440177Y-22543720D01*
X86484193Y-22581132D01*
X86469102Y-22657000D01*
X86484099Y-22732398D01*
X86442325Y-22769299D01*
X86440177Y-22770280D01*
X86258699Y-22851078D01*
X86214326Y-22883318D01*
X86148520Y-22906798D01*
X86141441Y-22907000D01*
X85832628Y-22907000D01*
X85874315Y-23035304D01*
X85908492Y-23094499D01*
X85924965Y-23162399D01*
X85908492Y-23218498D01*
X85873855Y-23278490D01*
X85813739Y-23463514D01*
X85813738Y-23463518D01*
X85793402Y-23657000D01*
X85813738Y-23850482D01*
X85813739Y-23850485D01*
X85873855Y-24035507D01*
X85908203Y-24094999D01*
X85924676Y-24162899D01*
X85908204Y-24218998D01*
X85873854Y-24278493D01*
X85819622Y-24445408D01*
X85813738Y-24463518D01*
X85793402Y-24657000D01*
X85813738Y-24850482D01*
X85813739Y-24850485D01*
X85873855Y-25035507D01*
X85908203Y-25094999D01*
X85924676Y-25162899D01*
X85908204Y-25218998D01*
X85873854Y-25278493D01*
X85813739Y-25463514D01*
X85813738Y-25463518D01*
X85793402Y-25657000D01*
X85813738Y-25850482D01*
X85813739Y-25850485D01*
X85873855Y-26035507D01*
X85908492Y-26095500D01*
X85924965Y-26163400D01*
X85908492Y-26219500D01*
X85874315Y-26278695D01*
X85832627Y-26406999D01*
X85832628Y-26407000D01*
X86141441Y-26407000D01*
X86208480Y-26426685D01*
X86214326Y-26430682D01*
X86258699Y-26462921D01*
X86440177Y-26543720D01*
X86484193Y-26581132D01*
X86469102Y-26657000D01*
X86484099Y-26732398D01*
X86442325Y-26769299D01*
X86440177Y-26770280D01*
X86258699Y-26851078D01*
X86214326Y-26883318D01*
X86148520Y-26906798D01*
X86141441Y-26907000D01*
X85832628Y-26907000D01*
X85874315Y-27035304D01*
X85908492Y-27094499D01*
X85924965Y-27162399D01*
X85908492Y-27218498D01*
X85873855Y-27278490D01*
X85813739Y-27463514D01*
X85813738Y-27463518D01*
X85793402Y-27657000D01*
X85813738Y-27850482D01*
X85813739Y-27850485D01*
X85873855Y-28035507D01*
X85908203Y-28094999D01*
X85924676Y-28162899D01*
X85908204Y-28218998D01*
X85873854Y-28278493D01*
X85813739Y-28463514D01*
X85813738Y-28463518D01*
X85793402Y-28657000D01*
X85813738Y-28850482D01*
X85813739Y-28850485D01*
X85873855Y-29035507D01*
X85908203Y-29094999D01*
X85924676Y-29162899D01*
X85908204Y-29218998D01*
X85873854Y-29278493D01*
X85819622Y-29445408D01*
X85813738Y-29463518D01*
X85793402Y-29657000D01*
X85813738Y-29850482D01*
X85813739Y-29850485D01*
X85843848Y-29943153D01*
X85845843Y-30012994D01*
X85842099Y-30024803D01*
X85804909Y-30124514D01*
X85804909Y-30124517D01*
X85798500Y-30184127D01*
X85798500Y-30187448D01*
X85798500Y-30187449D01*
X85798500Y-31126560D01*
X85798500Y-31126578D01*
X85798501Y-31129872D01*
X85804909Y-31189483D01*
X85855204Y-31324331D01*
X85941454Y-31439546D01*
X86056669Y-31525796D01*
X86191517Y-31576091D01*
X86251127Y-31582500D01*
X87196872Y-31582499D01*
X87256483Y-31576091D01*
X87391331Y-31525796D01*
X87506546Y-31439546D01*
X87586914Y-31332188D01*
X87642847Y-31290318D01*
X87686180Y-31282500D01*
X99220548Y-31282500D01*
X99287587Y-31302185D01*
X99308229Y-31318819D01*
X103916038Y-35926629D01*
X103949523Y-35987952D01*
X103951678Y-36001348D01*
X103969326Y-36169257D01*
X104027820Y-36349284D01*
X104122466Y-36513216D01*
X104249129Y-36653889D01*
X104402269Y-36765151D01*
X104575196Y-36842144D01*
X104575197Y-36842144D01*
X104579219Y-36842999D01*
X104770813Y-36883723D01*
X104832295Y-36916915D01*
X104866072Y-36978078D01*
X104861420Y-37047792D01*
X104832714Y-37092694D01*
X94297226Y-47628181D01*
X94235903Y-47661666D01*
X94209546Y-47664500D01*
X94128243Y-47664500D01*
X94128217Y-47664500D01*
X94125820Y-47664501D01*
X94123429Y-47664689D01*
X94123406Y-47664690D01*
X94089794Y-47667335D01*
X93935607Y-47712130D01*
X93842893Y-47766961D01*
X93775169Y-47784144D01*
X93741118Y-47774146D01*
X93740435Y-47776501D01*
X93571206Y-47727335D01*
X93537615Y-47724691D01*
X93537600Y-47724690D01*
X93535181Y-47724500D01*
X93532735Y-47724500D01*
X93039243Y-47724500D01*
X93039217Y-47724500D01*
X93036820Y-47724501D01*
X93034429Y-47724689D01*
X93034406Y-47724690D01*
X93000793Y-47727335D01*
X92982740Y-47732580D01*
X92912870Y-47732379D01*
X92854201Y-47694435D01*
X92825360Y-47630796D01*
X92835503Y-47561667D01*
X92840755Y-47551512D01*
X92925181Y-47405284D01*
X92983676Y-47225256D01*
X93003462Y-47037000D01*
X92983676Y-46848744D01*
X92925181Y-46668716D01*
X92925181Y-46668715D01*
X92830535Y-46504783D01*
X92703875Y-46364113D01*
X92696342Y-46358640D01*
X92687601Y-46352289D01*
X92644936Y-46296961D01*
X92638957Y-46227347D01*
X92671562Y-46165552D01*
X92672806Y-46164290D01*
X92748720Y-46088376D01*
X92831032Y-45949194D01*
X92876144Y-45793917D01*
X92877790Y-45773000D01*
X92043500Y-45773000D01*
X91976461Y-45753315D01*
X91930706Y-45700511D01*
X91919500Y-45649000D01*
X91919500Y-45290755D01*
X91919500Y-45288310D01*
X91918295Y-45273000D01*
X92349000Y-45273000D01*
X92877790Y-45273000D01*
X92876145Y-45252084D01*
X92831032Y-45096805D01*
X92748718Y-44957620D01*
X92634379Y-44843281D01*
X92495194Y-44760967D01*
X92349001Y-44718493D01*
X92349000Y-44718494D01*
X92349000Y-45273000D01*
X91918295Y-45273000D01*
X91916643Y-45252007D01*
X91871494Y-45096605D01*
X91866267Y-45087766D01*
X91849000Y-45024647D01*
X91849000Y-44718494D01*
X91814047Y-44692251D01*
X91772256Y-44636257D01*
X91764500Y-44593090D01*
X91764500Y-44177738D01*
X91766763Y-44157239D01*
X91764560Y-44087145D01*
X91764499Y-44083245D01*
X91764500Y-44055650D01*
X91763998Y-44051681D01*
X91763080Y-44040024D01*
X91761709Y-43996373D01*
X91756120Y-43977137D01*
X91752176Y-43958093D01*
X91749664Y-43938208D01*
X91733582Y-43897591D01*
X91729798Y-43886540D01*
X91717617Y-43844610D01*
X91707421Y-43827369D01*
X91698863Y-43809902D01*
X91691486Y-43791268D01*
X91665798Y-43755912D01*
X91659415Y-43746195D01*
X91639763Y-43712964D01*
X91622499Y-43649849D01*
X91622499Y-43130194D01*
X91622499Y-43130192D01*
X91622499Y-43126140D01*
X91620381Y-43110052D01*
X91631147Y-43041018D01*
X91677527Y-42988762D01*
X91744796Y-42969877D01*
X91787200Y-42981750D01*
X91787564Y-42980499D01*
X91914958Y-43017510D01*
X91956796Y-43029665D01*
X91992819Y-43032500D01*
X92491180Y-43032499D01*
X92527204Y-43029665D01*
X92681393Y-42984869D01*
X92819598Y-42903135D01*
X92933135Y-42789598D01*
X93014869Y-42651393D01*
X93059665Y-42497204D01*
X93062500Y-42461181D01*
X93062499Y-42062820D01*
X93059665Y-42026796D01*
X93025733Y-41910000D01*
X93014869Y-41872606D01*
X92980872Y-41815122D01*
X92963688Y-41747399D01*
X92980872Y-41688878D01*
X93014869Y-41631393D01*
X93014869Y-41631392D01*
X93059665Y-41477204D01*
X93062500Y-41441181D01*
X93062499Y-41042820D01*
X93059665Y-41006796D01*
X93014869Y-40852607D01*
X92933135Y-40714402D01*
X92819598Y-40600865D01*
X92819597Y-40600865D01*
X92681392Y-40519130D01*
X92527206Y-40474335D01*
X92493615Y-40471691D01*
X92493600Y-40471690D01*
X92491181Y-40471500D01*
X92488735Y-40471500D01*
X91995243Y-40471500D01*
X91995217Y-40471500D01*
X91992820Y-40471501D01*
X91990429Y-40471689D01*
X91990406Y-40471690D01*
X91956794Y-40474335D01*
X91787564Y-40523501D01*
X91786842Y-40521016D01*
X91741135Y-40532610D01*
X91674874Y-40510446D01*
X91631114Y-40455977D01*
X91622117Y-40401225D01*
X91622000Y-40404823D01*
X91622000Y-39853000D01*
X91096500Y-39853000D01*
X91029461Y-39833315D01*
X90983706Y-39780511D01*
X90972500Y-39729001D01*
X90972499Y-39577001D01*
X90992183Y-39509961D01*
X91044987Y-39464206D01*
X91096499Y-39453000D01*
X91621999Y-39453000D01*
X91621999Y-38905232D01*
X91621469Y-38897153D01*
X91606556Y-38783868D01*
X91546099Y-38637911D01*
X91533861Y-38621962D01*
X91508666Y-38556794D01*
X91522704Y-38488349D01*
X91525483Y-38483390D01*
X91553869Y-38435393D01*
X91598665Y-38281204D01*
X91601500Y-38245181D01*
X91601499Y-37746820D01*
X91598665Y-37710796D01*
X91553869Y-37556607D01*
X91472135Y-37418402D01*
X91358598Y-37304865D01*
X91274200Y-37254952D01*
X91220392Y-37223130D01*
X91066206Y-37178335D01*
X91032615Y-37175691D01*
X91032600Y-37175690D01*
X91030181Y-37175500D01*
X91027736Y-37175500D01*
X90705499Y-37175500D01*
X90638460Y-37155815D01*
X90592705Y-37103011D01*
X90581499Y-37051503D01*
X90581499Y-36843000D01*
X97425750Y-36843000D01*
X97444686Y-37011056D01*
X97444686Y-37011058D01*
X97444687Y-37011059D01*
X97500544Y-37170690D01*
X97590523Y-37313890D01*
X97710110Y-37433477D01*
X97853310Y-37523456D01*
X98012941Y-37579313D01*
X98181000Y-37598249D01*
X98349059Y-37579313D01*
X98508690Y-37523456D01*
X98651890Y-37433477D01*
X98771477Y-37313890D01*
X98861456Y-37170690D01*
X98917313Y-37011059D01*
X98936249Y-36843000D01*
X98917313Y-36674941D01*
X98861456Y-36515310D01*
X98771477Y-36372110D01*
X98651890Y-36252523D01*
X98508690Y-36162544D01*
X98349059Y-36106687D01*
X98349058Y-36106686D01*
X98349056Y-36106686D01*
X98181000Y-36087750D01*
X98012943Y-36106686D01*
X97853310Y-36162544D01*
X97710108Y-36252524D01*
X97590524Y-36372108D01*
X97500544Y-36515310D01*
X97444686Y-36674943D01*
X97425750Y-36843000D01*
X90581499Y-36843000D01*
X90581499Y-36633820D01*
X90578665Y-36597796D01*
X90533869Y-36443607D01*
X90452135Y-36305402D01*
X90338598Y-36191865D01*
X90300071Y-36169080D01*
X90200392Y-36110130D01*
X90046206Y-36065335D01*
X90012615Y-36062691D01*
X90012600Y-36062690D01*
X90010181Y-36062500D01*
X90007735Y-36062500D01*
X89614243Y-36062500D01*
X89614217Y-36062500D01*
X89611820Y-36062501D01*
X89609429Y-36062689D01*
X89609406Y-36062690D01*
X89575794Y-36065335D01*
X89421607Y-36110130D01*
X89364119Y-36144128D01*
X89296395Y-36161309D01*
X89237881Y-36144128D01*
X89180392Y-36110130D01*
X89026206Y-36065335D01*
X88992615Y-36062691D01*
X88992600Y-36062690D01*
X88990181Y-36062500D01*
X88987735Y-36062500D01*
X88594243Y-36062500D01*
X88594217Y-36062500D01*
X88591820Y-36062501D01*
X88589429Y-36062689D01*
X88589406Y-36062690D01*
X88555794Y-36065335D01*
X88401607Y-36110130D01*
X88263401Y-36191865D01*
X88234086Y-36221181D01*
X88172763Y-36254666D01*
X88146405Y-36257500D01*
X88067135Y-36257500D01*
X88046628Y-36255235D01*
X87976518Y-36257439D01*
X87972623Y-36257500D01*
X87945041Y-36257500D01*
X87941196Y-36257985D01*
X87941171Y-36257987D01*
X87941044Y-36258004D01*
X87929424Y-36258918D01*
X87885760Y-36260290D01*
X87866520Y-36265880D01*
X87847472Y-36269825D01*
X87827600Y-36272335D01*
X87786990Y-36288413D01*
X87775945Y-36292194D01*
X87734001Y-36304381D01*
X87716756Y-36314579D01*
X87699295Y-36323133D01*
X87680658Y-36330512D01*
X87645322Y-36356185D01*
X87635565Y-36362595D01*
X87597971Y-36384829D01*
X87583804Y-36398996D01*
X87569015Y-36411626D01*
X87552804Y-36423404D01*
X87524963Y-36457058D01*
X87517102Y-36465697D01*
X86594208Y-37388590D01*
X86578110Y-37401487D01*
X86530096Y-37452616D01*
X86527392Y-37455407D01*
X86510628Y-37472171D01*
X86510621Y-37472178D01*
X86507880Y-37474920D01*
X86505499Y-37477988D01*
X86505490Y-37477999D01*
X86505411Y-37478102D01*
X86497842Y-37486963D01*
X86467935Y-37518811D01*
X86458285Y-37536365D01*
X86447609Y-37552619D01*
X86435326Y-37568454D01*
X86417975Y-37608549D01*
X86412838Y-37619035D01*
X86391802Y-37657298D01*
X86386821Y-37676700D01*
X86380520Y-37695102D01*
X86372561Y-37713493D01*
X86365728Y-37756633D01*
X86363360Y-37768065D01*
X86352499Y-37810368D01*
X86352500Y-37830407D01*
X86350973Y-37849805D01*
X86348075Y-37868106D01*
X86347840Y-37869587D01*
X86349817Y-37890499D01*
X86351950Y-37913064D01*
X86352500Y-37924734D01*
X86352500Y-72773500D01*
X86332815Y-72840539D01*
X86280011Y-72886294D01*
X86228500Y-72897500D01*
X85533439Y-72897500D01*
X85533420Y-72897500D01*
X85530128Y-72897501D01*
X85526848Y-72897853D01*
X85526840Y-72897854D01*
X85470515Y-72903909D01*
X85335669Y-72954204D01*
X85220454Y-73040454D01*
X85134204Y-73155668D01*
X85083910Y-73290515D01*
X85083909Y-73290517D01*
X85077500Y-73350127D01*
X85077500Y-73353448D01*
X85077500Y-73353449D01*
X85077500Y-75642560D01*
X85077500Y-75642578D01*
X84582000Y-75642578D01*
X84582000Y-19174000D01*
X84601685Y-19106961D01*
X84654489Y-19061206D01*
X84706000Y-19050000D01*
X139322000Y-19050000D01*
X139389039Y-19069685D01*
G37*
%TD.AperFunction*%
%TD*%
%TA.AperFunction,NonConductor*%
G36*
X108870147Y-34543811D02*
G01*
X108903117Y-34567408D01*
X110206224Y-35870515D01*
X110239709Y-35931838D01*
X110234725Y-36001530D01*
X110217612Y-36028231D01*
X110219727Y-36029712D01*
X110129778Y-36158174D01*
X110106188Y-36191865D01*
X110078349Y-36231623D01*
X110023773Y-36275248D01*
X109976774Y-36284500D01*
X109027926Y-36284500D01*
X108960887Y-36264815D01*
X108915132Y-36212011D01*
X108911744Y-36203834D01*
X108903398Y-36181457D01*
X108890796Y-36147669D01*
X108804546Y-36032454D01*
X108689331Y-35946204D01*
X108554483Y-35895909D01*
X108494873Y-35889500D01*
X108491550Y-35889500D01*
X107402439Y-35889500D01*
X107402420Y-35889500D01*
X107399128Y-35889501D01*
X107395848Y-35889853D01*
X107395840Y-35889854D01*
X107339515Y-35895909D01*
X107204669Y-35946204D01*
X107089454Y-36032454D01*
X107003204Y-36147669D01*
X106982256Y-36203834D01*
X106940384Y-36259767D01*
X106874920Y-36284184D01*
X106866074Y-36284500D01*
X106395511Y-36284500D01*
X106328472Y-36264815D01*
X106282717Y-36212011D01*
X106272773Y-36142853D01*
X106301798Y-36079297D01*
X106322626Y-36060182D01*
X106413870Y-35993889D01*
X106442315Y-35962298D01*
X106540533Y-35853216D01*
X106575938Y-35791892D01*
X106610229Y-35732500D01*
X106660796Y-35684284D01*
X106717616Y-35670500D01*
X106893648Y-35670500D01*
X107017084Y-35644262D01*
X107078803Y-35631144D01*
X107251730Y-35554151D01*
X107404871Y-35442888D01*
X107493616Y-35344326D01*
X107553100Y-35307680D01*
X107611545Y-35306010D01*
X107717352Y-35328500D01*
X107717354Y-35328500D01*
X107906648Y-35328500D01*
X108030304Y-35302216D01*
X108091803Y-35289144D01*
X108264730Y-35212151D01*
X108417871Y-35100888D01*
X108544533Y-34960216D01*
X108639179Y-34796284D01*
X108697507Y-34616768D01*
X108736942Y-34559096D01*
X108801300Y-34531897D01*
X108870147Y-34543811D01*
G37*
%TD.AperFunction*%
%TA.AperFunction,NonConductor*%
G36*
X100675087Y-56603685D02*
G01*
X100695729Y-56620319D01*
X101101196Y-57025787D01*
X101114096Y-57041888D01*
X101165223Y-57089900D01*
X101168020Y-57092611D01*
X101187529Y-57112120D01*
X101190709Y-57114587D01*
X101199576Y-57122161D01*
X101202652Y-57125050D01*
X101202769Y-57125159D01*
X101238155Y-57185405D01*
X101235353Y-57255218D01*
X101195252Y-57312434D01*
X101130584Y-57338887D01*
X101122434Y-57339456D01*
X100541672Y-57360834D01*
X100347000Y-57368000D01*
X100346999Y-57368000D01*
X100345238Y-57368065D01*
X100277520Y-57350860D01*
X100229854Y-57299775D01*
X100217373Y-57231029D01*
X100233945Y-57181028D01*
X100242588Y-57166414D01*
X100292869Y-57081393D01*
X100337665Y-56927204D01*
X100340500Y-56891181D01*
X100340499Y-56707999D01*
X100360183Y-56640961D01*
X100412987Y-56595206D01*
X100464499Y-56584000D01*
X100608048Y-56584000D01*
X100675087Y-56603685D01*
G37*
%TD.AperFunction*%
M02*
