%TF.GenerationSoftware,KiCad,Pcbnew,7.0.2-0*%
%TF.CreationDate,2023-06-05T11:27:31+02:00*%
%TF.ProjectId,Quest_EMG,51756573-745f-4454-9d47-2e6b69636164,rev?*%
%TF.SameCoordinates,Original*%
%TF.FileFunction,Soldermask,Top*%
%TF.FilePolarity,Negative*%
%FSLAX46Y46*%
G04 Gerber Fmt 4.6, Leading zero omitted, Abs format (unit mm)*
G04 Created by KiCad (PCBNEW 7.0.2-0) date 2023-06-05 11:27:31*
%MOMM*%
%LPD*%
G01*
G04 APERTURE LIST*
G04 Aperture macros list*
%AMRoundRect*
0 Rectangle with rounded corners*
0 $1 Rounding radius*
0 $2 $3 $4 $5 $6 $7 $8 $9 X,Y pos of 4 corners*
0 Add a 4 corners polygon primitive as box body*
4,1,4,$2,$3,$4,$5,$6,$7,$8,$9,$2,$3,0*
0 Add four circle primitives for the rounded corners*
1,1,$1+$1,$2,$3*
1,1,$1+$1,$4,$5*
1,1,$1+$1,$6,$7*
1,1,$1+$1,$8,$9*
0 Add four rect primitives between the rounded corners*
20,1,$1+$1,$2,$3,$4,$5,0*
20,1,$1+$1,$4,$5,$6,$7,0*
20,1,$1+$1,$6,$7,$8,$9,0*
20,1,$1+$1,$8,$9,$2,$3,0*%
G04 Aperture macros list end*
%ADD10C,1.500000*%
%ADD11RoundRect,0.135000X-0.185000X0.135000X-0.185000X-0.135000X0.185000X-0.135000X0.185000X0.135000X0*%
%ADD12O,1.450000X0.599999*%
%ADD13RoundRect,0.147500X0.172500X-0.147500X0.172500X0.147500X-0.172500X0.147500X-0.172500X-0.147500X0*%
%ADD14RoundRect,0.135000X-0.135000X-0.185000X0.135000X-0.185000X0.135000X0.185000X-0.135000X0.185000X0*%
%ADD15RoundRect,0.140000X-0.140000X-0.170000X0.140000X-0.170000X0.140000X0.170000X-0.140000X0.170000X0*%
%ADD16RoundRect,0.100000X0.100000X-0.712500X0.100000X0.712500X-0.100000X0.712500X-0.100000X-0.712500X0*%
%ADD17R,1.700000X1.700000*%
%ADD18O,1.700000X1.700000*%
%ADD19RoundRect,0.135000X0.185000X-0.135000X0.185000X0.135000X-0.185000X0.135000X-0.185000X-0.135000X0*%
%ADD20RoundRect,0.135000X0.135000X0.185000X-0.135000X0.185000X-0.135000X-0.185000X0.135000X-0.185000X0*%
%ADD21RoundRect,0.140000X0.170000X-0.140000X0.170000X0.140000X-0.170000X0.140000X-0.170000X-0.140000X0*%
%ADD22R,1.400000X0.300000*%
%ADD23O,3.500000X3.500000*%
%ADD24R,1.905000X2.000000*%
%ADD25O,1.905000X2.000000*%
%ADD26C,1.700000*%
%ADD27R,2.800000X2.200000*%
%ADD28R,2.800000X2.800000*%
%ADD29RoundRect,0.140000X0.140000X0.170000X-0.140000X0.170000X-0.140000X-0.170000X0.140000X-0.170000X0*%
%ADD30R,0.850000X0.850000*%
%ADD31O,0.850000X0.850000*%
%ADD32R,1.000000X1.000000*%
%ADD33RoundRect,0.147500X-0.172500X0.147500X-0.172500X-0.147500X0.172500X-0.147500X0.172500X0.147500X0*%
G04 APERTURE END LIST*
D10*
%TO.C,FID1*%
X98181000Y-36843000D03*
%TD*%
D11*
%TO.C,R9*%
X92242000Y-41242000D03*
X92242000Y-42262000D03*
%TD*%
D12*
%TO.C,U2*%
X88714999Y-58039000D03*
X88714999Y-59309000D03*
X88714999Y-60579000D03*
X88714999Y-61849000D03*
X94164998Y-61849000D03*
X94164998Y-60579000D03*
X94164998Y-59309000D03*
X94164998Y-58039000D03*
%TD*%
D13*
%TO.C,D2*%
X112506000Y-76095500D03*
X112506000Y-75125500D03*
%TD*%
D14*
%TO.C,R11*%
X88791000Y-36883000D03*
X89811000Y-36883000D03*
%TD*%
D15*
%TO.C,C12*%
X106368000Y-53137000D03*
X107328000Y-53137000D03*
%TD*%
D16*
%TO.C,U1*%
X88972000Y-43878000D03*
X89622000Y-43878000D03*
X90272000Y-43878000D03*
X90922000Y-43878000D03*
X90922000Y-39653000D03*
X90272000Y-39653000D03*
X89622000Y-39653000D03*
X88972000Y-39653000D03*
%TD*%
D15*
%TO.C,C7*%
X89201000Y-54184000D03*
X90161000Y-54184000D03*
%TD*%
D17*
%TO.C,J1*%
X136350000Y-67310000D03*
D18*
X136350000Y-64770000D03*
X136350000Y-62230000D03*
X136350000Y-59690000D03*
X136350000Y-57150000D03*
X136350000Y-54610000D03*
X136350000Y-52070000D03*
X136350000Y-49530000D03*
X136350000Y-46990000D03*
X136350000Y-44450000D03*
X136350000Y-41910000D03*
X136350000Y-39370000D03*
X136350000Y-36830000D03*
X136350000Y-34290000D03*
X136350000Y-31750000D03*
X136350000Y-29210000D03*
X136350000Y-26670000D03*
X136350000Y-24130000D03*
X136350000Y-21590000D03*
%TD*%
D19*
%TO.C,R25*%
X104807000Y-49493000D03*
X104807000Y-48473000D03*
%TD*%
D20*
%TO.C,R31*%
X102286000Y-54153000D03*
X101266000Y-54153000D03*
%TD*%
D21*
%TO.C,C14*%
X115432000Y-76154000D03*
X115432000Y-75194000D03*
%TD*%
D22*
%TO.C,IC1*%
X89209000Y-50828000D03*
X89209000Y-51328000D03*
X89209000Y-51828000D03*
X89209000Y-52328000D03*
X89209000Y-52828000D03*
X93609000Y-52828000D03*
X93609000Y-52328000D03*
X93609000Y-51828000D03*
X93609000Y-51328000D03*
X93609000Y-50828000D03*
%TD*%
D14*
%TO.C,R10*%
X89811000Y-37996000D03*
X90831000Y-37996000D03*
%TD*%
D15*
%TO.C,C11*%
X95700000Y-51897000D03*
X96660000Y-51897000D03*
%TD*%
D20*
%TO.C,R16*%
X90164000Y-48592000D03*
X89144000Y-48592000D03*
%TD*%
D19*
%TO.C,R12*%
X92657000Y-55165000D03*
X92657000Y-54145000D03*
%TD*%
D23*
%TO.C,U4*%
X120089000Y-51959000D03*
D24*
X117549000Y-67759000D03*
D25*
X120089000Y-67759000D03*
X122629000Y-67759000D03*
%TD*%
D26*
%TO.C,J3*%
X102616000Y-75398000D03*
X102616000Y-68398000D03*
D27*
X98916000Y-74498000D03*
X106316000Y-76498000D03*
D28*
X106316000Y-67098000D03*
%TD*%
D11*
%TO.C,R15*%
X105565000Y-54501000D03*
X105565000Y-55521000D03*
%TD*%
%TO.C,R14*%
X91569000Y-54127000D03*
X91569000Y-55147000D03*
%TD*%
D29*
%TO.C,C16*%
X122609000Y-69598000D03*
X121649000Y-69598000D03*
%TD*%
D15*
%TO.C,C4*%
X98889000Y-63242000D03*
X99849000Y-63242000D03*
%TD*%
D14*
%TO.C,R8*%
X104646000Y-56642000D03*
X105666000Y-56642000D03*
%TD*%
D19*
%TO.C,R13*%
X104489000Y-55506000D03*
X104489000Y-54486000D03*
%TD*%
D30*
%TO.C,BT2*%
X124019000Y-77675000D03*
D31*
X123019000Y-77675000D03*
%TD*%
D19*
%TO.C,R24*%
X93286000Y-49515000D03*
X93286000Y-48495000D03*
%TD*%
D14*
%TO.C,R28*%
X101260000Y-55212000D03*
X102280000Y-55212000D03*
%TD*%
D30*
%TO.C,BT3*%
X120868000Y-77664000D03*
D31*
X119868000Y-77664000D03*
%TD*%
D29*
%TO.C,C5*%
X88826000Y-37969000D03*
X87866000Y-37969000D03*
%TD*%
D32*
%TO.C,TP2*%
X108391000Y-49243000D03*
%TD*%
D30*
%TO.C,J5*%
X86724000Y-30657000D03*
D31*
X86724000Y-29657000D03*
X86724000Y-28657000D03*
X86724000Y-27657000D03*
X86724000Y-26657000D03*
X86724000Y-25657000D03*
X86724000Y-24657000D03*
X86724000Y-23657000D03*
X86724000Y-22657000D03*
X86724000Y-21657000D03*
%TD*%
D10*
%TO.C,FID2*%
X130994000Y-24529000D03*
%TD*%
D20*
%TO.C,R23*%
X107342000Y-52089000D03*
X106322000Y-52089000D03*
%TD*%
D17*
%TO.C,J2*%
X111252000Y-21670000D03*
D18*
X111252000Y-24210000D03*
X111252000Y-26750000D03*
X111252000Y-29290000D03*
X111252000Y-31830000D03*
X111252000Y-34370000D03*
X111252000Y-36910000D03*
X111252000Y-39450000D03*
X111252000Y-41990000D03*
X111252000Y-44530000D03*
X111252000Y-47070000D03*
X111252000Y-49610000D03*
X111252000Y-52150000D03*
X111252000Y-54690000D03*
X111252000Y-57230000D03*
X111252000Y-59770000D03*
X111252000Y-62310000D03*
X111252000Y-64850000D03*
X111252000Y-67390000D03*
%TD*%
D14*
%TO.C,R5*%
X98550000Y-56642000D03*
X99570000Y-56642000D03*
%TD*%
D15*
%TO.C,C2*%
X88166000Y-63246000D03*
X89126000Y-63246000D03*
%TD*%
D14*
%TO.C,R29*%
X105840000Y-48506000D03*
X106860000Y-48506000D03*
%TD*%
%TO.C,R4*%
X93978000Y-56642000D03*
X94998000Y-56642000D03*
%TD*%
D20*
%TO.C,R17*%
X101545000Y-48503000D03*
X100525000Y-48503000D03*
%TD*%
D15*
%TO.C,C8*%
X99355000Y-54152000D03*
X100315000Y-54152000D03*
%TD*%
D14*
%TO.C,R19*%
X106322000Y-51039000D03*
X107342000Y-51039000D03*
%TD*%
D11*
%TO.C,R30*%
X95993000Y-54228000D03*
X95993000Y-55248000D03*
%TD*%
D12*
%TO.C,U3*%
X99382999Y-58039000D03*
X99382999Y-59309000D03*
X99382999Y-60579000D03*
X99382999Y-61849000D03*
X104832998Y-61849000D03*
X104832998Y-60579000D03*
X104832998Y-59309000D03*
X104832998Y-58039000D03*
%TD*%
D22*
%TO.C,IC2*%
X99908000Y-50816000D03*
X99908000Y-51316000D03*
X99908000Y-51816000D03*
X99908000Y-52316000D03*
X99908000Y-52816000D03*
X104308000Y-52816000D03*
X104308000Y-52316000D03*
X104308000Y-51816000D03*
X104308000Y-51316000D03*
X104308000Y-50816000D03*
%TD*%
D30*
%TO.C,BT1*%
X116502000Y-77648000D03*
D31*
X115502000Y-77648000D03*
%TD*%
D30*
%TO.C,BT4*%
X113440000Y-77651000D03*
D31*
X112440000Y-77651000D03*
%TD*%
D32*
%TO.C,TP3*%
X107947000Y-36890000D03*
%TD*%
D19*
%TO.C,R21*%
X102626000Y-49522000D03*
X102626000Y-48502000D03*
%TD*%
D20*
%TO.C,R22*%
X96706000Y-52946000D03*
X95686000Y-52946000D03*
%TD*%
D14*
%TO.C,R27*%
X94325000Y-48485000D03*
X95345000Y-48485000D03*
%TD*%
D19*
%TO.C,R26*%
X94881000Y-55270000D03*
X94881000Y-54250000D03*
%TD*%
D21*
%TO.C,C1*%
X95758000Y-60170000D03*
X95758000Y-59210000D03*
%TD*%
D33*
%TO.C,D1*%
X124058000Y-75149000D03*
X124058000Y-76119000D03*
%TD*%
D14*
%TO.C,R18*%
X95659000Y-50833000D03*
X96679000Y-50833000D03*
%TD*%
D32*
%TO.C,TP1*%
X97329000Y-61597000D03*
%TD*%
D15*
%TO.C,C6*%
X91139000Y-45523000D03*
X92099000Y-45523000D03*
%TD*%
D21*
%TO.C,C13*%
X120940000Y-76164000D03*
X120940000Y-75204000D03*
%TD*%
D15*
%TO.C,C15*%
X117541000Y-69776000D03*
X118501000Y-69776000D03*
%TD*%
D26*
%TO.C,J4*%
X90678000Y-75398000D03*
X90678000Y-68398000D03*
D27*
X86978000Y-74498000D03*
X94378000Y-76498000D03*
D28*
X94378000Y-67098000D03*
%TD*%
D32*
%TO.C,TP4*%
X107948000Y-39492000D03*
%TD*%
D21*
%TO.C,C3*%
X106426000Y-60396000D03*
X106426000Y-59436000D03*
%TD*%
D10*
%TO.C,FID3*%
X109655000Y-72803000D03*
%TD*%
D21*
%TO.C,C9*%
X92215000Y-49499000D03*
X92215000Y-48539000D03*
%TD*%
%TO.C,C10*%
X103738000Y-49484000D03*
X103738000Y-48524000D03*
%TD*%
D19*
%TO.C,R20*%
X91178000Y-49519000D03*
X91178000Y-48499000D03*
%TD*%
D14*
%TO.C,R1*%
X87880000Y-56642000D03*
X88900000Y-56642000D03*
%TD*%
M02*
