M48
; DRILL file {KiCad 7.0.2-0} date 2023 May 30, Tuesday 13:58:47
; FORMAT={-:-/ absolute / inch / decimal}
; #@! TF.CreationDate,2023-05-30T13:58:47+02:00
; #@! TF.GenerationSoftware,Kicad,Pcbnew,7.0.2-0
; #@! TF.FileFunction,Plated,1,2,PTH
FMAT,2
INCH
; #@! TA.AperFunction,Plated,PTH,ViaDrill
T1C0.0157
; #@! TA.AperFunction,Plated,PTH,ComponentDrill
T2C0.0197
; #@! TA.AperFunction,Plated,PTH,ComponentDrill
T3C0.0394
; #@! TA.AperFunction,Plated,PTH,ComponentDrill
T4C0.0472
%
G90
G05
T1
X3.4185Y-1.3932
X3.4541Y-2.1365
X3.4594Y-1.545
X3.4736Y-3.0701
X3.4924Y-2.8203
X3.4952Y-2.7019
X3.4965Y-2.5293
X3.5031Y-1.641
X3.5429Y-2.1672
X3.547Y-1.0488
X3.5505Y-0.8913
X3.5609Y-2.4902
X3.562Y-1.2748
X3.5674Y-2.8968
X3.5761Y-2.8087
X3.5987Y-2.0712
X3.607Y-2.2848
X3.6253Y-2.3363
X3.6259Y-1.8519
X3.6274Y-1.985
X3.6296Y-2.5669
X3.6628Y-2.904
X3.6642Y-2.8217
X3.6669Y-1.4115
X3.6714Y-2.7466
X3.6917Y-2.1725
X3.7051Y-2.1074
X3.7122Y-1.9493
X3.7259Y-2.7615
X3.7335Y-2.9127
X3.7393Y-2.8419
X3.7697Y-2.44
X3.7839Y-1.7487
X3.7963Y-2.2789
X3.7991Y-1.5515
X3.8075Y-1.2719
X3.8353Y-2.1949
X3.8495Y-2.4971
X3.8534Y-2.6441
X3.8605Y-2.8125
X3.8857Y-1.8656
X3.9476Y-2.1746
X3.9559Y-2.7394
X3.9588Y-2.8347
X3.9617Y-3.073
X3.979Y-2.5921
X3.9918Y-1.4129
X3.9963Y-2.0883
X3.9991Y-2.0286
X4.0265Y-1.7465
X4.031Y-2.8824
X4.0532Y-2.0717
X4.0593Y-1.9815
X4.0599Y-2.5878
X4.0624Y-0.987
X4.0691Y-2.1826
X4.0817Y-2.106
X4.0871Y-1.844
X4.0873Y-3.0773
X4.1281Y-1.4166
X4.1413Y-1.6339
X4.1657Y-1.3906
X4.167Y-1.9589
X4.1688Y-0.9111
X4.1868Y-2.2769
X4.1983Y-2.1659
X4.2047Y-1.3689
X4.2072Y-2.7481
X4.2187Y-2.8491
X4.2192Y-2.3967
X4.2274Y-2.4722
X4.2446Y-1.3554
X4.2648Y-1.8288
X4.2713Y-1.1969
X4.2742Y-1.0469
X4.2785Y-0.9082
X4.2927Y-1.7359
X4.3054Y-3.073
X4.3083Y-3.0022
X4.4137Y-2.7509
X4.4293Y-2.9301
X4.4758Y-2.8289
X4.4787Y-2.712
X4.4995Y-0.8696
X4.4995Y-1.044
X4.4995Y-1.1884
X4.5067Y-1.5523
X4.5137Y-1.4539
X4.5276Y-1.7939
X4.5298Y-1.6534
X4.5379Y-2.7711
X4.6072Y-2.9112
X4.6086Y-2.8491
X4.628Y-1.1844
X4.6396Y-0.8595
X4.6454Y-1.04
X4.6982Y-2.9026
X4.701Y-1.4602
X4.7042Y-1.5554
X4.7355Y-1.7874
X4.7724Y-1.0472
X4.7826Y-0.8624
X4.7912Y-1.1815
X4.8388Y-2.9586
X4.8403Y-1.6505
X4.9704Y-1.443
X4.9739Y-1.5523
X4.9746Y-1.1916
X4.9804Y-1.0559
X4.9819Y-0.8826
X4.9868Y-1.7982
X4.9933Y-1.991
X4.9933Y-3.0657
X5.0001Y-2.851
X5.0019Y-2.1708
X5.0041Y-2.3571
X5.0063Y-2.5434
X5.0084Y-2.7015
X5.1384Y-2.6972
X5.1426Y-2.8356
X5.1449Y-2.5499
X5.1465Y-1.2003
X5.147Y-1.9845
X5.147Y-2.1708
X5.1493Y-1.0645
X5.1514Y-2.3701
X5.1956Y-1.6736
X5.204Y-1.7848
X5.2256Y-1.5971
X5.2329Y-1.5307
X5.2331Y-1.3704
X5.2597Y-2.3679
X5.264Y-2.695
X5.2658Y-2.828
X5.2662Y-2.1643
X5.2705Y-2.5629
X5.2733Y-1.9249
X5.3611Y-3.0195
X5.4237Y-2.8308
X6.0212Y-1.876
T2
X3.4143Y-0.8526
X3.4143Y-0.892
X3.4143Y-0.9314
X3.4143Y-0.9707
X3.4143Y-1.0101
X3.4143Y-1.0495
X3.4143Y-1.0889
X3.4143Y-1.1282
X3.4143Y-1.1676
X3.4143Y-1.207
X4.4268Y-3.0571
X4.4661Y-3.0571
X4.5473Y-3.057
X4.5867Y-3.057
X4.7192Y-3.0576
X4.7586Y-3.0576
X4.8433Y-3.0581
X4.8826Y-3.0581
T3
X4.38Y-0.8531
X4.38Y-0.9531
X4.38Y-1.0531
X4.38Y-1.1531
X4.38Y-1.2531
X4.38Y-1.3531
X4.38Y-1.4531
X4.38Y-1.5531
X4.38Y-1.6531
X4.38Y-1.7531
X4.38Y-1.8531
X4.38Y-1.9531
X4.38Y-2.0531
X4.38Y-2.1531
X4.38Y-2.2531
X4.38Y-2.3531
X4.38Y-2.4531
X4.38Y-2.5531
X4.38Y-2.6531
X5.3681Y-0.85
X5.3681Y-0.95
X5.3681Y-1.05
X5.3681Y-1.15
X5.3681Y-1.25
X5.3681Y-1.35
X5.3681Y-1.45
X5.3681Y-1.55
X5.3681Y-1.65
X5.3681Y-1.75
X5.3681Y-1.85
X5.3681Y-1.95
X5.3681Y-2.05
X5.3681Y-2.15
X5.3681Y-2.25
X5.3681Y-2.35
X5.3681Y-2.45
X5.3681Y-2.55
X5.3681Y-2.65
T4
X4.6279Y-2.6677
X4.7279Y-2.6677
X4.8279Y-2.6677
T0
M30
