%TF.GenerationSoftware,KiCad,Pcbnew,7.0.2-0*%
%TF.CreationDate,2023-05-30T13:58:50+02:00*%
%TF.ProjectId,Quest_EMG,51756573-745f-4454-9d47-2e6b69636164,rev?*%
%TF.SameCoordinates,Original*%
%TF.FileFunction,Copper,L2,Bot*%
%TF.FilePolarity,Positive*%
%FSLAX46Y46*%
G04 Gerber Fmt 4.6, Leading zero omitted, Abs format (unit mm)*
G04 Created by KiCad (PCBNEW 7.0.2-0) date 2023-05-30 13:58:50*
%MOMM*%
%LPD*%
G01*
G04 APERTURE LIST*
%TA.AperFunction,ComponentPad*%
%ADD10R,1.700000X1.700000*%
%TD*%
%TA.AperFunction,ComponentPad*%
%ADD11O,1.700000X1.700000*%
%TD*%
%TA.AperFunction,ComponentPad*%
%ADD12R,1.905000X2.000000*%
%TD*%
%TA.AperFunction,ComponentPad*%
%ADD13O,1.905000X2.000000*%
%TD*%
%TA.AperFunction,ComponentPad*%
%ADD14R,0.850000X0.850000*%
%TD*%
%TA.AperFunction,ComponentPad*%
%ADD15O,0.850000X0.850000*%
%TD*%
%TA.AperFunction,ViaPad*%
%ADD16C,0.800000*%
%TD*%
%TA.AperFunction,Conductor*%
%ADD17C,0.250000*%
%TD*%
G04 APERTURE END LIST*
D10*
%TO.P,J1,1,Pin_1*%
%TO.N,/Bluetooth ESP/CLK*%
X136350000Y-67310000D03*
D11*
%TO.P,J1,2,Pin_2*%
%TO.N,/Bluetooth ESP/D0*%
X136350000Y-64770000D03*
%TO.P,J1,3,Pin_3*%
%TO.N,/Bluetooth ESP/D1*%
X136350000Y-62230000D03*
%TO.P,J1,4,Pin_4*%
%TO.N,unconnected-(J1-Pin_4-Pad4)*%
X136350000Y-59690000D03*
%TO.P,J1,5,Pin_5*%
%TO.N,/Bluetooth ESP/2*%
X136350000Y-57150000D03*
%TO.P,J1,6,Pin_6*%
%TO.N,/Bluetooth ESP/0*%
X136350000Y-54610000D03*
%TO.P,J1,7,Pin_7*%
%TO.N,/Bluetooth ESP/4*%
X136350000Y-52070000D03*
%TO.P,J1,8,Pin_8*%
%TO.N,/Bluetooth ESP/16*%
X136350000Y-49530000D03*
%TO.P,J1,9,Pin_9*%
%TO.N,/Bluetooth ESP/17*%
X136350000Y-46990000D03*
%TO.P,J1,10,Pin_10*%
%TO.N,/Bluetooth ESP/5*%
X136350000Y-44450000D03*
%TO.P,J1,11,Pin_11*%
%TO.N,/Bluetooth ESP/18*%
X136350000Y-41910000D03*
%TO.P,J1,12,Pin_12*%
%TO.N,/Bluetooth ESP/19*%
X136350000Y-39370000D03*
%TO.P,J1,13,Pin_13*%
%TO.N,GND*%
X136350000Y-36830000D03*
%TO.P,J1,14,Pin_14*%
%TO.N,/Bluetooth ESP/21*%
X136350000Y-34290000D03*
%TO.P,J1,15,Pin_15*%
%TO.N,/Bluetooth ESP/RX*%
X136350000Y-31750000D03*
%TO.P,J1,16,Pin_16*%
%TO.N,/Bluetooth ESP/TX*%
X136350000Y-29210000D03*
%TO.P,J1,17,Pin_17*%
%TO.N,/Bluetooth ESP/22*%
X136350000Y-26670000D03*
%TO.P,J1,18,Pin_18*%
%TO.N,/Bluetooth ESP/23*%
X136350000Y-24130000D03*
%TO.P,J1,19,Pin_19*%
%TO.N,GND*%
X136350000Y-21590000D03*
%TD*%
D12*
%TO.P,U4,1,IN*%
%TO.N,+9V*%
X117549000Y-67759000D03*
D13*
%TO.P,U4,2,GND*%
%TO.N,GND*%
X120089000Y-67759000D03*
%TO.P,U4,3,OUT*%
%TO.N,+5V*%
X122629000Y-67759000D03*
%TD*%
D14*
%TO.P,BT2,1,+*%
%TO.N,Net-(BT2-+)*%
X124019000Y-77675000D03*
D15*
%TO.P,BT2,2,-*%
%TO.N,Net-(BT2--)*%
X123019000Y-77675000D03*
%TD*%
D14*
%TO.P,BT3,1,+*%
%TO.N,Net-(BT2--)*%
X120868000Y-77664000D03*
D15*
%TO.P,BT3,2,-*%
%TO.N,GND*%
X119868000Y-77664000D03*
%TD*%
D14*
%TO.P,J5,1,Pin_1*%
%TO.N,/Bluetooth ESP/16*%
X86724000Y-30657000D03*
D15*
%TO.P,J5,2,Pin_2*%
%TO.N,/Bluetooth ESP/17*%
X86724000Y-29657000D03*
%TO.P,J5,3,Pin_3*%
%TO.N,/Bluetooth ESP/18*%
X86724000Y-28657000D03*
%TO.P,J5,4,Pin_4*%
%TO.N,/Bluetooth ESP/19*%
X86724000Y-27657000D03*
%TO.P,J5,5,Pin_5*%
%TO.N,GND*%
X86724000Y-26657000D03*
%TO.P,J5,6,Pin_6*%
%TO.N,/Bluetooth ESP/22*%
X86724000Y-25657000D03*
%TO.P,J5,7,Pin_7*%
%TO.N,/Bluetooth ESP/35*%
X86724000Y-24657000D03*
%TO.P,J5,8,Pin_8*%
%TO.N,/Bluetooth ESP/34*%
X86724000Y-23657000D03*
%TO.P,J5,9,Pin_9*%
%TO.N,GND*%
X86724000Y-22657000D03*
%TO.P,J5,10,Pin_10*%
%TO.N,/Bluetooth ESP/3V3*%
X86724000Y-21657000D03*
%TD*%
D10*
%TO.P,J2,1,Pin_1*%
%TO.N,/Bluetooth ESP/3V3*%
X111252000Y-21670000D03*
D11*
%TO.P,J2,2,Pin_2*%
%TO.N,/Bluetooth ESP/EN*%
X111252000Y-24210000D03*
%TO.P,J2,3,Pin_3*%
%TO.N,/Bluetooth ESP/VP*%
X111252000Y-26750000D03*
%TO.P,J2,4,Pin_4*%
%TO.N,/Bluetooth ESP/VN*%
X111252000Y-29290000D03*
%TO.P,J2,5,Pin_5*%
%TO.N,/Bluetooth ESP/34*%
X111252000Y-31830000D03*
%TO.P,J2,6,Pin_6*%
%TO.N,/Bluetooth ESP/35*%
X111252000Y-34370000D03*
%TO.P,J2,7,Pin_7*%
%TO.N,32*%
X111252000Y-36910000D03*
%TO.P,J2,8,Pin_8*%
%TO.N,33*%
X111252000Y-39450000D03*
%TO.P,J2,9,Pin_9*%
%TO.N,/Bluetooth ESP/25*%
X111252000Y-41990000D03*
%TO.P,J2,10,Pin_10*%
%TO.N,/Bluetooth ESP/26*%
X111252000Y-44530000D03*
%TO.P,J2,11,Pin_11*%
%TO.N,/Bluetooth ESP/27*%
X111252000Y-47070000D03*
%TO.P,J2,12,Pin_12*%
%TO.N,/Bluetooth ESP/14*%
X111252000Y-49610000D03*
%TO.P,J2,13,Pin_13*%
%TO.N,/Bluetooth ESP/12*%
X111252000Y-52150000D03*
%TO.P,J2,14,Pin_14*%
%TO.N,unconnected-(J2-Pin_14-Pad14)*%
X111252000Y-54690000D03*
%TO.P,J2,15,Pin_15*%
%TO.N,/Bluetooth ESP/13*%
X111252000Y-57230000D03*
%TO.P,J2,16,Pin_16*%
%TO.N,/Bluetooth ESP/D2*%
X111252000Y-59770000D03*
%TO.P,J2,17,Pin_17*%
%TO.N,/Bluetooth ESP/D3*%
X111252000Y-62310000D03*
%TO.P,J2,18,Pin_18*%
%TO.N,/Bluetooth ESP/CMD*%
X111252000Y-64850000D03*
%TO.P,J2,19,Pin_19*%
%TO.N,+5V*%
X111252000Y-67390000D03*
%TD*%
D14*
%TO.P,BT1,1,+*%
%TO.N,GND*%
X116502000Y-77648000D03*
D15*
%TO.P,BT1,2,-*%
%TO.N,Net-(BT1--)*%
X115502000Y-77648000D03*
%TD*%
D14*
%TO.P,BT4,1,+*%
%TO.N,Net-(BT1--)*%
X113440000Y-77651000D03*
D15*
%TO.P,BT4,2,-*%
%TO.N,Net-(BT4--)*%
X112440000Y-77651000D03*
%TD*%
D16*
%TO.N,*%
X152938000Y-47650000D03*
%TO.N,GND*%
X136173000Y-76696000D03*
X133761000Y-54973000D03*
X108675000Y-23069000D03*
X121220000Y-26599000D03*
X102388000Y-73212000D03*
X127104000Y-59870000D03*
X105189000Y-41500000D03*
X100627000Y-78053000D03*
X96111000Y-44416000D03*
X94831000Y-73982000D03*
X133871000Y-65097000D03*
X119486000Y-39508000D03*
X90833000Y-71341000D03*
X130735000Y-50407000D03*
X133596000Y-60145000D03*
X130680000Y-64767000D03*
X108565000Y-26591000D03*
X119405000Y-37090000D03*
X88706000Y-71635000D03*
X114287000Y-22088000D03*
X96496000Y-39409000D03*
X103185000Y-25070000D03*
X130515000Y-68508000D03*
X109034000Y-44093000D03*
X130845000Y-60200000D03*
X100480000Y-69580000D03*
X100554000Y-72001000D03*
X114649000Y-36929000D03*
X127214000Y-68618000D03*
X122943000Y-41923000D03*
X126831000Y-77870000D03*
X106862000Y-69801000D03*
X117023000Y-73945000D03*
X107168000Y-60877000D03*
X93254000Y-69764000D03*
X114287000Y-26517000D03*
X87868000Y-39243000D03*
X126248000Y-36651000D03*
X130735000Y-55138000D03*
X126337000Y-39428000D03*
X121697000Y-30010000D03*
X93071000Y-71671000D03*
X105887000Y-23143000D03*
X137762000Y-71903000D03*
X130793000Y-27039000D03*
X97876000Y-67160000D03*
X107156000Y-72368000D03*
X86831000Y-35387000D03*
X103813000Y-46837000D03*
X109430000Y-76256000D03*
X114470000Y-39429000D03*
X115000000Y-45565000D03*
X117552000Y-30084000D03*
X96710000Y-32306000D03*
X126539000Y-22418000D03*
X112108000Y-69874000D03*
X117845000Y-21831000D03*
X131967000Y-42510000D03*
X117059000Y-72368000D03*
X93034000Y-73762000D03*
X90474000Y-32379000D03*
X89989000Y-55048000D03*
X127159000Y-64602000D03*
X90095000Y-26639000D03*
X117992000Y-26416000D03*
X132920000Y-34807000D03*
X115057000Y-41996000D03*
X130622000Y-72025000D03*
X91619000Y-58035000D03*
X102273000Y-44361000D03*
X101392000Y-35888000D03*
X120282000Y-45400000D03*
X113758000Y-68884000D03*
X101067000Y-65839000D03*
X108492000Y-30400000D03*
X94978000Y-72185000D03*
X113685000Y-71855000D03*
X119334000Y-73725000D03*
X95750000Y-61975000D03*
X103818000Y-78164000D03*
X109357000Y-78053000D03*
X126829000Y-50572000D03*
X92193000Y-65198000D03*
X108325000Y-46452000D03*
X115262000Y-70387000D03*
X126355000Y-30267000D03*
X127049000Y-55138000D03*
X96427000Y-57883000D03*
X98696000Y-47387000D03*
X133706000Y-68453000D03*
X130720000Y-30487000D03*
X90446000Y-63250000D03*
X127003000Y-72416000D03*
X126502000Y-26819000D03*
X103121000Y-65729000D03*
X90613000Y-73579000D03*
X133752000Y-71830000D03*
X90182000Y-22640000D03*
X88229000Y-77980000D03*
X93139000Y-35851000D03*
X121477000Y-21904000D03*
X94637201Y-70141799D03*
X107376000Y-62795000D03*
X88779000Y-68627000D03*
X126664000Y-45675000D03*
X98057042Y-71438443D03*
X114287000Y-30185000D03*
X106637000Y-55015000D03*
%TO.N,+9V*%
X88980000Y-41682000D03*
X92083000Y-59343000D03*
X122906391Y-75149000D03*
X100269000Y-55234000D03*
X106344000Y-57832000D03*
%TO.N,-9V*%
X97778000Y-63426000D03*
X93768000Y-55181000D03*
X92098002Y-47037000D03*
X112504232Y-74424500D03*
X88811000Y-64244000D03*
X103356000Y-55439000D03*
%TO.N,RL_conn*%
X97417500Y-55751353D03*
X87734497Y-54267498D03*
%TO.N,Net-(IC1-OUT_B)*%
X92135000Y-50420000D03*
X91408005Y-52609000D03*
%TO.N,Net-(IC2-OUT_B)*%
X102952213Y-52622386D03*
X103107366Y-50329056D03*
%TO.N,/Bluetooth ESP/16*%
X104855000Y-35981000D03*
X133942000Y-48892000D03*
%TO.N,/Bluetooth ESP/17*%
X132181000Y-45334000D03*
X105808000Y-35321000D03*
%TO.N,/Bluetooth ESP/18*%
X106799000Y-34770000D03*
X132731000Y-40566000D03*
%TO.N,/Bluetooth ESP/19*%
X107812000Y-34428000D03*
X132915000Y-38879000D03*
%TO.N,Net-(IC2-+VS)*%
X101576000Y-51526000D03*
X101506000Y-53044000D03*
%TO.N,32*%
X94290000Y-49511000D03*
X94109492Y-53527500D03*
%TO.N,33*%
X103675000Y-53492000D03*
X105841000Y-49755000D03*
%TD*%
D17*
%TO.N,GND*%
X89989000Y-55048000D02*
X89989000Y-54712000D01*
X94475000Y-63250000D02*
X95750000Y-61975000D01*
X90446000Y-63250000D02*
X94475000Y-63250000D01*
X89989000Y-54712000D02*
X89916000Y-54639000D01*
%TO.N,+9V*%
X102907412Y-73957000D02*
X99477000Y-73957000D01*
X90831604Y-59343000D02*
X92083000Y-59343000D01*
X88000000Y-65891000D02*
X87009497Y-64900497D01*
X102867000Y-57832000D02*
X106344000Y-57832000D01*
X99477000Y-73957000D02*
X91411000Y-65891000D01*
X87009497Y-43652503D02*
X87009497Y-55520893D01*
X106344000Y-57832000D02*
X108518000Y-60006000D01*
X114331000Y-75149000D02*
X104099412Y-75149000D01*
X91411000Y-65891000D02*
X88000000Y-65891000D01*
X100269000Y-55234000D02*
X102867000Y-57832000D01*
X87009497Y-55520893D02*
X90831604Y-59343000D01*
X108518000Y-69336000D02*
X114331000Y-75149000D01*
X87009497Y-64900497D02*
X87009497Y-55520893D01*
X104099412Y-75149000D02*
X102907412Y-73957000D01*
X114331000Y-75149000D02*
X122906391Y-75149000D01*
X108518000Y-60006000D02*
X108518000Y-69336000D01*
X88980000Y-41682000D02*
X87009497Y-43652503D01*
%TO.N,-9V*%
X98142000Y-63062000D02*
X97778000Y-63426000D01*
X93768000Y-55181000D02*
X93999790Y-54949210D01*
X93058000Y-54471000D02*
X93058000Y-47997000D01*
X97778000Y-63426000D02*
X96960000Y-64244000D01*
X93999790Y-54949210D02*
X97711309Y-54949210D01*
X98151519Y-54509000D02*
X97711309Y-54949210D01*
X103356000Y-55439000D02*
X102426000Y-54509000D01*
X93768000Y-55181000D02*
X93058000Y-54471000D01*
X98142000Y-55379901D02*
X98142000Y-63062000D01*
X97711309Y-54949210D02*
X98142000Y-55379901D01*
X106910088Y-74424500D02*
X112504232Y-74424500D01*
X97778000Y-63426000D02*
X97778000Y-65292412D01*
X97778000Y-65292412D02*
X106910088Y-74424500D01*
X102426000Y-54509000D02*
X98151519Y-54509000D01*
X96960000Y-64244000D02*
X88811000Y-64244000D01*
X93058000Y-47997000D02*
X92098002Y-47037000D01*
%TO.N,RL_conn*%
X87734497Y-54267498D02*
X89372499Y-55905500D01*
X97263353Y-55905500D02*
X97417500Y-55751353D01*
X89372499Y-55905500D02*
X97263353Y-55905500D01*
%TO.N,Net-(IC1-OUT_B)*%
X91408005Y-51146995D02*
X92135000Y-50420000D01*
X91408005Y-52609000D02*
X91408005Y-51146995D01*
%TO.N,Net-(IC2-OUT_B)*%
X103107366Y-50439270D02*
X103732998Y-51064902D01*
X103732998Y-51841601D02*
X102952213Y-52622386D01*
X103732998Y-51064902D02*
X103732998Y-51841601D01*
X103107366Y-50329056D02*
X103107366Y-50439270D01*
%TO.N,/Bluetooth ESP/16*%
X128257000Y-43207000D02*
X133942000Y-48892000D01*
X104855000Y-37254701D02*
X110807299Y-43207000D01*
X104855000Y-35981000D02*
X104855000Y-37254701D01*
X110807299Y-43207000D02*
X128257000Y-43207000D01*
%TO.N,/Bluetooth ESP/17*%
X110765299Y-40625000D02*
X127472000Y-40625000D01*
X127472000Y-40625000D02*
X132181000Y-45334000D01*
X105808000Y-35667701D02*
X110765299Y-40625000D01*
X105808000Y-35321000D02*
X105808000Y-35667701D01*
%TO.N,/Bluetooth ESP/18*%
X130440000Y-38275000D02*
X132731000Y-40566000D01*
X110304000Y-38275000D02*
X130440000Y-38275000D01*
X106799000Y-34770000D02*
X110304000Y-38275000D01*
%TO.N,/Bluetooth ESP/19*%
X129581000Y-35545000D02*
X132915000Y-38879000D01*
X108929000Y-35545000D02*
X129581000Y-35545000D01*
X107812000Y-34428000D02*
X108929000Y-35545000D01*
%TO.N,Net-(IC2-+VS)*%
X101506000Y-51596000D02*
X101576000Y-51526000D01*
X101506000Y-53044000D02*
X101506000Y-51596000D01*
%TO.N,32*%
X94290000Y-49511000D02*
X94625000Y-49846000D01*
X94321500Y-53527500D02*
X94109492Y-53527500D01*
X94625000Y-49846000D02*
X94625000Y-53224000D01*
X94625000Y-53224000D02*
X94321500Y-53527500D01*
%TO.N,33*%
X104568000Y-54091000D02*
X105841000Y-52818000D01*
X103675000Y-53492000D02*
X103675000Y-53779000D01*
X105841000Y-52818000D02*
X105841000Y-49755000D01*
X104547000Y-54112000D02*
X104568000Y-54091000D01*
X104008000Y-54112000D02*
X104547000Y-54112000D01*
X103675000Y-53779000D02*
X104008000Y-54112000D01*
%TD*%
%TA.AperFunction,Conductor*%
%TO.N,GND*%
G36*
X89202254Y-56511832D02*
G01*
X89239749Y-56517770D01*
X89251179Y-56520138D01*
X89266721Y-56524129D01*
X89293479Y-56531000D01*
X89293480Y-56531000D01*
X89313515Y-56531000D01*
X89332912Y-56532526D01*
X89352695Y-56535660D01*
X89396173Y-56531550D01*
X89407843Y-56531000D01*
X96928296Y-56531000D01*
X96978732Y-56541721D01*
X97137697Y-56612497D01*
X97322852Y-56651853D01*
X97392500Y-56651853D01*
X97459539Y-56671538D01*
X97505294Y-56724342D01*
X97516500Y-56775853D01*
X97516500Y-62476180D01*
X97496815Y-62543219D01*
X97444011Y-62588974D01*
X97442936Y-62589459D01*
X97325269Y-62641848D01*
X97172129Y-62753110D01*
X97045466Y-62893783D01*
X96950820Y-63057715D01*
X96892326Y-63237742D01*
X96874679Y-63405650D01*
X96848094Y-63470264D01*
X96839046Y-63480361D01*
X96737226Y-63582182D01*
X96675906Y-63615666D01*
X96649547Y-63618500D01*
X89514747Y-63618500D01*
X89447708Y-63598815D01*
X89422599Y-63577473D01*
X89416871Y-63571112D01*
X89263730Y-63459849D01*
X89263729Y-63459848D01*
X89263727Y-63459847D01*
X89090802Y-63382855D01*
X88905648Y-63343500D01*
X88905646Y-63343500D01*
X88716354Y-63343500D01*
X88716352Y-63343500D01*
X88531197Y-63382855D01*
X88358269Y-63459848D01*
X88205129Y-63571110D01*
X88078466Y-63711783D01*
X87983820Y-63875715D01*
X87925326Y-64055742D01*
X87905540Y-64243999D01*
X87925326Y-64432257D01*
X87983820Y-64612283D01*
X88029168Y-64690829D01*
X88045640Y-64758729D01*
X88022787Y-64824756D01*
X87967865Y-64867946D01*
X87898312Y-64874587D01*
X87836209Y-64842570D01*
X87834168Y-64840578D01*
X87671313Y-64677722D01*
X87637831Y-64616402D01*
X87634997Y-64590044D01*
X87634997Y-57330345D01*
X87654682Y-57263306D01*
X87707486Y-57217551D01*
X87776644Y-57207607D01*
X87840200Y-57236632D01*
X87846678Y-57242664D01*
X90330801Y-59726787D01*
X90343702Y-59742889D01*
X90345816Y-59744874D01*
X90345818Y-59744877D01*
X90372570Y-59769999D01*
X90394844Y-59790916D01*
X90397640Y-59793626D01*
X90417134Y-59813120D01*
X90420219Y-59815513D01*
X90420305Y-59815580D01*
X90429177Y-59823158D01*
X90461022Y-59853062D01*
X90478578Y-59862714D01*
X90494835Y-59873392D01*
X90510668Y-59885674D01*
X90526789Y-59892649D01*
X90550760Y-59903023D01*
X90561247Y-59908160D01*
X90599512Y-59929197D01*
X90618920Y-59934180D01*
X90637314Y-59940478D01*
X90655709Y-59948438D01*
X90698858Y-59955271D01*
X90710284Y-59957638D01*
X90725826Y-59961629D01*
X90752584Y-59968500D01*
X90752585Y-59968500D01*
X90772620Y-59968500D01*
X90792017Y-59970026D01*
X90811800Y-59973160D01*
X90855278Y-59969050D01*
X90866948Y-59968500D01*
X91379253Y-59968500D01*
X91446292Y-59988185D01*
X91471400Y-60009526D01*
X91477129Y-60015888D01*
X91630270Y-60127151D01*
X91630271Y-60127151D01*
X91630272Y-60127152D01*
X91803197Y-60204144D01*
X91988352Y-60243500D01*
X91988354Y-60243500D01*
X92177648Y-60243500D01*
X92301084Y-60217262D01*
X92362803Y-60204144D01*
X92535730Y-60127151D01*
X92688871Y-60015888D01*
X92815533Y-59875216D01*
X92910179Y-59711284D01*
X92968674Y-59531256D01*
X92988460Y-59343000D01*
X92968674Y-59154744D01*
X92910179Y-58974716D01*
X92910179Y-58974715D01*
X92815533Y-58810783D01*
X92688870Y-58670110D01*
X92535730Y-58558848D01*
X92362802Y-58481855D01*
X92177648Y-58442500D01*
X92177646Y-58442500D01*
X91988354Y-58442500D01*
X91988352Y-58442500D01*
X91803197Y-58481855D01*
X91630272Y-58558847D01*
X91579184Y-58595965D01*
X91477129Y-58670112D01*
X91471401Y-58676472D01*
X91411916Y-58713121D01*
X91379253Y-58717500D01*
X91142056Y-58717500D01*
X91075017Y-58697815D01*
X91054375Y-58681181D01*
X89367786Y-56994592D01*
X89095181Y-56721986D01*
X89061697Y-56660665D01*
X89066681Y-56590973D01*
X89108553Y-56535040D01*
X89174017Y-56510623D01*
X89202254Y-56511832D01*
G37*
%TD.AperFunction*%
%TA.AperFunction,Conductor*%
G36*
X97092227Y-64885345D02*
G01*
X97139620Y-64936685D01*
X97152500Y-64991716D01*
X97152500Y-65209668D01*
X97150235Y-65230178D01*
X97152439Y-65300284D01*
X97152500Y-65304179D01*
X97152500Y-65331762D01*
X97152988Y-65335631D01*
X97152989Y-65335637D01*
X97153004Y-65335755D01*
X97153918Y-65347379D01*
X97155290Y-65391038D01*
X97160879Y-65410272D01*
X97164825Y-65429328D01*
X97167335Y-65449204D01*
X97183414Y-65489816D01*
X97187197Y-65500863D01*
X97199382Y-65542803D01*
X97209580Y-65560047D01*
X97218136Y-65577512D01*
X97225514Y-65596144D01*
X97225515Y-65596145D01*
X97251180Y-65631471D01*
X97257593Y-65641234D01*
X97279826Y-65678828D01*
X97279829Y-65678831D01*
X97279830Y-65678832D01*
X97293995Y-65692997D01*
X97306627Y-65707787D01*
X97318406Y-65723999D01*
X97352058Y-65751838D01*
X97360699Y-65759701D01*
X105912817Y-74311819D01*
X105946302Y-74373142D01*
X105941318Y-74442834D01*
X105899446Y-74498767D01*
X105833982Y-74523184D01*
X105825136Y-74523500D01*
X104409864Y-74523500D01*
X104342825Y-74503815D01*
X104322183Y-74487181D01*
X103408214Y-73573211D01*
X103395318Y-73557113D01*
X103344187Y-73509098D01*
X103341390Y-73506387D01*
X103324639Y-73489636D01*
X103321883Y-73486880D01*
X103318702Y-73484412D01*
X103309834Y-73476837D01*
X103277994Y-73446938D01*
X103260436Y-73437285D01*
X103244176Y-73426604D01*
X103228348Y-73414327D01*
X103188263Y-73396980D01*
X103177773Y-73391841D01*
X103139503Y-73370802D01*
X103120103Y-73365821D01*
X103101696Y-73359519D01*
X103083309Y-73351562D01*
X103040170Y-73344729D01*
X103028736Y-73342361D01*
X102986431Y-73331500D01*
X102966396Y-73331500D01*
X102946998Y-73329973D01*
X102939574Y-73328797D01*
X102927217Y-73326840D01*
X102927216Y-73326840D01*
X102894163Y-73329964D01*
X102883737Y-73330950D01*
X102872068Y-73331500D01*
X99787452Y-73331500D01*
X99720413Y-73311815D01*
X99699771Y-73295181D01*
X91911802Y-65507211D01*
X91898906Y-65491113D01*
X91847775Y-65443098D01*
X91844978Y-65440387D01*
X91828227Y-65423636D01*
X91825471Y-65420880D01*
X91822290Y-65418412D01*
X91813422Y-65410837D01*
X91781582Y-65380938D01*
X91764024Y-65371285D01*
X91747764Y-65360604D01*
X91731936Y-65348327D01*
X91691851Y-65330980D01*
X91681361Y-65325841D01*
X91643091Y-65304802D01*
X91623691Y-65299821D01*
X91605284Y-65293519D01*
X91586897Y-65285562D01*
X91543758Y-65278729D01*
X91532324Y-65276361D01*
X91490019Y-65265500D01*
X91469984Y-65265500D01*
X91450586Y-65263973D01*
X91443162Y-65262797D01*
X91430805Y-65260840D01*
X91430804Y-65260840D01*
X91397751Y-65263964D01*
X91387325Y-65264950D01*
X91375656Y-65265500D01*
X89314011Y-65265500D01*
X89246972Y-65245815D01*
X89201217Y-65193011D01*
X89191273Y-65123853D01*
X89220298Y-65060297D01*
X89253237Y-65035882D01*
X89253186Y-65035812D01*
X89260643Y-65030393D01*
X89263575Y-65028221D01*
X89263727Y-65028153D01*
X89291029Y-65008317D01*
X89416871Y-64916888D01*
X89422598Y-64910527D01*
X89482084Y-64873879D01*
X89514747Y-64869500D01*
X96877256Y-64869500D01*
X96897762Y-64871764D01*
X96900665Y-64871672D01*
X96900667Y-64871673D01*
X96967872Y-64869561D01*
X96971768Y-64869500D01*
X96995448Y-64869500D01*
X96999350Y-64869500D01*
X97003313Y-64868999D01*
X97014953Y-64868081D01*
X97024605Y-64867777D01*
X97092227Y-64885345D01*
G37*
%TD.AperFunction*%
%TA.AperFunction,Conductor*%
G36*
X99308471Y-55154185D02*
G01*
X99354226Y-55206989D01*
X99364752Y-55245537D01*
X99368375Y-55280000D01*
X99383326Y-55422257D01*
X99441820Y-55602284D01*
X99536466Y-55766216D01*
X99663129Y-55906889D01*
X99816269Y-56018151D01*
X99989197Y-56095144D01*
X100174352Y-56134500D01*
X100174354Y-56134500D01*
X100233548Y-56134500D01*
X100300587Y-56154185D01*
X100321228Y-56170818D01*
X101352530Y-57202121D01*
X102366196Y-58215787D01*
X102379096Y-58231888D01*
X102430223Y-58279900D01*
X102433020Y-58282611D01*
X102452529Y-58302120D01*
X102455709Y-58304587D01*
X102464571Y-58312155D01*
X102496418Y-58342062D01*
X102513972Y-58351712D01*
X102530236Y-58362396D01*
X102541972Y-58371499D01*
X102546064Y-58374673D01*
X102570909Y-58385424D01*
X102586152Y-58392021D01*
X102596631Y-58397154D01*
X102634908Y-58418197D01*
X102654306Y-58423177D01*
X102672708Y-58429477D01*
X102691104Y-58437438D01*
X102734261Y-58444273D01*
X102745664Y-58446634D01*
X102787981Y-58457500D01*
X102808016Y-58457500D01*
X102827413Y-58459026D01*
X102847196Y-58462160D01*
X102890674Y-58458050D01*
X102902344Y-58457500D01*
X105640253Y-58457500D01*
X105707292Y-58477185D01*
X105732400Y-58498526D01*
X105738129Y-58504888D01*
X105891270Y-58616151D01*
X105891271Y-58616151D01*
X105891272Y-58616152D01*
X106064197Y-58693144D01*
X106249352Y-58732500D01*
X106249354Y-58732500D01*
X106308548Y-58732500D01*
X106375587Y-58752185D01*
X106396229Y-58768819D01*
X107856181Y-60228771D01*
X107889666Y-60290094D01*
X107892500Y-60316452D01*
X107892499Y-69253256D01*
X107890235Y-69273763D01*
X107892439Y-69343872D01*
X107892500Y-69347767D01*
X107892500Y-69375350D01*
X107892988Y-69379219D01*
X107892989Y-69379225D01*
X107893004Y-69379343D01*
X107893918Y-69390967D01*
X107895290Y-69434626D01*
X107900879Y-69453860D01*
X107904825Y-69472916D01*
X107907335Y-69492792D01*
X107923414Y-69533404D01*
X107927197Y-69544451D01*
X107939382Y-69586391D01*
X107949580Y-69603635D01*
X107958136Y-69621100D01*
X107965514Y-69639732D01*
X107965515Y-69639733D01*
X107991180Y-69675059D01*
X107997593Y-69684822D01*
X108019826Y-69722416D01*
X108019829Y-69722419D01*
X108019830Y-69722420D01*
X108033995Y-69736585D01*
X108046627Y-69751375D01*
X108058406Y-69767587D01*
X108092058Y-69795426D01*
X108100699Y-69803289D01*
X111884728Y-73587319D01*
X111918213Y-73648642D01*
X111913229Y-73718334D01*
X111871357Y-73774267D01*
X111805893Y-73798684D01*
X111797047Y-73799000D01*
X107220540Y-73799000D01*
X107153501Y-73779315D01*
X107132859Y-73762681D01*
X102993623Y-69623444D01*
X102960138Y-69562121D01*
X102965122Y-69492429D01*
X103006994Y-69436496D01*
X103024485Y-69425547D01*
X103026869Y-69424317D01*
X103026875Y-69424316D01*
X103213682Y-69328011D01*
X103378886Y-69198092D01*
X103516519Y-69039256D01*
X103621604Y-68857244D01*
X103690344Y-68658633D01*
X103720254Y-68450602D01*
X103710254Y-68240670D01*
X103660704Y-68036424D01*
X103632886Y-67975511D01*
X103573397Y-67845247D01*
X103451487Y-67674050D01*
X103451486Y-67674048D01*
X103299378Y-67529014D01*
X103267257Y-67508371D01*
X103122574Y-67415387D01*
X102966609Y-67352949D01*
X102927457Y-67337275D01*
X102927456Y-67337274D01*
X102927454Y-67337274D01*
X102721086Y-67297500D01*
X102721085Y-67297500D01*
X102563575Y-67297500D01*
X102560645Y-67297779D01*
X102560619Y-67297781D01*
X102406784Y-67312471D01*
X102205126Y-67371683D01*
X102018315Y-67467990D01*
X101853115Y-67597906D01*
X101715479Y-67756745D01*
X101610396Y-67938755D01*
X101597675Y-67975511D01*
X101557146Y-68032425D01*
X101492281Y-68058393D01*
X101423674Y-68045169D01*
X101392814Y-68022635D01*
X98439819Y-65069640D01*
X98406334Y-65008317D01*
X98403500Y-64981959D01*
X98403500Y-64124687D01*
X98423185Y-64057648D01*
X98435350Y-64041714D01*
X98510533Y-63958216D01*
X98544954Y-63898598D01*
X98605179Y-63794284D01*
X98631985Y-63711783D01*
X98663674Y-63614256D01*
X98683460Y-63426000D01*
X98683456Y-63425963D01*
X98683479Y-63425811D01*
X98684822Y-63413038D01*
X98685423Y-63413101D01*
X98692972Y-63363758D01*
X98702026Y-63342834D01*
X98707160Y-63332356D01*
X98728197Y-63294092D01*
X98733178Y-63274688D01*
X98739480Y-63256283D01*
X98747438Y-63237895D01*
X98754270Y-63194748D01*
X98756639Y-63183316D01*
X98767500Y-63141020D01*
X98767500Y-63120983D01*
X98769027Y-63101584D01*
X98769056Y-63101401D01*
X98772160Y-63081804D01*
X98768050Y-63038324D01*
X98767500Y-63026655D01*
X98767500Y-55462641D01*
X98769763Y-55442140D01*
X98769664Y-55439000D01*
X98767561Y-55372045D01*
X98767500Y-55368151D01*
X98767500Y-55344445D01*
X98767500Y-55344444D01*
X98767500Y-55340551D01*
X98766998Y-55336582D01*
X98766080Y-55324925D01*
X98764821Y-55284858D01*
X98764709Y-55281274D01*
X98764708Y-55281273D01*
X98764217Y-55265614D01*
X98768223Y-55265488D01*
X98768341Y-55223233D01*
X98806280Y-55164560D01*
X98869916Y-55135713D01*
X98887220Y-55134500D01*
X99241432Y-55134500D01*
X99308471Y-55154185D01*
G37*
%TD.AperFunction*%
%TA.AperFunction,Conductor*%
G36*
X127228587Y-41270185D02*
G01*
X127249229Y-41286819D01*
X128330251Y-42367841D01*
X128363736Y-42429164D01*
X128358752Y-42498856D01*
X128316880Y-42554789D01*
X128254246Y-42578971D01*
X128233332Y-42580949D01*
X128221656Y-42581500D01*
X112653249Y-42581500D01*
X112586210Y-42561815D01*
X112540455Y-42509011D01*
X112530511Y-42439853D01*
X112533474Y-42425407D01*
X112587063Y-42225407D01*
X112607659Y-41990000D01*
X112587063Y-41754592D01*
X112562159Y-41661649D01*
X112525903Y-41526337D01*
X112479537Y-41426905D01*
X112469045Y-41357828D01*
X112497565Y-41294044D01*
X112556041Y-41255804D01*
X112591919Y-41250500D01*
X127161548Y-41250500D01*
X127228587Y-41270185D01*
G37*
%TD.AperFunction*%
%TA.AperFunction,Conductor*%
G36*
X129337587Y-36190185D02*
G01*
X129358229Y-36206819D01*
X130589229Y-37437819D01*
X130622714Y-37499142D01*
X130617730Y-37568834D01*
X130575858Y-37624767D01*
X130510394Y-37649184D01*
X130501548Y-37649500D01*
X130498984Y-37649500D01*
X130479586Y-37647973D01*
X130472162Y-37646797D01*
X130459805Y-37644840D01*
X130459804Y-37644840D01*
X130426751Y-37647964D01*
X130416325Y-37648950D01*
X130404656Y-37649500D01*
X112591919Y-37649500D01*
X112524880Y-37629815D01*
X112479125Y-37577011D01*
X112469181Y-37507853D01*
X112479537Y-37473095D01*
X112495986Y-37437819D01*
X112525903Y-37373663D01*
X112587063Y-37145408D01*
X112607659Y-36910000D01*
X112587063Y-36674592D01*
X112525903Y-36446337D01*
X112479537Y-36346905D01*
X112469045Y-36277828D01*
X112497565Y-36214044D01*
X112556041Y-36175804D01*
X112591919Y-36170500D01*
X129270548Y-36170500D01*
X129337587Y-36190185D01*
G37*
%TD.AperFunction*%
%TA.AperFunction,Conductor*%
G36*
X139389039Y-19069685D02*
G01*
X139434794Y-19122489D01*
X139446000Y-19174000D01*
X139446000Y-78870000D01*
X139426315Y-78937039D01*
X139373511Y-78982794D01*
X139322000Y-78994000D01*
X84706000Y-78994000D01*
X84638961Y-78974315D01*
X84593206Y-78921511D01*
X84582000Y-78870000D01*
X84582000Y-77651000D01*
X111509402Y-77651000D01*
X111529738Y-77844482D01*
X111529739Y-77844485D01*
X111589855Y-78029507D01*
X111687129Y-78197992D01*
X111817308Y-78342570D01*
X111974699Y-78456921D01*
X111974700Y-78456921D01*
X111974701Y-78456922D01*
X112028604Y-78480921D01*
X112152431Y-78536052D01*
X112342724Y-78576500D01*
X112342726Y-78576500D01*
X112537276Y-78576500D01*
X112740319Y-78533342D01*
X112740903Y-78536090D01*
X112790932Y-78529374D01*
X112815465Y-78535758D01*
X112907517Y-78570091D01*
X112967127Y-78576500D01*
X113912872Y-78576499D01*
X113972483Y-78570091D01*
X114107331Y-78519796D01*
X114222546Y-78433546D01*
X114308796Y-78318331D01*
X114359091Y-78183483D01*
X114365500Y-78123873D01*
X114365499Y-77928095D01*
X114385183Y-77861058D01*
X114437987Y-77815303D01*
X114507145Y-77805359D01*
X114570701Y-77834384D01*
X114607430Y-77889779D01*
X114651855Y-78026508D01*
X114749129Y-78194992D01*
X114879308Y-78339570D01*
X115036699Y-78453921D01*
X115036700Y-78453921D01*
X115036701Y-78453922D01*
X115125564Y-78493486D01*
X115214431Y-78533052D01*
X115404724Y-78573500D01*
X115404726Y-78573500D01*
X115599275Y-78573500D01*
X115746872Y-78542127D01*
X115789571Y-78533051D01*
X115789571Y-78533050D01*
X115802320Y-78530341D01*
X115802862Y-78532892D01*
X115853591Y-78526086D01*
X115878124Y-78532470D01*
X115969628Y-78566599D01*
X116025867Y-78572645D01*
X116032482Y-78573000D01*
X116252000Y-78573000D01*
X116252000Y-78233189D01*
X116268613Y-78171189D01*
X116301317Y-78114543D01*
X116352144Y-78026508D01*
X116399653Y-77880286D01*
X116404455Y-77883495D01*
X116477376Y-77898000D01*
X116526624Y-77898000D01*
X116752000Y-77898000D01*
X116752000Y-78573000D01*
X116971518Y-78573000D01*
X116978132Y-78572645D01*
X117034371Y-78566599D01*
X117169089Y-78516352D01*
X117284188Y-78430188D01*
X117370352Y-78315089D01*
X117420599Y-78180371D01*
X117426645Y-78124132D01*
X117427000Y-78117518D01*
X117427000Y-77914000D01*
X118976628Y-77914000D01*
X119018315Y-78042304D01*
X119115536Y-78210696D01*
X119245643Y-78355193D01*
X119402952Y-78469486D01*
X119580585Y-78548572D01*
X119617999Y-78556524D01*
X119618000Y-78556524D01*
X119618000Y-77914000D01*
X118976628Y-77914000D01*
X117427000Y-77914000D01*
X117427000Y-77898000D01*
X116752000Y-77898000D01*
X116526624Y-77898000D01*
X116599545Y-77883495D01*
X116682240Y-77828240D01*
X116737495Y-77745545D01*
X116753715Y-77664000D01*
X119613102Y-77664000D01*
X119632505Y-77761545D01*
X119687760Y-77844240D01*
X119770455Y-77899495D01*
X119843376Y-77914000D01*
X119892624Y-77914000D01*
X119942500Y-77904078D01*
X119942500Y-78133560D01*
X119942500Y-78133578D01*
X119942501Y-78136872D01*
X119942853Y-78140152D01*
X119942854Y-78140159D01*
X119948909Y-78196484D01*
X119954210Y-78210696D01*
X119999204Y-78331331D01*
X120025584Y-78366570D01*
X120093266Y-78456982D01*
X120117683Y-78522447D01*
X120117999Y-78531292D01*
X120117999Y-78556523D01*
X120118000Y-78556524D01*
X120168166Y-78545863D01*
X120168783Y-78548766D01*
X120218272Y-78542127D01*
X120242803Y-78548511D01*
X120317845Y-78576500D01*
X120335517Y-78583091D01*
X120395127Y-78589500D01*
X121340872Y-78589499D01*
X121400483Y-78583091D01*
X121535331Y-78532796D01*
X121650546Y-78446546D01*
X121736796Y-78331331D01*
X121787091Y-78196483D01*
X121793500Y-78136873D01*
X121793500Y-77675000D01*
X122088402Y-77675000D01*
X122108738Y-77868482D01*
X122108739Y-77868485D01*
X122168855Y-78053507D01*
X122266129Y-78221992D01*
X122396308Y-78366570D01*
X122553699Y-78480921D01*
X122731431Y-78560052D01*
X122921724Y-78600500D01*
X122921726Y-78600500D01*
X123116276Y-78600500D01*
X123319319Y-78557342D01*
X123319903Y-78560090D01*
X123369932Y-78553374D01*
X123394465Y-78559758D01*
X123486517Y-78594091D01*
X123546127Y-78600500D01*
X124491872Y-78600499D01*
X124551483Y-78594091D01*
X124686331Y-78543796D01*
X124801546Y-78457546D01*
X124887796Y-78342331D01*
X124938091Y-78207483D01*
X124944500Y-78147873D01*
X124944499Y-77202128D01*
X124938091Y-77142517D01*
X124887796Y-77007669D01*
X124801546Y-76892454D01*
X124686331Y-76806204D01*
X124551483Y-76755909D01*
X124491873Y-76749500D01*
X124488550Y-76749500D01*
X123549439Y-76749500D01*
X123549420Y-76749500D01*
X123546128Y-76749501D01*
X123542848Y-76749853D01*
X123542840Y-76749854D01*
X123486515Y-76755909D01*
X123394472Y-76790239D01*
X123324780Y-76795223D01*
X123312568Y-76791223D01*
X123116276Y-76749500D01*
X123116274Y-76749500D01*
X122921726Y-76749500D01*
X122921724Y-76749500D01*
X122731431Y-76789947D01*
X122553699Y-76869078D01*
X122396308Y-76983429D01*
X122266129Y-77128007D01*
X122168855Y-77296492D01*
X122116537Y-77457514D01*
X122108738Y-77481518D01*
X122088402Y-77675000D01*
X121793500Y-77675000D01*
X121793499Y-77191128D01*
X121787091Y-77131517D01*
X121736796Y-76996669D01*
X121650546Y-76881454D01*
X121535331Y-76795204D01*
X121400483Y-76744909D01*
X121340873Y-76738500D01*
X121337550Y-76738500D01*
X120398439Y-76738500D01*
X120398420Y-76738500D01*
X120395128Y-76738501D01*
X120391848Y-76738853D01*
X120391840Y-76738854D01*
X120335513Y-76744909D01*
X120242802Y-76779488D01*
X120173110Y-76784472D01*
X120161944Y-76780815D01*
X120118000Y-76771474D01*
X120118000Y-76796706D01*
X120098315Y-76863745D01*
X120093267Y-76871017D01*
X119999204Y-76996668D01*
X119948909Y-77131516D01*
X119943542Y-77181439D01*
X119942500Y-77191127D01*
X119942500Y-77194448D01*
X119942500Y-77194449D01*
X119942500Y-77423921D01*
X119892624Y-77414000D01*
X119843376Y-77414000D01*
X119770455Y-77428505D01*
X119687760Y-77483760D01*
X119632505Y-77566455D01*
X119613102Y-77664000D01*
X116753715Y-77664000D01*
X116756898Y-77648000D01*
X116737495Y-77550455D01*
X116682240Y-77467760D01*
X116601781Y-77413999D01*
X118976627Y-77413999D01*
X118976628Y-77414000D01*
X119618000Y-77414000D01*
X119618000Y-77413999D01*
X119617999Y-76771474D01*
X119580585Y-76779427D01*
X119402952Y-76858513D01*
X119245643Y-76972805D01*
X119115536Y-77117303D01*
X119018315Y-77285695D01*
X118976627Y-77413999D01*
X116601781Y-77413999D01*
X116599545Y-77412505D01*
X116526624Y-77398000D01*
X116477376Y-77398000D01*
X116404455Y-77412505D01*
X116399653Y-77415713D01*
X116352144Y-77269492D01*
X116315163Y-77205439D01*
X116268613Y-77124811D01*
X116252000Y-77062811D01*
X116252000Y-76723000D01*
X116752000Y-76723000D01*
X116752000Y-77398000D01*
X117427000Y-77398000D01*
X117427000Y-77178481D01*
X117426645Y-77171867D01*
X117420599Y-77115628D01*
X117370352Y-76980910D01*
X117284188Y-76865811D01*
X117169089Y-76779647D01*
X117034371Y-76729400D01*
X116978132Y-76723354D01*
X116971518Y-76723000D01*
X116752000Y-76723000D01*
X116252000Y-76723000D01*
X116032482Y-76723000D01*
X116025867Y-76723354D01*
X115969626Y-76729400D01*
X115878124Y-76763529D01*
X115808432Y-76768513D01*
X115794903Y-76764081D01*
X115599276Y-76722500D01*
X115599274Y-76722500D01*
X115404726Y-76722500D01*
X115404724Y-76722500D01*
X115214431Y-76762947D01*
X115036699Y-76842078D01*
X114879308Y-76956429D01*
X114749129Y-77101007D01*
X114651855Y-77269491D01*
X114607430Y-77406222D01*
X114567993Y-77463897D01*
X114503634Y-77491096D01*
X114434788Y-77479182D01*
X114383312Y-77431938D01*
X114365499Y-77367904D01*
X114365499Y-77181439D01*
X114365499Y-77178128D01*
X114359091Y-77118517D01*
X114308796Y-76983669D01*
X114222546Y-76868454D01*
X114107331Y-76782204D01*
X113972483Y-76731909D01*
X113912873Y-76725500D01*
X113909550Y-76725500D01*
X112970439Y-76725500D01*
X112970420Y-76725500D01*
X112967128Y-76725501D01*
X112963848Y-76725853D01*
X112963840Y-76725854D01*
X112907515Y-76731909D01*
X112815472Y-76766239D01*
X112745780Y-76771223D01*
X112733568Y-76767223D01*
X112537276Y-76725500D01*
X112537274Y-76725500D01*
X112342726Y-76725500D01*
X112342724Y-76725500D01*
X112152431Y-76765947D01*
X111974699Y-76845078D01*
X111817308Y-76959429D01*
X111687129Y-77104007D01*
X111589855Y-77272492D01*
X111529739Y-77457514D01*
X111529738Y-77457518D01*
X111509402Y-77651000D01*
X84582000Y-77651000D01*
X84582000Y-75345396D01*
X89573746Y-75345396D01*
X89583746Y-75555330D01*
X89633297Y-75759580D01*
X89720602Y-75950752D01*
X89790921Y-76049500D01*
X89842514Y-76121952D01*
X89994622Y-76266986D01*
X90066964Y-76313478D01*
X90171425Y-76380612D01*
X90210580Y-76396287D01*
X90366543Y-76458725D01*
X90495233Y-76483528D01*
X90572914Y-76498500D01*
X90572915Y-76498500D01*
X90727471Y-76498500D01*
X90730425Y-76498500D01*
X90733376Y-76498218D01*
X90733380Y-76498218D01*
X90790644Y-76492749D01*
X90887218Y-76483528D01*
X91088875Y-76424316D01*
X91275682Y-76328011D01*
X91440886Y-76198092D01*
X91578519Y-76039256D01*
X91683604Y-75857244D01*
X91752344Y-75658633D01*
X91782254Y-75450602D01*
X91772254Y-75240670D01*
X91722704Y-75036424D01*
X91722702Y-75036419D01*
X91635397Y-74845247D01*
X91513487Y-74674050D01*
X91513486Y-74674048D01*
X91361378Y-74529014D01*
X91322168Y-74503815D01*
X91184574Y-74415387D01*
X91022407Y-74350466D01*
X90989457Y-74337275D01*
X90989456Y-74337274D01*
X90989454Y-74337274D01*
X90783086Y-74297500D01*
X90783085Y-74297500D01*
X90625575Y-74297500D01*
X90622645Y-74297779D01*
X90622619Y-74297781D01*
X90468784Y-74312471D01*
X90267126Y-74371683D01*
X90080315Y-74467990D01*
X89915115Y-74597906D01*
X89777479Y-74756745D01*
X89672396Y-74938754D01*
X89603655Y-75137366D01*
X89573746Y-75345396D01*
X84582000Y-75345396D01*
X84582000Y-68345398D01*
X89573746Y-68345398D01*
X89581946Y-68517545D01*
X89583746Y-68555330D01*
X89633297Y-68759580D01*
X89720602Y-68950752D01*
X89810439Y-69076909D01*
X89842514Y-69121952D01*
X89994622Y-69266986D01*
X90066964Y-69313478D01*
X90171425Y-69380612D01*
X90182711Y-69385130D01*
X90366543Y-69458725D01*
X90495233Y-69483528D01*
X90572914Y-69498500D01*
X90572915Y-69498500D01*
X90727471Y-69498500D01*
X90730425Y-69498500D01*
X90733376Y-69498218D01*
X90733380Y-69498218D01*
X90794003Y-69492429D01*
X90887218Y-69483528D01*
X91088875Y-69424316D01*
X91275682Y-69328011D01*
X91440886Y-69198092D01*
X91578519Y-69039256D01*
X91683604Y-68857244D01*
X91752344Y-68658633D01*
X91782254Y-68450602D01*
X91772254Y-68240670D01*
X91722704Y-68036424D01*
X91694886Y-67975511D01*
X91635397Y-67845247D01*
X91513487Y-67674050D01*
X91513486Y-67674048D01*
X91361378Y-67529014D01*
X91329257Y-67508371D01*
X91184574Y-67415387D01*
X91028609Y-67352949D01*
X90989457Y-67337275D01*
X90989456Y-67337274D01*
X90989454Y-67337274D01*
X90783086Y-67297500D01*
X90783085Y-67297500D01*
X90625575Y-67297500D01*
X90622645Y-67297779D01*
X90622619Y-67297781D01*
X90468784Y-67312471D01*
X90267126Y-67371683D01*
X90080315Y-67467990D01*
X89915115Y-67597906D01*
X89777479Y-67756745D01*
X89672396Y-67938754D01*
X89603655Y-68137366D01*
X89585822Y-68261404D01*
X89573746Y-68345398D01*
X84582000Y-68345398D01*
X84582000Y-43632697D01*
X86379337Y-43632697D01*
X86383447Y-43676176D01*
X86383997Y-43687846D01*
X86383997Y-55438149D01*
X86381732Y-55458659D01*
X86383936Y-55528765D01*
X86383997Y-55532660D01*
X86383997Y-64817753D01*
X86381732Y-64838263D01*
X86383936Y-64908369D01*
X86383997Y-64912264D01*
X86383997Y-64939847D01*
X86384485Y-64943716D01*
X86384486Y-64943722D01*
X86384501Y-64943840D01*
X86385415Y-64955464D01*
X86386787Y-64999123D01*
X86392376Y-65018357D01*
X86396322Y-65037413D01*
X86398832Y-65057289D01*
X86414911Y-65097901D01*
X86418694Y-65108948D01*
X86430879Y-65150888D01*
X86441077Y-65168132D01*
X86449633Y-65185597D01*
X86457011Y-65204229D01*
X86457012Y-65204230D01*
X86482677Y-65239556D01*
X86489090Y-65249319D01*
X86511323Y-65286913D01*
X86511326Y-65286916D01*
X86511327Y-65286917D01*
X86525492Y-65301082D01*
X86538124Y-65315872D01*
X86549903Y-65332084D01*
X86583555Y-65359923D01*
X86592196Y-65367786D01*
X87499197Y-66274787D01*
X87512098Y-66290889D01*
X87514212Y-66292874D01*
X87514214Y-66292877D01*
X87520329Y-66298619D01*
X87563240Y-66338916D01*
X87566036Y-66341626D01*
X87585530Y-66361120D01*
X87588615Y-66363513D01*
X87588701Y-66363580D01*
X87597573Y-66371158D01*
X87629418Y-66401062D01*
X87646974Y-66410714D01*
X87663231Y-66421392D01*
X87679064Y-66433674D01*
X87695185Y-66440649D01*
X87719156Y-66451023D01*
X87729643Y-66456160D01*
X87767908Y-66477197D01*
X87787316Y-66482180D01*
X87805710Y-66488478D01*
X87824105Y-66496438D01*
X87867254Y-66503271D01*
X87878680Y-66505638D01*
X87894222Y-66509629D01*
X87920980Y-66516500D01*
X87920981Y-66516500D01*
X87941016Y-66516500D01*
X87960413Y-66518026D01*
X87980196Y-66521160D01*
X88023674Y-66517050D01*
X88035344Y-66516500D01*
X91100548Y-66516500D01*
X91167587Y-66536185D01*
X91188229Y-66552819D01*
X98976197Y-74340787D01*
X98989098Y-74356889D01*
X98991212Y-74358874D01*
X98991214Y-74358877D01*
X99006405Y-74373142D01*
X99040240Y-74404916D01*
X99043036Y-74407626D01*
X99062530Y-74427120D01*
X99065615Y-74429513D01*
X99065701Y-74429580D01*
X99074573Y-74437158D01*
X99106418Y-74467062D01*
X99123974Y-74476714D01*
X99140231Y-74487392D01*
X99156064Y-74499674D01*
X99165634Y-74503815D01*
X99196156Y-74517023D01*
X99206643Y-74522160D01*
X99244908Y-74543197D01*
X99264316Y-74548180D01*
X99282710Y-74554478D01*
X99301105Y-74562438D01*
X99344254Y-74569271D01*
X99355680Y-74571638D01*
X99371222Y-74575629D01*
X99397980Y-74582500D01*
X99397981Y-74582500D01*
X99418016Y-74582500D01*
X99437413Y-74584026D01*
X99457196Y-74587160D01*
X99500674Y-74583050D01*
X99512344Y-74582500D01*
X101601307Y-74582500D01*
X101668346Y-74602185D01*
X101714101Y-74654989D01*
X101724045Y-74724147D01*
X101708694Y-74768498D01*
X101701641Y-74780716D01*
X101610396Y-74938754D01*
X101541655Y-75137366D01*
X101511746Y-75345396D01*
X101521746Y-75555330D01*
X101571297Y-75759580D01*
X101658602Y-75950752D01*
X101728921Y-76049500D01*
X101780514Y-76121952D01*
X101932622Y-76266986D01*
X102004964Y-76313478D01*
X102109425Y-76380612D01*
X102148580Y-76396287D01*
X102304543Y-76458725D01*
X102433233Y-76483528D01*
X102510914Y-76498500D01*
X102510915Y-76498500D01*
X102665471Y-76498500D01*
X102668425Y-76498500D01*
X102671376Y-76498218D01*
X102671380Y-76498218D01*
X102728644Y-76492749D01*
X102825218Y-76483528D01*
X103026875Y-76424316D01*
X103213682Y-76328011D01*
X103378886Y-76198092D01*
X103516519Y-76039256D01*
X103621604Y-75857244D01*
X103648152Y-75780536D01*
X103688677Y-75723627D01*
X103753542Y-75697659D01*
X103814578Y-75707296D01*
X103818571Y-75709024D01*
X103829055Y-75714160D01*
X103867320Y-75735197D01*
X103886728Y-75740180D01*
X103905122Y-75746478D01*
X103923517Y-75754438D01*
X103966666Y-75761271D01*
X103978092Y-75763638D01*
X103993634Y-75767629D01*
X104020392Y-75774500D01*
X104020393Y-75774500D01*
X104040428Y-75774500D01*
X104059825Y-75776026D01*
X104079608Y-75779160D01*
X104123086Y-75775050D01*
X104134756Y-75774500D01*
X114251981Y-75774500D01*
X114272016Y-75774500D01*
X114291415Y-75776027D01*
X114311196Y-75779160D01*
X114354674Y-75775050D01*
X114366344Y-75774500D01*
X122202644Y-75774500D01*
X122269683Y-75794185D01*
X122294791Y-75815526D01*
X122300520Y-75821888D01*
X122453661Y-75933151D01*
X122453662Y-75933151D01*
X122453663Y-75933152D01*
X122626588Y-76010144D01*
X122811743Y-76049500D01*
X122811745Y-76049500D01*
X123001039Y-76049500D01*
X123124475Y-76023262D01*
X123186194Y-76010144D01*
X123359121Y-75933151D01*
X123512261Y-75821889D01*
X123517989Y-75815528D01*
X123638924Y-75681216D01*
X123733570Y-75517284D01*
X123792065Y-75337256D01*
X123811851Y-75149000D01*
X123792065Y-74960744D01*
X123733570Y-74780716D01*
X123733570Y-74780715D01*
X123638924Y-74616783D01*
X123512261Y-74476110D01*
X123359121Y-74364848D01*
X123186193Y-74287855D01*
X123001039Y-74248500D01*
X123001037Y-74248500D01*
X122811745Y-74248500D01*
X122811743Y-74248500D01*
X122626588Y-74287855D01*
X122453663Y-74364847D01*
X122394783Y-74407626D01*
X122300520Y-74476112D01*
X122294792Y-74482472D01*
X122235307Y-74519121D01*
X122202644Y-74523500D01*
X114641453Y-74523500D01*
X114574414Y-74503815D01*
X114553772Y-74487181D01*
X109179819Y-69113228D01*
X109146334Y-69051905D01*
X109143500Y-69025547D01*
X109143500Y-68803578D01*
X116096000Y-68803578D01*
X116096001Y-68806872D01*
X116096353Y-68810152D01*
X116096354Y-68810159D01*
X116102409Y-68866484D01*
X116120229Y-68914262D01*
X116152704Y-69001331D01*
X116238954Y-69116546D01*
X116354169Y-69202796D01*
X116489017Y-69253091D01*
X116548627Y-69259500D01*
X118549372Y-69259499D01*
X118608983Y-69253091D01*
X118743831Y-69202796D01*
X118859046Y-69116546D01*
X118945296Y-69001331D01*
X118956909Y-68970194D01*
X118998779Y-68914262D01*
X119064243Y-68889845D01*
X119132516Y-68904696D01*
X119149252Y-68915675D01*
X119291836Y-69026652D01*
X119503539Y-69141219D01*
X119731208Y-69219379D01*
X119839000Y-69237366D01*
X119839000Y-68304881D01*
X119932369Y-68343556D01*
X120049677Y-68359000D01*
X120128323Y-68359000D01*
X120245631Y-68343556D01*
X120338999Y-68304881D01*
X120338999Y-69237365D01*
X120446791Y-69219379D01*
X120674460Y-69141219D01*
X120886164Y-69026651D01*
X121076122Y-68878801D01*
X121239155Y-68701700D01*
X121254892Y-68677614D01*
X121308038Y-68632257D01*
X121377269Y-68622833D01*
X121440605Y-68652334D01*
X121462509Y-68677613D01*
X121462510Y-68677614D01*
X121478449Y-68702010D01*
X121641537Y-68879171D01*
X121831561Y-69027072D01*
X122043336Y-69141679D01*
X122271087Y-69219866D01*
X122508601Y-69259500D01*
X122749399Y-69259500D01*
X122986913Y-69219866D01*
X123214664Y-69141679D01*
X123426439Y-69027072D01*
X123616463Y-68879171D01*
X123779551Y-68702010D01*
X123911255Y-68500422D01*
X124007983Y-68279905D01*
X124067095Y-68046476D01*
X124082000Y-67866600D01*
X124082000Y-67651400D01*
X124067095Y-67471524D01*
X124007983Y-67238095D01*
X123911255Y-67017578D01*
X123779551Y-66815990D01*
X123616463Y-66638829D01*
X123426439Y-66490928D01*
X123214664Y-66376321D01*
X123214660Y-66376319D01*
X123214659Y-66376319D01*
X122986915Y-66298134D01*
X122749399Y-66258500D01*
X122508601Y-66258500D01*
X122271084Y-66298134D01*
X122043340Y-66376319D01*
X122043336Y-66376320D01*
X122043336Y-66376321D01*
X121971052Y-66415439D01*
X121831559Y-66490929D01*
X121641536Y-66638829D01*
X121478446Y-66815992D01*
X121462508Y-66840388D01*
X121409361Y-66885743D01*
X121340129Y-66895165D01*
X121276794Y-66865662D01*
X121254892Y-66840385D01*
X121239153Y-66816294D01*
X121076126Y-66639201D01*
X120886164Y-66491348D01*
X120674460Y-66376780D01*
X120446792Y-66298619D01*
X120339000Y-66280633D01*
X120338999Y-67213118D01*
X120245631Y-67174444D01*
X120128323Y-67159000D01*
X120049677Y-67159000D01*
X119932369Y-67174444D01*
X119839000Y-67213118D01*
X119839000Y-66280633D01*
X119838999Y-66280633D01*
X119731207Y-66298619D01*
X119503539Y-66376780D01*
X119291835Y-66491348D01*
X119149252Y-66602324D01*
X119084258Y-66627966D01*
X119015718Y-66614399D01*
X118965393Y-66565930D01*
X118956910Y-66547810D01*
X118945296Y-66516669D01*
X118859046Y-66401454D01*
X118743831Y-66315204D01*
X118608983Y-66264909D01*
X118549373Y-66258500D01*
X118546050Y-66258500D01*
X116551939Y-66258500D01*
X116551920Y-66258500D01*
X116548628Y-66258501D01*
X116545348Y-66258853D01*
X116545340Y-66258854D01*
X116489015Y-66264909D01*
X116354169Y-66315204D01*
X116238954Y-66401454D01*
X116152704Y-66516668D01*
X116107003Y-66639201D01*
X116102409Y-66651517D01*
X116096000Y-66711127D01*
X116096000Y-66714448D01*
X116096000Y-66714449D01*
X116096000Y-68803560D01*
X116096000Y-68803578D01*
X109143500Y-68803578D01*
X109143500Y-60088739D01*
X109145763Y-60068238D01*
X109144118Y-60015889D01*
X109143561Y-59998144D01*
X109143500Y-59994250D01*
X109143500Y-59970544D01*
X109143500Y-59966650D01*
X109142998Y-59962681D01*
X109142080Y-59951024D01*
X109141627Y-59936605D01*
X109140709Y-59907373D01*
X109135120Y-59888137D01*
X109131176Y-59869093D01*
X109128664Y-59849208D01*
X109112582Y-59808591D01*
X109108798Y-59797540D01*
X109107661Y-59793626D01*
X109096617Y-59755610D01*
X109092886Y-59749302D01*
X109086421Y-59738369D01*
X109077863Y-59720902D01*
X109070486Y-59702268D01*
X109044798Y-59666912D01*
X109038409Y-59657184D01*
X109016170Y-59619579D01*
X109002006Y-59605415D01*
X108989369Y-59590620D01*
X108977595Y-59574414D01*
X108977594Y-59574413D01*
X108943935Y-59546568D01*
X108935305Y-59538714D01*
X107282960Y-57886369D01*
X107249475Y-57825046D01*
X107247323Y-57811668D01*
X107229674Y-57643744D01*
X107171729Y-57465408D01*
X107171179Y-57463715D01*
X107076533Y-57299783D01*
X106949870Y-57159110D01*
X106796730Y-57047848D01*
X106623802Y-56970855D01*
X106438648Y-56931500D01*
X106438646Y-56931500D01*
X106249354Y-56931500D01*
X106249352Y-56931500D01*
X106064197Y-56970855D01*
X105891272Y-57047847D01*
X105789176Y-57122024D01*
X105738129Y-57159112D01*
X105732401Y-57165472D01*
X105672916Y-57202121D01*
X105640253Y-57206500D01*
X103177452Y-57206500D01*
X103110413Y-57186815D01*
X103089771Y-57170181D01*
X101265772Y-55346181D01*
X101232287Y-55284858D01*
X101237271Y-55215166D01*
X101279143Y-55159233D01*
X101344607Y-55134816D01*
X101353453Y-55134500D01*
X102115548Y-55134500D01*
X102182587Y-55154185D01*
X102203229Y-55170819D01*
X102417038Y-55384628D01*
X102450523Y-55445951D01*
X102452678Y-55459347D01*
X102470326Y-55627257D01*
X102528820Y-55807284D01*
X102623466Y-55971216D01*
X102750129Y-56111889D01*
X102903269Y-56223151D01*
X103076197Y-56300144D01*
X103261352Y-56339500D01*
X103261354Y-56339500D01*
X103450648Y-56339500D01*
X103601774Y-56307377D01*
X103635803Y-56300144D01*
X103808730Y-56223151D01*
X103961871Y-56111888D01*
X104088533Y-55971216D01*
X104183179Y-55807284D01*
X104241674Y-55627256D01*
X104261460Y-55439000D01*
X104241674Y-55250744D01*
X104204298Y-55135713D01*
X104183179Y-55070715D01*
X104098184Y-54923500D01*
X104081711Y-54855600D01*
X104104563Y-54789573D01*
X104159485Y-54746382D01*
X104205571Y-54737500D01*
X104464256Y-54737500D01*
X104484762Y-54739764D01*
X104487665Y-54739672D01*
X104487667Y-54739673D01*
X104554872Y-54737561D01*
X104558768Y-54737500D01*
X104582448Y-54737500D01*
X104586350Y-54737500D01*
X104590313Y-54736999D01*
X104601962Y-54736080D01*
X104645627Y-54734709D01*
X104664859Y-54729120D01*
X104683918Y-54725174D01*
X104690196Y-54724381D01*
X104703792Y-54722664D01*
X104744407Y-54706582D01*
X104755444Y-54702803D01*
X104797390Y-54690618D01*
X104814629Y-54680422D01*
X104832102Y-54671862D01*
X104850732Y-54664486D01*
X104886064Y-54638814D01*
X104895830Y-54632400D01*
X104903622Y-54627792D01*
X104933420Y-54610170D01*
X104947589Y-54596000D01*
X104962379Y-54583368D01*
X104978587Y-54571594D01*
X105006429Y-54537937D01*
X105014272Y-54529317D01*
X105038120Y-54505471D01*
X105038121Y-54505467D01*
X105048910Y-54494680D01*
X105048913Y-54494675D01*
X106224788Y-53318801D01*
X106240885Y-53305906D01*
X106242873Y-53303787D01*
X106242877Y-53303786D01*
X106288949Y-53254723D01*
X106291534Y-53252055D01*
X106311120Y-53232471D01*
X106313585Y-53229292D01*
X106321167Y-53220416D01*
X106340033Y-53200326D01*
X106351062Y-53188582D01*
X106360712Y-53171027D01*
X106371400Y-53154757D01*
X106383673Y-53138936D01*
X106401026Y-53098832D01*
X106406157Y-53088362D01*
X106407090Y-53086665D01*
X106427197Y-53050092D01*
X106432175Y-53030699D01*
X106438481Y-53012282D01*
X106445703Y-52995594D01*
X106446438Y-52993896D01*
X106453272Y-52950745D01*
X106455635Y-52939331D01*
X106466500Y-52897019D01*
X106466500Y-52876982D01*
X106468027Y-52857584D01*
X106471160Y-52837804D01*
X106467050Y-52794324D01*
X106466500Y-52782655D01*
X106466500Y-50453687D01*
X106486185Y-50386648D01*
X106498350Y-50370714D01*
X106501435Y-50367288D01*
X106573533Y-50287216D01*
X106574134Y-50286176D01*
X106668179Y-50123284D01*
X106690749Y-50053820D01*
X106726674Y-49943256D01*
X106746460Y-49755000D01*
X106726674Y-49566744D01*
X106668179Y-49386716D01*
X106668179Y-49386715D01*
X106573533Y-49222783D01*
X106446870Y-49082110D01*
X106293730Y-48970848D01*
X106120802Y-48893855D01*
X105935648Y-48854500D01*
X105935646Y-48854500D01*
X105746354Y-48854500D01*
X105746352Y-48854500D01*
X105561197Y-48893855D01*
X105388269Y-48970848D01*
X105235129Y-49082110D01*
X105108466Y-49222783D01*
X105013820Y-49386715D01*
X104955326Y-49566742D01*
X104935540Y-49755000D01*
X104955326Y-49943257D01*
X105013820Y-50123284D01*
X105108464Y-50287213D01*
X105183650Y-50370714D01*
X105213880Y-50433706D01*
X105215500Y-50453687D01*
X105215500Y-52507546D01*
X105195815Y-52574585D01*
X105179181Y-52595227D01*
X104670807Y-53103600D01*
X104609484Y-53137085D01*
X104539792Y-53132101D01*
X104483859Y-53090229D01*
X104475739Y-53077919D01*
X104407533Y-52959784D01*
X104280870Y-52819110D01*
X104127730Y-52707848D01*
X104032115Y-52665277D01*
X103978878Y-52620027D01*
X103958557Y-52553178D01*
X103977602Y-52485954D01*
X103994866Y-52464321D01*
X104116784Y-52342403D01*
X104132884Y-52329506D01*
X104134872Y-52327388D01*
X104134875Y-52327387D01*
X104180962Y-52278308D01*
X104183547Y-52275640D01*
X104203118Y-52256071D01*
X104205563Y-52252917D01*
X104213152Y-52244030D01*
X104243060Y-52212183D01*
X104252711Y-52194627D01*
X104263391Y-52178368D01*
X104275672Y-52162537D01*
X104293016Y-52122452D01*
X104298158Y-52111957D01*
X104305092Y-52099345D01*
X104319195Y-52073693D01*
X104324176Y-52054289D01*
X104330478Y-52035884D01*
X104338436Y-52017496D01*
X104345268Y-51974349D01*
X104347637Y-51962917D01*
X104358498Y-51920621D01*
X104358498Y-51900584D01*
X104360025Y-51881185D01*
X104363158Y-51861404D01*
X104359048Y-51817936D01*
X104358497Y-51806263D01*
X104358497Y-51476175D01*
X104358497Y-51147632D01*
X104360761Y-51127144D01*
X104360575Y-51121237D01*
X104358559Y-51057046D01*
X104358498Y-51053152D01*
X104358498Y-51029446D01*
X104358498Y-51029445D01*
X104358498Y-51025552D01*
X104357996Y-51021583D01*
X104357078Y-51009926D01*
X104357067Y-51009566D01*
X104355707Y-50966275D01*
X104350118Y-50947042D01*
X104346172Y-50927984D01*
X104343662Y-50908110D01*
X104338853Y-50895965D01*
X104327583Y-50867499D01*
X104323802Y-50856454D01*
X104311617Y-50814515D01*
X104311616Y-50814514D01*
X104311616Y-50814512D01*
X104301415Y-50797263D01*
X104292858Y-50779797D01*
X104285484Y-50761170D01*
X104259811Y-50725834D01*
X104253400Y-50716074D01*
X104244863Y-50701639D01*
X104231168Y-50678481D01*
X104217004Y-50664317D01*
X104204367Y-50649522D01*
X104192593Y-50633316D01*
X104177779Y-50621061D01*
X104158933Y-50605470D01*
X104150303Y-50597616D01*
X104042181Y-50489494D01*
X104008696Y-50428171D01*
X104006541Y-50388852D01*
X104012826Y-50329056D01*
X103993040Y-50140800D01*
X103954009Y-50020675D01*
X103934545Y-49960771D01*
X103839899Y-49796839D01*
X103713236Y-49656166D01*
X103560096Y-49544904D01*
X103387168Y-49467911D01*
X103202014Y-49428556D01*
X103202012Y-49428556D01*
X103012720Y-49428556D01*
X103012718Y-49428556D01*
X102827563Y-49467911D01*
X102654635Y-49544904D01*
X102501495Y-49656166D01*
X102374832Y-49796839D01*
X102280186Y-49960771D01*
X102221692Y-50140798D01*
X102201906Y-50329056D01*
X102221692Y-50517315D01*
X102258890Y-50631798D01*
X102260885Y-50701639D01*
X102224804Y-50761471D01*
X102162103Y-50792299D01*
X102092689Y-50784334D01*
X102068074Y-50770433D01*
X102028730Y-50741848D01*
X101855802Y-50664855D01*
X101670648Y-50625500D01*
X101670646Y-50625500D01*
X101481354Y-50625500D01*
X101481352Y-50625500D01*
X101296197Y-50664855D01*
X101123269Y-50741848D01*
X100970129Y-50853110D01*
X100843466Y-50993783D01*
X100748820Y-51157715D01*
X100690326Y-51337742D01*
X100670540Y-51526000D01*
X100690326Y-51714257D01*
X100748820Y-51894284D01*
X100843466Y-52058216D01*
X100848649Y-52063972D01*
X100878879Y-52126964D01*
X100880499Y-52146943D01*
X100880500Y-52345311D01*
X100860816Y-52412351D01*
X100848650Y-52428284D01*
X100773466Y-52511783D01*
X100678820Y-52675715D01*
X100620326Y-52855742D01*
X100600540Y-53044000D01*
X100620326Y-53232257D01*
X100678820Y-53412284D01*
X100773466Y-53576216D01*
X100863788Y-53676528D01*
X100894018Y-53739519D01*
X100885393Y-53808855D01*
X100840651Y-53862520D01*
X100773999Y-53883478D01*
X100771638Y-53883500D01*
X98234263Y-53883500D01*
X98213756Y-53881235D01*
X98143646Y-53883439D01*
X98139751Y-53883500D01*
X98112169Y-53883500D01*
X98108324Y-53883985D01*
X98108299Y-53883987D01*
X98108172Y-53884004D01*
X98096552Y-53884918D01*
X98052888Y-53886290D01*
X98033648Y-53891880D01*
X98014600Y-53895825D01*
X97994728Y-53898335D01*
X97954118Y-53914413D01*
X97943073Y-53918194D01*
X97901129Y-53930381D01*
X97883884Y-53940579D01*
X97866423Y-53949133D01*
X97847786Y-53956512D01*
X97812450Y-53982185D01*
X97802693Y-53988595D01*
X97765099Y-54010829D01*
X97750932Y-54024996D01*
X97736143Y-54037626D01*
X97719932Y-54049404D01*
X97692091Y-54083058D01*
X97684230Y-54091697D01*
X97488537Y-54287391D01*
X97427214Y-54320876D01*
X97400856Y-54323710D01*
X94882832Y-54323710D01*
X94815793Y-54304025D01*
X94770038Y-54251221D01*
X94760094Y-54182063D01*
X94789119Y-54118507D01*
X94790683Y-54116737D01*
X94842025Y-54059716D01*
X94861379Y-54026193D01*
X94936671Y-53895784D01*
X94975056Y-53777645D01*
X95005303Y-53728286D01*
X95008789Y-53724800D01*
X95024887Y-53711904D01*
X95026874Y-53709787D01*
X95026877Y-53709786D01*
X95072935Y-53660738D01*
X95075550Y-53658039D01*
X95095120Y-53638471D01*
X95097585Y-53635292D01*
X95105167Y-53626416D01*
X95135062Y-53594582D01*
X95144712Y-53577027D01*
X95155400Y-53560757D01*
X95158755Y-53556432D01*
X95167673Y-53544936D01*
X95185026Y-53504832D01*
X95190157Y-53494362D01*
X95211197Y-53456092D01*
X95216175Y-53436699D01*
X95222481Y-53418282D01*
X95227643Y-53406354D01*
X95230438Y-53399896D01*
X95237272Y-53356745D01*
X95239635Y-53345331D01*
X95250500Y-53303019D01*
X95250500Y-53282982D01*
X95252027Y-53263584D01*
X95255160Y-53243804D01*
X95251047Y-53200303D01*
X95250499Y-53188676D01*
X95250499Y-49928749D01*
X95252764Y-49908240D01*
X95252121Y-49887784D01*
X95250561Y-49838112D01*
X95250500Y-49834218D01*
X95250500Y-49810541D01*
X95250500Y-49806650D01*
X95249998Y-49802683D01*
X95249081Y-49791027D01*
X95247710Y-49747373D01*
X95242118Y-49728126D01*
X95238174Y-49709085D01*
X95235664Y-49689208D01*
X95219579Y-49648583D01*
X95215806Y-49637562D01*
X95203618Y-49595610D01*
X95203617Y-49595609D01*
X95199247Y-49580565D01*
X95203165Y-49579426D01*
X95192832Y-49538715D01*
X95193424Y-49530369D01*
X95195460Y-49511000D01*
X95175674Y-49322744D01*
X95118356Y-49146337D01*
X95117179Y-49142715D01*
X95022533Y-48978783D01*
X94895870Y-48838110D01*
X94742730Y-48726848D01*
X94569802Y-48649855D01*
X94384648Y-48610500D01*
X94384646Y-48610500D01*
X94195354Y-48610500D01*
X94195352Y-48610500D01*
X94010199Y-48649854D01*
X93857935Y-48717647D01*
X93788685Y-48726931D01*
X93725409Y-48697303D01*
X93688196Y-48638167D01*
X93683500Y-48604367D01*
X93683500Y-48079744D01*
X93685764Y-48059240D01*
X93684872Y-48030856D01*
X93683561Y-47989113D01*
X93683500Y-47985219D01*
X93683500Y-47961541D01*
X93683500Y-47957650D01*
X93682998Y-47953683D01*
X93682081Y-47942027D01*
X93680710Y-47898374D01*
X93675117Y-47879126D01*
X93671175Y-47860087D01*
X93668664Y-47840208D01*
X93652580Y-47799586D01*
X93648805Y-47788558D01*
X93636618Y-47746611D01*
X93626419Y-47729365D01*
X93617865Y-47711906D01*
X93610486Y-47693268D01*
X93584818Y-47657939D01*
X93578406Y-47648178D01*
X93556170Y-47610579D01*
X93542006Y-47596415D01*
X93529369Y-47581620D01*
X93517593Y-47565412D01*
X93483947Y-47537578D01*
X93475306Y-47529715D01*
X93036962Y-47091370D01*
X93003477Y-47030047D01*
X93001325Y-47016671D01*
X92983676Y-46848744D01*
X92925181Y-46668716D01*
X92925181Y-46668715D01*
X92830535Y-46504783D01*
X92703872Y-46364110D01*
X92550732Y-46252848D01*
X92377804Y-46175855D01*
X92192650Y-46136500D01*
X92192648Y-46136500D01*
X92003356Y-46136500D01*
X92003354Y-46136500D01*
X91818199Y-46175855D01*
X91645271Y-46252848D01*
X91492131Y-46364110D01*
X91365468Y-46504783D01*
X91270822Y-46668715D01*
X91212328Y-46848742D01*
X91192542Y-47036999D01*
X91212328Y-47225257D01*
X91270822Y-47405284D01*
X91365468Y-47569216D01*
X91492131Y-47709889D01*
X91645271Y-47821151D01*
X91818199Y-47898144D01*
X92003354Y-47937500D01*
X92003356Y-47937500D01*
X92062548Y-47937500D01*
X92129587Y-47957185D01*
X92150229Y-47973819D01*
X92396181Y-48219771D01*
X92429666Y-48281094D01*
X92432500Y-48307452D01*
X92432500Y-49409490D01*
X92412815Y-49476529D01*
X92360011Y-49522284D01*
X92290853Y-49532228D01*
X92282720Y-49530781D01*
X92270228Y-49528125D01*
X92229646Y-49519500D01*
X92040354Y-49519500D01*
X92040352Y-49519500D01*
X91855197Y-49558855D01*
X91682269Y-49635848D01*
X91529129Y-49747110D01*
X91402466Y-49887783D01*
X91307820Y-50051715D01*
X91249326Y-50231742D01*
X91231679Y-50399649D01*
X91205094Y-50464263D01*
X91196039Y-50474368D01*
X91024213Y-50646194D01*
X91008115Y-50659091D01*
X90960101Y-50710220D01*
X90957397Y-50713011D01*
X90940633Y-50729775D01*
X90940626Y-50729782D01*
X90937885Y-50732524D01*
X90935504Y-50735592D01*
X90935495Y-50735603D01*
X90935416Y-50735706D01*
X90927847Y-50744567D01*
X90897940Y-50776415D01*
X90888290Y-50793969D01*
X90877614Y-50810223D01*
X90865331Y-50826058D01*
X90847980Y-50866153D01*
X90842843Y-50876639D01*
X90821807Y-50914902D01*
X90816826Y-50934304D01*
X90810525Y-50952706D01*
X90802566Y-50971097D01*
X90795733Y-51014237D01*
X90793365Y-51025669D01*
X90782505Y-51067972D01*
X90782505Y-51088011D01*
X90780977Y-51107409D01*
X90777845Y-51127191D01*
X90780731Y-51157716D01*
X90781955Y-51170668D01*
X90782505Y-51182338D01*
X90782505Y-51910312D01*
X90762820Y-51977351D01*
X90750655Y-51993284D01*
X90675471Y-52076783D01*
X90580825Y-52240715D01*
X90522331Y-52420742D01*
X90502545Y-52609000D01*
X90522331Y-52797257D01*
X90580825Y-52977284D01*
X90675471Y-53141216D01*
X90802134Y-53281889D01*
X90955274Y-53393151D01*
X91128202Y-53470144D01*
X91313357Y-53509500D01*
X91313359Y-53509500D01*
X91502653Y-53509500D01*
X91632302Y-53481942D01*
X91687808Y-53470144D01*
X91860735Y-53393151D01*
X91926569Y-53345320D01*
X92013875Y-53281889D01*
X92037956Y-53255145D01*
X92140538Y-53141216D01*
X92201112Y-53036297D01*
X92251678Y-52988083D01*
X92320285Y-52974859D01*
X92385150Y-53000827D01*
X92425679Y-53057741D01*
X92432499Y-53098298D01*
X92432499Y-54388260D01*
X92430235Y-54408771D01*
X92432439Y-54478873D01*
X92432500Y-54482768D01*
X92432500Y-54510350D01*
X92432988Y-54514219D01*
X92432989Y-54514225D01*
X92433004Y-54514343D01*
X92433918Y-54525967D01*
X92435290Y-54569626D01*
X92440879Y-54588860D01*
X92444825Y-54607916D01*
X92447335Y-54627792D01*
X92463414Y-54668404D01*
X92467197Y-54679451D01*
X92479382Y-54721391D01*
X92489580Y-54738635D01*
X92498136Y-54756100D01*
X92505514Y-54774732D01*
X92505515Y-54774733D01*
X92531180Y-54810059D01*
X92537593Y-54819822D01*
X92559826Y-54857416D01*
X92559829Y-54857419D01*
X92559830Y-54857420D01*
X92573995Y-54871585D01*
X92586627Y-54886375D01*
X92598406Y-54902587D01*
X92632058Y-54930426D01*
X92640699Y-54938289D01*
X92770729Y-55068319D01*
X92804214Y-55129642D01*
X92799230Y-55199334D01*
X92757358Y-55255267D01*
X92691894Y-55279684D01*
X92683048Y-55280000D01*
X89682951Y-55280000D01*
X89615912Y-55260315D01*
X89595270Y-55243681D01*
X88673457Y-54321867D01*
X88639972Y-54260544D01*
X88637820Y-54247166D01*
X88620171Y-54079242D01*
X88575480Y-53941697D01*
X88561676Y-53899213D01*
X88467030Y-53735281D01*
X88340367Y-53594608D01*
X88187227Y-53483346D01*
X88014299Y-53406353D01*
X87829145Y-53366998D01*
X87829143Y-53366998D01*
X87758997Y-53366998D01*
X87691958Y-53347313D01*
X87646203Y-53294509D01*
X87634997Y-53242998D01*
X87634997Y-43962955D01*
X87654682Y-43895916D01*
X87671316Y-43875274D01*
X88927772Y-42618819D01*
X88989095Y-42585334D01*
X89015453Y-42582500D01*
X89074648Y-42582500D01*
X89205017Y-42554789D01*
X89259803Y-42543144D01*
X89432730Y-42466151D01*
X89468926Y-42439853D01*
X89585870Y-42354889D01*
X89712533Y-42214216D01*
X89807179Y-42050284D01*
X89807179Y-42050283D01*
X89865674Y-41870256D01*
X89885460Y-41682000D01*
X89865674Y-41493744D01*
X89807179Y-41313716D01*
X89807179Y-41313715D01*
X89712533Y-41149783D01*
X89585870Y-41009110D01*
X89432730Y-40897848D01*
X89259802Y-40820855D01*
X89074648Y-40781500D01*
X89074646Y-40781500D01*
X88885354Y-40781500D01*
X88885352Y-40781500D01*
X88700197Y-40820855D01*
X88527269Y-40897848D01*
X88374129Y-41009110D01*
X88247466Y-41149783D01*
X88152820Y-41313715D01*
X88094326Y-41493742D01*
X88076679Y-41661649D01*
X88050094Y-41726263D01*
X88041039Y-41736368D01*
X86625705Y-43151702D01*
X86609607Y-43164599D01*
X86561593Y-43215728D01*
X86558889Y-43218519D01*
X86542125Y-43235283D01*
X86542118Y-43235290D01*
X86539377Y-43238032D01*
X86536996Y-43241100D01*
X86536987Y-43241111D01*
X86536908Y-43241214D01*
X86529339Y-43250075D01*
X86499432Y-43281923D01*
X86489782Y-43299477D01*
X86479106Y-43315731D01*
X86466823Y-43331566D01*
X86449472Y-43371661D01*
X86444335Y-43382147D01*
X86423299Y-43420410D01*
X86418318Y-43439812D01*
X86412017Y-43458214D01*
X86404058Y-43476605D01*
X86397225Y-43519745D01*
X86394857Y-43531177D01*
X86383997Y-43573480D01*
X86383997Y-43593519D01*
X86382470Y-43612917D01*
X86379337Y-43632697D01*
X84582000Y-43632697D01*
X84582000Y-35980999D01*
X103949540Y-35980999D01*
X103969326Y-36169257D01*
X104027820Y-36349284D01*
X104122464Y-36513213D01*
X104122467Y-36513216D01*
X104191604Y-36590000D01*
X104197650Y-36596714D01*
X104227880Y-36659706D01*
X104229500Y-36679687D01*
X104229499Y-37171957D01*
X104227235Y-37192464D01*
X104229439Y-37262573D01*
X104229500Y-37266468D01*
X104229500Y-37294051D01*
X104229988Y-37297920D01*
X104229989Y-37297926D01*
X104230004Y-37298044D01*
X104230918Y-37309668D01*
X104232290Y-37353327D01*
X104237879Y-37372561D01*
X104241825Y-37391617D01*
X104244335Y-37411493D01*
X104260414Y-37452105D01*
X104264197Y-37463152D01*
X104276382Y-37505092D01*
X104286580Y-37522336D01*
X104295136Y-37539801D01*
X104302514Y-37558433D01*
X104302515Y-37558434D01*
X104328180Y-37593760D01*
X104334593Y-37603523D01*
X104356826Y-37641117D01*
X104356829Y-37641120D01*
X104356830Y-37641121D01*
X104370995Y-37655286D01*
X104383627Y-37670076D01*
X104395406Y-37686288D01*
X104429058Y-37714127D01*
X104437699Y-37721990D01*
X110206224Y-43490515D01*
X110239709Y-43551838D01*
X110234725Y-43621530D01*
X110217612Y-43648231D01*
X110219727Y-43649712D01*
X110077965Y-43852170D01*
X109978097Y-44066336D01*
X109916936Y-44294592D01*
X109896340Y-44530000D01*
X109916936Y-44765407D01*
X109956661Y-44913662D01*
X109978097Y-44993663D01*
X110077965Y-45207830D01*
X110213505Y-45401401D01*
X110380599Y-45568495D01*
X110566160Y-45698426D01*
X110609783Y-45753002D01*
X110616976Y-45822501D01*
X110585454Y-45884855D01*
X110566158Y-45901575D01*
X110415755Y-46006889D01*
X110380595Y-46031508D01*
X110213505Y-46198598D01*
X110077965Y-46392170D01*
X109978097Y-46606336D01*
X109916936Y-46834592D01*
X109896340Y-47069999D01*
X109916936Y-47305407D01*
X109943698Y-47405284D01*
X109978097Y-47533663D01*
X110077965Y-47747830D01*
X110213505Y-47941401D01*
X110380599Y-48108495D01*
X110566160Y-48238426D01*
X110609783Y-48293002D01*
X110616976Y-48362501D01*
X110585454Y-48424855D01*
X110566158Y-48441575D01*
X110448851Y-48523715D01*
X110380595Y-48571508D01*
X110213505Y-48738598D01*
X110077965Y-48932170D01*
X109978097Y-49146336D01*
X109916936Y-49374592D01*
X109896340Y-49609999D01*
X109916936Y-49845407D01*
X109947848Y-49960771D01*
X109978097Y-50073663D01*
X110077965Y-50287830D01*
X110213505Y-50481401D01*
X110380599Y-50648495D01*
X110566160Y-50778426D01*
X110609783Y-50833002D01*
X110616976Y-50902501D01*
X110585454Y-50964855D01*
X110566158Y-50981575D01*
X110402853Y-51095923D01*
X110380595Y-51111508D01*
X110213505Y-51278598D01*
X110077965Y-51472170D01*
X109978097Y-51686336D01*
X109916936Y-51914592D01*
X109896340Y-52150000D01*
X109916936Y-52385407D01*
X109950799Y-52511784D01*
X109978097Y-52613663D01*
X110077965Y-52827830D01*
X110213505Y-53021401D01*
X110380599Y-53188495D01*
X110566160Y-53318426D01*
X110609783Y-53373002D01*
X110616976Y-53442501D01*
X110585454Y-53504855D01*
X110566158Y-53521575D01*
X110408707Y-53631824D01*
X110380595Y-53651508D01*
X110213505Y-53818598D01*
X110077965Y-54012170D01*
X109978097Y-54226336D01*
X109916936Y-54454592D01*
X109896340Y-54690000D01*
X109916936Y-54925407D01*
X109920388Y-54938289D01*
X109978097Y-55153663D01*
X110077965Y-55367830D01*
X110213505Y-55561401D01*
X110380599Y-55728495D01*
X110566160Y-55858426D01*
X110609783Y-55913002D01*
X110616976Y-55982501D01*
X110585454Y-56044855D01*
X110566159Y-56061575D01*
X110380595Y-56191508D01*
X110213505Y-56358598D01*
X110077965Y-56552170D01*
X109978097Y-56766336D01*
X109916936Y-56994592D01*
X109896340Y-57229999D01*
X109916936Y-57465407D01*
X109956661Y-57613662D01*
X109978097Y-57693663D01*
X110077965Y-57907830D01*
X110213505Y-58101401D01*
X110380599Y-58268495D01*
X110566160Y-58398426D01*
X110609783Y-58453002D01*
X110616976Y-58522501D01*
X110585454Y-58584855D01*
X110566158Y-58601575D01*
X110400601Y-58717500D01*
X110380595Y-58731508D01*
X110213505Y-58898598D01*
X110077965Y-59092170D01*
X109978097Y-59306336D01*
X109916936Y-59534592D01*
X109896340Y-59769999D01*
X109916936Y-60005407D01*
X109949558Y-60127152D01*
X109978097Y-60233663D01*
X110077965Y-60447830D01*
X110213505Y-60641401D01*
X110380599Y-60808495D01*
X110566160Y-60938426D01*
X110609783Y-60993002D01*
X110616976Y-61062501D01*
X110585454Y-61124855D01*
X110566159Y-61141575D01*
X110380595Y-61271508D01*
X110213505Y-61438598D01*
X110077965Y-61632170D01*
X109978097Y-61846336D01*
X109916936Y-62074592D01*
X109896340Y-62310000D01*
X109916936Y-62545407D01*
X109942778Y-62641849D01*
X109978097Y-62773663D01*
X110077965Y-62987830D01*
X110213505Y-63181401D01*
X110380599Y-63348495D01*
X110566160Y-63478426D01*
X110609783Y-63533002D01*
X110616976Y-63602501D01*
X110585454Y-63664855D01*
X110566159Y-63681575D01*
X110380595Y-63811508D01*
X110213505Y-63978598D01*
X110077965Y-64172170D01*
X109978097Y-64386336D01*
X109916936Y-64614592D01*
X109896340Y-64850000D01*
X109916936Y-65085407D01*
X109956505Y-65233079D01*
X109978097Y-65313663D01*
X110077965Y-65527830D01*
X110213505Y-65721401D01*
X110380599Y-65888495D01*
X110566160Y-66018426D01*
X110609783Y-66073002D01*
X110616976Y-66142501D01*
X110585454Y-66204855D01*
X110566158Y-66221575D01*
X110432443Y-66315204D01*
X110380595Y-66351508D01*
X110213505Y-66518598D01*
X110077965Y-66712170D01*
X109978097Y-66926336D01*
X109916936Y-67154592D01*
X109896340Y-67390000D01*
X109916936Y-67625407D01*
X109929970Y-67674050D01*
X109978097Y-67853663D01*
X110077965Y-68067830D01*
X110213505Y-68261401D01*
X110380599Y-68428495D01*
X110574170Y-68564035D01*
X110788337Y-68663903D01*
X111016591Y-68725062D01*
X111016592Y-68725063D01*
X111251999Y-68745659D01*
X111251999Y-68745658D01*
X111252000Y-68745659D01*
X111487408Y-68725063D01*
X111715663Y-68663903D01*
X111929830Y-68564035D01*
X112123401Y-68428495D01*
X112290495Y-68261401D01*
X112426035Y-68067830D01*
X112525903Y-67853663D01*
X112587063Y-67625408D01*
X112607659Y-67390000D01*
X112587063Y-67154592D01*
X112525903Y-66926337D01*
X112426035Y-66712171D01*
X112290495Y-66518599D01*
X112123401Y-66351505D01*
X111937839Y-66221573D01*
X111894216Y-66166998D01*
X111887022Y-66097500D01*
X111918545Y-66035145D01*
X111937837Y-66018428D01*
X112123401Y-65888495D01*
X112290495Y-65721401D01*
X112426035Y-65527830D01*
X112525903Y-65313663D01*
X112587063Y-65085408D01*
X112607659Y-64850000D01*
X112587063Y-64614592D01*
X112525903Y-64386337D01*
X112426035Y-64172171D01*
X112290495Y-63978599D01*
X112123401Y-63811505D01*
X111937839Y-63681573D01*
X111894216Y-63626998D01*
X111887022Y-63557500D01*
X111918545Y-63495145D01*
X111937837Y-63478428D01*
X112123401Y-63348495D01*
X112290495Y-63181401D01*
X112426035Y-62987830D01*
X112525903Y-62773663D01*
X112587063Y-62545408D01*
X112607659Y-62310000D01*
X112587063Y-62074592D01*
X112525903Y-61846337D01*
X112426035Y-61632171D01*
X112290495Y-61438599D01*
X112123401Y-61271505D01*
X111937839Y-61141573D01*
X111894216Y-61086998D01*
X111887022Y-61017500D01*
X111918545Y-60955145D01*
X111937837Y-60938428D01*
X112123401Y-60808495D01*
X112290495Y-60641401D01*
X112426035Y-60447830D01*
X112525903Y-60233663D01*
X112587063Y-60005408D01*
X112607659Y-59770000D01*
X112594498Y-59619578D01*
X112587063Y-59534592D01*
X112565627Y-59454592D01*
X112525903Y-59306337D01*
X112426035Y-59092171D01*
X112290495Y-58898599D01*
X112123401Y-58731505D01*
X111937839Y-58601573D01*
X111894217Y-58546998D01*
X111887024Y-58477499D01*
X111918546Y-58415145D01*
X111937837Y-58398428D01*
X112123401Y-58268495D01*
X112290495Y-58101401D01*
X112426035Y-57907830D01*
X112525903Y-57693663D01*
X112587063Y-57465408D01*
X112607659Y-57230000D01*
X112591722Y-57047849D01*
X112587063Y-56994592D01*
X112565627Y-56914592D01*
X112525903Y-56766337D01*
X112426035Y-56552171D01*
X112290495Y-56358599D01*
X112123401Y-56191505D01*
X111937839Y-56061573D01*
X111894216Y-56006998D01*
X111887022Y-55937500D01*
X111918545Y-55875145D01*
X111937837Y-55858428D01*
X112123401Y-55728495D01*
X112290495Y-55561401D01*
X112426035Y-55367830D01*
X112525903Y-55153663D01*
X112587063Y-54925408D01*
X112607659Y-54690000D01*
X112587063Y-54454592D01*
X112525903Y-54226337D01*
X112426035Y-54012171D01*
X112290495Y-53818599D01*
X112123401Y-53651505D01*
X111937839Y-53521573D01*
X111894216Y-53466998D01*
X111887022Y-53397500D01*
X111918545Y-53335145D01*
X111937837Y-53318428D01*
X112123401Y-53188495D01*
X112290495Y-53021401D01*
X112426035Y-52827830D01*
X112525903Y-52613663D01*
X112587063Y-52385408D01*
X112607659Y-52150000D01*
X112590948Y-51959000D01*
X117833671Y-51959000D01*
X117833936Y-51963043D01*
X117835635Y-51988968D01*
X117835831Y-52001219D01*
X117834861Y-52030221D01*
X117834861Y-52030230D01*
X117834723Y-52034369D01*
X117835137Y-52038490D01*
X117835138Y-52038502D01*
X117845664Y-52143136D01*
X117846021Y-52147436D01*
X117851793Y-52235484D01*
X117852966Y-52253380D01*
X117853757Y-52257357D01*
X117853759Y-52257372D01*
X117859469Y-52286083D01*
X117861228Y-52297852D01*
X117864466Y-52330033D01*
X117864467Y-52330040D01*
X117864882Y-52334162D01*
X117865843Y-52338197D01*
X117865845Y-52338205D01*
X117889457Y-52437288D01*
X117890452Y-52441841D01*
X117899201Y-52485823D01*
X117910519Y-52542722D01*
X117911822Y-52546563D01*
X117911826Y-52546575D01*
X117922300Y-52577433D01*
X117925501Y-52588538D01*
X117933769Y-52623229D01*
X117933773Y-52623243D01*
X117934731Y-52627261D01*
X117936214Y-52631112D01*
X117936217Y-52631121D01*
X117971644Y-52723105D01*
X117973348Y-52727811D01*
X117998894Y-52803067D01*
X118005348Y-52822077D01*
X118007141Y-52825713D01*
X118007142Y-52825715D01*
X118023022Y-52857916D01*
X118027523Y-52868191D01*
X118041534Y-52904568D01*
X118043023Y-52908434D01*
X118045014Y-52912067D01*
X118090787Y-52995594D01*
X118093249Y-53000325D01*
X118135828Y-53086665D01*
X118138081Y-53090037D01*
X118138084Y-53090042D01*
X118159868Y-53122644D01*
X118165507Y-53131941D01*
X118187825Y-53172665D01*
X118190284Y-53176002D01*
X118190287Y-53176007D01*
X118244826Y-53250028D01*
X118248099Y-53254691D01*
X118254041Y-53263584D01*
X118299727Y-53331957D01*
X118302399Y-53335004D01*
X118302403Y-53335009D01*
X118330445Y-53366985D01*
X118337039Y-53375180D01*
X118366554Y-53415238D01*
X118369439Y-53418221D01*
X118431064Y-53481942D01*
X118435156Y-53486385D01*
X118473245Y-53529816D01*
X118494242Y-53553758D01*
X118497288Y-53556429D01*
X118497291Y-53556432D01*
X118531755Y-53586657D01*
X118539128Y-53593679D01*
X118570192Y-53625798D01*
X118576020Y-53631824D01*
X118609133Y-53657973D01*
X118646241Y-53687276D01*
X118651152Y-53691364D01*
X118716043Y-53748273D01*
X118760308Y-53777850D01*
X118768228Y-53783609D01*
X118812485Y-53818558D01*
X118816052Y-53820671D01*
X118816054Y-53820672D01*
X118886610Y-53862462D01*
X118892309Y-53866050D01*
X118954920Y-53907886D01*
X118961335Y-53912172D01*
X118964975Y-53913967D01*
X119012036Y-53937175D01*
X119020381Y-53941695D01*
X119071730Y-53972109D01*
X119075534Y-53973722D01*
X119075538Y-53973724D01*
X119148009Y-54004454D01*
X119154439Y-54007400D01*
X119225923Y-54042652D01*
X119276360Y-54059773D01*
X119282585Y-54061886D01*
X119291134Y-54065144D01*
X119349128Y-54089736D01*
X119412602Y-54107123D01*
X119425832Y-54110747D01*
X119432916Y-54112916D01*
X119505278Y-54137481D01*
X119567232Y-54149804D01*
X119575786Y-54151824D01*
X119639729Y-54169340D01*
X119715297Y-54179502D01*
X119722934Y-54180774D01*
X119794620Y-54195034D01*
X119798660Y-54195298D01*
X119798662Y-54195299D01*
X119805676Y-54195758D01*
X119860972Y-54199382D01*
X119869339Y-54200218D01*
X119938347Y-54209500D01*
X120011273Y-54209500D01*
X120019383Y-54209766D01*
X120089000Y-54214329D01*
X120161239Y-54209594D01*
X120163143Y-54209500D01*
X120164244Y-54209500D01*
X120237842Y-54204573D01*
X120383380Y-54195034D01*
X120384453Y-54194819D01*
X120384685Y-54194797D01*
X120385487Y-54194689D01*
X120389634Y-54194412D01*
X120532658Y-54165341D01*
X120672722Y-54137481D01*
X120675833Y-54136424D01*
X120680192Y-54135398D01*
X120680828Y-54135223D01*
X120684903Y-54134396D01*
X120819821Y-54087547D01*
X120952077Y-54042652D01*
X120955724Y-54040852D01*
X120959476Y-54039299D01*
X120951809Y-54042798D01*
X120963169Y-54038011D01*
X120961803Y-54038538D01*
X120965616Y-54036921D01*
X120969537Y-54035560D01*
X121094220Y-53972554D01*
X121216665Y-53912172D01*
X121220039Y-53909916D01*
X121223557Y-53907886D01*
X121223088Y-53908177D01*
X121232540Y-53902658D01*
X121238459Y-53899668D01*
X121351040Y-53822385D01*
X121461957Y-53748273D01*
X121467074Y-53743784D01*
X121478655Y-53734781D01*
X121486869Y-53729144D01*
X121585824Y-53639643D01*
X121683758Y-53553758D01*
X121690434Y-53546143D01*
X121700494Y-53535930D01*
X121710333Y-53527032D01*
X121794443Y-53427545D01*
X121878273Y-53331957D01*
X121885744Y-53320774D01*
X121894144Y-53309618D01*
X121904865Y-53296939D01*
X121972611Y-53190815D01*
X121973972Y-53188732D01*
X122042172Y-53086665D01*
X122049588Y-53071625D01*
X122056274Y-53059759D01*
X122066993Y-53042970D01*
X122118611Y-52931733D01*
X122119806Y-52929236D01*
X122172652Y-52822077D01*
X122179109Y-52803053D01*
X122184048Y-52790722D01*
X122192078Y-52773419D01*
X122192079Y-52773414D01*
X122193823Y-52769658D01*
X122229150Y-52655773D01*
X122230150Y-52652691D01*
X122267481Y-52542722D01*
X122272047Y-52519759D01*
X122275225Y-52507238D01*
X122283093Y-52481879D01*
X122302383Y-52367516D01*
X122303023Y-52364033D01*
X122325034Y-52253380D01*
X122326781Y-52226712D01*
X122328239Y-52214229D01*
X122333209Y-52184770D01*
X122336973Y-52072173D01*
X122337169Y-52068227D01*
X122337826Y-52058216D01*
X122344329Y-51959000D01*
X122342363Y-51929022D01*
X122342167Y-51916803D01*
X122343277Y-51883631D01*
X122332336Y-51774880D01*
X122331979Y-51770584D01*
X122329802Y-51737367D01*
X122325034Y-51664620D01*
X122318528Y-51631912D01*
X122316770Y-51620143D01*
X122313533Y-51587967D01*
X122313118Y-51583838D01*
X122288532Y-51480675D01*
X122287556Y-51476210D01*
X122267481Y-51375278D01*
X122255695Y-51340559D01*
X122252496Y-51329457D01*
X122244229Y-51294769D01*
X122243269Y-51290739D01*
X122206351Y-51194884D01*
X122204655Y-51190200D01*
X122189168Y-51144577D01*
X122172652Y-51095923D01*
X122154973Y-51060073D01*
X122150479Y-51049816D01*
X122134977Y-51009566D01*
X122119637Y-50981575D01*
X122087198Y-50922381D01*
X122084755Y-50917688D01*
X122042172Y-50831336D01*
X122039912Y-50827953D01*
X122039911Y-50827952D01*
X122018133Y-50795360D01*
X122012491Y-50786058D01*
X122007801Y-50777500D01*
X121990175Y-50745335D01*
X121933169Y-50667966D01*
X121929897Y-50663304D01*
X121919999Y-50648491D01*
X121878273Y-50586043D01*
X121847553Y-50551013D01*
X121840954Y-50542810D01*
X121813908Y-50506103D01*
X121813905Y-50506100D01*
X121811446Y-50502762D01*
X121746934Y-50436056D01*
X121742842Y-50431613D01*
X121695165Y-50377249D01*
X121683758Y-50364242D01*
X121680717Y-50361575D01*
X121680707Y-50361565D01*
X121646237Y-50331335D01*
X121638864Y-50324313D01*
X121604861Y-50289155D01*
X121601980Y-50286176D01*
X121598730Y-50283609D01*
X121598725Y-50283605D01*
X121531768Y-50230730D01*
X121526858Y-50226643D01*
X121465015Y-50172408D01*
X121465007Y-50172402D01*
X121461957Y-50169727D01*
X121458583Y-50167473D01*
X121458572Y-50167464D01*
X121417701Y-50140154D01*
X121409745Y-50134369D01*
X121368770Y-50102012D01*
X121368766Y-50102009D01*
X121365515Y-50099442D01*
X121361945Y-50097327D01*
X121361940Y-50097324D01*
X121291387Y-50055535D01*
X121285690Y-50051948D01*
X121220042Y-50008084D01*
X121220037Y-50008081D01*
X121216665Y-50005828D01*
X121213030Y-50004035D01*
X121213026Y-50004033D01*
X121165949Y-49980816D01*
X121157615Y-49976302D01*
X121106270Y-49945891D01*
X121029997Y-49913548D01*
X121023570Y-49910603D01*
X120955720Y-49877143D01*
X120955701Y-49877135D01*
X120952077Y-49875348D01*
X120948247Y-49874047D01*
X120948245Y-49874047D01*
X120895409Y-49856111D01*
X120886863Y-49852853D01*
X120832700Y-49829886D01*
X120832684Y-49829880D01*
X120828872Y-49828264D01*
X120824874Y-49827168D01*
X120824866Y-49827166D01*
X120752154Y-49807248D01*
X120745074Y-49805079D01*
X120672722Y-49780519D01*
X120668749Y-49779728D01*
X120668739Y-49779726D01*
X120610777Y-49768197D01*
X120602210Y-49766174D01*
X120542270Y-49749755D01*
X120542264Y-49749753D01*
X120538271Y-49748660D01*
X120534170Y-49748108D01*
X120534158Y-49748106D01*
X120462717Y-49738497D01*
X120455058Y-49737222D01*
X120387361Y-49723757D01*
X120387348Y-49723755D01*
X120383380Y-49722966D01*
X120379328Y-49722700D01*
X120379325Y-49722700D01*
X120317070Y-49718619D01*
X120308655Y-49717779D01*
X120243756Y-49709051D01*
X120243744Y-49709050D01*
X120239653Y-49708500D01*
X120235512Y-49708500D01*
X120166727Y-49708500D01*
X120158617Y-49708234D01*
X120093058Y-49703937D01*
X120089000Y-49703671D01*
X120016776Y-49708404D01*
X120014855Y-49708500D01*
X120013756Y-49708500D01*
X120011696Y-49708637D01*
X120011692Y-49708638D01*
X119940157Y-49713426D01*
X119797845Y-49722754D01*
X119797827Y-49722755D01*
X119794620Y-49722966D01*
X119793533Y-49723181D01*
X119793259Y-49723209D01*
X119792504Y-49723310D01*
X119788366Y-49723588D01*
X119784301Y-49724414D01*
X119784295Y-49724415D01*
X119645341Y-49752658D01*
X119509257Y-49779727D01*
X119509249Y-49779728D01*
X119505278Y-49780519D01*
X119502169Y-49781573D01*
X119497810Y-49782600D01*
X119497160Y-49782777D01*
X119493097Y-49783604D01*
X119489182Y-49784963D01*
X119489176Y-49784965D01*
X119358178Y-49830452D01*
X119229765Y-49874043D01*
X119229754Y-49874047D01*
X119225923Y-49875348D01*
X119222284Y-49877141D01*
X119218538Y-49878694D01*
X119225357Y-49875612D01*
X119215377Y-49879775D01*
X119216192Y-49879462D01*
X119212363Y-49881085D01*
X119208463Y-49882440D01*
X119204782Y-49884299D01*
X119204775Y-49884303D01*
X119083757Y-49945456D01*
X118964967Y-50004037D01*
X118964962Y-50004039D01*
X118961336Y-50005828D01*
X118957972Y-50008074D01*
X118954446Y-50010111D01*
X118954844Y-50009863D01*
X118945491Y-50015324D01*
X118943242Y-50016460D01*
X118943223Y-50016470D01*
X118939541Y-50018332D01*
X118936133Y-50020671D01*
X118936127Y-50020675D01*
X118826943Y-50095626D01*
X118719426Y-50167465D01*
X118719410Y-50167477D01*
X118716043Y-50169727D01*
X118712996Y-50172398D01*
X118712979Y-50172412D01*
X118710914Y-50174224D01*
X118699353Y-50183211D01*
X118694554Y-50186505D01*
X118694543Y-50186513D01*
X118691131Y-50188856D01*
X118688058Y-50191634D01*
X118688052Y-50191640D01*
X118592175Y-50278356D01*
X118497286Y-50361572D01*
X118497282Y-50361575D01*
X118494242Y-50364242D01*
X118491580Y-50367276D01*
X118491567Y-50367290D01*
X118487557Y-50371863D01*
X118477520Y-50382055D01*
X118470735Y-50388191D01*
X118470720Y-50388206D01*
X118467667Y-50390968D01*
X118464998Y-50394124D01*
X118464993Y-50394130D01*
X118383556Y-50490454D01*
X118302406Y-50582987D01*
X118302398Y-50582996D01*
X118299727Y-50586043D01*
X118297471Y-50589417D01*
X118297467Y-50589424D01*
X118292247Y-50597235D01*
X118283852Y-50608382D01*
X118275813Y-50617891D01*
X118275800Y-50617907D01*
X118273135Y-50621061D01*
X118270913Y-50624541D01*
X118270909Y-50624547D01*
X118205420Y-50727132D01*
X118204005Y-50729297D01*
X118138087Y-50827953D01*
X118138078Y-50827968D01*
X118135828Y-50831336D01*
X118134034Y-50834971D01*
X118134033Y-50834975D01*
X118128412Y-50846372D01*
X118121727Y-50858234D01*
X118113236Y-50871536D01*
X118113227Y-50871550D01*
X118111007Y-50875030D01*
X118109271Y-50878769D01*
X118109267Y-50878778D01*
X118059412Y-50986212D01*
X118058146Y-50988857D01*
X118026440Y-51053152D01*
X118005348Y-51095923D01*
X118004046Y-51099755D01*
X118004045Y-51099760D01*
X117998891Y-51114943D01*
X117993954Y-51127271D01*
X117985923Y-51144577D01*
X117985918Y-51144589D01*
X117984177Y-51148342D01*
X117982949Y-51152298D01*
X117982946Y-51152308D01*
X117948852Y-51262215D01*
X117947850Y-51265300D01*
X117910519Y-51375278D01*
X117909727Y-51379254D01*
X117909723Y-51379273D01*
X117905951Y-51398236D01*
X117902769Y-51410774D01*
X117894907Y-51436121D01*
X117894219Y-51440194D01*
X117894214Y-51440219D01*
X117875622Y-51550434D01*
X117874968Y-51553996D01*
X117853758Y-51660636D01*
X117852966Y-51664620D01*
X117852701Y-51668662D01*
X117852700Y-51668672D01*
X117851218Y-51691274D01*
X117849758Y-51703777D01*
X117845479Y-51729148D01*
X117844791Y-51733230D01*
X117844652Y-51737357D01*
X117844652Y-51737367D01*
X117841027Y-51845779D01*
X117840831Y-51849743D01*
X117836438Y-51916781D01*
X117833671Y-51959000D01*
X112590948Y-51959000D01*
X112587063Y-51914592D01*
X112525903Y-51686337D01*
X112426035Y-51472171D01*
X112290495Y-51278599D01*
X112123401Y-51111505D01*
X111937839Y-50981573D01*
X111894216Y-50926998D01*
X111887022Y-50857500D01*
X111918545Y-50795145D01*
X111937837Y-50778428D01*
X112123401Y-50648495D01*
X112290495Y-50481401D01*
X112426035Y-50287830D01*
X112525903Y-50073663D01*
X112587063Y-49845408D01*
X112607659Y-49610000D01*
X112587063Y-49374592D01*
X112525903Y-49146337D01*
X112426035Y-48932171D01*
X112290495Y-48738599D01*
X112123401Y-48571505D01*
X111937839Y-48441573D01*
X111894216Y-48386998D01*
X111887022Y-48317500D01*
X111918545Y-48255145D01*
X111937837Y-48238428D01*
X112123401Y-48108495D01*
X112290495Y-47941401D01*
X112426035Y-47747830D01*
X112525903Y-47533663D01*
X112587063Y-47305408D01*
X112607659Y-47070000D01*
X112604163Y-47030047D01*
X112587063Y-46834592D01*
X112542617Y-46668716D01*
X112525903Y-46606337D01*
X112426035Y-46392171D01*
X112290495Y-46198599D01*
X112123401Y-46031505D01*
X111937839Y-45901573D01*
X111894216Y-45846998D01*
X111887022Y-45777500D01*
X111918545Y-45715145D01*
X111937837Y-45698428D01*
X112123401Y-45568495D01*
X112290495Y-45401401D01*
X112426035Y-45207830D01*
X112525903Y-44993663D01*
X112587063Y-44765408D01*
X112607659Y-44530000D01*
X112587063Y-44294592D01*
X112525903Y-44066337D01*
X112499122Y-44008905D01*
X112488630Y-43939828D01*
X112517150Y-43876044D01*
X112575626Y-43837804D01*
X112611504Y-43832500D01*
X127946548Y-43832500D01*
X128013587Y-43852185D01*
X128034229Y-43868819D01*
X133003038Y-48837629D01*
X133036523Y-48898952D01*
X133038678Y-48912348D01*
X133056326Y-49080257D01*
X133114820Y-49260284D01*
X133209466Y-49424216D01*
X133336129Y-49564889D01*
X133489269Y-49676151D01*
X133662197Y-49753144D01*
X133847352Y-49792500D01*
X133847354Y-49792500D01*
X134036648Y-49792500D01*
X134164110Y-49765407D01*
X134221803Y-49753144D01*
X134394730Y-49676151D01*
X134450203Y-49635848D01*
X134547870Y-49564889D01*
X134578976Y-49530343D01*
X134674533Y-49424216D01*
X134769179Y-49260284D01*
X134773286Y-49247642D01*
X134812723Y-49189966D01*
X134877082Y-49162767D01*
X134945928Y-49174681D01*
X134997404Y-49221924D01*
X135015167Y-49289498D01*
X135014746Y-49296766D01*
X134994340Y-49529999D01*
X135014936Y-49765407D01*
X135045327Y-49878826D01*
X135076097Y-49993663D01*
X135175965Y-50207830D01*
X135311505Y-50401401D01*
X135478599Y-50568495D01*
X135664160Y-50698426D01*
X135707783Y-50753002D01*
X135714976Y-50822501D01*
X135683454Y-50884855D01*
X135664158Y-50901575D01*
X135495012Y-51020013D01*
X135478595Y-51031508D01*
X135311505Y-51198598D01*
X135175965Y-51392170D01*
X135076097Y-51606336D01*
X135014936Y-51834592D01*
X134994340Y-52070000D01*
X135014936Y-52305407D01*
X135038383Y-52392912D01*
X135076097Y-52533663D01*
X135175965Y-52747830D01*
X135311505Y-52941401D01*
X135478599Y-53108495D01*
X135664160Y-53238426D01*
X135707783Y-53293002D01*
X135714976Y-53362501D01*
X135683454Y-53424855D01*
X135664158Y-53441575D01*
X135503945Y-53553758D01*
X135478595Y-53571508D01*
X135311505Y-53738598D01*
X135175965Y-53932170D01*
X135076097Y-54146336D01*
X135014936Y-54374592D01*
X134994340Y-54610000D01*
X135014936Y-54845407D01*
X135039824Y-54938289D01*
X135076097Y-55073663D01*
X135175965Y-55287830D01*
X135311505Y-55481401D01*
X135478599Y-55648495D01*
X135664160Y-55778426D01*
X135707783Y-55833002D01*
X135714976Y-55902501D01*
X135683454Y-55964855D01*
X135664158Y-55981575D01*
X135573786Y-56044855D01*
X135478595Y-56111508D01*
X135311505Y-56278598D01*
X135175965Y-56472170D01*
X135076097Y-56686336D01*
X135014936Y-56914592D01*
X134994340Y-57149999D01*
X135014936Y-57385407D01*
X135059709Y-57552502D01*
X135076097Y-57613663D01*
X135175965Y-57827830D01*
X135311505Y-58021401D01*
X135478599Y-58188495D01*
X135664160Y-58318426D01*
X135707783Y-58373002D01*
X135714976Y-58442501D01*
X135683454Y-58504855D01*
X135664158Y-58521575D01*
X135573786Y-58584855D01*
X135478595Y-58651508D01*
X135311505Y-58818598D01*
X135175965Y-59012170D01*
X135076097Y-59226336D01*
X135014936Y-59454592D01*
X134994340Y-59689999D01*
X135014936Y-59925407D01*
X135039181Y-60015889D01*
X135076097Y-60153663D01*
X135175965Y-60367830D01*
X135311505Y-60561401D01*
X135478599Y-60728495D01*
X135664160Y-60858426D01*
X135707783Y-60913002D01*
X135714976Y-60982501D01*
X135683454Y-61044855D01*
X135664158Y-61061575D01*
X135573786Y-61124855D01*
X135478595Y-61191508D01*
X135311505Y-61358598D01*
X135175965Y-61552170D01*
X135076097Y-61766336D01*
X135014936Y-61994592D01*
X134994340Y-62230000D01*
X135014936Y-62465407D01*
X135048046Y-62588974D01*
X135076097Y-62693663D01*
X135175965Y-62907830D01*
X135311505Y-63101401D01*
X135478599Y-63268495D01*
X135664160Y-63398426D01*
X135707783Y-63453002D01*
X135714976Y-63522501D01*
X135683454Y-63584855D01*
X135664158Y-63601575D01*
X135573786Y-63664855D01*
X135478595Y-63731508D01*
X135311505Y-63898598D01*
X135175965Y-64092170D01*
X135076097Y-64306336D01*
X135014936Y-64534592D01*
X134994340Y-64769999D01*
X135014936Y-65005407D01*
X135053918Y-65150888D01*
X135076097Y-65233663D01*
X135175965Y-65447830D01*
X135311505Y-65641401D01*
X135311508Y-65641404D01*
X135433430Y-65763326D01*
X135466915Y-65824649D01*
X135461931Y-65894341D01*
X135420059Y-65950274D01*
X135389083Y-65967189D01*
X135257669Y-66016204D01*
X135142454Y-66102454D01*
X135056204Y-66217668D01*
X135005909Y-66352516D01*
X135000648Y-66401454D01*
X134999500Y-66412127D01*
X134999500Y-66415448D01*
X134999500Y-66415449D01*
X134999500Y-68204560D01*
X134999500Y-68204578D01*
X134999501Y-68207872D01*
X134999853Y-68211152D01*
X134999854Y-68211159D01*
X135005909Y-68267483D01*
X135056204Y-68402331D01*
X135142454Y-68517546D01*
X135257669Y-68603796D01*
X135392517Y-68654091D01*
X135452127Y-68660500D01*
X137247872Y-68660499D01*
X137307483Y-68654091D01*
X137442331Y-68603796D01*
X137557546Y-68517546D01*
X137643796Y-68402331D01*
X137694091Y-68267483D01*
X137700500Y-68207873D01*
X137700499Y-66412128D01*
X137694091Y-66352517D01*
X137643796Y-66217669D01*
X137557546Y-66102454D01*
X137442331Y-66016204D01*
X137380898Y-65993291D01*
X137310916Y-65967189D01*
X137254983Y-65925317D01*
X137230566Y-65859853D01*
X137245418Y-65791580D01*
X137266563Y-65763332D01*
X137388495Y-65641401D01*
X137524035Y-65447830D01*
X137623903Y-65233663D01*
X137685063Y-65005408D01*
X137705659Y-64770000D01*
X137685063Y-64534592D01*
X137623903Y-64306337D01*
X137524035Y-64092171D01*
X137388495Y-63898599D01*
X137221401Y-63731505D01*
X137035839Y-63601573D01*
X136992217Y-63546998D01*
X136985024Y-63477499D01*
X137016546Y-63415145D01*
X137035837Y-63398428D01*
X137221401Y-63268495D01*
X137388495Y-63101401D01*
X137524035Y-62907830D01*
X137623903Y-62693663D01*
X137685063Y-62465408D01*
X137705659Y-62230000D01*
X137685063Y-61994592D01*
X137623903Y-61766337D01*
X137524035Y-61552171D01*
X137388495Y-61358599D01*
X137221401Y-61191505D01*
X137035839Y-61061573D01*
X136992216Y-61006998D01*
X136985022Y-60937500D01*
X137016545Y-60875145D01*
X137035837Y-60858428D01*
X137221401Y-60728495D01*
X137388495Y-60561401D01*
X137524035Y-60367830D01*
X137623903Y-60153663D01*
X137685063Y-59925408D01*
X137705659Y-59690000D01*
X137685063Y-59454592D01*
X137623903Y-59226337D01*
X137524035Y-59012171D01*
X137388495Y-58818599D01*
X137221401Y-58651505D01*
X137035839Y-58521573D01*
X136992216Y-58466998D01*
X136985022Y-58397500D01*
X137016545Y-58335145D01*
X137035837Y-58318428D01*
X137221401Y-58188495D01*
X137388495Y-58021401D01*
X137524035Y-57827830D01*
X137623903Y-57613663D01*
X137685063Y-57385408D01*
X137705659Y-57150000D01*
X137689985Y-56970855D01*
X137685063Y-56914592D01*
X137647888Y-56775853D01*
X137623903Y-56686337D01*
X137524035Y-56472171D01*
X137388495Y-56278599D01*
X137221401Y-56111505D01*
X137035839Y-55981573D01*
X136992216Y-55926998D01*
X136985022Y-55857500D01*
X137016545Y-55795145D01*
X137035837Y-55778428D01*
X137221401Y-55648495D01*
X137388495Y-55481401D01*
X137524035Y-55287830D01*
X137623903Y-55073663D01*
X137685063Y-54845408D01*
X137705659Y-54610000D01*
X137685063Y-54374592D01*
X137623903Y-54146337D01*
X137524035Y-53932171D01*
X137388495Y-53738599D01*
X137221401Y-53571505D01*
X137035839Y-53441573D01*
X136992217Y-53386998D01*
X136985024Y-53317499D01*
X137016546Y-53255145D01*
X137035837Y-53238428D01*
X137221401Y-53108495D01*
X137388495Y-52941401D01*
X137524035Y-52747830D01*
X137623903Y-52533663D01*
X137685063Y-52305408D01*
X137705659Y-52070000D01*
X137685063Y-51834592D01*
X137623903Y-51606337D01*
X137524035Y-51392171D01*
X137388495Y-51198599D01*
X137221401Y-51031505D01*
X137035839Y-50901573D01*
X136992216Y-50846998D01*
X136985022Y-50777500D01*
X137016545Y-50715145D01*
X137035837Y-50698428D01*
X137221401Y-50568495D01*
X137388495Y-50401401D01*
X137524035Y-50207830D01*
X137623903Y-49993663D01*
X137685063Y-49765408D01*
X137705659Y-49530000D01*
X137685063Y-49294592D01*
X137623903Y-49066337D01*
X137524035Y-48852171D01*
X137388495Y-48658599D01*
X137221401Y-48491505D01*
X137035839Y-48361573D01*
X136992216Y-48306998D01*
X136985022Y-48237500D01*
X137016545Y-48175145D01*
X137035837Y-48158428D01*
X137221401Y-48028495D01*
X137388495Y-47861401D01*
X137524035Y-47667830D01*
X137623903Y-47453663D01*
X137685063Y-47225408D01*
X137705659Y-46990000D01*
X137685063Y-46754592D01*
X137623903Y-46526337D01*
X137524035Y-46312171D01*
X137388495Y-46118599D01*
X137221401Y-45951505D01*
X137035839Y-45821573D01*
X136992216Y-45766998D01*
X136985022Y-45697500D01*
X137016545Y-45635145D01*
X137035837Y-45618428D01*
X137221401Y-45488495D01*
X137388495Y-45321401D01*
X137524035Y-45127830D01*
X137623903Y-44913663D01*
X137685063Y-44685408D01*
X137705659Y-44450000D01*
X137685063Y-44214592D01*
X137623903Y-43986337D01*
X137524035Y-43772171D01*
X137388495Y-43578599D01*
X137221401Y-43411505D01*
X137035839Y-43281573D01*
X136992216Y-43226998D01*
X136985022Y-43157500D01*
X137016545Y-43095145D01*
X137035837Y-43078428D01*
X137221401Y-42948495D01*
X137388495Y-42781401D01*
X137524035Y-42587830D01*
X137623903Y-42373663D01*
X137685063Y-42145408D01*
X137705659Y-41910000D01*
X137685063Y-41674592D01*
X137623903Y-41446337D01*
X137524035Y-41232171D01*
X137388495Y-41038599D01*
X137221401Y-40871505D01*
X137035839Y-40741573D01*
X136992216Y-40686998D01*
X136985022Y-40617500D01*
X137016545Y-40555145D01*
X137035837Y-40538428D01*
X137221401Y-40408495D01*
X137388495Y-40241401D01*
X137524035Y-40047830D01*
X137623903Y-39833663D01*
X137685063Y-39605408D01*
X137705659Y-39370000D01*
X137685063Y-39134592D01*
X137623903Y-38906337D01*
X137524035Y-38692171D01*
X137388495Y-38498599D01*
X137221401Y-38331505D01*
X137035402Y-38201267D01*
X136991780Y-38146692D01*
X136984587Y-38077193D01*
X137016109Y-38014839D01*
X137035405Y-37998119D01*
X137221078Y-37868109D01*
X137388106Y-37701081D01*
X137523600Y-37507576D01*
X137623430Y-37293492D01*
X137680636Y-37080000D01*
X136783686Y-37080000D01*
X136809493Y-37039844D01*
X136850000Y-36901889D01*
X136850000Y-36758111D01*
X136809493Y-36620156D01*
X136783686Y-36580000D01*
X137680636Y-36580000D01*
X137680635Y-36579999D01*
X137623430Y-36366507D01*
X137523599Y-36152421D01*
X137388109Y-35958921D01*
X137221081Y-35791893D01*
X137035404Y-35661880D01*
X136991780Y-35607303D01*
X136984587Y-35537804D01*
X137016109Y-35475450D01*
X137035399Y-35458734D01*
X137221401Y-35328495D01*
X137388495Y-35161401D01*
X137524035Y-34967830D01*
X137623903Y-34753663D01*
X137685063Y-34525408D01*
X137705659Y-34290000D01*
X137685063Y-34054592D01*
X137623903Y-33826337D01*
X137524035Y-33612171D01*
X137388495Y-33418599D01*
X137221401Y-33251505D01*
X137035839Y-33121573D01*
X136992215Y-33066997D01*
X136985023Y-32997498D01*
X137016545Y-32935144D01*
X137035831Y-32918432D01*
X137221401Y-32788495D01*
X137388495Y-32621401D01*
X137524035Y-32427830D01*
X137623903Y-32213663D01*
X137685063Y-31985408D01*
X137705659Y-31750000D01*
X137685063Y-31514592D01*
X137623903Y-31286337D01*
X137524035Y-31072171D01*
X137388495Y-30878599D01*
X137221401Y-30711505D01*
X137035839Y-30581573D01*
X136992215Y-30526997D01*
X136985023Y-30457498D01*
X137016545Y-30395144D01*
X137035831Y-30378432D01*
X137221401Y-30248495D01*
X137388495Y-30081401D01*
X137524035Y-29887830D01*
X137623903Y-29673663D01*
X137685063Y-29445408D01*
X137705659Y-29210000D01*
X137685063Y-28974592D01*
X137623903Y-28746337D01*
X137524035Y-28532171D01*
X137388495Y-28338599D01*
X137221401Y-28171505D01*
X137035839Y-28041573D01*
X136992215Y-27986997D01*
X136985023Y-27917498D01*
X137016545Y-27855144D01*
X137035831Y-27838432D01*
X137221401Y-27708495D01*
X137388495Y-27541401D01*
X137524035Y-27347830D01*
X137623903Y-27133663D01*
X137685063Y-26905408D01*
X137705659Y-26670000D01*
X137698743Y-26590957D01*
X137685063Y-26434592D01*
X137677670Y-26407000D01*
X137623903Y-26206337D01*
X137524035Y-25992171D01*
X137388495Y-25798599D01*
X137221401Y-25631505D01*
X137035839Y-25501573D01*
X136992217Y-25446998D01*
X136985024Y-25377499D01*
X137016546Y-25315145D01*
X137035837Y-25298428D01*
X137221401Y-25168495D01*
X137388495Y-25001401D01*
X137524035Y-24807830D01*
X137623903Y-24593663D01*
X137685063Y-24365408D01*
X137705659Y-24130000D01*
X137685063Y-23894592D01*
X137623903Y-23666337D01*
X137524035Y-23452171D01*
X137388495Y-23258599D01*
X137221401Y-23091505D01*
X137035402Y-22961267D01*
X136991780Y-22906692D01*
X136984587Y-22837193D01*
X137016109Y-22774839D01*
X137035405Y-22758119D01*
X137221078Y-22628109D01*
X137388106Y-22461081D01*
X137523600Y-22267576D01*
X137623430Y-22053492D01*
X137680636Y-21840000D01*
X136783686Y-21840000D01*
X136809493Y-21799844D01*
X136850000Y-21661889D01*
X136850000Y-21518111D01*
X136809493Y-21380156D01*
X136783686Y-21340000D01*
X137680636Y-21340000D01*
X137680635Y-21339999D01*
X137623430Y-21126507D01*
X137523599Y-20912421D01*
X137388109Y-20718921D01*
X137221081Y-20551893D01*
X137027576Y-20416399D01*
X136813492Y-20316569D01*
X136600000Y-20259364D01*
X136600000Y-21154498D01*
X136492315Y-21105320D01*
X136385763Y-21090000D01*
X136314237Y-21090000D01*
X136207685Y-21105320D01*
X136100000Y-21154498D01*
X136100000Y-20259364D01*
X136099999Y-20259364D01*
X135886507Y-20316569D01*
X135672421Y-20416400D01*
X135478921Y-20551890D01*
X135311890Y-20718921D01*
X135176400Y-20912421D01*
X135076569Y-21126507D01*
X135019364Y-21339999D01*
X135019364Y-21340000D01*
X135916314Y-21340000D01*
X135890507Y-21380156D01*
X135850000Y-21518111D01*
X135850000Y-21661889D01*
X135890507Y-21799844D01*
X135916314Y-21840000D01*
X135019364Y-21840000D01*
X135076569Y-22053492D01*
X135176399Y-22267576D01*
X135311893Y-22461081D01*
X135478918Y-22628106D01*
X135664595Y-22758119D01*
X135708219Y-22812696D01*
X135715412Y-22882195D01*
X135683890Y-22944549D01*
X135664595Y-22961269D01*
X135531189Y-23054681D01*
X135486950Y-23085658D01*
X135478595Y-23091508D01*
X135311505Y-23258598D01*
X135175965Y-23452170D01*
X135076097Y-23666336D01*
X135014936Y-23894592D01*
X134994340Y-24129999D01*
X135014936Y-24365407D01*
X135041224Y-24463514D01*
X135076097Y-24593663D01*
X135175965Y-24807830D01*
X135311505Y-25001401D01*
X135478599Y-25168495D01*
X135664160Y-25298426D01*
X135707783Y-25353002D01*
X135714976Y-25422501D01*
X135683454Y-25484855D01*
X135664158Y-25501575D01*
X135573786Y-25564855D01*
X135478595Y-25631508D01*
X135311505Y-25798598D01*
X135175965Y-25992170D01*
X135076097Y-26206336D01*
X135014936Y-26434592D01*
X134994340Y-26670000D01*
X135014936Y-26905407D01*
X135049742Y-27035304D01*
X135076097Y-27133663D01*
X135175965Y-27347830D01*
X135311505Y-27541401D01*
X135478599Y-27708495D01*
X135664160Y-27838426D01*
X135707783Y-27893002D01*
X135714976Y-27962501D01*
X135683454Y-28024855D01*
X135664160Y-28041574D01*
X135573786Y-28104855D01*
X135478595Y-28171508D01*
X135311505Y-28338598D01*
X135175965Y-28532170D01*
X135076097Y-28746336D01*
X135014936Y-28974592D01*
X134994340Y-29209999D01*
X135014936Y-29445407D01*
X135059709Y-29612501D01*
X135076097Y-29673663D01*
X135175965Y-29887830D01*
X135311505Y-30081401D01*
X135478599Y-30248495D01*
X135664160Y-30378426D01*
X135707783Y-30433002D01*
X135714976Y-30502501D01*
X135683454Y-30564855D01*
X135664160Y-30581574D01*
X135573786Y-30644855D01*
X135478595Y-30711508D01*
X135311505Y-30878598D01*
X135175965Y-31072170D01*
X135076097Y-31286336D01*
X135014936Y-31514592D01*
X134994340Y-31749999D01*
X135014936Y-31985407D01*
X135059709Y-32152501D01*
X135076097Y-32213663D01*
X135175965Y-32427830D01*
X135311505Y-32621401D01*
X135478599Y-32788495D01*
X135664160Y-32918426D01*
X135707783Y-32973002D01*
X135714976Y-33042501D01*
X135683454Y-33104855D01*
X135664160Y-33121574D01*
X135573786Y-33184855D01*
X135478595Y-33251508D01*
X135311505Y-33418598D01*
X135175965Y-33612170D01*
X135076097Y-33826336D01*
X135014936Y-34054592D01*
X134994340Y-34290000D01*
X135014936Y-34525407D01*
X135047815Y-34648112D01*
X135076097Y-34753663D01*
X135175965Y-34967830D01*
X135311505Y-35161401D01*
X135478599Y-35328495D01*
X135664596Y-35458732D01*
X135708219Y-35513307D01*
X135715412Y-35582806D01*
X135683890Y-35645160D01*
X135664595Y-35661880D01*
X135478919Y-35791892D01*
X135311890Y-35958921D01*
X135176400Y-36152421D01*
X135076569Y-36366507D01*
X135019364Y-36579999D01*
X135019364Y-36580000D01*
X135916314Y-36580000D01*
X135890507Y-36620156D01*
X135850000Y-36758111D01*
X135850000Y-36901889D01*
X135890507Y-37039844D01*
X135916314Y-37080000D01*
X135019364Y-37080000D01*
X135076569Y-37293492D01*
X135176399Y-37507576D01*
X135311893Y-37701081D01*
X135478918Y-37868106D01*
X135664595Y-37998119D01*
X135708219Y-38052696D01*
X135715412Y-38122195D01*
X135683890Y-38184549D01*
X135664595Y-38201269D01*
X135478595Y-38331508D01*
X135311505Y-38498598D01*
X135175965Y-38692170D01*
X135076097Y-38906336D01*
X135014936Y-39134592D01*
X134994340Y-39370000D01*
X135014936Y-39605407D01*
X135039893Y-39698548D01*
X135076097Y-39833663D01*
X135175965Y-40047830D01*
X135311505Y-40241401D01*
X135478599Y-40408495D01*
X135664160Y-40538426D01*
X135707783Y-40593002D01*
X135714976Y-40662501D01*
X135683454Y-40724855D01*
X135664159Y-40741575D01*
X135478595Y-40871508D01*
X135311505Y-41038598D01*
X135175965Y-41232170D01*
X135076097Y-41446336D01*
X135014936Y-41674592D01*
X134994340Y-41909999D01*
X135014936Y-42145407D01*
X135059709Y-42312501D01*
X135076097Y-42373663D01*
X135175965Y-42587830D01*
X135311505Y-42781401D01*
X135478599Y-42948495D01*
X135664160Y-43078426D01*
X135707783Y-43133002D01*
X135714976Y-43202501D01*
X135683454Y-43264855D01*
X135664158Y-43281575D01*
X135535503Y-43371661D01*
X135478595Y-43411508D01*
X135311505Y-43578598D01*
X135175965Y-43772170D01*
X135076097Y-43986336D01*
X135014936Y-44214592D01*
X134994340Y-44450000D01*
X135014936Y-44685407D01*
X135046119Y-44801783D01*
X135076097Y-44913663D01*
X135175965Y-45127830D01*
X135311505Y-45321401D01*
X135478599Y-45488495D01*
X135664160Y-45618426D01*
X135707783Y-45673002D01*
X135714976Y-45742501D01*
X135683454Y-45804855D01*
X135664158Y-45821575D01*
X135573786Y-45884855D01*
X135478595Y-45951508D01*
X135311505Y-46118598D01*
X135175965Y-46312170D01*
X135076097Y-46526336D01*
X135014936Y-46754592D01*
X134994340Y-46989999D01*
X135014936Y-47225407D01*
X135059709Y-47392501D01*
X135076097Y-47453663D01*
X135175965Y-47667830D01*
X135311505Y-47861401D01*
X135478599Y-48028495D01*
X135664160Y-48158426D01*
X135707783Y-48213002D01*
X135714976Y-48282501D01*
X135683454Y-48344855D01*
X135664158Y-48361575D01*
X135573786Y-48424855D01*
X135478595Y-48491508D01*
X135311505Y-48658598D01*
X135175965Y-48852170D01*
X135071512Y-49076169D01*
X135068994Y-49074995D01*
X135041154Y-49120660D01*
X134978303Y-49151182D01*
X134908929Y-49142880D01*
X134855056Y-49098388D01*
X134833789Y-49031834D01*
X134834432Y-49015954D01*
X134847460Y-48892000D01*
X134827674Y-48703744D01*
X134769179Y-48523716D01*
X134769179Y-48523715D01*
X134674533Y-48359783D01*
X134547870Y-48219110D01*
X134394730Y-48107848D01*
X134221802Y-48030855D01*
X134036648Y-47991500D01*
X134036646Y-47991500D01*
X133977452Y-47991500D01*
X133910413Y-47971815D01*
X133889771Y-47955181D01*
X132349257Y-46414667D01*
X132315772Y-46353344D01*
X132320756Y-46283652D01*
X132362628Y-46227719D01*
X132411154Y-46205697D01*
X132460803Y-46195144D01*
X132460804Y-46195143D01*
X132460806Y-46195143D01*
X132633730Y-46118151D01*
X132786870Y-46006889D01*
X132836736Y-45951508D01*
X132913533Y-45866216D01*
X133008179Y-45702284D01*
X133066674Y-45522256D01*
X133086460Y-45334000D01*
X133066674Y-45145744D01*
X133008179Y-44965716D01*
X133008179Y-44965715D01*
X132913533Y-44801783D01*
X132786870Y-44661110D01*
X132633730Y-44549848D01*
X132460802Y-44472855D01*
X132275648Y-44433500D01*
X132275646Y-44433500D01*
X132216452Y-44433500D01*
X132149413Y-44413815D01*
X132128771Y-44397181D01*
X127972802Y-40241211D01*
X127959906Y-40225113D01*
X127908775Y-40177098D01*
X127905978Y-40174387D01*
X127889227Y-40157636D01*
X127886471Y-40154880D01*
X127883290Y-40152412D01*
X127874422Y-40144837D01*
X127842582Y-40114938D01*
X127825024Y-40105285D01*
X127808764Y-40094604D01*
X127792936Y-40082327D01*
X127752851Y-40064980D01*
X127742361Y-40059841D01*
X127704091Y-40038802D01*
X127684691Y-40033821D01*
X127666284Y-40027519D01*
X127647897Y-40019562D01*
X127604758Y-40012729D01*
X127593324Y-40010361D01*
X127551019Y-39999500D01*
X127530984Y-39999500D01*
X127511586Y-39997973D01*
X127504162Y-39996797D01*
X127491805Y-39994840D01*
X127491804Y-39994840D01*
X127458751Y-39997964D01*
X127448325Y-39998950D01*
X127436656Y-39999500D01*
X112664503Y-39999500D01*
X112597464Y-39979815D01*
X112551709Y-39927011D01*
X112541765Y-39857853D01*
X112544728Y-39843407D01*
X112587063Y-39685407D01*
X112589011Y-39663148D01*
X112607659Y-39450000D01*
X112587063Y-39214592D01*
X112544727Y-39056593D01*
X112546391Y-38986743D01*
X112585554Y-38928881D01*
X112649782Y-38901377D01*
X112664503Y-38900500D01*
X130129548Y-38900500D01*
X130196587Y-38920185D01*
X130217229Y-38936819D01*
X131792038Y-40511629D01*
X131825523Y-40572952D01*
X131827678Y-40586348D01*
X131845326Y-40754257D01*
X131903820Y-40934284D01*
X131998466Y-41098216D01*
X132125129Y-41238889D01*
X132278269Y-41350151D01*
X132451197Y-41427144D01*
X132636352Y-41466500D01*
X132636354Y-41466500D01*
X132825648Y-41466500D01*
X132949083Y-41440262D01*
X133010803Y-41427144D01*
X133183730Y-41350151D01*
X133260955Y-41294044D01*
X133336870Y-41238889D01*
X133463533Y-41098216D01*
X133558179Y-40934284D01*
X133558178Y-40934283D01*
X133616674Y-40754256D01*
X133636460Y-40566000D01*
X133616674Y-40377744D01*
X133572373Y-40241401D01*
X133558179Y-40197715D01*
X133463533Y-40033783D01*
X133336871Y-39893112D01*
X133326101Y-39885287D01*
X133283436Y-39829956D01*
X133277457Y-39760343D01*
X133310063Y-39698548D01*
X133348550Y-39671690D01*
X133367730Y-39663151D01*
X133520871Y-39551888D01*
X133647533Y-39411216D01*
X133742179Y-39247284D01*
X133800674Y-39067256D01*
X133820460Y-38879000D01*
X133800674Y-38690744D01*
X133742179Y-38510716D01*
X133742179Y-38510715D01*
X133647533Y-38346783D01*
X133520870Y-38206110D01*
X133367730Y-38094848D01*
X133194802Y-38017855D01*
X133009648Y-37978500D01*
X133009646Y-37978500D01*
X132950452Y-37978500D01*
X132883413Y-37958815D01*
X132862771Y-37942181D01*
X131681943Y-36761353D01*
X131648458Y-36700030D01*
X131653442Y-36630338D01*
X131695314Y-36574405D01*
X131760778Y-36549988D01*
X131771822Y-36549692D01*
X133930112Y-36588106D01*
X134036499Y-36590000D01*
X134036500Y-36590000D01*
X134438500Y-35949000D01*
X134438500Y-35948999D01*
X131699500Y-34308000D01*
X130464819Y-35381113D01*
X130401307Y-35410233D01*
X130332133Y-35400394D01*
X130295794Y-35375203D01*
X130081802Y-35161211D01*
X130068906Y-35145113D01*
X130017775Y-35097098D01*
X130014978Y-35094387D01*
X129998227Y-35077636D01*
X129995471Y-35074880D01*
X129992290Y-35072412D01*
X129983422Y-35064837D01*
X129951582Y-35034938D01*
X129934024Y-35025285D01*
X129917764Y-35014604D01*
X129901936Y-35002327D01*
X129861851Y-34984980D01*
X129851361Y-34979841D01*
X129813091Y-34958802D01*
X129793691Y-34953821D01*
X129775284Y-34947519D01*
X129756897Y-34939562D01*
X129713758Y-34932729D01*
X129702324Y-34930361D01*
X129660019Y-34919500D01*
X129639984Y-34919500D01*
X129620586Y-34917973D01*
X129613162Y-34916797D01*
X129600805Y-34914840D01*
X129600804Y-34914840D01*
X129567751Y-34917964D01*
X129557325Y-34918950D01*
X129545656Y-34919500D01*
X112664503Y-34919500D01*
X112597464Y-34899815D01*
X112551709Y-34847011D01*
X112541765Y-34777853D01*
X112544728Y-34763407D01*
X112562303Y-34697812D01*
X112587063Y-34605408D01*
X112607659Y-34370000D01*
X112587063Y-34134592D01*
X112525903Y-33906337D01*
X112426035Y-33692171D01*
X112290495Y-33498599D01*
X112123401Y-33331505D01*
X111937839Y-33201573D01*
X111894216Y-33146998D01*
X111887022Y-33077500D01*
X111918545Y-33015145D01*
X111937837Y-32998428D01*
X112123401Y-32868495D01*
X112290495Y-32701401D01*
X112426035Y-32507830D01*
X112525903Y-32293663D01*
X112587063Y-32065408D01*
X112607659Y-31830000D01*
X112587063Y-31594592D01*
X112525903Y-31366337D01*
X112426035Y-31152171D01*
X112290495Y-30958599D01*
X112123401Y-30791505D01*
X111937839Y-30661573D01*
X111894216Y-30606998D01*
X111887022Y-30537500D01*
X111918545Y-30475145D01*
X111937837Y-30458428D01*
X112123401Y-30328495D01*
X112290495Y-30161401D01*
X112426035Y-29967830D01*
X112525903Y-29753663D01*
X112587063Y-29525408D01*
X112607659Y-29290000D01*
X112587063Y-29054592D01*
X112525903Y-28826337D01*
X112426035Y-28612171D01*
X112290495Y-28418599D01*
X112123401Y-28251505D01*
X111937839Y-28121573D01*
X111894216Y-28066998D01*
X111887022Y-27997500D01*
X111918545Y-27935145D01*
X111937837Y-27918428D01*
X112123401Y-27788495D01*
X112290495Y-27621401D01*
X112426035Y-27427830D01*
X112525903Y-27213663D01*
X112587063Y-26985408D01*
X112607659Y-26750000D01*
X112587063Y-26514592D01*
X112525903Y-26286337D01*
X112426035Y-26072171D01*
X112290495Y-25878599D01*
X112123401Y-25711505D01*
X111937839Y-25581573D01*
X111894217Y-25526998D01*
X111887024Y-25457499D01*
X111918546Y-25395145D01*
X111937837Y-25378428D01*
X112123401Y-25248495D01*
X112290495Y-25081401D01*
X112426035Y-24887830D01*
X112525903Y-24673663D01*
X112587063Y-24445408D01*
X112607659Y-24210000D01*
X112597597Y-24094999D01*
X112587063Y-23974592D01*
X112553808Y-23850482D01*
X112525903Y-23746337D01*
X112426035Y-23532171D01*
X112290495Y-23338599D01*
X112168569Y-23216673D01*
X112135084Y-23155350D01*
X112140068Y-23085658D01*
X112181940Y-23029725D01*
X112212915Y-23012810D01*
X112344331Y-22963796D01*
X112459546Y-22877546D01*
X112545796Y-22762331D01*
X112596091Y-22627483D01*
X112602500Y-22567873D01*
X112602499Y-20772128D01*
X112596091Y-20712517D01*
X112545796Y-20577669D01*
X112459546Y-20462454D01*
X112344331Y-20376204D01*
X112209483Y-20325909D01*
X112149873Y-20319500D01*
X112146550Y-20319500D01*
X110357439Y-20319500D01*
X110357420Y-20319500D01*
X110354128Y-20319501D01*
X110350848Y-20319853D01*
X110350840Y-20319854D01*
X110294515Y-20325909D01*
X110159669Y-20376204D01*
X110044454Y-20462454D01*
X109958204Y-20577668D01*
X109907910Y-20712515D01*
X109907909Y-20712517D01*
X109901500Y-20772127D01*
X109901500Y-20775448D01*
X109901500Y-20775449D01*
X109901500Y-22564560D01*
X109901500Y-22564578D01*
X109901501Y-22567872D01*
X109901853Y-22571152D01*
X109901854Y-22571159D01*
X109907909Y-22627484D01*
X109933056Y-22694906D01*
X109958204Y-22762331D01*
X110044454Y-22877546D01*
X110159669Y-22963796D01*
X110271907Y-23005658D01*
X110291082Y-23012810D01*
X110347016Y-23054681D01*
X110371433Y-23120146D01*
X110356581Y-23188419D01*
X110335431Y-23216673D01*
X110213503Y-23338601D01*
X110077965Y-23532170D01*
X109978097Y-23746336D01*
X109916936Y-23974592D01*
X109896340Y-24209999D01*
X109916936Y-24445407D01*
X109956661Y-24593662D01*
X109978097Y-24673663D01*
X110077965Y-24887830D01*
X110213505Y-25081401D01*
X110380599Y-25248495D01*
X110566160Y-25378426D01*
X110609783Y-25433002D01*
X110616976Y-25502501D01*
X110585454Y-25564855D01*
X110566159Y-25581575D01*
X110380595Y-25711508D01*
X110213505Y-25878598D01*
X110077965Y-26072170D01*
X109978097Y-26286336D01*
X109916936Y-26514592D01*
X109896340Y-26749999D01*
X109916936Y-26985407D01*
X109946167Y-27094498D01*
X109978097Y-27213663D01*
X110077965Y-27427830D01*
X110213505Y-27621401D01*
X110380599Y-27788495D01*
X110566160Y-27918426D01*
X110609783Y-27973002D01*
X110616976Y-28042501D01*
X110585454Y-28104855D01*
X110566159Y-28121575D01*
X110380595Y-28251508D01*
X110213505Y-28418598D01*
X110077965Y-28612170D01*
X109978097Y-28826336D01*
X109916936Y-29054592D01*
X109896340Y-29290000D01*
X109916936Y-29525407D01*
X109956661Y-29673662D01*
X109978097Y-29753663D01*
X110077965Y-29967830D01*
X110213505Y-30161401D01*
X110380599Y-30328495D01*
X110566160Y-30458426D01*
X110609783Y-30513002D01*
X110616976Y-30582501D01*
X110585454Y-30644855D01*
X110566159Y-30661575D01*
X110380595Y-30791508D01*
X110213505Y-30958598D01*
X110077965Y-31152170D01*
X109978097Y-31366336D01*
X109916936Y-31594592D01*
X109896340Y-31830000D01*
X109916936Y-32065407D01*
X109956661Y-32213662D01*
X109978097Y-32293663D01*
X110077965Y-32507830D01*
X110213505Y-32701401D01*
X110380599Y-32868495D01*
X110566160Y-32998426D01*
X110609783Y-33053002D01*
X110616976Y-33122501D01*
X110585454Y-33184855D01*
X110566159Y-33201575D01*
X110380595Y-33331508D01*
X110213505Y-33498598D01*
X110077965Y-33692170D01*
X109978097Y-33906336D01*
X109916936Y-34134592D01*
X109896340Y-34369999D01*
X109916936Y-34605407D01*
X109959272Y-34763407D01*
X109957609Y-34833257D01*
X109918446Y-34891119D01*
X109854218Y-34918623D01*
X109839497Y-34919500D01*
X109239452Y-34919500D01*
X109172413Y-34899815D01*
X109151771Y-34883181D01*
X108750960Y-34482369D01*
X108717475Y-34421046D01*
X108715323Y-34407668D01*
X108697674Y-34239744D01*
X108639179Y-34059716D01*
X108639179Y-34059715D01*
X108544533Y-33895783D01*
X108417870Y-33755110D01*
X108264730Y-33643848D01*
X108091802Y-33566855D01*
X107906648Y-33527500D01*
X107906646Y-33527500D01*
X107717354Y-33527500D01*
X107717352Y-33527500D01*
X107532197Y-33566855D01*
X107359269Y-33643848D01*
X107206132Y-33755108D01*
X107117385Y-33853672D01*
X107057898Y-33890320D01*
X106999455Y-33891989D01*
X106893649Y-33869500D01*
X106893646Y-33869500D01*
X106704354Y-33869500D01*
X106704352Y-33869500D01*
X106519197Y-33908855D01*
X106346269Y-33985848D01*
X106193129Y-34097110D01*
X106066465Y-34237785D01*
X105996772Y-34358499D01*
X105946206Y-34406715D01*
X105889385Y-34420500D01*
X105713352Y-34420500D01*
X105528197Y-34459855D01*
X105355269Y-34536848D01*
X105202129Y-34648110D01*
X105075466Y-34788783D01*
X104980820Y-34952715D01*
X104967141Y-34994818D01*
X104927704Y-35052493D01*
X104863345Y-35079692D01*
X104849210Y-35080500D01*
X104760352Y-35080500D01*
X104575197Y-35119855D01*
X104402269Y-35196848D01*
X104249129Y-35308110D01*
X104122466Y-35448783D01*
X104027820Y-35612715D01*
X103969326Y-35792742D01*
X103949540Y-35980999D01*
X84582000Y-35980999D01*
X84582000Y-29657000D01*
X85793402Y-29657000D01*
X85813738Y-29850482D01*
X85813739Y-29850485D01*
X85843848Y-29943153D01*
X85845843Y-30012994D01*
X85842099Y-30024803D01*
X85804909Y-30124514D01*
X85804909Y-30124517D01*
X85798500Y-30184127D01*
X85798500Y-30187448D01*
X85798500Y-30187449D01*
X85798500Y-31126560D01*
X85798500Y-31126578D01*
X85798501Y-31129872D01*
X85804909Y-31189483D01*
X85855204Y-31324331D01*
X85941454Y-31439546D01*
X86056669Y-31525796D01*
X86191517Y-31576091D01*
X86251127Y-31582500D01*
X87196872Y-31582499D01*
X87256483Y-31576091D01*
X87391331Y-31525796D01*
X87506546Y-31439546D01*
X87592796Y-31324331D01*
X87643091Y-31189483D01*
X87649500Y-31129873D01*
X87649499Y-30184128D01*
X87643091Y-30124517D01*
X87605899Y-30024802D01*
X87600916Y-29955112D01*
X87604151Y-29943153D01*
X87634262Y-29850482D01*
X87654598Y-29657000D01*
X87634262Y-29463518D01*
X87574144Y-29278492D01*
X87539796Y-29218999D01*
X87523323Y-29151099D01*
X87539797Y-29094998D01*
X87574144Y-29035508D01*
X87574144Y-29035507D01*
X87634262Y-28850482D01*
X87654598Y-28657000D01*
X87634262Y-28463518D01*
X87574144Y-28278492D01*
X87539796Y-28218999D01*
X87523323Y-28151099D01*
X87539797Y-28094998D01*
X87574144Y-28035508D01*
X87605176Y-27940000D01*
X87634262Y-27850482D01*
X87654598Y-27657000D01*
X87634262Y-27463518D01*
X87574144Y-27278492D01*
X87539506Y-27218497D01*
X87523034Y-27150599D01*
X87539508Y-27094498D01*
X87573683Y-27035305D01*
X87615372Y-26907000D01*
X87306559Y-26907000D01*
X87239520Y-26887315D01*
X87233674Y-26883318D01*
X87189300Y-26851078D01*
X87007822Y-26770280D01*
X86963806Y-26732868D01*
X86978898Y-26657000D01*
X86963900Y-26581600D01*
X87005674Y-26544701D01*
X87007822Y-26543720D01*
X87073245Y-26514592D01*
X87189299Y-26462922D01*
X87228292Y-26434592D01*
X87233674Y-26430682D01*
X87299480Y-26407202D01*
X87306559Y-26407000D01*
X87615372Y-26407000D01*
X87615372Y-26406999D01*
X87573685Y-26278698D01*
X87539507Y-26219501D01*
X87523034Y-26151601D01*
X87539508Y-26095499D01*
X87552977Y-26072171D01*
X87574144Y-26035508D01*
X87634262Y-25850482D01*
X87654598Y-25657000D01*
X87634262Y-25463518D01*
X87574144Y-25278492D01*
X87539796Y-25218999D01*
X87523323Y-25151099D01*
X87539797Y-25094998D01*
X87574144Y-25035508D01*
X87585226Y-25001401D01*
X87634262Y-24850482D01*
X87654598Y-24657000D01*
X87634262Y-24463518D01*
X87574144Y-24278492D01*
X87539796Y-24218999D01*
X87523323Y-24151099D01*
X87539797Y-24094998D01*
X87574144Y-24035508D01*
X87574144Y-24035507D01*
X87634262Y-23850482D01*
X87654598Y-23657000D01*
X87634262Y-23463518D01*
X87574144Y-23278492D01*
X87539506Y-23218497D01*
X87523034Y-23150599D01*
X87539508Y-23094498D01*
X87573683Y-23035305D01*
X87615372Y-22907000D01*
X87306559Y-22907000D01*
X87239520Y-22887315D01*
X87233674Y-22883318D01*
X87189300Y-22851078D01*
X87018062Y-22774839D01*
X87011571Y-22771949D01*
X87011570Y-22771948D01*
X87007822Y-22770280D01*
X86963806Y-22732868D01*
X86978898Y-22657000D01*
X86963900Y-22581600D01*
X87005674Y-22544701D01*
X87007822Y-22543720D01*
X87011571Y-22542051D01*
X87189299Y-22462922D01*
X87207133Y-22449964D01*
X87233674Y-22430682D01*
X87299480Y-22407202D01*
X87306559Y-22407000D01*
X87615372Y-22407000D01*
X87615372Y-22406999D01*
X87573685Y-22278698D01*
X87539507Y-22219501D01*
X87523034Y-22151601D01*
X87539508Y-22095499D01*
X87574144Y-22035508D01*
X87611415Y-21920798D01*
X87634262Y-21850482D01*
X87654598Y-21657000D01*
X87634262Y-21463518D01*
X87574144Y-21278492D01*
X87563007Y-21259202D01*
X87476870Y-21110007D01*
X87346691Y-20965429D01*
X87189300Y-20851078D01*
X87011568Y-20771947D01*
X86821276Y-20731500D01*
X86821274Y-20731500D01*
X86626726Y-20731500D01*
X86626724Y-20731500D01*
X86436431Y-20771947D01*
X86258699Y-20851078D01*
X86101308Y-20965429D01*
X85971129Y-21110007D01*
X85873855Y-21278492D01*
X85813739Y-21463514D01*
X85813738Y-21463518D01*
X85793402Y-21657000D01*
X85813738Y-21850482D01*
X85813739Y-21850485D01*
X85873855Y-22035507D01*
X85908492Y-22095500D01*
X85924965Y-22163400D01*
X85908492Y-22219500D01*
X85874315Y-22278695D01*
X85832627Y-22406999D01*
X85832628Y-22407000D01*
X86141441Y-22407000D01*
X86208480Y-22426685D01*
X86214326Y-22430682D01*
X86258699Y-22462921D01*
X86440177Y-22543720D01*
X86484193Y-22581132D01*
X86469102Y-22657000D01*
X86484099Y-22732398D01*
X86442325Y-22769299D01*
X86440177Y-22770280D01*
X86258699Y-22851078D01*
X86214326Y-22883318D01*
X86148520Y-22906798D01*
X86141441Y-22907000D01*
X85832628Y-22907000D01*
X85874315Y-23035304D01*
X85908492Y-23094499D01*
X85924965Y-23162399D01*
X85908492Y-23218498D01*
X85873855Y-23278490D01*
X85813739Y-23463514D01*
X85813738Y-23463518D01*
X85793402Y-23657000D01*
X85813738Y-23850482D01*
X85813739Y-23850485D01*
X85873855Y-24035507D01*
X85908203Y-24094999D01*
X85924676Y-24162899D01*
X85908204Y-24218998D01*
X85873854Y-24278493D01*
X85819622Y-24445408D01*
X85813738Y-24463518D01*
X85793402Y-24657000D01*
X85813738Y-24850482D01*
X85813739Y-24850485D01*
X85873855Y-25035507D01*
X85908203Y-25094999D01*
X85924676Y-25162899D01*
X85908204Y-25218998D01*
X85873854Y-25278493D01*
X85813739Y-25463514D01*
X85813738Y-25463518D01*
X85793402Y-25657000D01*
X85813738Y-25850482D01*
X85813739Y-25850485D01*
X85873855Y-26035507D01*
X85908492Y-26095500D01*
X85924965Y-26163400D01*
X85908492Y-26219500D01*
X85874315Y-26278695D01*
X85832627Y-26406999D01*
X85832628Y-26407000D01*
X86141441Y-26407000D01*
X86208480Y-26426685D01*
X86214326Y-26430682D01*
X86258699Y-26462921D01*
X86440177Y-26543720D01*
X86484193Y-26581132D01*
X86469102Y-26657000D01*
X86484099Y-26732398D01*
X86442325Y-26769299D01*
X86440177Y-26770280D01*
X86258699Y-26851078D01*
X86214326Y-26883318D01*
X86148520Y-26906798D01*
X86141441Y-26907000D01*
X85832628Y-26907000D01*
X85874315Y-27035304D01*
X85908492Y-27094499D01*
X85924965Y-27162399D01*
X85908492Y-27218498D01*
X85873855Y-27278490D01*
X85813739Y-27463514D01*
X85813738Y-27463518D01*
X85793402Y-27657000D01*
X85813738Y-27850482D01*
X85813739Y-27850485D01*
X85873855Y-28035507D01*
X85908203Y-28094999D01*
X85924676Y-28162899D01*
X85908204Y-28218998D01*
X85873854Y-28278493D01*
X85813739Y-28463514D01*
X85813738Y-28463518D01*
X85793402Y-28657000D01*
X85813738Y-28850482D01*
X85813739Y-28850485D01*
X85873855Y-29035507D01*
X85908203Y-29094999D01*
X85924676Y-29162899D01*
X85908204Y-29218998D01*
X85873854Y-29278493D01*
X85819622Y-29445408D01*
X85813738Y-29463518D01*
X85793402Y-29657000D01*
X84582000Y-29657000D01*
X84582000Y-19174000D01*
X84601685Y-19106961D01*
X84654489Y-19061206D01*
X84706000Y-19050000D01*
X139322000Y-19050000D01*
X139389039Y-19069685D01*
G37*
%TD.AperFunction*%
%TD*%
M02*
